<mxfile host="Electron" agent="Mozilla/5.0 (Windows NT 10.0; Win64; x64) AppleWebKit/537.36 (KHTML, like Gecko) draw.io/27.0.9 Chrome/134.0.6998.205 Electron/35.4.0 Safari/537.36" version="27.0.9">
  <diagram name="PÃ¡gina-1" id="B3OvoEhwvykYl7G8xrRZ">
    <mxGraphModel dx="1404" dy="732" grid="1" gridSize="10" guides="1" tooltips="1" connect="1" arrows="1" fold="1" page="1" pageScale="1" pageWidth="827" pageHeight="1169" math="0" shadow="0">
      <root>
        <mxCell id="0" />
        <mxCell id="1" parent="0" />
        <mxCell id="lrteBeRmHfQanQSLyGNW-1" value="" style="shape=image;verticalLabelPosition=bottom;labelBackgroundColor=default;verticalAlign=top;aspect=fixed;imageAspect=0;image=data:image/png,iVBORw0KGgoAAAANSUhEUgAAAusAAAHVCAYAAABIYbV9AAAAAXNSR0IArs4c6QAAAARnQU1BAACxjwv8YQUAAAAJcEhZcwAADsMAAA7DAcdvqGQAAP+lSURBVHhe7N13VFTX+jfw7xTpIGg0IlFQcQzGAkLsnRh+JhZMong1KsbGNcESNbFcFVuIyTXeaHJtsUWJkTfGawVbKCJNFKQJBpEiXZhB6sCc87x/DHWYAqgJJvuzlmvJmTnn7P3sZ++zZ2afGQERERiGYRiGYRiGaXOEqhsYhmEYhmEYhmkb2GSdYRiGYRiGYdooNllnGIZhGIZhmDaKTdYZhmEYhmEYpo1ik3WGYRiGYRiGaaPYZJ1hGIZhGIZh2ig2WWcYhmEYhmGYNopN1hmGYRiGYRimjWKTdYZhGIZhGIZpo9hknWEYhmEYhmHaKDZZZ15efAlS41Ig41UfeDmVpUfjXmal6mYNKpEVdx95GutehvToe2j24Rrii5EWFYKw+Fy0Zvc/QstixTAMwzAvr+c7WVdk4fb/9uPTaaMxcsQIjBg1BQvWrMXaz1bhE3dXjB85EqNn/xeJiprnl4dg8/BX0d7aFfuTOJWDPUd8Jn6e3wcWHR2w0q9I9VEVPDJ/no8+Fh3hsNIPup6tjTzrFo6u/wBOw9YguEr1Ud2Pa8OlBePEN59g6uiRGPXOP7DEwwMeHh7w8FiEee+9jXEf7quP818Oh8zfdsF9cA+84XYQSX+FevJpODh3GIYvOo5cjRNwAOAhiz6JT51tYTt2O0I05A2fdhBzhw3HouO50Ho4FdwjX3zmsRMXws7hXy4S9P/wBB69wK7ZWBVCN49Cn5ErcFFbEJodK4ZhGIb5C6DnrpICPHuSCCDoT6RDRbXbK+jh/1tA/ew/p3B5zabCn8mtk5AE7V6n1SG1G1+A6nu09U1DEgjM6O3vH5FC9fFGqune1jfJUCAgs7e/p0fan6wWlxtBp75aQsM6iUgAkLjXMgpqUD1djzdbZQB90kNE+pOP0tNG2xPpPws2UGBlw41/NXIK+VRC+q+vobDWxO454/Kj6HZKK5KlgdK0uxSTUaG6WQ2OMr4dR/oWs+gXjU8vpbS7MdSsw9XicunHaV3pnYOFRMTRk+tb6UOPI3T/2arVfPJw+vzNIbQ2sG7QUOLyKep2SqN+2/xYMQzDMMzL7fm+sw4AEKBdOzEEjbbJkZdbDpv3vsDnE83qH+vghiN37uBWTBC8R+g12uO5Eg/AhivRCI2Ixi9LbSBSfbwRMQZsuILo0AhE/7IUNtqfrJbw1cGYueZ7HF7hCLHqg814vNlEJmhvoqYJ9ftgzifT8NozHbytE8HcvEEu/anKEPHtJhx78Gxv8RtbO2BgNwPVzWoIYWZqrKPuxrB2GIhmHa5WVTiuh5TB2MwAgBAdnTfixL75eL0VfaA1uMeP0HXVKWwfY9Foe1nEt9h07AEaRrf5sWIYhmGYl5uamd4LUHUbJ07cRbWwM6Z6zoedWLkuNjnEH0HxOZBlJOH3ooafZ5fg/uWD+HLbThy8lIhiAEA50iKuwM/PD37+QUgo5FCWfBHfeX+P6xm1n9MXI9n/ML7ashnb955BdCEPgEP2nSu4Ep4K6ZPfcT9DXn+a4mT4H/4KWzZvx94z0SjkAS77Dq5cCUeq9Al+v5+B+mfzKLz3P+zz3oKtXx+Bf3KJjuUFAh0TKu2P8wXhOL5zJ46HF+g4T1PlcbHI6+eIXrWTrPJMxN7PAw8OstQohEZnoKzmoaq8RISG3EN2w+W/fAkeJaSihOcgTQlHcEQKZI2WQpQjIy4JBVwlsu9FIqmo/sHy7DjcCgzGnfTG8eFlDxERdBMxGcUozM6pOz+gQOGDCATcCMTtVBl0rrhQFCElMgjB0ZmoUH0MAFCO7LhbCAy+g/QSbZErR2ascs03J0tFVGg0MuqDgsTQENxrFBQAikI8iAjAjcDbSK0NCF+A8D3z8OGuSKTFXIV/QDwK6k6rqSwa4leZhdjEhstWNMdGKNCUOfUqs2KR2HCdSFkG4pILwaMKeQmhCE3Mr5sAyzMiceVqOB4Wc3iSeB1+V0KRUlK7IwdpahRuBocjKV913Y26urQitlBApuiB/q+k425dXXkUhO/BvA93ITItBlf9AxBfG9wmsQJQlY+ksEAERqRAqppInBSpUTcRHJ6EJlVgGIZhmDbsxU/WiUPehcP4NVU5LTC1tISpEICwPaw7xWHne+/inUnzsS+2Wvl8Lh2+CwZj9I4cjHcfjPufj8CoZZeQzxuhi0U8vn7/XbwzaQ6+Ofk1poxyxbL1K7HqUCzAZ+HXxcMxwisDI9+zQOC6GRg+ciWuFYvwavdS/LxoMt55ZwrWnS8ED4DP+hWLh4+AV8ZIvGcRiHUzhmPkymsofbU7Sn9ehMnvvIMp686jkAcABR4cdYPjsBUIt3XH/D6h+GRQf3xwIKHBZP55kiNgsxsWrF2LBdM34kYLTqIovo9T357E/SoAfBGiTq7CW5LeGOPlizObZ2Om+0d4f5gdhq7yR9SJpZg0bT6WTB8Ku1GbEVbOITN4LxYOtkbfWXvhs+VtDBoyAW8Ns4Nk/FbcKuaRH34Ey8fZQjLBC/t3foCRw4dh8PwTKORz4L9tEVYdCELs7dNYNVKC0Ruuo5AHqmL3wN3zJ2QqKpF4ZDaGfvAD0hQAuFScnDcU7397D09yQ+HtIsHILWEoV61UjfK4g5jjshCHY7KQcmE9PA88aDSB5XP8sW3RKhwIisXt06swUjIaG64r27vBs1AUdRKr3pKg9xgv+J7ZjNkz3fHR+8NgN3QV/KNOYOmkaZi/ZDqG2o3C5jBlabjUk5g39H18e+8JckO94SIZiS1h5eBl2Sg0tIAJz0NeJoOsuBwKjWUpQK66+LnvR8Cpz/C2bS+M3hKsvKmzhbFpiJdG49Rnb8O212hsCa4E+AJEHl+BcbYSTPQ+hcOLXfDurDl4174/XA+kgANAVWUolpWhGoTqsmLIZE9RyfGALBz/cXfDWt84ZCSfx6pRfeGyNQAFvLpcGIo3p/0TS1sYW4115WXILjSEhQkPXl4GmawY5VVSRKvGCjwKAndgrvu/cT09H7F7p0Di5IlzOcqWl4X/B+5ua+Ebl4Hk86swqq8Ltga0/EUwwzAMw/wpVNfFPDvlWmIxQBDb0ttzJlAvIzFZLfKjJkuoy07RByYCgqgneQZUEhFH+admUGehHo3ZnUYcVdClBZYk0htM2+MVRBVnaU5HIUFgSNbv7aXbd31oxTQ38r75lKRn55GVqB29uS2BFIr7tHOEIQn0BtOORAVRdSx5ObYjQI/G780ijqR0dp4Vidq9SdsSFKS4v5NGGApIb/AOSlRUU6yXI7UDSG/8XsriiLic4zSto5AE7WfQ6VJSluMVIQnaT6QDGZxqrWpw9HjPONLTuCZd2+MKSjs5hyTt25PkwxOa181X36YN/duRuMdbtGDJElqyZAktnDWeelvNov9XVvMcLpu+c9Yno6HrKChHQURyurvRntq1H0afX31M1URUHb2R7PVr20BOoav7UDvL8bTZ/zFVUxklHppGViI9cvS6R9XEUfrusaRn2J+WX80nacJ18r9XQDmnZtO4teGkrAZH6bvHkF47B9oUXUahq/uR/efhVEHKddE+2/dSQjWR4v4XNMTIkbbEVRNRNUWu60cG9psourphJWuUhdCaAT1p/jlpzYZSurjAitrVrlnn8ujU7HG0tvaGCC6ddo/Ro3YO6o7HUfZ3zqRvNJTWBeWQgojkdzeSfbv2NOzzq/RYGRTaaK9PPT0DqJIUdP+LIWTkuIWURY2kdf0MyH5TNFUTEZf9HTkbWNHCyzUZrrUs6uJXSByXQ98765PZjNNURrpj8/ToZDLQsmady/menPXNaMbpmkRQPKSvR+iRmdNyOpcqJyIZ/TK7M+mP/Joe1uZX2Y801cCc3Hxrk0dKl5dIyG5FkLLtiKgsZBXZ6VnSzJ9zidOQC49bFFsddeWy6TtnA7JaeLl+/FCJFZfzE7nZutD36cq+WB3/NY3p0JXmnS0lkl6mJRI7WhFUVwMKWWVHepYz6edcTX2XYRiGYdqOF/vOuqg3pv/nMn478D66qj0TgRr9XYmbF67jCc8jJ2Av1q/dhFOxFaDqeNy+0/A9RRHsp8yGk8Ms7P71Z6wdKULgr5eQwwlgbGoCgeh1rDobhVsRv2KVnZoFt+WB+PVSDjiBMUxNBBC9vgpno24h4tdVUPf0kt/O4UYRD2H7juggBiAwg5mJAPT0JvwCn6o+/TkQwXr2j0iWyZB84kOd6+ZF/WZj9/792L9/Pw75XMHplQPq18ILTWBsJIBej0Fw6iICoAeJrTXE6IZBI6wgBiC2sUZXQTGkUgIghKGhAUSdhmOqsxXEMIKd+xYssifEBQUhjxfC0FAPQjMnOI/qBPO+znAZYIDgs/7IenARu7y94e29Ez4VLvDaOheOhmJYSayR/s0UjJ73Bc4ktIPbhk/QVwyIJB44HuwDT5tMBB7ZiaPhUvDyClSqecuz1H8fjqX2x9hx5jVbDNDDxrL+/oPyQJz1z8KDi7vg7e0N750+qHDxwta5jjCsP0wNIUyMjSDQ64FBTl0gAqAnsYW1GOg2aASslEGBdVcBiqVSEESQeBxHsI8nbDIDcWTnUYRLecgrKtW/O6u1LOri1wFCoSlMTeqXtrQkNuoITU3R4HCAyAQmxiKY2rvApYceAGNIeneDsFiGosadsF7RBRz6ORO2Ax1QuzrcaIgbXCVPcPEnP8jU1uUVmLUotq2oq0qspH6n4K/vAKcuykFG/MZqBBZm4ZirMYouHMLPmbYY6FBXAwxxc4XkyUX85CerOwbDMAzDtFVqp9DPlUCM7jM+xvSetdPHcqSl5qg8qVYp8p+UgocAHYcvxo4vv8KJSCk4vgz/m2ta/zRhe7zaxajBfmXIyysBDx4FublQABB16oth9lbQb/CsOmV5yCvhAb4AubkKACJ06jsM9lbqns3jaUERKgkQ6OlBTwCgdqU5VUFW+FT9hO1PI8aAD+diRN29dwKoLm8WCAVo9CpJIISwyQunBsS98EZvY6BaDjmhvv61+BIUFFZA384Va9atw7raf2tXYEofPXRfcALX9rvBNGgHZgzqg+HLzyKDAyAUoyJmDxZ5HEH2wI/gMd4SQrWF4JCZ9DtkEEGsIWP5kgIUVujDznVN/fnXrcPaFVPQR82NtoKmQYGgcVAgFAJUs0korkDMnkXwOJKNgR95YLylUGO8dJdF3XpzQeMyNTs2GghU273p3yKRACBeYz24vAw8LudRVdVgfbnYBtZWQlTJpHjKQ21dWhrblte1Yaw4FOY/QaWsCNIm+3DIy3iMcr4KjatgDSthFWTSttZ3GYZhGKYpDVOf50xvMObOHYR2APjsMzh6Lk/1GTWM0amjMYTgkBQVVXNjqTpCCBu922yMLl3MIASHlOBApKneXKbKuAu6mAkBLgXBgWk6bmoUokP319BeCBDPgycAqIS8WvkOX9duHV9MEHkZUiIj8bC45dMJ0auW6ESPcP5sROvX1BM1mMhUo7ySR2e7fuiq7l1+oRm6WhohyfcwbkjrN3OpfrgUK0dm/GN0c9+DG0kJuLB+ADL2eWLHdTlKL6/E1PWFmP7dNsxy7Fz3aUCTORcE6PBKB4gr43EnRqVGxIMHIDTrCkujJPgevoH6InBI9buE2Gf7khYApbi8cirWF07Hd9tmwbGz5pLiOZWl+bF5cURde6OXGYeEqDv1a+X5KsirhHhtoAMsn1PiP1tdRXi1uxUM8/xw+kr9ryLwhX444JOCV3v3ghmXgKgGn8zxVXJUCV/DQAfLF9N3GYZhGOY5eiHXKp6vmeaRAtVVPAB9vNqlA4Slcdi/dCvuWVjXPFOg8r6cIUZPmYBXhDxkl3bBO7AQPHhkX96D49FVAGonyzwUNfejKhlhvJsruokAecR/se3XLHAAyu9fgl9CFQBCXZF4DjAaDzfXbhBBjoj/bsOvWcpvsLh/yQ8JVcpJec2TwQEwnjAP03uIQUV5yKsGUPkEhcU8RK+54h9vGTcsSAOEysoqEACqrkJVk5mHtscVuL1lPAYMHYoBzlsRpWmCxytQpSCA41RecMiRdHgLrlVJoA8OPN+gTqiZBVGDd9KJQODBNzgIX5COtNKa/2efx/nYfvBYOr5mOQQBiuoGX6VnjAnzZ6FH2gG4jZ2NrT/44sxxbyz8PBTGPQXI9P0KB+6WAwY2eGf9Rky3MYK+AaH4YSrySjOQ/KgUlZlBuBCWA668GDkxEYivObeSEJ0mz8GkV1JxeOV6XMyoAuTpuBufD06ahfTcYpQbT8D8WT2QdsANY2dvxQ++Z3DceyE+DzVG3Yc6DXDKoDR4QUIAqP7d3pr/8zwH8MV4mJqH0oxkPCqtRGbQBYTlcCgvzkFMRDyEBgbQx1PkZBehICIEsQJdZVGNHwDw4HiqaSdeZ2w4jlOWX9NrOZ4DT/V5D54DpyDwDd5JJ6p5AVr7nKoqVFMVquQ1G9pPwjKP/pCe2Y0jycqvUOFzryEwcwSWLR1V86lV07q0KLa66lpuAAN94GlONooKIhASW64SK6D9xPmY0S0XJ5a8hxX/9cWvPrvwsbsvxMNt0WHSMnj0l+LM7iNQVoFH7rVAZI5YhqWj1H2SxjAMwzBtjOoi9mdS/Zgi/7ePFvQ3IAFAELanAe8to88+X03LFkyjYd2NSSDuRcsCa268KztNM9o3vMGUiBTp9Ms/7clcJCCBQSfqM3gCfbQ3kp5SGSX/spDeaCcgCPSp/8KTFFPY4AYxLp+ubxxDXdoJSNDOgno5jqPpmy5SBqegtGvraIyFkAARdZ30Fd3K4YjLv04bx3ShdgIBtbPoRY7jptOmixlUlXaN1o2xICFAoq6T6KtbOUTEUdHNHfR2d0sa/dlROrp6FHXp7kLbgwpJ7S1qT3+nm/87RJ8MaU9CgATtbGn6175082HNjXu6Hic5RWwYSAYCARk6bKTIJjdIEilSf6NDXu+RRF9AQgt7mrZAeYPpkiUL6MOJb1CHVz4gn8JSSjy/mSZaiUjc833aeSGO0mN+pW1TupNI3JOmef+P7j2KIt9N75CVSEw9pnmTX0oZRW8cSHqWQ2nGwo9p5acf04fT3OhfF9JJQRwV3j1F696yJJHIilw2nKKoJ7URKKPEk5403taC9PXMqPuIxXQsvoyI5HRr/XDqZf8WuX/mRVvXLqbF3jcolyPiss7SssFdyNSiF41euI8CfnQna/OeNOmrMJKp1JeII2nk9+Q+1JoszG3IafIn5LVgKPUYNov+dTSMcjgiKkukk57jydZCn/TMutOIxccovjakDZQmnqfNE61IJO5J7++8QHHpMfTrtinUXSSmntO86X/3HlGU7yZ6x0pE4h7TyNvvAT06u4wGdzEli16jaeG+APrR3ZrMe06ir8JkRIoUOvoPCVl0lJDrrnAqIU1l0RS/Ukq8sJkmdhWR2MaVdlxK1hqb3KSLtMmlC4lE1uS64xzFN/pFLCIqTaQLmydSV5GYbFx30KXkPIo9s56cO4uonWQm7bqcQMk3j9Cy4eYkNHKghYdCKD3lBv132UjqKBRS53Fr6MD/C6PHCiKqTqPzG6aQo8NYmrnon/TRHA/6JiiPOA250PLYplCFlrrKSEEpR/9BEouOJHHdReElTWOlDLcPeY6XUCfT9mTlNIt23cyv65vVaedpwxRHchg7kxb98yOa4/ENBeWp7bkMwzAM0+YIiOrf7/rDVf6KD62mw+dpT6z4LQG7R9X+MBKH4kfRuJehQGc7B7zeufnvgJVlxuDuwzJYSBzQr2vDde3qlCEz5i4elllA4tAPOp8uz0PinUTkCbrgDUc7dH6Bv+MEXooHtx9A2OdN2Jq/kA9ANFAgZpMThp2bjNA72+Cg5l1phmEYhmEY5o/xXCfrTW4sY1rlOTZJK9RP1kPubIMjm6wzDMMwDMP8af7It2yZl4ICRUVPwRUXQsp+6ZFhGIZhGOZP9VzfWW8+DnnhP+G43wPIXxkE1zlT0f8PXerBqCdHyrVj+H/BaShWiGFuMxYz5juj54tc7sMwDMMwDMNo9CdN1hmGYRiGYRiG0YW9nc0wDMMwDMMwbRSbrDMMwzAMwzBMG8Um6wzDMAzDMAzTRrHJOsMwDMMwDMO0UWyyzjAMwzAMwzBtFJusMwzDMAzDMEwbxSbrDMMwDMMwDNNGsck6wzAMwzAMw7RRbLLOMAzDMAzDMG0Um6wzDMMwDMMwTBvFJusMwzAMwzAM00axyTrDMAzDMAzDtFFsss4wDMMwDMMwbRSbrDMMwzAMwzBMG8Um6wzDMAzDMAzTRrHJOsMwDMMwDMO0UWyyzjAMwzAMwzBtFJusMwzDMAzDMEwbxSbrDMMwDMMwDNNGsck6wzAMwzAMw7RRbLL+V8SXIDUuBTK+5u+ydETfy0SlytOYGpwUD+IeoUx1+59NtR2fGY+S1DikPL8DMkwz/QVzr6XjamUW4u7nQXsEypAefQ+ZzT5oA3wx0qJCEBaf2/wy/cHK0qNxr1WVe16eRx5WIivuPvKe5RAM00LPd7LO5+H0x2MxcvR4vD3xHbzjMh6jR47CuLffwTvvuGD86JEYNWk7QqpUd2SeDw6Zv+2C++AeeMPtIJIUAMAj7eBcDBu+CMdzn3F0qUrFhS8/xcqtJ3C7gAe4LERHZ4NTfd5Lg0P6b7swd1APDFjgg/Q2UxF17fhsuMzfsMt9MHq84YaDz+OADNNMf83ca8G4yssQffJTONvaYuz2EGi7/PFpBzF32HAsOp6rY1LfGPfIF5957MSFsHP4l4sE/T88gUd/2HhWhdDNo9Bn5Apc1BYLPg0H5w7D8EXHoe1pL8qz5yEPWfRJfOpsC9uxbB7D/LGe72SdCvFIaotlx/1w1e8y/rfRHnkR99BpwS+4fPkKrv7iDWfKQE5r+gnTDCJ0G++JRWM6gqh2mxA2i39EWOghzOvyLM3No+DcSfym0EPGaU+MGjgC/1j0Gc5kGkGk+tSXhgjW4z/B/FEWQF282gJ17fhsRN3Gw3PRGHRs9gF5FNyJwsM/7ILP/FW1PPf+CM+a3y0YV4XmcJi1ElMlpHOYEdosxo9hoTg0r0vzL858Hn5atRIJb66Gp+dO+P64BkNNFZCrPu9FqYrGeb9qvLdjMyY1jAVfgDtRD+vfzBHaYPGPYQg9NA+6QvYiPHseCmHuMAsrp0qe27j8x3nWfP+ra/vxec5dRgyHeavxXg991QcAAOLOo7D606l4RfUB5jkSwdzcDIKGm4yt4TCwGwwabmsNh1n41/ovceZuLK7tnIVRkz7Hqknmqs96yYhgbGr8vDvCc6CmHZ+RyNwcZs09YFkEvt10DA/YC2vmOWhR7v0Rnkd+t2RcFZrB1Lg5ATCGtcNAdGvWQWtUheN6SBmMzQwACNHReSNO7JuP1/+gd1G4x4/QddUpbB9j0Wh7WcS32HTsARqG2NjaAQNbVLnn69nzUAgzU+PnOi7/IZ5Hvv+VvQTxeb5zFJEELi6vQ6y6vQET53cxzqj+7/LsONwKDMad9JJGH/uVZcQhuZAHqvKQEBqKxPymUdS0b3lmLO7n8QAnQ2pUKKIzalcjVyEvMRQh97KbrunjpEiNuong8CTkq368xcvwMCIIN2MyUFyYjZzmLG4uy0JsSDDC7udDXpWH1LQS8DkxuObvBz//m0iS8QCXjTtX/ODndwXhj8ob7a6pbhopipASGYTg6ExUqD6GSmTFJjb66JGXPURE0E3EZBSjMDun0Xpt9ecWopOlHrJ/LwSv3wWSQY6wf70LTBtlkAKFDyIQcCMQt1NljZfHlGcgLqkAXGU27kUmoUjNK9jmxkdnbigK8SAiADcCbyNVpuZEKgSCmqGXFCi4H47whKZrPhWFDxARcAOBt1PR+JA8ZA8jEHQzBhnFhchulBzlyI67hcDgO0gvaVYr6mhHAOXZiLsViOA76WjeIRUoSolEUHA0MtUcUF29+IJw7Jn3IXZFpiHmqj8C4gvq8oCTpiLqZjDCk/KbfJyvLaea4EvwKCEVJTwHaUo4giNSVOKqvmy1yjPikFTAoTL7HiKTipS51ux255ETcw3+fn7wv5kEZardwRU/P/hdCUd9qpUhIy4ZylRLQGhoIpqmmuYyaqK+fwEoz0Ts/Tzw4CBLjUJodEZdDKvyEhEacg/ZDRNTZwzLkRGXhAKuEtn3IpHUoNNpKoPmNtTStzXSnnst7R+tGdfVtY+2/NYUF7X5pmZc1ZyDQtQOM7pUZsUiseFByzIQl1wIHlXISwhFaGJ+3QRYnhGJK1fD8bCYw5PE6/C7EoqUktodOUhTo3AzOBxJTS5q6nOj5TFWQKbogf6vpONuXV7wKAjfg3kf7kJkWgyu+gcgvqCmPpVZiE1UWeJTlY+ksEAERqRAqppY2q7LzfZ881CopiHV5ZluZciKDUFw2H3ky6uQl5qGEj4HMdf84efnj5tJMvDgkH3nCvz8/HAl/BEazhI05aqq1uS7zmusln1bnkPQkavarrEaaLpOqpnLaYyPxr7853i+k/WW4HPgv20RVh0IQuzt01g1UoLRG66jIC8Sx1eMg61kIrxPHcZil3cxa867sO/vigMptaOthn2fROHkqrcg6T0GXr5nsHn2TLh/9D6G2Q3FKv8onFg6CdPmL8H0oXYYtTmsLvFl4f+Bu9ta+MZlIPn8Kozq64KtATUNVhWLPe6e+ClTgcrEI5g99AP8kNY0ceuVI+GYB96dsxNXEpIQ/M1MOPToi2kHk8B36I7X8n7E4qmLcDhRAYg6oFvnZOyZPQWf+tas/dZQt0ItvbE87iDmuCzE4ZgspFxYD88DD+oGTWn0KXz2ti16jd6C4JoeUhW7B+6ePyFTUYnEI7Mx9IMfkKbQcm5FASKPr8A4Wwkmep/C4cUueHfWHLxr3x+uB1KU5+JScXLeULz/7T08yQ2Ft4sEI7eEoZzPR/iR5RhnK8EEr/3Y+cFIDB82GPNPFDaqAwAIdcSnukB3bnCpJzFv6Pv49t4T5IZ6w0UyElvCGr8QUovycMlzOByGO2NkfxvYTf0WUaUAwCH15DwMff9b3HuSi1BvF0hGboHykFWI3eMOz58yoahMxJHZQ/HBD2lQhtIf2xatwoGgWNw+vQojJaOx4Xqh1kFVcztCOcH034ZFqw4gKPY2Tq8aCcnoDbiuPTFwcI4LFh6OQVbKBaz3PIAHdQfUVC8esuxCGFqYgOflKJPJUFyuACBD+H/c4bbWF3EZyTi/ahT6umxFQM1FWGNONcEhM3gvFg62Rt9Ze+Gz5W0MGjIBbw2zg2T8VtwqVj5HfdkAPj8cR5aPg61kArz278QHI4dj2OD5OH6nJe0uRIfuryHvx8WYuugwlKnWDZ2T92D2lE/hm12NgsjjWDHOFpKJ3jh1eDFc3p2FOe/ao7/rAShTTXMZNdLYv4oQdXIV3pL0xhgvX5zZPBsz3T/C+8PsMHSVP6JOLMWkafOxZPpQ2I3ajLByXTHkkR9+BMvH2UIywQv7d36AkcOHYfD8EyjUVAZeSxtq6tuq9WtIa+61rH/wRa0Z1zW1j4b81hCXglx1+eaO/QFNx9VWjz01eGk0Tn32Nmx7jcaW4EqA1z3uUlUZimVlqAahuqwYMtlTVHI8IAvHf9zdsNY3DhnJ57FqVF+4bA1AAa8+N96cvRX7WhpjTXnBy5BdaAgLEx68vAwyWTHKq6SIPvUZ3rbthdFbgmsmazwKAndgrvu/cT09H7F7p0Di5IlzOcos0Hpdbq7nmIfqacoz1ec1Vp5wDB7vzsHOKwlICv4GMx16oO+0g0jiO6D7a3n4cfFULDqcCAVE6NCtM5L3zMaUT32RzWkZR9QWuoX5/ifMvzTnKrReY9XTcp1UO5erUhufZ+3LLwS9QPKbK0kiNqXpP5epPMJR3qnZNG5tOMlr/k7fPYb02jnQpuhqUjz8mkbomZHT8nOUKici2S80u7M+jfz6ISl07Mtlf0fO+kY0dF0Q5SiISH6XNtq3o/bDPqerj6uJqJqiN9qTfk9PCqgkIullWiKxoxVBFTVlK6OQVXakZzmTfs7lSB66mvrZf07hFcpz5fpsp70J1fVVUVHy2wrq57CGbtVWWR5Kq1/Xp37rIqmaiBSJ22mwQR9afUtZepLfotV9DGnYl7/rrJtaZSG0ZkBPmn9OWrOhlC4usKJ2r6+hMDkREUc53zuTvtkMOl1GRCSn0NX9yP7zcFJWKZd8tu+lhGod51Y8pK9H6JGZ03I6p2wU+mV2Z9If+TU9VBAp7n9BQ4wcaUucMsaR6/qRgf0miq4mIi6ddo/VI8P+y+lqvpQSrvvTvUKuvg4NaI8P6cgNBd3/YggZOW4hZTEiaV0/A7LfFE0aoldXVj2rKbQnspAUVEpxh6aTTTt9ctoaS9WK+/TFECNy3BJHykOuo34G9sqYyENpdT97+lyZHMTl+tD2vQlUzeXRqdnjaG14TR24dNo9Ro/aOdTEQx0d7cjlnaLZ49ZS/SF30xi9duSgsW5lFLJmAPWcf47qjnhxAVm1e53WhMmJtNWLOMr+zpkMrBbS5UrlvtLLS0hit4Lqu0kIrbLTI8uZP1Mupymnap7bhJxCV/ehdpbjabP/Y6qmMko8NI2sRHrk6HVPe8xr6j5Wz5D6L79K+dIEuu5/l8K2t7TdFZS4fTAZ9FlN9am2mvoYDqMvf1cQkYIefj2C9MycaPm5VFKm2mzqrD+SvlYmvNYyNqWjf3HZ9J2zPhkNXUdByoGL7m60p3bth9HnVx8rzxG9kez1e5JnQKXuGBJH6bvHkp5hf1p+NZ+kCdfJ/14B5WgsQ5nGNtTat9XSkXut6B8tHte1to9qfmtvm6b5do8KOdVxVdfY85SOTjYgi1m/KOOrAZfzPTnrm9EM5UF1jrtERFT2I001MCc339qLjpQuL5GQ3YqgunOVhawiOz1LmvlzLnFqc6OQqlsYY615wWXTd84GZLXwMtUMIURcDn3vrE9mM05TGRFxOT+Rm60LfZ+uvBZUx39NYzp0pXlnS3Vel5vn+echEdHTo5PJwGIW/VKhK880KPmNVvRzoDX1kwQKXf066fdbR5HVRKRIpO2DDajP6ls1+SinW6v7kOGwL+l3hfZcVa9l+a79Gqt93xb3U125qukaW/NcVdquk2Ua53Kq8dHVl/8cf9I76+UIPOuPrAcXscvbG97eO+FT4QKvrXPhaAiITExgLDKFvYsLeugBMJagdzchimVFIB37Ck2MYSTQQ49BTugiAqAnga21GOg2CCOsxADEsLHuCkGxFFICii4cws+ZthjoULuOzghD3FwheXIRP/nJILaSwDr9G0wZPQ9fnElAO7cN+KSvpoU+xbi0/yRKhrwNx9qlPqL2aG/S3DBrr5s6pf77cCy1P8aOq107boAeNpYNbvoUwtTUpMEaOzGsJNZI/2YKRs/7AmcS2sFtwyfoK9ZxbpEJTIxFMLV3gYuyUSDp3Q3CYhmKCBBJPHA82AeeNpkIPLITR8Ol4OUVqOQBCA1hqCeEmZMzRnUyR19nFwzo0NyYNKY9N0SQeBxHsI8nbDIDcWTnUYRLecgrKnW+UyKyfBPOgzpABGP0+2gXPh0pQFzwTTwRSOBxPBg+njbIDDyCnUfDIeXlqKjkAbEVJNbp+GbKaMz74gwS2rlhwyd9IS4PxFn/LDy4uAve3t7w3umDChcvbJ3rCA3NqLMdywPPwj/rAS7u8oa3tzd2+lTAxWsr5mpODOw7lor+Y8eh7og9bGBZe0CRlno1UYQLh35Gpu1A1HeTIXBzleDJxZ/gJ9OUUyqHqSOEoaEBRJ2GY6qzFcQwgp37FiyyJ8QFBSFPW8wBCA0NoSc0g5PzKHQy7wtnFwcMXtq6dtdMBBMTY4hM7eHi0gPKVOuNbsJiyJQJr7WMTenoX0ITGBsJoNdjEJyUAxckttYQoxsGjbCCGIDYxhpdBcWQSkl3DHkhDA31IDRzgvOoTjDv6wyXAQYI1lgGzW2otW+royv3WtE/Wjqut6x9tLdN03wbgA5C1XG19WNPQ0JTU5g0XGWhY9xVq+gCDv2cCduBDnXr6Y2GuMFV8gQXf/KDDOpyowPELYxxi/NCaArTBpWT+p2Cv74DnGruNhW/sRqBhVk45mqs87rcLC8gD5toUZ4pFV/aj5MlQ/B2/SQB7dubNHOZg/ZcbR7tx9B+jdW+b4v7qa5c1XSNValRLW3XyebP5Z5PX37empcfzxtfgoLCCujbuWLNunVYV/tv7QpM6SMGBILGN3AIRBAJAOKp5ftCAKGg8Zd9CIRCKG/n5pCX8RjlfBWqGiyiEttYw0pYBZn0KdB9AU5c2w830yDsmDEIfYYvx9kMDeuXuGw8TCuFWK9d625A0VW3JjhkJv0OGUQQa2lJQaOYCNF9wQlc2+8G06AdmDGoD4YvP4uMal3nFqisuRRApGwUZWyFYlTE7MEijyPIHvgRPMZbQtgo6A3+/yxU27dhbgAQiisQs2cRPI5kY+BHHhhvKdT5DQxNCDuhZw9zCDgFqiGEuCIGexZ54Ej2QHzkMR6WtRUTdseCE9ew380UQTtmYFCf4Vh+NgPVJQUorNCHneua+jiuW4e1K6ZAbTPqbEceJQWFqNC3g+uaBm2zbi1WTOmjduDiMpPwuwwQqT8goK1eqrg8ZDwuB19V1WCtoRg21lYQVsmg7CZqckpDN1FL3Atv9DYGquWQk+6yqabTc2l3FXX3MtT+LRJBAIIy1XSXsRGdfVu1fwGCpgMXhNDyjSKNYoimUdJaBj3Nbairb6vQlXt8i/uHmn6vdVxHy9pHa1yUBVLNN9TkR8PtzyUHBap50PTvRuOuGlxeBh6X86hqfFGDtZUQVTIpnvJQX6OWxriFeaGsS+0ZOBTmP0GlrEg5aWtE93W5OZOmF5KHTbQgzwAAHLIfpqFUrId2appAp2bkqk66jqGaBy9s/tWMXIX6a6z6S4v266ReC+Zyz6UvP2fqs/hFE5qhq6URknwP44a0fjOX6odLsZpXIwHPuG8TInTt3QtmXAKi7tSvR+Kr5KgSvoaBDpagzHg87uaOPTeSkHBhPQZk7IPnjuvqvxZLYA6L9sDjqHDN33ErEkNUd8GvR8S1om4CdHilA8SV8bgTo1Ii4jUMaBwy4x+jm/se3EhKwIX1A5CxzxM7ftNv4bkbK728ElPXF2L6d9swy7Fz3QSyxQmuLT46leLyyqlYXzgd322bBcfOrS1FOQqeVKC7/SC8Wn4ZK6euR+H077BtliMaHZLLRPzjbnDfcwNJCRewfkAG9nnuwG/6XWFplATfwzdQH0oOqX6XoD6UutpRCLOuljBK8sXhxo0Dv0uxatfvCTq8gg7iSsTfiVHJVQLPAyjVUi9Voq7o3csMXEIU6rsJjyp5FYSvDYSDJanPqetqe0k9ogY5Wo3ySh6d7fqha0ULyga0ut1FYpGaSQ+heanWwjK2uG83k6YYqvsmEK1lkGtsw5b2bV25JzRraf9ohZa0j9a4NLdArcvBF0HUtTd6mXFIiLpTvy6Yr4K8SojXBjrA8jld9VuaF42J8Gp3Kxjm+eH0laK6rXyhHw74pOBVHdfl5lThD8nDluQZAEAAc+UkAeGaJwlQDk1NLoLgnkeuPssxnmVfNXTmKqm/xqq/tGi/TsqbPZdrO325oebkfKtRdRWqSIEqueq00RgT5s9Cj7QDcBs7G1t/8MWZ495Y+HkojHuKwXMcFMQ3SFYCgcDzPHgd+4LjwddOSOr2BqjBF6MSEcDz4AC0n7QMHv2lOLP7CJKrAIBH7rVAZI5YhqWj9MFl+uKrA3dRDgPYvLMeG6fbwEjfQN37EoCwM/7vvbEwjPgSs5fuw5XIO/jt2FH8llPfKUWdrdBFLwvhV+8iL/8+Lu07hluFChRkPsKTEpH2ujUhRKfJczDplVQcXrkeFzOqAHk67sbng5NmIT23GOUAeI4H1U3eOWT6foUDd8sBAxu8s34jptsYQd/ARPu5eQ6cgsA3mNwQAcTz4HkexQ9TkVeageRHpajMDMKFsBxw5cXIiYlAfKmyERTVujuz9vhUas8NvhgPU/NQmpGMR6WVyAy6gLAcDuXFOYiJiFc5U2NUXgxZTa+tjDuMkw//DxuXD4O4+CFS80qRkfwIpZWZCLoQhhyuHMU5MYiITYbvVwegDOU7WL9xOmyM9GFgMgHzZ/VA2gE3jJ29FT/4nsFx74X4PNQYapuxGe0omDAfs3qk4YDbWMze+gN8zxyH98LPEWrcU+0768JOkzFn0itIPbwS6y9moApypN+NRz4nRVZ6LqS5WuoVXw4DA33gaQ6yiwoQEZKO8cs80F96BruPJCu/BYbPxbXATIxYthSj9DXllNpeUocvSEdaac3/s8/jfGw/eCwdDz1tMY9X7kBQoC6dWtXuInS26gK9rHBcvZuH/PuXsO/YLRQqCpD56AlKKnlwnALEN3jhqEx4Za41o4yN6Ri3wIHnlf2pjnLgqr9EEIHAg294g5yGGCo/UiZAUd3gxZy2Mgg0tCHp7tsqdOVesaCl/QMtHte1t49qfj/ECI1xURaoUb7VaDSu6sxBDhxXM142PkxjPAeeGtRT67hbs6GqCtVUVX+dbT8Jyzz6Q3pmN44oL2rgc68hMHMEli0dBeUXK6vmRktjrGPMLzeAMsTZKCqIQEhsOQAeHE91Od5+4nzM6JaLE0vew4r/+uJXn1342N0X4uG26KDjuozy29g7bxL+sfUKau5HbeKF5CEATtmQ4Hldeaamc0CIzv/3HsYaRuDL2Uux70ok7vx2DEd/y6l/t1jUGVZd9JAVfhV38/Jx/9I+HLtVCEVBJh494TFKR642JWxRvmu9xmodQ1o+/9KZq1ym+mushkuLsZbrpEDjXE4lPsFhuK+1L/9JVBexPx9yehhwjHa814vaCYTUeeyntO9CHEkb3RdSRoknPWm8rQXp65lR9xGL6Vh8GZEsls6sd6bOonYkmbmLLick080jy2i4uZCMHBbSoZAszfuWJtL5zRPJSiSmnu/vpAtx6RTz6zaa0l1E4p7TyPt/9+hRlC9teseKROIeNM3bj1LkRNVp52nDFEdyGDuTFv3zI5rj8Q0F5SkLK7+1nob3sqe33D8jr61rafFib7qh7QYXRTZd3TyZ7DqZkJnNOFrp60ebnQzrbjAlekoh2ydQdzMzsnKYTl8FXKY1jr1pzDwvOnn7iea6acSRNPJ7ch9qTRbmNuQ0+RPyWjCUegybRf86GkYP4y/Q5oldSSS2Idcdlyi5Uk631g+nXvZvkftnXrR17WJa7H2DlFXSdG4ZxZ5ZT86dRdROMpN2XU6g5JtHaNlwcxIaOdDCQyGUmXmWlg3uQqYWvWj0wn0U8KM7WZv3pElf+lPQqXX0lqWIRFYutOFUFD3REj6t8QkI1pEbmZR1dhkN7mJKFr1G08J9AfSjuzWZ95xEX4XJVE9Up+z387T9wzH05uip5P7xMlq0dBtdeFhzuwuXRWeXDaYuphbUa/RC2hfwI7lbm1PPSV9RWP4tWj+8F9m/5U6feW2ltYsXk/eNXFKGMpFOeo4nWwt90jPrTiMWHyOtzaijHXM4orLEk+Q53pYs9PXIrPsIWnwsnrQdkpNG0vfuQ8nawpxsnCbTJ14LaGiPYTTrX0cpLCtTc71kRIqUo/QPiQV1lLjSrvASIqqmtPMbaIqjA42duYj++dEc8vgmiJTdRFtOqVNN0RsHkp7lUJqx8GNa+enH9OE0N/rXhXRSkPaY33p0l06te4ssRSKyctlAp6KeEEdcq9qdnobQ9gndyczMihymf0UBl9eQY+8xNM/rJAUE/z9a79yZRO0kNHPXZUpIvklHlg0nc6EROSw8RCGZ2uOnnqb+VUqJ5zfTRCsRiXu+TzsvxFF6zK+0bUp3Eol70jTv/9G9R1Hku+kdshKJqcc0b/JLKdMSQ44K756idW9ZkkhkRS4bTlFUXafTVAbNbchlaejbX4WRpqpqzT1lMje/f7RmXK/QnEPq81t9XLhCdflGVJqoOq5qy8FcSrq4iVy6iEhk7Uo7zsWr1lCpNJEubJ5IXUVisnHdQZeS83SOu+kpN+i/y0ZSR6GQOo9bQwf+Xxg9VhBRdRqd3zCFHB3G0sxF/6SP5njQN0F5xGnKjVbE+MEjbXmhoJSj/yCJRUeSuO6i8JJSSrywmSZ2FZHYxpV2XEomIqKyRB/yHC+hTqbtycppFu26ma8cP0n7dZnLOkrTupjTK51H0NY4zbf9Pdc8JKKKpIu0yaULiUTW5LrjHMXLtOeZegrKvrqZJtt1IhMzGxq30pf8NjuRYe0NpkT0NGQ7TehuRmZWDjT9qwC6vMaReo+ZR14nb9MTTn2uatPcfP8z5l+ac1X5BRMar7EaaLpOapvLNY5PsZa+rLFRXzgBNXzJwzx/XCK2D3XC6QlBiP7iTbXvgjLM34sCMZucMOzcZITe2QYH1ilagcWQ+burQsj6pbiz8ACW91S37utlwSFx+1A4nZ6AoOgv8Cbry4waL3QZDMMwjDYaPsFmWoDFkPn74VEYehAXO36IuS/1RJ1hmodN1l80xRM8KVagVPZU7Y2ADPP3o0BR0VNwxYWQqv5YHdNMLIbM3xcvjUMMPwleq8bCQvXBl44CT54UQ1Eqw1M2SWA0EHl5eXmpbmSeEy4Lt3z88bizPfqaSpEpeA2ONrXf+Mowf0dypFw7jqv5r2HQGyYoyiB0HdATFuzNsRZgMWT+3gSGXdCzu/lfYFkph6xbPvB/3Bn2fU0hzRTgNXsbmLO3URkVbM06wzAMwzAMw7RR7PUbwzAMwzAMw7RRL2SyXpYejXuZDX6Rqtl4FKdFISQsHrmt2f0PVYb06HtoVTUZhmEYhmEYphme/2SdT8PBucMwfNFx5Lbkawq4R/D9zAM7L4Th3L9cIOn/IU5o/IWvPx+fdhBzhw3HouO5Kt/GIMfNDcPRZ/Rq+Oe3JAAMwzAMwzAM09gLWbNelh6NFKEdBnZT/o6ebjzyTnyAQT9PRNylRTAvvIEdK37Baxu+w/zX2+pdU2VIj06B0G4gGlWzKhRrRqyG/jd+2D6qfYMHGIZhGIZhGKZlXshkveUqcW5ed8yr2ItsXzcYqT78EuFSTuG76GH4ZLoN2urLDIZhGIZhGObl8PyXwQBAZRZiExsuDylDRlwyCnmgKi8BoaGJyK/9PlF5BiKvXEX4w2JwTxJx3e8KQlNK6vbkpKmIuhmM8KR8qH6dcHlGHJIKOFRm30NkUhE4AOWZsbifxwOcDKlRoYjOKKt5dhXyEkMRci8bqsvMFYUPEBFwA4G3UyFrsvKmCvlJYQgMjECKtPGDlVmxSFRd69NxCEZ0ycBtNeUty4hDsjIISAgNRWJdEJRKUu8gPpd90SrDMAzDMAyj9Hwn67wU0ac+w9u2vTB6SzAqwaMg8jhWjLOFZKI3Th1eDJd3Z2HOu/bo73oAKRwAqkJZsQxl1QBVl6FYJsPTSg48ZAj/jzvc1voiLiMZ51eNQl+XrQgo4MHnh+PI8nGwlUyA1/6d+GDkcAx9cxr+ufQtSHqPgZfvGWyePRPuH72PYXZDsco/CieWTsK0+UswfagdRm0OQzkAgEPqyXkY+v63uPckF6HeLpCM3IIw5YPgCwKxY647/n09HfmxezFF4gTPczlQSKNx6rO3YdtrNLYE1079tZS3IBLHV4yDrWQivE8dxmKXdzFrzruw7++KAyk1LwCqgvCvt4di8JwDNcdjGIZhGIZh/vboeeNy6HtnfTKbcZrKiIhIQQ+/HkF6Zk60/FwqyYlI9sts6qw/kr5+qKjZqYx+nGpA5m6+NfsQSS8vIYndCgqqqH1KCK2y0yPLmT9TLkfEpe+msXqG1H/5VcqXJtB1/3tU8Pg7ctY3oqHrgihHQUTyu7TRvh21H/Y5XX1cTUTVFL3RnvR7elJAJREp7tMXQ4zIcUscVRNRdeQ66mdgT5uiq4m4HPrJzZZcvk8njoioOp6+HtOBus47S6VExOV8T876ZjTjtLLEusqrePg1jdAzI6fl5yhVGQSa3VmfRn79kJRRKKW4/7eb9v+WVXMAhmEYhmEY5u/u+b6zDgBCU5iaCBpsEMHExBgiU3u4uPSAHgBjSW90ExZDVqRpuXwRLhz6GZm2A+FQe/Om0RC4uUrw5OJP8JMBQkND6AnN4OQ8Cp3M+8LZZQBeMTOGkUAPPQY5oYsIgJ4EttZioNsgjLASAxDDxrorBMVSSAmASAKP48Hw8bRBZuAR7DwaDikvR0UlD0j9cMpfHw5OXZQfP4jfwOrAQmQdc4UxAKGpKeqrqbu8IhMTGItMYe/igh7KIKB3NyGKZUVQRsEY/T5YgSXjutYelGEYhmEYhvmbe/6TdQggEDScrKPp3yIRBCDwmubqXB4yHpeDr6pqsL5cDBtrKwirZJA+Va4Tb3xUAAKByjYBhALUTIZrtgiFQN09tUKIK2KwZ5EHjmQPxEce42EpVD7GFebjSaUMRVINhRQIUFet5pRXtWwCEUQCgDQGgWEYhmEYhvm7ewGT9edA1BW9e5mBS4jCnZr14wCPKnkVhK8NhIPlcyp26WWsnLoehdO/w7ZZjugsrtlOgOjV7rAyzIPf6Ssoqn0+Xwi/Az5IVr0J9Y8qL8MwDMMwDPO38gJmkTw4nkB87bek8OA4BYhv8E46EUA8+LrnVKGqmlBVJa/5Bpn2mLTMA/2lZ7D7SLLyW1X4XFwLzMSIZUsxSr/mMFCguuGXp3A8eBDqDqucd6Pht1MSEcDz4ADwxQ+RmleKjORHKK3MRNCFMORw5SjOiUFE5ijMn9ENuSeW4L0V/4Xvrz7Y9bE7fMXDYSsCwHPgqfZcusvLcxwUxDd4J51AIPA8r6wzl4Ezqz+A+96ourIyDMMwDMMwf28iLy8vL9WNrVeG+xf/jW8OBiI5rxqGkkEYUBmM3f85guD7+eDa26Jvxzxc3r8fp8KSUERd0c++PVJ+2on/nAjHo8dSVLc3hmmXPujRdyz+r38Zrn37JQ4H3EGkvz8ev7kFe5c5wlgajdPffIsTN5OQLuXR1W4g+rZPx8Vdu/FDYBLyOFP06tsNFbf24/ujN3A/TwFjGzu8VhaMff89jsD7Oagy6oM3x49DD2kATv53N45cL0CfD9+F/o3/ISC7O96bPxHj3nkbvYpv4+KpH/Hz1RSYTtqGXf8cCJPy+7j4729wMDAZedWGkAwajL724zWW1/RpHM7u/g+OBN9HPtcetn07Iu/yfuw/FYakIkLXfk4YZJWLXzZvx1nFKKxw7asaWIZhGIZhGOZvqI38KBLDMAzDMAzDMKpewDIYhmEYhmEYhmGeBzZZZxiGYRiGYZg2ik3WGYZhGIZhGKaNYpN1hmEYhmEYhmmj2GSdYRiGYRiGYdooNllnGIZhGIZhmDaKTdYZhmEYhmEYpo1ik3WGYRiGYRiGaaPYZJ1hGIZhGIZh2ig2WWcYhmEYhmGYNopN1hmGYRiGYRimjWKTdYZhGIZhGIZpo9hknWEYhmEYhmHaKDZZZxiGYRiGYZg2ik3WGYZhGIZhGKaNYpN1hmEYhmEYhmmj2GSdYRiGYRiGYdooNllnGIZhGIZhmDaKTdYZhmEYhmEYpo1ik3WGYRiGYRiGaaPYZJ1hGIZhGIZh2ig2WWcYhmEYhmGYNopN1hmGYRiGYRimjWKTdYZhGIZhGIZpo9hknWEYhmEYhmHaKDZZ/4spS4/GvcxK1c2MKr4EqXEpkPGqD/xJytIRfS8TrOWY1uFRkhqHlDaT0H8fL9eYW4b06Ht4aYrL6NCyfl+ZFYf7ec17bnO1+fz/i1xb2WS9AT4nHKe/XYH3xozEyFGTsfTfJ3Eznat5VI6U345g+8L/wyjn2fjXoRtIkasc4M/Gp+Hg3GEYvug4cp9vf/wL4ZD52y64D+6BN9wOIkmh+vifgUfawbkYNnwRjrOGe+mVJ1/DD17z8fbIERg52hmT338frq7TsWjjYdzKef4Jx2X+hl3ug9HjDTccbBsJ/ffxko25fNpBzB02HIuO5+IlKC6jRUv6PS+LxslPnWFrOxbbQ6pUH269Np//f6FrKzGNKRJo+5vtSCz5lELkqg8SVVxcSIMWXqQy1QfaiNK0uxSTUaG6+eXH5VPU7RRSqG5vFTmFfCoh/dfXUJiaNv5TlKbR3ZgM+gu2XNvyXPNIi9IzNPsVEXWYfYYqiKji0XlaNsiY9Lp/QMdSnv/Z5SGfkkT/dVrTZhL67+PlGnNLKe1uDL00xX1pcZQfdZteQFdvpCX9nsv4lsbpW9CsX55v47et/FcT97/ItZW9s65K8Ao6WgggMDWHuZroCNtb4LVXOkKs+kAbYWztgIHdDFQ3v/TKIr7FpmMPoP39g+YSwdzcDALVzX8mY2s4DOyGv17LtS3PN4+0EJujvYkAqMkyA5vJ2LHxPVg8Pout34aoPvuZiczNYdamEvrv4+Uac41h7TAQL01xX1ZlEfh20zE8eMEDTUv6vdDMFMbNfG5LtKn8Vxf3v8i1Vc109CVQmYbAY1/Dy2snjvyWinLVx/9QZciIS0YhD1TlJSA0NBH5zeig5dlxuBUYjDvpJU0/jizLQmxIMMLu50NelYfUtBLwOTG45u8HP/+bSJLxAJeNO1f84Od3BeGPGkSgMguxiQ0+4uRL8CghFSU8B2lKOIIjUiCrXdlTh4M0NQo3g8ORlN+8j8iq8pMQFhiIiBQpmh5OitSomwgOT0KTw5VlIC65EDyqkJcQitDE/MYTJ16GhxFBuBmTgeLCbOSU8SgI34N5H+5CZFoMrvoHIL6gpnaKQjyICMCNwNtIbVqpphRFSIkMQnB0JipUHwMAlCM77hYCg+8gvaRJqwAA+KL7CPb3g5+fH/z8Q5BczAMoQcqtK/Dz80dIskz5RG1lK89AXFIBuMps3ItMQhEHAJXIik1s8lEiJ01F1M1ghCflQzWUvOwhIoJuIiajGIXZOShTebyxKuQnhSEwMAIpUtVYaWv/cmTG3kceD3CyVESFRiOj9kRVeUgMDcG97MarAfmSR0hILQHPSZESHoyIFNnzzREAKM9G3K1ABN9JR6Om0rivljzS2O48ZA8jEHQzBhnFhcjO0R5hXQx69ICliEdhXg5yYq7B388P/jeToOzOd3DFzw9+V8LRsDtrLhsAKFCUEomg4Ghkqk1oTfu2Ysxq0i8bPKapLdTmuRoa26wBTecAgKp8JIUFIjAiBU1SW9N+WuqjKHyAiIAbCLyd2mSsLM+IQ1IBh8rse4hMKlLmteqYC+joU83IK74I94P9leOMnz9CkovBAyhJuYUrfn7wD0muud9GgcIHEQi4EYjbqSr9TEP8K7Nikdh0oNHcH7XESh1t1wZt41l5ZqxyPTUnQ2pUKKLrBxrkJYYi5F52o3XHf+o4o6UP8QXh2DPvQ+yKTEPMVX8ExBfU5Yam637LxvJW9nuhoBlvULV8vG+a/5ryuxXHho42bEBz3FWurc2aE2nP1T/DyzdZL4vEFy6OcP7oM2zZshYLJjhhwtZQlKo+74XjURB5HCvG2UIy0RunDi+Gy7uzMOdde/R3PYAUNY0PAOBz4L9tEVYdCELs7dNYNVKC0Ruuo5AHgHIkHPPAu3N24kpCEoK/mQmHHn0x7WAS+A7d8Vrej1g8dREOJyoAUQd065yMPbOn4FPfbHC8FNGnPsPbtr0wekswKsEhM3gvFg62Rt9Ze+Gz5W0MGjIBbw2zg2T8VtwqrimPLBz/cXfDWt84ZCSfx6pRfeGyNQB18xhVfAECd8yF+7+vIz0/FnunSODkeQ45Nc+Xhf8H7m5r4RuXgeTzqzCqrwu2BhSA5wsQeXwFxtlKMNH7FA4vdsG7s+bgXfv+cD2Qohxkq2Kxx90TP2UqUJl4BLOHfoAfUp8gu9AQFiY8eHkZZLJilCsALvUk5g19H9/ee4LcUG+4SEZiS5jml23lcQcxx2UhDsdkIeXCengeeNBoYOdz/LFt0SocCIrF7dOrMFIyGhuuFzZ5ISU07gj9pP9iweSp2HHXHF2NhQCM8KpJJHbvioK4g5HmsvH5CD+yHONsJZjgtR87PxiJ4cPexOztB/HZ27boNXoLguvGKhnC/+MOt7W+iMtIxvlVo9DXZSsCahqmKnYP3D1/QqaiEolHZmPoBz8grcmVRokvCMSOue749/V05MfuxRSJEzzP5SjrprH9eRRFncSqtyToPcYLvmc2Y/ZMd3z0/jDYDV0F/6gTWDppGuYvmY6hdqOwOawc4DIRvHchBlv3xay9Ptjy9iAMmfAWhtlJMH7rLdSn3DPkCHjk+G/DolUHEBR7G6dXjYRk9AZcL8jTvi8vU5tHmtu9CrF73OH5UyYUlYk4MnsoPvghrenFvNl45N++izTOCIOGvYkO3V9D3o+LMXXRYSi7czd0Tt6D2VM+hW92TU01lg1AeRwOznHBwsMxyEq5gPWeB/CgQUKr37cAea0Zs9T1yzSFlrbIVZPngzH/RGHj4z5LexfyyjE4cAfmuv8b19PzEbt3CiROnjiXo3xM434a68Mh9eQ8DH3/W9x7kotQbxdIRm6BsuuG48jycbCVTIDX/p34YORwDHtzNrYfbDjm1tDYpwA0N6+Exuion4T/LpiMqTvuwryrMYQAjF41QeTuXYgSd4ARpeLkvKF4/9t7eJIbCm8XCUZuCUO52nFmMNz3B+DUZ2/DttdobKkfaDT3R2hrezW0Xhs0j2d8URROrnoLkt5j4OV7Bptnz4T7R+9jmN1QrPKPwomlkzBt/hJMH2qHUZvDUP5njjOFCh3XfR6y7EIYWpiA5+Uok8lQrBxoNF73WzKWt67fN72ONdWK8b7JnAMa8jsV+S09dg2Nbdig5Erq4l4FafSpBtfWZs6JtOTqn0p1XUzbxlHuD5PIVAAC6v8JjN+m/z7mVJ/cOlwe7Xtbj9o5bqX4atUHieQ319CUtWGkXCGmoIdfjyA9Mydafi6V5EQk+2U2ddYfSV8/VLdYjaO8U7Np3Nrwmv05St89hvTaOdCm6Goq+W0F9XNYQ7dqF8TLQ2n16/rUb10kVRORInE7DTboQ6tv1axPk9+i1X0MadiXvyvX4HI59L2zPpnNOF2zpl5Ooav7UDvL8bTZ/zFVUxklHppGViI9cvS6R9UkpctLJGS3IqhuPVdZyCqy07OkmT/nUtOIcpTzkxvZunxP6RwRUTXFfz2GOnSdR2dLiUh6mZZI7GhFUN3RKGSVHelZzqSfczkixUP6eoQemTktp3OpciKS0S+zO5P+yK/poYJIHrqa+tl/TuEVynPl+mynvQnVRFw2fedsQFYLL1MlEREp6P4XQ8jIcQvFVRNRdSSt62dA9puiSU2TEZWF0JoBPWn+OWnNhlK6uMCK2tWuWefy6NTscbQ2vCauXDrtHqNH7Rw2UbS6A1bH0bY3Dclq/jmSERERR9lHP6Y1fiW6y8al0+6xemTYfzldzZdSwnV/uldYTTnfO5O+2Qw6XdP20stLSGK3gupDGUKr7PTIcubPlMvJKXR1P7L/PFzZblwu+WzfSwnqysrl0E9utuTyfbqyPavj6esxHajrvLNUqrP9Ocr+zpn0jYbSuqAcUhCR/O5Gsm/XnoZ9fpUeVxNRdTRttNennp4ByraRh9LqPu3Icvxm8n9cTVSWSIemWZFIz5G87lU/c45weado9ri1VN9Uu2mMXjty2BRN1Tr2bZJH2tq9LJRW97Onz5XJSFyuD23fm6A+v9SpvEFLbcRkPGwlnTh7lnx2LaQ3O7an12cepLgKIiIFJW4fTAZ9VlN9d15NfQyH0Ze/K7SXrbqMQtYMoJ7zz1FdRl9cQFbtatauat23pWOW5n6ptS3U5nnTEeVZ2lue8xO52brQ98rBiKrjv6YxHbrSvLOlWvcr01AfUtynL4YYkeOWOFJ23XXUz8CeNtUMAlz6bhqrZ0j9l1+lfGkCXfe/R4XVqmOujj4lb0leVVPctjfJ0Go+nVMONMRlH6WP1/hRCREp7n9BQ4wcaYtyoKHIdf3IwL5mzNIQfy7ne3LWN6MZ9QON1v6oqe2b0n5t0D6eEXHZ35GzvhENXRdEOcqBhjbat6P2wz6nq8qBhqI32pN+T08KqPyTxxmd133luGlgtZAuKwcaLdf9suaP5fQs/Z6Inh6lyQba1qy3YrxXnXNozO9WHFtXGzahGnfltsbXVl1zIt25+md5yd5Z55GTnolKaryV5JlIe6zppWgLCQUQCAQACCqnUeI5QFQbNhFMTIwhMrWHi0sP6AEwlvRGN2ExZEXq9i5H4Fl/ZD24iF3e3vD23gmfChd4bZ0LR8NiXNp/EiVD3oajUc3TRe3R3qQFTSQ0halJww+6hDA0NICo03BMdbaCGEawc9+CRfaEuKAg5D25gEM/Z8J2oEPdei6jIW5wlTzBxZ/8ULOgowEp/E75Q9/BCV2EACDGG6sDUZh1DK7GQNGFQ/g50xYDHeqOhiFurpA8uYif/GSAyAQmxiKY2rvApYceAGNIeneDsFiGIgLEVhJYp3+DKaPn4YszCWjntgGf9FV3d4AIEo/jCPbxhE1mII7sPIpwKQ95RaWaV9xAqf8+HEvtj7HjzGu2GKCHjSVEtU8oD8RZ/yw8uLgL3t7e8N7pgwoXL2yd6wjD+sPUE/fFAo+3UH72AHyzeIB7gFMRr2LGeBPdZRMawlBPCDMnZ4zqZI6+zi4Y0EEMU1OTBh9RFuHCoZ+RaTsQ9aEcAjdXCZ5c/Al+MjGsJNZI/2YKRs/7AmcS2sFtwydQGyqpH07568PBqYvyYzTxG1gdWIisY64wLtLV/kKYGBtBoNcDg5y6QARAT2ILazHQbdAIWIkBiG1g3VWAYqlU2V+EhjA0EKHT8KlwthIDRnZw37II9hSHoKA8PHnGHCkPPAv/rAe4uMsb3t7e2OlTARevrZjraKhz3ya0tbvYChLrdHwzZTTmfXEGCe3csOGTvi2+V0XPqi8GWHXAqwPnYN/tdMSfWoR+zVk8qa1spf7YdywV/ceOQ11G97CBZW1Ca9u3xWOW5n6ptS3U5rmasUxHm2k7h9TvFPz1HeCkHIwgfmM1AguzcMzVWOt+muoDkQQex4Ph42mDzMAj2Hk0HFJejopK5agiNDSEntAMTs6j0Mm8L5xdBqCDWGXM1dWnWpRXYvRd4IG3ys/igG8WeHB4cCoCr84YDxMAIokHjgf7wNMmE4FHduJouBS8vAKVvKZxRgihqSkaF1d7f9QYqya0XRt0jWeA0MQYRgI99BjkhC7KgQa2yoEGI5QDDWysu0JQLIWU/uRxpsV9SNt1vwVj+TP1++ZozXivkv8a87vlx9aVm80jVLm26pgT8bpz9c+iZvRsy8SwHeyIznWzLCXhK44Y0kev8cZWM4SRgRBUXoYyNTM/vqQUMDatm+gpJ/b1BCIRBCDw6vosX4KCwgro27lizbp1WFf7b+0KTLHNx8O0Uoj12jVjXZkmtS80tBD3whu9jYFqOcpzM/C4nEdVVYN1YmIbWFsJUSWT4qlq/blC5D+phKyopqM2fhB5GY9Rzleh8eGsYSWsgkz6FDwEaFw8AUQiAUA8CICw+wKcuLYfbqZB2DFjEPoMX46zGeo/mxeKKxCzZxE8jmRj4EceGG8pVFMmAOCQmfQ7ZBBBrCHb+ZICFFbow851TX2brFuHtSumoI+6QRNCWM7wwPumAThwOB5lkT/jYb/ZcKhJQZ1lU9NEAkGD9YRcHjIel4OvqmqwRlMMG2srCKtkkD4Fui84gWv73WAatAMzBvXB8OVnoS5UXGE+nlTKUCRtGh0uT3f7N8kngRDKD7bqNkAoBKjp4euIe70BZcqVI/eZcoRHSUEhKvTt4LqmQf9ZtxYrpvSBWOu+TWltd73uWHDiGva7mSJoxwwM6jMcy89mNF0Tq4NAvyMkb46Gs/NoOPZoX/8CUQdtZbPNScLvMkCkIaG17dtH3LRNtY5ZGvtltY62UJ/nTWlrM23tbYvi/CeolBUpJ2+NaNuvD/TU1ocDIIS4IgZ7FnngSPZAfOQxHpbCxgdvWqXGY67OPoWW5ZXQcgY83jdFwIHDiC+LxM8P+2F2/UCDipg9WORxBNkDP4LHeEs0Km7TwgKChvHWPWZDY6xUaLs26BzPeGW5Gu0kgFCg/Oi8bouOgeaPG2da2Ie0Xff76DV/LM98tn7fHKr10j3eq8w5hJrzu2XH1p2bqtMTTRpdW9VpMCeSK5qRq38S9a3ehpm8sx37lw9GR7FA2cEsHPHx/i/hWvtS85npoUfPbhBkPUByk4XwHNJiH6NDn+7Nvug2IjRDV0sjJPkexg1p/WYu1Q+X4kxg0R54HBWOR2o6KgBAJIZIzYBApGmHGkQNErsa5ZU8Otv1Q7duvdHLjENC1J36m3T5KsirhHhtoAMsVbND9Cq6Wxkiz+80rhTVbuRR6HcAPslA1969YMYlIOpO/ZozvkqOKuFrGOhgqTPZuMx4PO7mjj03kpBwYT0GZOyD547raPp19qW4vHIq1hdOx3fbZsGxc+1IpG6kFKDDKx0grozHnRiVIxEPHoDQrCssjZLge/gG6puFQ6rfJcRq+sDG5G14uEuQcPQbbD1VjDEze9bkREvKpoGoK3r3MgOXEIX6UPKokldB+NpAOFgSMuMfo5v7HtxISsCF9QOQsc8TO643jZTo1e6wMsyD3+krqG+yQvgd8EHKqy1s/xYgajCoVZejku8Mu37d0O2ZckQIs66WMEryxeHGHQh+l2KbrvvVQWu7yzMR/7gb3PfcQFLCBawfkIF9njugJsStJhKL1LyQIBCnvWxxZq+gg7gS8XdiVPoGgee176sxn7VQ3y9/g/5zbAv1tLV3Ajp2t4Jhnh9O1w9G4Av9cMDndxhr3C8WcrX1uQ556WWsnLoehdO/w7ZZjmhd19XRp6ileWWCtz3cIUk4im+2nkLxmJnoWXPxKb28ElPXF2L6d9swy7Fz3bvzzS+uSOeYTZpi1eg4Oq4NKa/qGM+093ptXoZxRut1P1be7LFc0OGP7fetwrU0vzXRnZva21AHDXOirnq6rr3PdNZn8uedubWElpi0KxQPk8MREBCG5NQI7Jlq9RwrooehC5ZghPA69nxxA3l18+AqZAd447Mb/eD+tnHNNh4cpwDxDSbQRMpJIK/uFZgxJsyfhR5pB+A2dja2/uCLM8e9sfDzUBjbdsX/vTcWhhFfYvbSfbgSeQe/HTuK33LqJ+KizlboopeF8Kt3kZd/H5f2HcOtQgUKMh/hSUmlsjw8gVTOzRekI63mhQeffR7nY/vBY+l4GLSfhGUe/SE9sxtHkpX3O/O51xCYOQLLlo6CfqOjAEB7TJw/A91yT2DJeyvwX99f4bPrY7j7ijHcVoT2k5bBo78UZ3YfgfJwPHKvBSJzxDIsHaUP8Bw4BYFvMEFRhosHzwNcpi++OnAX5TCAzTvrsXG6DYz0DSAQGsBAH3iak42iggiExOTiYWoeSjOS8ai0EplBFxCWw6G8OAcxEfGNiwwhOk2eg0mvpOLwyvW4mFEFyNNxNz4fnDQL6bnFKDeegPmzeiDtgBvGzt6KH3zP4Lj3QnweaoyeGt+REMNhwWKMKvwJZ2gyJnWs2cwX6y4bAYrqxqMnz/GgmhcPQHtMWuaB/tIz2H0kWXknOp+La4GZGLFsKUbpc8j0/QoH7pYDBjZ4Z/1GTLcxgr6BmvcP2k/E/BndkHtiCd5b8V/4/uqDXR+7w1c8HLYddLc/x/N1L2qUSDmhrJsRKP/P8w1fMPIoSE+ruembR/b584jt54Gl4w2eOUeMJ8zHrB5pOOA2FrO3/gDfM8fhvfBzhBr3hFjHvlDNo4cjNLe7IBO+Xx2AMsTvYP3G6bAx0oeBAOALr2GL2z+wPaDBlbcJOaqqCdVyuYZ3gETobNUFelnhuHo3D/n3L2HfsVsoVBQg89ETlIg056St5WTMmfQKUg+vxPqLGaiCHOl345HPSZGVnotigeZ9e4pbOmZp7pcm2toC6vO8CR1tpq29O06cjxndcnFiyXtY8V9f/OqzCx+7+0I83BZmWvYTaKgPFT9Eal4pMpIfobQyE0EXwpDDlaM4JwYR8cpsJijQuEoqY66uMZXTnFeaiB0WYPGoQvx0hjC5fqBB8cNU5JVmIPlRKSozg3AhLAdceTFyYiIQX6oh/jwHnpSTOwA6+6Omtm9aXG3Xhg46xjMAHA++ZtJZiwBQg3fSSTnQNPgU4k8aZ3Re94UwUA40yC4qQETIQ4zQdN3vKWj2WC7s9Cz9HgDHgQNp7Odo1Xivkv9a8rulx9bZhk2oxj0W5VC9tippnBPpvPY2OMgfTXURO0NExNGTW9/R4rcGkp39CHJ+ewI5jxlFb835gq5m1N/5IYs9Q+udO5OonYRm7rpMCck36ciy4WQuNCKHhYcoJEvd3QhllHjSk8bbWpC+nhl1H7GYjsXX3OyjyKarmyeTXScTMrMZRyt9/Wizk2HdDaZETylk+wTqbmZGVg7T6auAy7TGsTeNmedFJ2+nU+KFzTSxq4jENq6041JyzU05A0nPcijNWPgxrfz0Y/pwmhv960J6/Y/CVKfR+Q1TyNFhLM1c9E/6aI4HfROUp+bm0lpllOjjSeMlnci0vRU5zdpFN/Prn12ddp42THEkh7EzadE/P6I5Ht9QUB5HRDKKPbOenDuLqJ1kJu26nEDJN4/QsuHmJDRyoIWHQujRzfU0vJc9veX+GXltXUuLF3vTjVyOiBSUcvQfJLHoSBLXXRRewlHW2WU0uIspWfQaTQv3BdCP7tZk3nMSfRVWcydWIxxJI78n96HWZGFuQ06TPyGvBUOpx7BZ9K+jYZTDEVFZIp30HE+2FvqkZ9adRiw+RrXNopmUfl0wibbea3g3kJay3XpEd0+to7csRSSycqENp6LoCUdUmniBNk/sSiKxDbnuuETJlURE1ZR2fgNNcXSgsTMX0T8/mkMe3wRRHkdEJKdb64dTL/u3yP0zL9q6djEt9r6h+eaXskTy8RxPkk6m1N7KiWbtukl1Taal/UsTz9PmiVYkEvek93deoLj0GPp12xTqLhJTz2ne9L97jyjKdxO9YyUicY9p5O2XQvLqaNo4UI8sh86ghR+vpE8//pCmuf2LLqTX37z4LDmSxRGVJZ4kz/G2ZKGvR2bdR9DiY/FU1qx9VfNIS7vLb9H64b3I/i13+sxrK61dvJi8byhvulakfE8TX+1Ck/an1tWpobKk63TEawpZiwUk6jKe1uy/SHHq0vJpCG2f0J3MzKzIYfpXFHB5DTn2HkPzvE7S7Sec5rIRESeNpO/dh5K1hTnZOE2mT7wW0NAew2jWv45SWI7mfVszZslvaeqXGtqCK1Sb5001p800nKPmCGWJPuQ5XkKdTNuTldMs2nUzv27s0rSfxvpwWXR22WDqYmpBvUYvpH0BP5K7tTn1nPQV3Xp0l06te4ssRSKyctlAp6KeEEelasZc7X1KW15pI/11AU3aqrwBrhaXdZaWDe5Cpha9aPTCfRTwoztZm/ekSV/6U5C6+Jcm0oXNE6mrSEw2rjvoknKg0dIftcRKLW3XBi3jWWkind88kaxEYur5/k66EJdOMb9uoyndRSTuOY28/3ePHkX50qZ3rEgk7kHTvP0opezPGmea14cUKUfpHxIL6ihxpV3KgUbDdb9lY3lr+z1VJNHFTS7URSQia9cddC7+qeqhWzHex1KMav5ryO+nLT52Csm1tqF6qnFvem1txpxIW67+iQTU8KUr07Zwidg+1AmnJwQh+os3NdyEpI0CMZucMOzcZITe2QaHlh+AYVpGEYNNTsNwbnIo7mxzaEXOMgzD6MDGGaZVXt450fNbPcK0aZo/+GKYF4FlHMMwLxobZ5jWedkyh03W2zLFEzwpVqBU9rTlN7UAyl86K3oKrrgQ0rbwE1zMX5+iCEVPORQXStvEr74xDPMXxMYZplVe3jmRyMvLy0t1I9MGcFm45eOPx53t0ddUikzBa3C0aclX3siRcu04rua/hkFvmKAog9B1QE9YtOprbBimGeQpuHb8KvJfG4Q3TIqQQV0xoKdF6745iWEYRh02zjCt8nLPidiadYZhGIZhGIZpo9gyGIZhGIZhGIZpo9hknWF0KUtH9L3MBr9o9tdWmRWH+3kv2+03zHP1B+Y8yzcAlVmIu5/3Ut30VpYejXuZWjKEL0FqXApkraoUj5LUOKS0ZudnOi/DtE1sss4wWvFIOzgXw4YvwvHcv/boz8uicfJTZ9jajsX2kJfs7psXrCp0M0b1GYkVF3NfqglV6/wxOc/yDQAvQ/TJT+Fsa4ux20Nenpsl+TQcnDsMwxcdR9MU4ZD52y64D+6BN9wOIqmF347AZf6GXe6D0eMNNxxs0c7Pdl6GacvYZJ1pgEfBnSg8bPhjlH97Qtgs/hFhoYcwr8tfu7sIzR0wa+VUSNhtLCqqEH3eD9Xv7cDmSV3+BoPmH5PzLN8ACM3hMGslpkqo7pc02yS+AHeiHtb/eqjQBot/DEPooXlomiIidBvviUVjOjb4dcrmE3UbD89FY9CxxTs/23kZzfiCO4hiE4M/VZNuxvyNlUXg203H8IC9I9GYsTUcBnaDger2vyChmSmMm/7S9d8b9xiPuq7Cqe1jYKH62F/VH5TzLN8ACM1g2saDUBbxLTYde9DoK4SNrR0wsJumDBHB3NwMra2VyNwcZq3a+dnOy6hThohvN+EYmxj8qdhkvQkeJY8SkFrCg5OmIDw4AikylVeUikI8iAjAjcDbSFV5rDwjDkkFHCqz7yEyqajmnQgFCh9EIOBGIG6nyurfndClPBOx9/PAg4MsNQqh0Rkoq3moKi8RoSH3kN1kySAHaWoUbgaHIylf9UPVMmTEJaOQB6ryEhAamoj8mv7HF4Rjz7wPsSsyDTFX/REQX1Dzcb+WspdnIC6pAFxlNu5FJqFIU8X4HMRc84efnz9uJsnAg0P2nSvw8/PDlfBHKK99XlkG4pILwaMKeQmhCE3Mb9n3y5dnI+5WIILvpKOkyUezZciKDUFw2H3ky6uQl5qGkuaWC5XIik2s/7iXL8GjhFSU8BykKeEIjkiBaopob4cWeOZzlSMjLgkFXCWy70UiSWMj1RAK1F/oOClSo24iODwJTU6hS1kWYkOCEXY/H/KqPKSmlYDPicE1fz/4+d9EkowHuGzcueIHP78rCH9UH3kAKM+Ow63AYNxJL2n2EhRe9hARQTcRk1GMwuycun4DaMkTDfmskCnQo/8rSL+bqib2GjQnlzWVAwBQhfykMAQGRiBFqnrScmTH3UJg8B2kN9qRh+xhBIJuxiCjuBDZOQ1q3eIxSyXna3DSVETdDEZ4Un6LlmwoCh8gIuAGAm+rxFBdvrVi3NN4fKCVsdQ8VtbSdk71MdVECEGTIGgZd3WpykdSWCACI1LQuLpajqkxX3kUhO/BvA93ITItBlf9AxBfUBOnyizEJqosC1MUISUyCMHRmahouF35oObz1zxelBKJoOBoZDbdWTut59XV17TQGEsdY2JLc/iZx3nd+ao514GyjDgkK3dGQmgoEusnBgjfMw8f7opEWsxV+AfEo7b5NcaUl+FhRBBuxmSguDAbDYch7Z7lGq2lPNpoLavmeP0Z2GS9AS4zGHsXDoZ131nY67MFbw8agglvDYOdZDy23ipWPif1JOYNfR/f3nuC3FBvuEhGYktYOfj8cBxZPg62kgnw2r8TH4wcjmGD5+NEfipOzhuK97+9hye5ofB2kWDklrDGSaaKL0LUyVV4S9IbY7x8cWbzbMx0/wjvD7PD0FX+iDqxFJOmzceS6UNhN2ozwmoPJgvHf9zdsNY3DhnJ57FqVF+4bA1AAc+jIPI4VoyzhWSiN04dXgyXd2dhzrv26O96ACkcD1l2IQwtTMDzcpTJZCguVwCchrLz+Qg/shzjbCWY4LUfOz8YieHDBmP+iUKVitQQdkD31/Lw4+KpWHQ4EQqI0KFbZyTvmY0pn/oiu7oAkcdXYJytBBO9T+HwYhe8O2sO3rXvD9cDKWoGdVU8cvy3YdGqAwiKvY3Tq0ZCMnoDrhcqO1h5wjF4vDsHO68kICn4G8x06IG+0w4iiddRLo6HNPoUPnvbFr1Gb0FwJYfM4L1YONgafWfthc+WtzFoyAS8NcwOkvFbUZMiWtqhUaF1eNZz8cgPP4Ll42whmeCF/Ts/wMjhwzB4/gloaCWNZOH/gbvbWvjGZSD5/CqM6uuCrQG1L+a0KUfCMQ+8O2cnriQkIfibmXDo0RfTDiaB79Adr+X9iMVTF+FwogIQdUC3zsnYM3sKPvXNVrY5nwP/bYuw6kAQYm+fxqqREozecB01zapRVeweuHv+hExFJRKPzMbQD35AmgKa86QgV0M+5yP15DwMff9b3HuSi1BvF0hGbqnvb+rwzcllDeWoqRhfEIgdc93x7+vpyI/diykSJ3ieywEPgM/xx7ZFq3AgKBa3T6/CSMlobLiunGTF7nGH50+ZUFQm4sjsofjghzQoWjxmuWN/QMOcr62YDOH/cYfbWl/EZSTj/KpR6OuyFQE6k5prfgxbNe5pP37LY1mAPK1jpfZzqo/pfGgaGtXSNO6qPq8JHgWBOzDX/d+4np6P2L1TIHHyxLkcXvMxdeUrL0N2oSEsTHjw8jLIZMUor5Ii+tRneNu2F0ZvCa67Cbk87iDmuCzE4ZgspFxYD88DD+rHbk3nr328PA4H57hg4eEYZKVcwHrPA3ige+AHdJ1XR1/TTEsstY2JLc7hZx/ntV/ba2qjNtcLoSiIxPEV42ArmQjvU4ex2OVdzJrzLuz7u+JACgdelo1CQwuY8DzkZTLIisuh0BbTqljscffET5kKVCYeweyhH+AH5eCrVeuv0Wh9G2spq6Z46Tjii0VMI/LQ1dSnnSWN3+xPj6uJyhIP0TQrEek5etG9agXd/2IIGTluobhqIqqOpHX9DMh+UzRVExGXvpvG6hlS/+VXKV+aQNf971F+whc0xMiRtih3oMh1/cjAfhNFV6ueWQWXTd8565PR0HUUlKMgIjnd3WhP7doPo8+vPqZqIqqO3kj2+j3JM6CSiKR0eYmE7FYEUUXNIcpCVpGdniXN/DmXOFLQw69HkJ6ZEy0/l0pyIpL9Mps664+krx8qiIij7O+cycBqIV2uVO6vuK+l7Fw67R6rR4b9l9PVfCklXPene4Vcwxo0pkik7YMNqM/qWyQnIiI53VrdhwyHfUm/K4hI8ZC+HqFHZk7L6VyqnIhk9MvszqQ/8mt6qFA9WGNc3imaPW4thSsPTFz6bhqj144cNkVTdclvtKKfA625VVbzbDmFrn6d9Puto8jqZpSLOMr53pn0zWbQ6bLa/ftQO8vxtNn/MVVTGSUemkZWIj1y9LpH1TrboSWe9Vwcpe8eS3qG/Wn51XySJlwn/3uF2svw9ChNNrCgWb/UHFF6mZZI7GhFUN0ZKGSVHelZzqSfc7UeiUp+W0H9HNZQfehDafXr+tRvXSQpQ7+dBhv0odW3ahpOfotW9zGkYV/+TgriKO/UbBq3NrymXThK3z2G9No50CatnUdOoav7kf3n4cqYcLnks30vJVTryBN1+ZyfQF8MMSLHLXHK/ha5jvoZ2Os4v+5c1l6OHPrJzZZcvk9XtlN1PH09pgN1nXeWSrk8OjV7HK2t35F2j9Gjdg6bKLoslFb3s6fPw5XtxOX60Pa9CVRNLR+zCjnVnCeSXl5CErsVVJ8GIbTKTo8sZ/5MWtNAcV97DFXzraXjnrbjtzaW1TrGSm3n1BjTmnio9ZSOTjYgi1m/UIWucVcLLucncrN1oe/TlSerjv+axnToSvPOlmo/po58VbaJAVktvEw1lwYiLoe+d9YnsxmnqYyU+bBmQE+af05a84RSurjAitq9vobC5LrqVEYhawZQz/nnqG7viwvIqt3rtCaspn000XFerX2t4XFUaIulzjGxpTn8zOO8jnzVmutEiodf0wg9M3Jafo6Uzf8Lze6sTyO/fkjK5v+OnA2saGHNxEBbTMtCV1M/+89JOQxxlOuznfYmaIs0ET3jNVpbebSdWa6prDri9Wdh76yrEBoawkDUCcOnOsNKDBjZuWPLIntQXBCC8gSQeBxHsI8nbDIDcWTnUYRLecgrKsHX7KsnNIOT8yh0Mu8LZ5cB6PS6B44H+8DTJhOBR3biaLgUvLwClbpeoglNYGwkgF6PQXDqIgKgB4mtNcTohkEjrCAGILaxRldBMaRSAoou4NDPmbAd6FC3ztRoiBtcJU9w8Sc/yCCCiYkxRKb2cHHpAT0AxpLe6CYshqxI/d04IomWsgsNYagnhJmTM0Z1MkdfZxcM6PAM6SQygYmxCKb2LnDpoQfAGJLe3SAslkFD8eqUB56Ff9YDXNzlDW9vb+z0qYCL11bMdTRE8aX9OFkyBG87GtU8W4T27U1a8JGSEKamJg0+qhfC0NAAok7DMdXZCmIYwc59CxbZE+KCgpD3RFc7tMSznksIQ0M9CM2c4DyqE8z7OsNlQIcW1B0ounAIP2faYqBD3RkwxM0VkicX8ZOfttoU49L+kygZ8jbqQ98e7U2ae/ZyBJ71R9aDi9jl7Q1v753wqXCB19a5cDRUfW5DYlhJrJH+zRSMnvcFziS0g9uGT9BXrD1P1OZzp9fhcTwYPp42yAw8gp1HwyHl5ajQ1Xl15LLWckj9cMpfHw5ONTeyit/A6sBCZB1zhXF5IM76Z+HBxV3w9vaG904fVLh4YetcRxiKrSCxTsc3U0Zj3hdnkNDODRs+6QsxRC0eszoIVXO+CBcO/YxM24GoT4MhcHOV4MnFn6A1DUSSlsWwpeOetuO3Npa6xkpt59QYU9WKaqZ13NVC6ncK/voOcKq541P8xmoEFmbhmKux9mPqyFe1hKYwNanPkFL/fTiW2h9jx9X+yrYBethY1v2qqNbzl/pj37FU9B87DnV797CBZTN+WVLXebX2NS20xVLnmNjSHH7mcV5HvmrNdUBkYgJjkSnsXVygbH4JencTolhWpPamZ20xFVtJYJ3+DaaMnocvziSgndsGfNJXrHqIRp71Gq2tPNpoLKuOeP1ZmhuPvzExer3RG8aohlxOEIorELNnETyOZGPgRx4YbylslNBNlh4KxaiI2YNFHkeQPfAjeIy3hFBdD2hC0GQdo0AoQOOTCSGE8lsEuLwMPC7nUVXVYCGc2AbWVkJUyaR4ygMClQMKRCIIQOA1lUdX2ZtU9lmo1lcAkUgAEK92wKjHo6SgEBX6dnBdsw7r1tX+W4sVU2yR/zANpWI9tHuGsgoEatbVNiTuhTd6GwPVcpTn6m6HZ9Lic2ktuQ4c8jIeo5yvQuNTWMNKWAWZ9KnmjwW5bDxMK4VYr13rSsCXoKCwAvp2rlhT16brsG7tCkzpo23wF6L7ghO4tt8NpkE7MGNQHwxffhYZnLY86QMx1IVKCHFFDPYs8sCR7IH4yGM8LJvVebXlsvZyCArz8aRShiJp0/PwJQUorNCHneuaBvutw9oVU9BHrzsWnLiG/W6mCNoxA4P6DMfysxnggJaPWao5z+Uh43E5+KqqBt+7LoaNtRWEVTJItSZ1S2OoGjvt456243OtjaVY11ip+Zx1z2/0VwvpGnfV4lCY/wSVsiKoqa6OY6rGvDljr6BBjDhkJv0OGUQQa5pRaDk/l5mE32WASOPOmug6r/a+pnkU0RbL5oyJqvHUlcNqtHCc15avunIdqtc3gQjK5ldXOu0x1eu+ACeu7YebaRB2zBiEPsOX42yGtvVMHLKf6RqtvTya2xgQaiirznj9SdSmOEOgBtef6vJK8J3t0K9rBS6vnIr1hdPx3bZZcOxc23Lqklqp9PJKTF1fiOnfbcMsx851yaN5j9YRde2NXmYcEqLu1K8D5KsgrxLitYEOsGxFSz/fsosgFqkZAIiasSZdGyHMulrCKMkXh29I6zdzqfC7FAcTi/bA4yiEP9J0llaWi6jBRLUa5ZU8Otv1Q7duz78d/tBzNSJC1969YMYlIOpO/YpZvkqOKuFrGOhgqXkAEZhDGfpwaA69GCI1LxaJOEBohq6WRkjyPYzGzeqHS7Ha1kByyIx/jG7ue3AjKQEX1g9Axj5P7LherSVPYpve/AkApZexcup6FE7/DttmOaIZ3b0ZtOVrLOjV7rAyzIPf6Ssoqn2ML4TfAR/8btwVlkZJ8D18A/V7ckj1u4RYeSbiH3eD+54bSEq4gPUDMrDPcweuy0tbPGY1IeqK3r3MwCVEoT4NeFTJqyB8bSActCXaC4lhA1qOL2ptLNUmQwNazvk8tG7cFeHV7lYwzPPD6St1tQVf6IcDPskobtUxm0uADq90gLgyHndi5I0fIh68jjoJOryCDuJKxN+JQeO9Cby214E6z6u9r2luZm2xTMGrrR0TdXlB47zQ7BlyvQntMZVnxuNxN3fsuZGEhAvrMSBjHzx3XFdp14YEMH+ma7T28mirHqehrNXPNV7Pj45m/pviC5CeVlrz/2ycPx+Lfh5LMV6vGA9T81CakYxHpZXIDLqAsBwO5cU5iImIBwAQFKiua1AexQ9TkVeageRHpajMDMKFsBxw5cXIiYlAfM0p1OPA8wA1HK1ImaB1KUsEAg+eA9B+EpZ59If0zG4cSVbeKc7nXkNg5ggsWzoK+uDBcQoQ32ByRKQc1HgegBAGBvrA0xxkFxUgIiQGubrKToCivrLaiTrDqosessKv4m5ePu5f2odjtwqhKMjEoyclqOQ5cAoC3+DdHGXxeB0DNmA8YT5m9UjDAbexmL31B/ieOQ7vhZ8j1NgWXf/vPYw1jMCXs5di35VI3PntGI7+llM/EddVLgA8x4NqLjq1+IJ01KfIeZyP7QePpeNhoLMdynF77zxM+sdWXKm5WUmX1p8LtY2kddBqhOPAgWpyAmg/aRk8+ktxZvcRKE/BI/daIDJHLMPSUcozqCXsjP97bywMI77E7KX7cCXyDn47dhS/5dQPyKLOVuiil4Xwq3eRl38fl/Ydw61CBQoyH+FJiQgT5s9Cj7QDcBs7G1t/8MWZ495Y+HkojHtqe3uDQ6bvVzhwtxwwsME76zdiuo0R9A0EWvKkp3LyoJLPfPFDpOaVIiP5EUorMxF0IQw5XDmKc2IQoa3z6shlreVoPxHzZ3RD7okleG/Ff+H7qw92fewOX/Fw2JpNwPxZPZB2wA1jZ2/FD75ncNx7IT4PNUZPQSZ8vzoAZbXfwfqN02FjpA8DaumYpdQ459tj0jIP9Jeewe4jycpvgeFzcS0wEyOWLYW2NNAZQ5V8a+m4p/X4maNaF0ux9rFS6zlr8kJdTDXjwHE1+fEM14z2E+djRrdcnFjyHlb81xe/+uzCx+6+EA/viVJtx3yqPV8hNIDy0pCNooIIhMSWA+DB8VTTTkJ0mjwHk15JxeGV63ExowqQp+NufD44aRbSc6VaryWJhpMxZ9IrSD28EusvZqAKcqTfjUc+J0VWei6KNd5Zq+u8xRBo62uqh2tAcyxt0UHnmNiyHK7V+nFee77CWFuuAzzHQUF8g8kwgWr6pLL5DaCPp8jJLkJBRAgejtAcU0GmL746cBflMIDNO+uxcboNjPQNtHzSJETnZ7xGi1rZxpymsuqI159GdRH731119EYaqGdJQ2cspI9XfkoffziN3P51gdJrbjbMOruMBncxJYteo2nhvgD60d2azHtOoi/9g+jUurfIUiQiK5cNdCrqCXFExGWdpWWDu5CpRS8avXAfBfzoTtbmPWnSV2EkUz15nVJKPL+ZJlqJSNzzfdp5IY7SY36lbVO6k0jck6Z5/4/uPYoi303vkJVITD2meZNfipyoOo3Ob5hCjg5jaeaif9JHczzom6A84ohIFnuG1jt3JlE7Cc3cdZkSkm/SkWXDyVxoRA4LD1FIFkeKlKP0D4kFdZS40q7wEs1l/9Kfgk6to7csRSSycqENp6LoidYbqJSehmynCd3NyMzKgaZ/FUCX1zhS7zHzyOtkAAX/v/Xk3FlE7SQzadflBEq+eYSWDTcnoZEDLTwUQlk6jl+WeJI8x9uShb4emXUfQYuPxStvfCIFZV/dTJPtOpGJmQ2NW+lLfpudyLD25hWt5bpN6fEXaPPEriQS25DrjkuUXFlN0RsHkp7lUJqx8GNa+enH9OE0N/rXhXSquw9WSzsQl0VHp3Uh81c604itcbV7aPAs5+Ko8O4pWveWJYlEVuSy4RRF6WqkiiS6uMmFuohEZO26g87FPyUiouq087RhiiM5jJ1Ji/75Ec3x+IaC8nQci4hIkU1XN08mu04mZGYzjlb6+tFmJ8O6G0yJnlLI9gnU3cyMrBym01cBl2mNY28aM8+LTt5+QkRllHjSk8bbWpC+nhl1H7GYjsXX3oSkiZxurR9OvezfIvfPvGjr2sW02PtG3U2QavOEK6S76vKZy6KzywZTF1ML6jV6Ie0L+JHcrc2p56SvKExj55VR7Bnduay2HLWHKEskH8/xJOlkSu2tnGjWrpuUXxvuskQ66TmebC30Sc+sO41YfIziy5Q3564f3ovs33Knz7y20trFi8n7hvIm45aOWaWJqjlPRFRNaec30BRHBxo7cxH986M55PFNEOlMA20xzFXNt5yWj3sPHmk+vqx1sdQ5VmZmajznrUd31cZUswpKuriJXLqISGTtSjvOxWsed7VeM5TKEn3Ic7yEOpm2JyunWbTrZr6O69A1uqUzXxWUcvQfJLHoSBLXXRReUkqJFzbTxK4iEtu40o5LyUTEkTTye3Ifak0W5jbkNPkT8lowlHoMm0X/OhpGWZmazq+sEyeNpO/dh5K1hTnZOE2mT7wW0NAew2jWv45SWI62CGo/b46uvqaFpliS1jGxNdfusmcY55uRr8oBR22ukyyWzqx3ps6idiSZuYsuJyTTzSPLaLi5kIwcFtKhkCwiRQod/YeELDpKyHVXOJVoGkeJSH5rPQ3vZU9vuX9GXlvX0uLF3nRD6x3o9MzX6CetbGOtZdUUrz+RgIj91ldDiphNcBp2DpND72Cbw5/5Mop5MTgkbh8Kp9MTEBT9Bd5scRMrELPJCcPOTUbonW1obYpUhazH0jsL8cPynqoPNfB8ztVmcInYPtQJpycEIfqLN7W+68EwDPP38Bcb55/Zs16j/5rYMhhNmrdCgfkba22K8IWhOHixIz6cq22i3lhrz8UwDMO8HNg4z2jCJusqFEVFeMoVo1Cq+gthzF+DAk+eFENRKsPTZq8pbUiBoqKn4IoL0aoU4aWIi+ExyWsVxur87fpnPFdbo3iCJ8UKlMqeNn8NPcMwzF/aX2ycf2bPeo3+axJ5eXl5qW78u5KnXMPxq/l4bdAbMCnKAHUdgJ4WzfiyV+YlwSHrlg/8H3eGfV9TSDMFeM3eBubNfskqR8q147ia/xoGvWGCogxC1wE90aIUERiiS8/uMNf50d5zOFdbwmXhlo8/Hne2R19TKTIFr8HRpva7kRmGYf6O/mLj/DN71mv0Xxdbs84wDMMwDMMwbRR7vcIwDMMwDMMwbRSbrDMMwzAMwzBMG8Um621dWTqi72U2+JnvvyMeJalxSJGxe+UZhmEYhvl7YZP1No1H2sG5GDZ8EY7n/j0nqlzmb9jlPhg93nDDwSR2azjDMAzDMH8vbLLepglhs/hHhIUewrwu9U3FF9xB1MMGv1P8FybqNh6ei8agI7sPmmEYhmGYvyE2WW/rjK3hMLAbDOo2lCHi20049uDv8y6zyNwcZgLVrQzDMAzDMH99bLKuRllGHJILeaAqDwmhoUjMbzoxLs+Ow63AYNxJL2nyq2NV+UkICwxERIoUqu9/a9yPl+FhRBBuxmSguDAbOWW1D1QiKzYRuTwAvgDhe+bhw12RSIu5Cv+AeBTwAKBA4YMIBNwIxO1UWeNzlmUgLrkQPKqQlxCK0MR83T9IU56NuFuBCL6TjpKGhWzNsVCF/KQwBAZGIEXaOBqKwgeICLiBwNupkKkGCgoUpUQiKDgamRWqj+naV1XrysDLHiIi6CZiMopRmJ2DuiYBwElTEXUzGOFJ+WC/Y8EwDMMwzIvCJusN8AWROL5iHGwlE+F96jAWu7yLWXPehX1/VxxIqZnJ8Tnw37YIqw4EIfb2aawaKcHoDddRWDOZDtwxF+7/vo70/FjsnSKBk+c55PA69quKxR53T/yUqUBl4hHMHvoBfkirgjT6FD572xa9Rm9BcCXAy7JRaGgBE56HvEwGWXE5FFwqTs4bive/vYcnuaHwdpFg5JYwlPMFiDy+AuNsJZjofQqHF7vg3Vlz8K59f7geSGnyIkKJR47/NixadQBBsbdxetVISEZvwPWCvFYcC+ALArFjrjv+fT0d+bF7MUXiBM9zOeDBIfXkPAx9/1vce5KLUG8XSEZuQVh5zY7lcTg4xwULD8cgK+UC1nsewIO6k+jYV0Vry1AVuwfunj8hU1GJxCOzMfSDH5CmAAAZwv/jDre1vojLSMb5VaPQ12UrApSvmhiGYRiGYZ4vYhpRPPyaRuiZkdPyc5QqJyLZLzS7sz6N/PohKYijvFOzadzacJITERFH6bvHkF47B9oULaecn9zI1uV7SueIiKop/usx1KHrPDpbqm2/apKHrqZ+9p9TeIXysVyf7bQ3oZqIOMr53pn0zWbQ6TJl+bjs78jZwIoWXq5Ulvf+FzTEyJG2xFUTUTVFrutHBvabKLqaiBQP6esRemTmtJzOKStDv8zuTPojv6aHitoa1+PyTtHscWspXFlI4tJ30xi9duSwKZqqW3gs4nLoJzdbcvk+nZThiKevx3SgrvPOUqniPn0xxIgct8RRNRFVR66jfgb2tCm6mojKKGTNAOo5/xxJaw5VenEBWbV7ndaEyYm07qui1WWQU+jqfmT/eTgpmySXfLbvpYRqIunlJSSxW0FBFTXnKAuhVXZ6ZDnzZ8rlGp2dYRiGYRjmmbF31lWITExgLDKFvYsLeugBMJagdzchimVFIJQj8Kw/sh5cxC5vb3h774RPhQu8ts6Fo6EUfqf8oe/gBOW9oGK8sToQhVnH4GqsbT9AbCWBdfo3mDJ6Hr44k4B2bhvwSV8xACFMTU2gbbm2SOKB48E+8LTJROCRnTgaLgUvr0AlD0BkAhNjEUztXeCirAwkvbtBWCxDkZr7NcsDz8I/6wEu7vKGt7c3dvpUwMVrK+Y6Grb4WJD64ZS/Phycuig/vhG/gdWBhcg65gpjkQQex4Ph42mDzMAj2Hk0HFJejopKHij1x75jqeg/dhxqf4zeoIcNLGt/flnbvqpaWwaIYSWxRvo3UzB63hc4k9AObhs+QV9xES4c+hmZtgPhUHsTgdEQuLlK8OTiT/CTNT49wzAMwzDMs2KTdVUCQePJsUAEkQAgngC+BAWFFdC3c8Wadeuwrvbf2hWYYluM/CeVkBVJ0WTuqm2/PmIIuy/AiWv74WYahB0zBqHP8OU4m6Fc9yFQLY8qoRgVMXuwyOMIsgd+BI/xlhDWFUAAQePKQKSsTNMygkdJQSEq9O3guqZBGdetxYopfSBu0bEArjAfTyplKJKqe1QIcUUM9izywJHsgfjIYzwsawrNZSbhdxkgEmtKTc37qmptGQAhui84gWv73WAatAMzBvXB8OVnkVGVh4zH5eCrqhp8770YNtZWEFbJIH2q5gUDwzAMwzDMM9A0I2LUEZqhq6URknwP44a0fjOX6odLCR3R3coQeX6ncaWo9hEehX4H4PO7seb9YhXgMuPxuJs79txIQsKF9RiQsQ+eO65DXv9UjUovr8TU9YWY/t02zHLsDHHNdnXTU+2EMOtqCaMkXxxuXEj4XYptxo2kjYle7Q4rwzz4nb6C+nAUwu+AD5KLL2Pl1PUonP4dts1yROcGhRZ0eAUdxJWIvxOjUn8CzwMo1byvqtaWAeCQGf8Y3dz34EZSAi6sH4CMfZ7YEdARvXuZgUuIwp26NfI8quRVEL42EA6WrDsxDMMwDPN8sdmFCp7joCBe+U46AIBAIPA8Dx7GmDB/FnqkHYDb2NnY+oMvzhz3xsLPQ2HcsyMmzp+BbrknsOS9Ffiv76/w2fUx3H3FGG5rpmU/MbhMX3x14C7KYQCbd9Zj43QbGOkbQACA53gQ8XXfHCM0MIA+niInuwgFEcEIu5+KvNIMJD8qRWVmEC6E5YArL0ZOTATin3LgFAS+wbvfRADxvHLiq8J4wnzM6pGGA25jMXvrD/A9cxzeCz9HqHFPiPmWHQvtJ2L+jG7IPbEE7634L3x/9cGuj93hKx6OnqUPkZpXiozkRyitzETQhTDkcOUozonB7bzxmDPpFaQeXon1FzNQBTnS78Yjn5MiKz0X0lzN+0bElz6XMkTEFyPT9yscuFsOGNjgnfUbMd3GCPoG5pi0zAP9pWew+0iy8ltg+FxcC8zEiGVLMUof4AuvYYvbP7A9oMELHoZhGIZhmNZSXcT+tyaLpTPrnamzqB1JZu6iywnJdPPIMhpuLiQjh4V0KCSLiMoo8aQnjbe1IH09M+o+YjEdi6+5+5PKKNHHk8ZLOpFpeytymrWLbubX3nWoeT/5rfU0vJc9veX+GXltXUuLF3vTjVyOShMv0OaJXUkktiHXHZcouZKIFCl09B8SsugoIddd4VScdZaWDe5Cpha9aPTCfRTwoztZm/ekSV9do1tn1pNzZxG1k8ykXZcTKPnmEVo23JyERg608FAIZam5IbIs8SR5jrclC309Mus+ghYfi6cyklFsK45FZYnk4zmeJJ1Mqb2VE83adZPyOSLisujsssHUxdSCeo1eSPsCfiR3a3PqOekrCpMRcdJI+t59KFlbmJON02T6xGsBDe0xjGb96yiFZWVq3beJVpVBTrfWD6de9m+R+2detHXtYlrsfaPmBtJqSju/gaY4OtDYmYvonx/NIY9vgiivpv6KlO9p4qtdaNL+VJWCMAzDMAzDtJyAiP00JMMwDMMwDMO0RWwZDMMwDMMwDMO0UWyyzjAMwzAMwzBtFJusMwzDMAzDMEwbxSbrDMMw/5+98w6L4tr//5vdpQuCiUREpYhrsIJw7RViuCbW5CpejYoRlWuC3cQSFVuI5me80eTaYosSI994vVawAyLFBtIEg0iRXnaRurAzn98fS112Z2lREuf1PD6P7Mw58zmfenbnnBkeHh4eHp52Cj9Z5+Hh4eHh4eHh4Wmn8JN1Hh4eHh4eHh4ennYKP1lvT1RkIOZJTu0LkIBSpEY+Rnrdu+3fCNjiZMQkSevpgefV8Gb6W2MqkBHzBDm8A/L8wVRkxODJn9rRGEiexuB5qfLnfz3+/LZqGX+KcZemIvJxOrhKV2vmFa1p21bwk/V6sFnhOPP9cnw0ZiRGjpqEJf/vFO6kMtVHZUi6dRTbPf6OUS6z8dXhm0iSKXXQUlgpIk+thIutLcZuD1G8GRMAm3IIc4cNx8IT2a/VSV4ZTDpu7XbHYOu+cDuUALnycZ4/lDfO3xrBQhp5CitdbGE7djtCagKRh6eNYaWROLXSBba2Y7H9lTpaGRID9uOrOe9j5IiRcPnnl/jhfAwkLMCkBuPo14swadRIjBz3MZZ9dwb3OSZpTOot7J47CNYDFsC3tk42h0qEbh6F3iOX41K2+uu8bl6frV4vf55xs0g5NBfDhi/ECVV+1Jp5RWvatjXKb0l645HH0fa/aZNIvJJCZMoHicovedAgj0tU887SNoNJo+/H6ZLprN+ovPbDEkp5FEVpdR+0Cib3Ad1Pkit/3L6QhdBKsS69uyaMVKif5w+lbf3tzwlDad+PI13TWfRbE/Xwp4irNwkmlx7cT6L2bhEm7Xsap2tKs+o72iuSvfzCfHpH2IGmnXzZ8IAslNa8KyKd0bvpuaq3UitRceszstJ1om1xLZBYFk5f/m0IrQ0sVD7S7lBpqzeA9jruRjm3JIUeRaXVmzsp0Zp5RWvatiH8L+vKaL2Nt0y1oGVkAhMV2hF0NEW3t9+CSPlAaxEYw8hQS+lDQ1g6DER3PaWPW0QpIr7fhONPX+t3Q80ITWBirKwHnldDW/rbnxUBjI0M0XQP/JPE1RtEacT32HT86ev9FawJCIyNoJzyX5XsWob60NfSgYGhdsMDgg4wNNSClr4hDFXUP2WEhkZNOk8VzIvn6LrqNLaPMVU+1O5QZas3gfY5bhU519ASDgO7Q23pas28ojVt25AWhtlrpiIFgce/hbf3Thy9lYwy5eOvlFKkxSSigAUqc+IQGhqPXA2ZtjI3AWGBgYhIkqDu5qEAWir8oSIjGvFKt3bKMmNwNzAYD1OLGyxXKE2LQaJCEMSFhiK+RhA2D+F75+GT3feQEnUNAbdjkVfbsAyZMXcRGPwQqcUqbiEBAFgUP49DcjELRpKE8OAIJEkVkrNZUbge4A//gDtIkLIAk4mHV/3h738V4c8bWkad3AAgL0zCvaBgRKaXKx2ppiwTMXcDEfwwFWrFrEa1fhUwkmQ8uBOM8ITc2uVGNZSlRyvW5jFSJD8IRWRazULMSuTEhyLkcWaDNXFs8XPEJReDZSRICg9GRJK04fXK0hCTkAemIhOP7yWgsPqgvOApIm7fROD9ZFSrsV6TGCTkMajIfIx7CYWN5FfAbbPSjGiEBIfhSa4MlTnJSClmkRV1HQH+/gi4kwCFmR7iqr8//K+Go76ZlP1N4xgBgJEg+cEdBIcnIFdZqawUzyKCcCcqDUUFmcjiWNvaXuwmUBWIqvyXK67aSCdc425MJXITwhAYGIEkSSMNQpL8AHeCw5HQSKAypEcr1ugz0mQ8CI1EnQpzEB8agseZDVeDatIhoEEHpWmISSwAi0rkxIUiND638QRVXcyrbcsiL3wv5n2yG/dSonAt4DZiaw2iLmZYSJ9FIOhOFNKKCpCp1hjK5xU3OabUXlugVe9LIZfsXLZTlkud/K1EXoCnEbdxM/A+kusnLa2aMRDkeU8QHh6HbKWFw6pzmhxSuTX6v52KR8kqfEeZ0gxEhwQj7EkuZJU5SE4pbrPaUx+1ubmBrRQ0N+8AchQ8jcDtm4G4r3LMXPGrxoeaMv9QZzu1tqmHinFz9acKtXmdo5/mz2UqkBEdD+VVMJzzCo7rQ1Pb18Cfb7Jeeg9fuzrC5dMvsGXLWiwY74TxW0NRonzeHw6LvHsnsHycLcQTfHD6yCK4fjgLcz60R/+pB5HU2PYAm4fAHXPh/v9uIDU3Gvsmi+HkdR5ZKrIHK4nE6S/eh23P0dgSXB3ybBYCti3EqoNBiL5/BqtGijF6ww3k5dzDieXjYCueAJ/TR7DI9UPMmvMh7PtPxcEkBqw0EwX6pujAspCVSiEtKoMcAJsVgG0LV+FgUDTun1mFkeLR2HCjoEEyY9KDsc9jMCz7zMI+3y14f9AQjH9vGOzEzth6twiCTj3QLednLJqyEEfi5YCwE7qbJWLv7MlY6ZepCE41chewAFCGmENz4OpxBFEZSbi43gsHn9ZXHousgG1YuOoggqLv48yqkRCP3oAbisYN4dSvFOH/dofbWj/EpCXiwqpR6OO6FbfzWLCFD3Bq1XsQ9xoDb7+z2Dx7Jtw//RjD7IZiVcADnFwyEdPmL8b0oXYYtTkMZUw6gvd5YLBlH8za54st7w/CkPHvYZidGM5b76KIzUX40WUYZyvGeO8D2PmPkRg+bDDmn8xF8ql5GPrx93icn41QH1eIR25BWBnA5obj6LJxsBWPh/eBnfjHyOEYNng+ThYoDZHLZmVxOO75IebsvIq4hGB8N9MB1n2m4VACi049uiHn50WYsvAIFGbqDrPEvZg9eSX8MpnG/qZpjNXySMP/DXe3tfCLSUPihVUY1ccVW2/nKeSpjMZedy/8ki5HRfxRzB76D/yUolxJ2pHdlOWqQY3/5hWqjqs20QnHuFXB5gVix1x3/L8bqciN3ofJYid4nc9SXFMajn+7u2GtXwzSEi9g1ag+cN16G3ksi8IHp7DqPTF6jfGG39nNmD3THZ9+PAx2Q1ch4MFJLJk4DfMXT8dQu1HYHFbWer9g83DvxHKMsxVjgs9pHFnkig9nzcGH9v0x9WBSdTFXE/N5OdxtWSkyC/Rh2oEFKyuFVFqEMjlXzFQieq87vH5Jh7wiHkdnD8U/fkpp/KVB5XlpMNYQU9AUr/VRI7t626mTS5X8rYNJPoV5Qz/G94/zkR3qA1fxSGwJqz8ZJuRc9sJwh+FwGdkfVnZT8P2DEvU5LTcZp+YNxcffP0Z+dih8XMUYuSVMzY9uZYg77okP5+zE1bgEBH83Ew7WfTDtUALYVtee+jBqc7Myzc47AMBwj5krflX7UB5ymjD/UGc7tbZRqjfKqOtPJRx5XV0/bF5z5zIlyI88jS/et0XP0VtQM1XSNK9Qd/2mtH1tKK+Lad8wlP3TRDLSAgF1/7QM36f/vGjCArumwOTQ/vd1SNtxK8VWKR8kkt1ZQ5PX1qxdktOzb0eQjrETLTufTDIikv42m8x0R9K3z5TX8DGU9Ysb2br+SKkMEVEVxX47hjp1nUfnSoiIXtKxSXoN1qwzWT+Si64xzThTSkQM5ZyeTePWhldfm6HUPWNIR9uBNkVWkfzZtzRCx5iclp2nZIUgNNtMl0Z++4zkRMRk/kAuehbkcaWiuvMcOj17HK0Nr16FxaTSnjE6pO2wiSKVxi0LXU29tc3JeXMAvagiKo0/TNMshKTj6E2Pq4jk8dtpsF5vWn23ui/ZXVrdW5+GffM7yTXIXRqyhgbYzKfzkuqLlVyiBRbatevDmJzTNHvcWqoTcw+N0dEmh02R1FBMbv1Kriwmsd1yCqpRbmkIrbLTIfOZv1I2U60fXQMaui6IsuREJHtEG+21qeOwL+naiyoiqqLIjfaka+NFtysUaztX99Ymc+fNFKBQCh2eZkFCHUfyflyl0OdYHdLvv4yu5Uoo7kYAPc6No6+HGJDjlhiqIqKqe+uon549bapWOJO6h8bq6FP/ZdcoVxJHNwIeU0F9t+a0WTHdWt6PHNbcrd1PIQtdTe/q9qN196qISE7x2weTXu/VVGem1dRbfxh987vCVxv6WxPGKLlCi8V2tLxOqRSyyo50zGfSr9kMyUJXUz/7Lym8nIiIoWzf7bQvTjmo2pndiOjlsUmkV7tmndt/G8VVm+hE87gbwGTRL2625PpjKilUGEvfjulEXeedoxKS0JXFYrJbHlSbV0pDVpGdjjnN/DWbGGIo8wcX0jUYSuuCskihwo1kr92Rhn15jRQqjKSN9rpk43WbKqgJOtSgA5I/o29H6JCx0zI6r0hW9NtsM9Id+S09k2uIeQ1ticmkH1z0yMLjikJWrpgpDaXV/ezpS4UxiMn2pe374pTySvV4VZ6nIaa4rl1FRC+P0SS9euuBlWXXZDu1cmmm4uYSshLpUe8PFtLixYvr/i2aSUPMhKTreoByiYhITk++HkIGjlsoRpG0aF0/PbKvzr9V99ZRPx0Lmrz3HhXIiUpiDtN0K23SddpK0VWqc1pu3Nc0xMCRtig6pHvr+pGefeO6Q0RUfGs59XNYQ3frkhqtfleX+q27R1XUutrTAPkTztysbKvm5h35E44xc8Uvpw9pmn9w206VbRrUG1IeN3d/DeHK69z9NHsuQwxl/ehCusYzqKZ0cc8ruK/P3fb18Sf7ZZ1FVmo6KqjhpyRLR8qLNvo9QaAFLS0tAASlyyhgGUBYozYhOnQwhNDIHq6u1tABYCjuhe6CIkgLlVtL4H86ALoOTugiAAAR+q4OREHGcUw1VDq1GoGRETrU3oMqQ+C5AGQ8vYTdPj7w8dkJ33JXeG+dC0d9QNihAwyFRrB3dYW1QhD06i5AkbRQ9TjKAnEuIANPL+2Gj48PfHb6otzVG1vnOkJf6VSBvj70hJ0xfIoLLESAgZ07tiy0B8UEIYjjaQEKuOQuQcD+40juPxbjTKpP17OGlbmwrnXgOQRkPMWl3T7w8fHBTt9yuHpvxVxHZSm59FuIi4d/RbrtQDjULGozGAK3qWLkX/oF/lJA0MEQBlo6sB7khC5CADpi2FqKgO6DMMJCBEAEK8uu0CqSQEIABPrQ1xOi8/ApcFEoBe5bFsKeYhAUlANWoA99HQGMnVwwqrMJ+ri4YkDnd+F5Ihi+XlZIDzyKncfCIWFlKK9Q6FCgrw8dgTGcXEahs0kfuLgOQKf6Ecpls6LLOHCqGEPed4RB9enCjh3RoRkR3tDfNI8x/+Jh/Jpui4F1SsUQt6kQ51/CL/5SiCzEsEz9DpNHz8PXZ+Og7bYBn/dR3u3RzuzWUDgN/qt8LlDYJjrRPO4GSPxxOkAXDk5dFLdKRX2xOrAAGcenwrDwIg7/mg7bgQ616zkNhrhhqjgfl37xhxQCdDA0gJaONQY5dYFChbZQqHAEFCq0gmVXLRRJJIpcokGHmvwCwg7oYCiEkb0rXBXJCuJe3SEokqKQNMS8hraN4IoZkQXElqn4bvJozPv6LOK03bDh8z6N9yM19TxluK6tfK4qNNmupXLVYgAnj704cOBA3b8f12NC9/pJQwix5wkE+3rBKj0QR3ceQ7iEhay8oi5WhOb4m8sgdBIChv0+xe6VI6EVE4w7+azKnNb5XU+cCPaFl1U6Ao/uxLFwCVhZOarTYD2KcPnAKRQPeR+OdUkNHZuc1JoRu0IxZ25Wprl5RyjmGDNX/HL6kKb5B7ftVNmmQb1pBHd/DeHK69z9NHsuAwGMjDrUW66jaV7BdX1NbV8fnKZpf4hgO9gRZkp6E7ztiCG9dRp+2GL0YaAnAJWVorSxB4ItLgEMjVAjgmJiX4eWUAgtEFhlr2IKkJtfAWlhdcFrClpadevY2WLkFZRD124q1qxbh3U1/9Yux+TeonprB2vaCiHUAqiRIArY4jwUlOvCbuqaur7WrcPa5ZPRW2O2F6Fn314wRBVkMtX918Ilt20WEn6XAkKRGkdkUZxXgHJdO0xdU6/turVYPrl3w6LEpV8mB2kvysBWVtZbQyiClaUFBJVSSF6yjfUHLQi0FLduaj8RCABq1Hstop590csQqJLJFO0aLfYTQFQehb0LPXE0cyA+9XSGuaBhf42a1IPLZra5z5BSIoKONlcPGqjvb2qoG2MZstNeoIytRGW9hZkiK0tYCCohlbwEeizAyesH4GYUhB0zBqH38GU4l6Z0O7E92q0+XP7bKFAY5LSJTpow7vqnF+Qiv0KKQkkj6cHkpOFFGYvKhgLB0kKASqkEChUqGV1LAMXNy9oPoEGFzfILFsp+pgWhIlmBNMY8V9vGcMVMb50eWHDyOg64GSFoxwwM6j0cy86lqVi328TzlOC8trLrqECj7dAyuZqLQFSOqL0L4Xk0EwM/9YSzuUClrhUI0NnGGiZaDORVik8apRSBCOVRe7HQ8ygyB34KT2dzKKVBBUwmnqWUQKSj3biPptCs2NWcmxvQ3LzDMWau+NXkQ8qxqzz/0GS75upVU3+1cOV1Tf0o61bDXAZQ6KG2DZOuYV7Bcf0mtH1dtDd5NNLhg+04sGww3hJpKRK1qSM+O/ANptZ8C2o1OrC26Q6tjKdIbLQQnkFK9At06t2jdrLeZITvoIeFPnL8z+BqYc2HLAr8D8I3sQnpVWCMruYGSPA7gpuSuo+ZZH9cjm7+XQWBcVeYGyTA78hN1HXHINn/MlR3R6B6c4SqsgqwZnbo11UICEUQqviCQsRwyx1jjLc7iVAR+xBRSs+sJ5YFIIBxV3MYJPjhSMPG8L8c3XBtJpd+k95Br57GYOIe4GHt8joWlbJKCLoNhIN5y8OAGioFFawZ7Pp1Ve0fJVewYsp6FEz/AdtmOcKspl6oz0EN4LJZTAdTdMQLPAh/rrZYC0VCFZMaAqlrUI3qMXZH9149YczE4UGdUsFWylAp6IaBDuag9Fi86O6OvTcTEHdxPQak7YfXjhtoYOr2bjcu/20UKEJ0bROddG3WuIXv9ICFfg78z1xFnQoL4H/QF0nv9EJPYwZxDx7WrQlmKyGrFKDbQAe0QoVqdKjZL7gv2YyYbwJcMRMtS0fsi+5w33sTCXEXsX5AGvZ77cAN5fdnMOrP44opzms3YSDCrhpsR+rlajtKcGXFFKwvmI4fts2CYxOSVllePsp72GPQO6otXXJlBaasL8D0H7ZhlqNZ7Y8ujXrUMoFpR+DFg3A8V5ejWlp7lA3QytysCa4xc8Xv74at8aHm246bZvTHldcTi5reT0vQ6qRhXsExDo1tXx+qo6k9IzDHxN2heJYYjtu3w5CYHIG9UyzacCA6GLpgMUYIbmDv1zeRU5skKpF52wdf3OwH9/dr1q2wYBg5iK2XLIgAYsE2MmxHTJg/A92zT2LxR8vxH7//wnf3Z3D3E2G4rRAAA4ZROERtS5YBSwRFV4YYP38WrFMOwm3sbGz9yQ9nT/jA48tQGNqIwDIM5MTW+/ZJIBDY6v4EenrQxUtkZRYiLyIE0VrjMX+WNVIOumHs7K34ye8sTvh44MtQQ9go/+gAAGweUlOqv72wmbhwIRr9PJfAWQ8Qmlmgi04Gwq89Qk7uE1zefxx3C+TIS3+O/GKherltzTFpzkS8nXwEK9ZfQlolIEt9hNhcBpKMVGQXlcFw/HzMsk7BQbexmL31J/idPQEfjy8RamijdLuXS7+dMHGpJ/pLzmLP0UTFUzXYbFwPTMeIpUswShcAw4JFja4VEACq93MiEQEsW28yzCIvNaV6czOLzAsXEN3PE0ucq29aEyCvqsuobNEzJOeUIC3xOUoq0hF0MQxZTBmKsqIQEavohSBHvSYNMVRvM9uuf8dHY/UR8c1sLNl/Ffce3sLxY7eQVSusEGYWXaCTEY5rj3KQ++Qy9h+/iwJ5HtKf56O4QtnfalA/xo4Tl8KzvwRn9xxFokKpyL4eiPQRS7FklC6YdD/sOvgIZdCD1QfrsXG6FQx09ZR+zWl/dmMUgdikuFOOq1TnttGJxnE3OH0C5s/ojuyTi/HR8v/A77++2P2ZO/xEw2HbaSKWevaH5OweHFUIBDb7OgLTR2DpklFQqJBVjLe2Q1Lkj1oVKv7PsvVnTOp1qMkvwDJg5AS23iRXkTYVOueMeQ1tIdCDni7wMisThXkRCHk2Qm3M2Gilw2/XQTwqA/SsPsD6jdNhZaALPeWfGxl152mIKaH6eLURAWAYMNU5GlAhe6ozt+3UygWwBdexxe2f2H673iy1PrJKVJEcVZXKdUqGShlAcjnkLAC2CM+Sc1CSlojnJRVID7qIsCwGZUVZiIqIVTShMhRJq2c2FTE4cuoZ/r5xGYZV3+xumNNYFD1LRk5JGhKfl6AiPQgXw7LAlBUhKyoC1WlQgcAMf/9oLPQjvsHsJftx9d5D3Dp+DLfqklrLa49SkdOYm5Vt1ay8o2HMQo74NebyIQ3zjybYjrPeQMlHm9BfHRx53aaEs59mz2XKAJZhQTU5TNCZe14hyVZ//fs53G2L1GymfRUoL2LnISJiKP/uD7TovYFkZz+CXN4fTy5jRtF7c76ma2l1Wymk0WdpvYsZCbXFNHP3FYpLvENHlw4nE4EBOXgcppAM5d0apRTv60XO4s5k1NGCnGbtpju5DBGVU8KlTeTaRUhCy6m043wsUUk8Xdw8gboKRWQ1dQddTqxQtD/lRc62pqSrY0w9Riyi47GlRNJoOrvehcyE2iSeuZuuxCXSnaNLabiJgAwcPOhwSAaRPImO/VNMpm+JaerucComIiqNp1NezmRrqks6xj1oxKLjFKvibU9VkRtpoI45DZ3hQZ+tWEmffTKN3L66SKm1e2hfUsj28dTD2JgsHKbTrttXaI1jLxozz5tO3c9XLzcRESOhez+601BLUzKxcqJJn3vTgqHWNGzWV3QsLIuIiErjT5GXsy2Z6uqQcY8RtOh4rJqXUqnTLxFRFaVc2ECTHR1o7MyF9K9P55Dnd0GUwxBRSTxd2DyBLIQisvl4J12MSaWo/26jyT2EJLKZRj7/e0zPH/jRpg8sSCiypmk+/pRUGkkbB+qQ+dAZ5PHZClr52Sc0ze0rupgqJ2IK6NHpdfSeuZCEFq604fQDymeIiMmgc0sHUxcjU+o52oP23/6Z3C1NyGbiLrr7/BGdXvcemQuFZOG6gU4/yFdsNlKGw2byzGu0eZIdde5gTFbjVpCf/2Zy0q/ZYEpEL0No+/geZGxsQQ7Td9HtK2vIsdcYmud9iu6nxjb2tyqOMVZTlXKBNkx2JIexM2nhvz6lOZ7fUVCOQnLZ3fU0vKc9vef+BXlvXUuLFvnQzUa7I6n92I2IyhMu0SbXLiQUWtLUHecp9mW1fOr8V0VctY1OOMatitJ48vVyJnFnI+po4USzdt+hOhWm0IUNk8nRYSzNXPgv+nSOJ30XlEMKFV6gzRMsSCiyoY93XqSY1Cj677bJ1EMoIptpPvS/x8/pgd8m+sBCSCLraeTjn0SyVvmFlKLPricXMyFpi2fS7itxlHjnKC0dbkICAwfyOBxCGYy6mG9KWzklHfsniU3fIvHU3RRezBEzsru0fnhPsn/Pnb7w3kprFy0in5vZjeOO6zyumMpn1F+7PIEubXKlLkIhWU7dQedjXxKRCtk5bMcllzzpR5rwTheaeCBZaTCllHDjKHlPsiQhhGQ+bgXt+180FTJE8pQ7dHLXP+ldHS0SmA6hhbvP0L3sKso4t5QGdzEi056jyWP/bfrZ3ZJMbCbSrjApUenvdGH7JzTmb6NpivtntHThEtp28RmVExFToDqnMRnnaOngLmRk2pNGe+yn2z+7k6WJDU3cFUZSJWlJnknXNk8iu84dyNhqHK3w86fNTvq1G0xbVXvqw5Gbw7KVbHXvfrPzztPnGsbMFb9qfEjz/EO97b4JCFJpmwY08lGp2v52hTWyHEdeZ9T3c/1us+cy2fEXafOEriQUWdHUHZcpsULTvCJD/fXDpBraKuYkrwMtqv9VkIdHBfKoTXAadh6TQh9im4Oqn93fQORR2OQ0DOcnheLhNodmbOp6dTDx2zHU6QzGB0Xi67+1QMI/wRibzV9xTK8aXoc8rwsmHtuHOuHM+CBEfv033vd43hjabvUIz18f5TumPG+IUv6KY/wrjulVw+uQh4eH51XAT9Z5NCIvLMRLpggFEuW3573ByAtR+JJBUYGkCW+WfD3I8/NRJC+B9CXXokQO/gRjbDZ/xTG9angd8rwu5PnIL5KjRPqy2ZuNeXj+zAi9vb29lT/k4alBlnQdJ67lotugvuhQmAbqOgA2po2emfFmIUvC9RPXkNttEPp2KEQadcUAG9PGTxJ5jTAZd+Eb8AJm9n1gJEmHVjd7WJk047v5n2CMzeavOKZXDa9DntcFk4G7vgF4YWaPPkYSpGt1g6NVmz0GjoenXcOvWefh4eHh4eHh4eFppzTjpzYeHh4eHh4eHh4enlcJP1nn4eHh4eHh4eHhaafwk/UmwBYnIyZJ2i6ffVCaGonH6fVeR/0noCIjBk9y2qM2lSlFauRjcKqXLUZyTBKkLRlOS9q2pA3Pa4ZFcXIMkl670f4AOUpTEfk4HVwhwvNX4g/woXo0qg28fzWGkeBpzHOUKn9eSxPqVispTY1GQl7LfICRPEXMc/XS86iGn6xzwaTj1m53DLbuC7dDCe1v9zmbgkNzh2H4whPIblncvFJYaSROrXSBre1YbA9p/8+RYFMOYe6w4Vh4IlvFFzUG6bd2w32wNfq6HUJCs5yjJW1b0obndcOk38Ju98Gw7uuGQ6/RaH+MHCxSDs3FsOELceLPkIB4WsUf40MKVNeG9uxfLHLOfIaxI0fD+f0J+OADVziPHolR497HBx98AFfn0Rg5amIb1zkGqbd2Y+4gawxY4IvU+i8UrofausU8xQ9Te2PQ3BN41kLzsbnhOOI1Bra938eu8GaOjUnFrd1zMch6ABb4ptZ7o3TTqQzdjFG9R2L5JVU1+a8NP1nnQtgdzl4LMeYtqn21dbtCYIVFP4ch9PA8dPkTWFJg4oBZK6ZA3F73NLN5ePjgWW0SEVgtws9hoTg8r4uKQBGiu7MXFo55q95r2ZtKS9q2pA0PF2zeQzx41pKS0XSE3Z3htXAM3nrNRmsrORrqTACrRT8jLPQw5v0ZEhBPq2grH1KF6trQ9v7VdjFPKHguge3SE/C/5o8r/9sI+5wIPO68AL9duYKr136DjwshLauFs2KVCGHp/DnmjzIF14REXd1i0/1x8dkIbPCZg54tfJuUwGwo3JdPRE/lA01BaAnnz+dDg/gcVCLygj+qPtqBzRNV1eS/Nm/aeJuP0AQmxlrKn7YbDC0dMLC7nvLH7RaBsREM26k6SyO+x6bjT+vdQTGEpcNAqFevECYmxmjZcFrStiVteFRTiojvN+H407YspqoRmpigPaSQ1suhQmeGlnAY2B1qQ4TnL0XrfUg9KmtDm/qXCv9tBSKHeVj9kTV0lQ8AgMgMo1avxJS3lQ+0FiEMjQw1TNxU162ieCE+PvUDPrbgbq0JoZEKOzUVoSGMDFt4feYFnnddhdPbx8BU+dgbQAu19tdHXpiEe0HBiEwvVz4EACjLjMHdwGA8TC1u0u0YzvNLMxAdEoywJ7mQVeYgOaUYbFYUrgf4wz/gDhKkLMBk4uFVf/j7X0X487K6thUZiI6vd0uILcbzuGQUswwkSeEIjkiCtNEPCQwkyQ9wJzgcCbnKt7JYSJ9FIOhOFNKKCpCZpWltGVdfKhBoNZ5sygvwNOI2bgbeR3JjYVVTmYuEsEAERiRB0qCJHAVPI3D7ZiDuJ0sb3morTUNMYgFYVCInLhSh8bnVE3MWeeF7Me+T3biXEoVrAbcRW70eryIjGvHKt2DlhUi6F4TgyHQ09g6O60NTWzVoalOWiZi7gQh+mIriRs6lArW6U6yHTH5wB8HhCWhkzrJ0RD/JAQsG0uQHCI1Mq103WZkTj9CQx8isv06y1b5YirSYRBSwQGVOHEJD45HbqM6WITPmLgKDHyJVafClaTFIVDRGXGgo4msas3kI3zsPn+y+h5Soawi4HYva5ZfqdMlK8SwiCHei0lBUkAmNYQE5CpPuISg4EqpTiHq5VVOJ3IQwBAZGIEnJaPKCp4i4fROB95NV6JdbDu629VCrswpkRMfXW4bHovh5HJKLWTCSJIQHRyBJRceMJBkP7gQjPCG3yS9WKs2IRkhwGJ7kylCZk4yUYhZZUdcR4O+PgDsJUKTJh7jq7w//q+GonybbUt/cPluG9OgnyGEBRpqMB6GRSKsLEsSHhuBxgyAB2OLniEsuBstIkBQejIgkpbxRloaYhDwwFZl4fC8BhdUHm2y7WtSPibuvNvKhWtTIoao2NPIvBerqaZvGPCdCiF1d8S7XL9QdXPDhOAPF/7lqXDPzqpZWtZZIjrwn4QiPy260pl9V3dK1H4O+kgdN15k6tOrZqTIbsXdVtVFXB7VQJ34enoSHIy5bSXp1/i6Vw7r/20h91FQ/K0VGdAiCw54gV1aJnOQUFLNZiLoeAH//ANxJkIIFg8yHV+Hv74+r4c/RIGU0O2f8sfCT9UaUIebQHLh6HEFURhIurvfCwaf1PIPNQsC2hVh1MAjR989g1UgxRm+4gQJ1tuQ8vwxxxz3x4ZyduBqXgODvZsLBug+mHUoA26kHuuX8jEVTFuJIvBwQdkJ3s0TsnT0ZK/0ywbASRJ7+Au/b9sToLcGoAIP04H3wGGyJPrP2wXfL+xg0ZDzeG2YHsfNW3C2qlkcajn+7u2GtXwzSEi9g1ag+cN16uzpxVSJ6rzu8fkmHvCIeR2cPxT9+SlG/Vp+zr6bBJJ/CvKEf4/vH+cgO9YGreCS2hDUMmYawyAvcgbnu/w83UnMRvW8yxE5eOJ/FAkwyTs0bio+/f4z87FD4uIoxcksYytg83DuxHONsxZjgcxpHFrniw1lz8KF9f0w9mASGlSKzQB+mHViwslJIpUUoyY/E6S/eh23P0dgSXJdMymIOYY6rB45EZSDp4np4HXxal4jUXb8pbdXA3YZFVsA2LFx1EEHR93Fm1UiIR2/ADfXOqF53AKTh/4a721r4xaQh8cIqjOrjiq2388CyhXhwahXeE/fCGG8/nN08GzPdP8XHw+wwdFUAHpxcgonT5mPx9KGwG7UZYWWt9UUWefdOYPk4W4gn+OD0kUVw/XAW5nxoj/5TDyKpWgFsVgC2LVyFg0HRuH9mFUaKR2PDjQLI8+7hxPJxsBVPgM/pI1jk+iFmzfkQ9v2n4mASA1aaiQJ9U3RgWchKpZAWlUHOpcvKaOx198Iv6XJUxB/F7KH/wE8paqMCKIvBoTmu8DgShYyki1jvdRANU4hqudVaLS8QO+a64//dSEVu9D5MFjvB63wWWDBIPjUPQz/+Ho/zsxHq4wrxyC2oDR9OOTS0VaKxzkqQH3kaX7xvi56jtyC4AmDSg7HPYzAs+8zCPt8teH/QEIx/bxjsxM7YWmd0hP/bHW5r/RCTlogLq0ahj+tW3OZKGmVxOO75IebsvIq4hGB8N9MB1n2m4VACi049uiHn50WYsvAIFGmyO8wS92L25JXwy1QMtu30ze2zhQ9OYdV7YvQa4w2/s5sxe6Y7Pv14GOyGrkLAg5NYMnEa5i+ejqF2o7A5rAxg0hG8zwODLftg1j5fbHl/EIaMfw/D7MRw3noXRWwuwo8uwzhbMcZ7H8DOf4zE8GGDMf9kbrNsB84xafCDNvQhcMqhDAuJkn8pPlZdT/Ny2jjm2xC1Na7ZebVep5SDy17D4TDcBSP7W8Fuyvd4UAKwEhV1q4U600Tl81+xYsZseC6aAof+03C4ZnmRhjoIAJRzGV7DHTDcZST6W9lhyvcPUNKG/l4WdxyeH87BzqtxSAj+DjMdrNFn2iEksJ3Qo1sOfl40BQuPxEMOITp1N0Pi3tmYvNIP1Smj2TnjlUA8DSgNWUMDbObTeUn1ByWXaIGFNr27JoxkxFDO6dk0bm04yYiIiKHUPWNIR9uBNkVWNehHAff5xbeWUz+HNXS3tPp0WSitfleX+q27R1VEJI/fToP1etPqu4rWJLtLq3vr07Bvfic5ERGTRT+66JLxjDOk6EJGoat7k7a5M20OeEFVVErxh6eRhVCHHL0fUxVJ6MpiMdktD6Ly6kuWhqwiOx1zmvlrNjGyUFrdz56+DFccZbJ9afu+OFI1MtLUl9LZtbw8RpP0TGnWb+VEJKcnXw8hA8ctFFNFRFX3aF0/PbLfFKnmmkRM1i/kZutKP6YqrlAV+y2N6dSV5p0rIfmTr2mIgSNtUXRG99b1Iz37TRRZRUTyZ/TtCB0ydlpG55NlRCSl32abke7Ib+mZnIiYTPrBRY8sPK5QRe21fiQXXWOacabaQKUhtGaADc2vcw66tMCCtN9dQ2Ey4r6+hrYq0dCGyTlNs8etpfDq9kzqHhqjo00OavTHpTuSXKHFYjtaHlRrTQpZZUc65jPp12ymWj+6ZDB0HQVlyYlIRo822pN2x2H05bUXVEVEVZEbyV7XhrxuV7TeF0lOz74dQTrGTrTsfDLJiEj622wy0x1J3z6TEzE5dHr2OFpbN3jaM0aHtB0U+pY/+5ZG6BiT07LzpDD3bzTbTJdGfvuMFOb+gVz0LMjjisLaXLosDV1N/ey/JEVYMJTtu532xanSMCn0tmYA2cw/T3UpZAFZaL9LaxRG45S7EUwW/eJmS64/pipiqiqWvh3TibrOO0cl8if09RADctwSo9D/vXXUT8++OhdpkIOzrWqUdUbEUNaPLqRrPINqQkQWupp6a5uT8+YAelFFVBp/mKZZCEnH0ZseVxFJriwmsd1yqnOzEFplp0PmM3+lbJVJo5huLe9HDmvuVuc4xTXe1e1H6+5VEZGc4rcPJr3eq6kuTa6m3vrD6JvfNftJI7j0rdFnGcr8wYV0DYbSuqAskhOR7NFGstfuSMO+vEYvFEFCG+11ycbrtiLPyEJpdW9tMnfeTAEKhdHhaRYk1HEk78dVCnnH6pB+/2V0LVdCcTcC6HFuXPNsxzUmTj9oYx/ikoOUawOp8C/uetqWMa9mBOqR3aEVYhEZTf+11k8VaKhxzc6rirqiYzGZ9t4rIDmVUMzh6WSlrUtOW6OpipTrVut0ppLcA+SqZ0TDNgRRLkNExf+jeeZ6NOa7FGJIQx2sukfr+umQxeS9dK9ATlQSQ4enW5G2rhNtjW4jfy++Rcv7OdCauokVha5+l3T7rSNFyoin7YP1qPfqu9U6kdHd1b1Jf9g39Lucmp8zXhH8L+sNKEHA/uNI7j8W42reYqxnDSvzmpdplyHwXAAynl7Cbh8f+PjshG+5K7y3zoWjfr1uauE6vwiXD5xC8ZD34Vh9pwzCjujYoRkmERjBqEP9G4cC6OvrQdh5OKa4WEAEA9i5b8FCe0JMUBBy8i/i8K/psB3oULsG0GCIG6aK83HpF39IRRYQW6biu8mjMe/rs4jTdsOGz/tA5Z2+Qg19KZ2uGiHEnicQ7OsFq/RAHN15DOESFrLyCrXfYCX+pxGg6wCn6g1Hor6rEViQgeNTDSEUe+JEsC+8rNIReHQnjoVLwMrKUcECEHZAB0MhjOxd4WqtA8AQ4l7dISiSolDNbheBkRHqq7ckYD+OJ/fH2DrngLWVee2r1rmur6mtKjS1KQs8h4CMp7i02wc+Pj7Y6VsOV++tmKvaGTl1V3jxMH5Nt8VAh1prYojbVIjzL+EXfykg6ABDAy3oWA+CUxchAB2IbS0hQncMGmEBEQCRlSW6ahVBIqHW+yKE6NDBEEIje7i6WkMHgKG4F7oLiiAtJKAsEOcCMvD00m74+PjAZ6cvyl29sXWuI/QBCDt0gKHQCPaurlCYW4xe3QUokhaq3NzEpUuRhRiWqd9h8uh5+PpsHLTdNuDzPiqjAigJwP7jyeg/dhzqUogV6lIIt9yNkPjjdIAuHJyqN1SJ+mJ1YAEyjk+FoVAMzxPB8PWyQnrgUew8Fg4JK0O5wuG45eBq22QEMDLq0GDpgkBfH3rCzhg+xQUWIsDAzh1bFtqDYoIQlJOPi4d/RbrtQNS52RC4TRUj/9Iv8FeVNIou48CpYgx53xF1abIjmpwm21LfGnOeAB0MDaClY41BTl0gBKAjtoWlCOg+aAQsFEECy65aKJJIFH4o0Ie+nhCdh0+Bi0JhcN+yEPYUg6CgHLACfejrCGDs5IJRnU3Qx8UVAzq/2zzbcY2Jyw/a2oe45FA+F1DhX1z1tG1jvu3QUOOanVerezX/G1wGdYIQhuj36W6sHKmFmOA7yGeV61bb6qwOA7w7ZDA6CwDo9UAPM0AqkYDVUAcVCGH+NxcM6iQEDPvh090rMVIrBsF38tvE34suH8Cp4iF4v25ihY4dOzR9GUlzc8YrosnyvxEw6Uj4XQoIRaoVwxYjr6AcunZTsWbdOqyr+bd2OSb3VlG8uc63zcWzlBKIdLRVrNNrKlp169fUIeqJvr0MgSoZyrLT8KKMRWVlvTViIitYWghQKZXgJXpgwcnrOOBmhKAdMzCo93AsO5emcqkGk6OhL9Vx1AiBqBxRexfC82gmBn7qCWdzAUeSYFCQm48KaSHq5a06BCKUR+3FQs+jyBz4KTydzSGoPa9urVzN30KhFkCs+utp1W/DID3hd0ghhEilc3BdvwltG6GpDYvivAKU69ph6pp6vrVuLZZP7q3iCxaX7hjkpL1AGVuJhua0hIWgElLJS7CN9AdoCbQabuvXEkAAjicnNccX2XprM6vREgqhBQJLAFuch4JyXdhNXVNv7Ouwdvlk9BYpratUNIbC3Kqk49alTo8FOHn9ANyMgrBjxiD0Hr4M59JURQXApCdAkUJUGk2z3EowBbnIr5CisLHRAAggKo/C3oWeOJo5EJ96OsO82uE1ycHVtjloKeu5ESL07NsLhqiCrCwbaS/KwFZW1ltjK4KVpQUElVJIVCQNJvMZUkpE0NHmvoo62lLfTcl5yj4LLQG0GgYJBAJwPtFJ1LMvFGEiU7RsNPTm2Y5rTFx9tbUPccuhmgb+xVVPe4vaNOZVuEaL4a5xbZBXBZ1hY20CLUaOKlTnvpo+21Rn6hBCIAQYeZXiT7V1UDWCzjawNtGqa98qf2eQ+SwFJSIdtDBlNDtnvCrUReGbiVYnvN1JhIrYh4iSNTxELAsIjNHV3AAJfkdwU1J3jEn2x+VoFWtYuc6P6QDTjsCLB+F4rrruA0IRhNWTk/oQqWtQDVG9X6arUFbBwsyuH7p374WexgziHjysWz/GVkJWKUC3gQ4wp3TEvugO9703kRB3EesHpGG/1w7cUNIFAAi7auirSZ5VgisrpmB9wXT8sG0WHM1qIkFdIArxTg8L6Of448zVwtpP2QJ/HPRNRNGVFZiyvgDTf9iGWY5mtQlXXW/NQwud3u4EUUUsHjZ2DrAAStReX3PbxmhqI4BxV3MYJPjhSEPngv/laBX7DLh0l4R3evWEMROHBw/rFgKylTJUCrphoIN5yxNFS31RwwUFxl1hbpAAvyM3UTd6Bsn+l6EqFLnh1qUsPRYvurtj780ExF1cjwFp++G14wZUhAW0Or2NTqIKxD6MUjpOUKSQ5sktfKcHLPRz4H/mKmqtxhbA/6AvEouuYMWU9SiY/gO2zXJE/fDRJAdK1LdtPQSq59RVZRVgzezQr3t39OppDCbuAercjEWlrBKCbgPhoMLoWiam6IgXeBD+XOWPBgAgFAlVfOkmENO2+k56p3U+ywU1VBgqWDPY9euq+s5bM23HNaZX6UOccqgzbn246qkqY3LCHfPN7U09za1xLaEMefnl6GE/CO8o+2Cb6qxpqK+DaijLQ355D9gPekd1nWmWn2nBRDGxQrj6iRUUKaPRxApMm9eWtkOlbt5YBJ0xac5EvJ18BCvWX0JaJSBLfYTYXAaSjFRkF2lh/PxZsE45CLexs7H1Jz+cPeEDjy9DYWij6iuXofrzbbvi7x+NhX7EN5i9ZD+u3nuIW8eP4VZWnYMJzSzQRScD4dceISf3CS7vP467BXLkpT9HfnEFABYMS4ovEvVg81KRUlL9/8wLuBDdD55LnKHXcSKWevaH5OweHE1UPMWAzb6OwPQRWLpkFHSZdPjtOohHZYCe1QdYv3E6rAx0oafqG6qmvpTPr4FhwIDAsizAFuFZcg5K0hLxvKQC6UEXEZbFoKwoC1ERscotAQAdJ8zHjO7ZOLn4Iyz/jx/+67sbn7n7QTTcBiXPkpFTkobE5yWoSA/CxbAsMGVFyIqKQOxLBoycwNYr6kSKL2EsC0CgBz1d4GVWJgrzIhASXQawDFiqLkwQoPOkOZj4djKOrFiPSwrnwKPYXDCSDKRmS5Ct9vr3kePM1bZIaRd6U65XBK3x8zHLOgUH3cZi9taf4Hf2BHw8vkSooY3KX4bU684WnSYuhWd/Cc7uOQqFOVlkXw9E+oilWDJKFwADlq3+0loDKZRYm/KIQGDB1t9M2VJfBAuGkYPYel9WFQZT+I7heMyfZY2Ug24YO3srfvI7ixM+Hvgy1BA2IoBlGMiJrZeQCVTtdwpz60EXL5GVWYi8iBA8G6Fel1rpfth18BHKoAerD9Zj43QrGOjqNf4BCICg8yTMmfg2ko+swPpLaaiEDKmPYpHLSJCRmo0iLW65G9FxAubP6I7sk4vx0fL/wO+/vtj9mTv8RMNhU/IMyTklSEt8jpKKdARdDEMWU4airCjcz3HmlEOSrb5tRGy1wZRQ1pkiRFiQ8hdONg+pdUbHhQvR6Oe5BM56HTFxqSf6S85iz9FExVNg2GxcD0zHiKVLMEpF0hCY/R0fjdVHxDezsWT/Vdx7eAvHj91CXZoUwsyiC3QywnHtUQ5yn1zG/uN3USDPQ/rzfBQL207ftp00+SzAKIKknj5I4Xt1QQIigK0fJGCRl5oChcZYZF64gOh+nljiXL3YhgB5Vd0sgS1qpu04xvRKfYhDDluhUm2opqF/cdRTG1GbxryILcD1LW745/bb9SZsHFAVKisJ8kqZUixoqnEty6tUVgRp9TeoipgjOPXs79i4bBh0AKW61TqdqUJxrPGPiIrPWRSprYMRULgFoaxIWv0FsAIxR07h2d83YtkwHUVHrfJ3Acz+/hHG6kfgm9lLsP/qPTy8dRzHbmXVfdkXmsGiiw4ywq/hUU4unlzej+N3CyDPS8fz/GJUaKgtrw3lRexvPIyE7v3oTkMtTcnEyokmfe5NC4Za07BZX9GxsCwiKqX4U17kbGtKujrG1GPEIjoe23BLSUM4zpdn0rXNk8iucwcythpHK/z8abOTfu0GU6KXFLJ9PPUwNiYLh+m06/YVWuPYi8bM86ZT91Mp/uJmmtBVSCKrqbTjciIRVVHkxoGkYz6UZnh8RitWfkafTHOjry6m1m0WqUqhCxsmk6PDWJq58F/06RxP+i4oR7HhR3aX1g/vSfbvudMX3ltp7aJF5HOTY7MoV1+qKE+gS5tcqYtQSJZTd9D5WCllnFtKg7sYkWnP0eSx/zb97G5JJjYTaVeYVLl1LaXxvuTlLKbORh3JwmkW7b6TSwwRMRnnaOngLmRk2pNGe+yn2z+7k6WJDU3cdZ3unl1PLmZC0hbPpN1X4ijxzlFaOtyEBAYO5HE4hDIYOSUd+yeJTd8i8dTdFJ4dTxc3T6CuQhFZTd1BlxMriIghyb0fyX2oJZmaWJHTpM/Je8FQsh42i746FkYZ6equH0ZSDW2zVCpNc5vS+FPk5WxLpro6ZNxjBC06Hqu0wakh6nRHRFSVcoE2THYkh7EzaeG/PqU5nt9RUA5DRCUUf2EzTbAQksjmY9p5MYZSo/5L2yb3IKHIhqb5/I8eP39Afps+IAuhiKyn+ZB/UmmrfFEafZbWu5iRUFtMM3dfobjEO3R06XAyERiQg8dhCslgiErj6ZSXM9ma6pKOcQ8aseg4xZYSkTSazq53ITOhNoln7qYrcYl05+hSGm4iIAMHDzockkEkT6Jj/xST6Vtimro7nIpJvS5ld9fT8J729J77F+S9dS0tWuRDN1XvhiQiIkZyj350H0qWpiZk5TSJPvdeQEOth9Gsr45RmMJoquVWR2k8+Xo5k7izEXW0cKJZu+8oNnYxGXRu6WDqYmRKPUd70P7bP5O7pQnZTNxFYVINcmSkc7ZViZLOsuMv0uYJXUkosqKpOy5TYoViM9xAHXMaOsODPluxkj77ZBq5fXWRUuuMTikXNtBkRwcaO3Mh/evTOeT5XRDlqFcnyTOv0eZJdtS5gzFZjVtBfv6byUm/ZoMpEb0Moe3je5CxsQU5TN9Ft6+sIcdeY2ie9ym6n9+G+iZuny2Jv0CbJ1iQUGRDH++8SDGpUfTfbZOph1BENtN86H+Pn9MDv030gYWQRNbTyMc/iWRVkbRxoA6ZD51BHp+toJWffULT3L6ii6lyIqaAHp1eR++ZC0lo4UobTj+g/CbYXSXqxqShrzb3IXVyNKoNL6lEhX+pradtHPMkT6IfJ7xDXSYeoGS1Oy0VyJ7dpuM7PqKe2lokMBtLK/dfpBhJjcMwHDUuowV5VUalv1+g7Z+Mob+NnkLuny2lhUu20cVn1ZtyS1TVrVboTBnpY/q/L8cp2rh9S5diEyj4yDIaYSIkQ8fFdDQ8m6MOh5GUSun3C9vpkzF/o9FT3OmzpQtpybaL9Kyc2tDf5ZR5bTNNsutMHYytaNwKP/Lf7ET6NRtMiehlyHYa38OYjC0caPqu23RljSP1GjOPvE/dV1yzuTnjFaBFxLV6jueVwsRj+1AnnBkfhMiv/6by11Fu5Ija5IRh5ych9OE2ODS/Ax6eNoL3xTcRedQmOA07j0mhD7HtDzI6E78dQ53OYHxQJL7+2x9zjVeGPAqbnIbh/KRQPNzm0IKcz8PDww2D+O1D4XRmPIIiv8afNWXwy2D+oqi7hcXD86rhffENhDd6M+EVxsPDox5+st6ekOcjv0iOEunLFm5wkaOw8CWYogJIlF+sx8PzSuF98U1EXliIl0wRCv5Ao8vz81EkL4H0ZcuyZLtCXojClwyKCiRNfpMrDw9Pc5AjP78I8hIp/swpQ+jt7e2t/CHPa4DJwF3fALwws0cfIwnStbrB0arm6bZNQYak6ydwLbcbBvXtgMI0QtcBNjBV+TgBHp4/Et4X30RkSddx4louug3qiw6FaaCuA2DTxkZnMu7CN+AFzOz7wEiSDq1u9rAy+ZP+5iRLwvUT15DbbRD6dihEGnXFABtT1U+A4eHhaQEMMu76IuCFGez7GEGSroVu9lb4M6YMfs06Dw8PDw8PDw8PTzvlT/j9goeHh4eHh4eHh+fNgJ+st0fYYiTHJEHahnuOKjJi8CSnlR2yRUh5EIKw2Ox6byBsLqVIjU5AXitFUQdbnIyYJGnLtmtVZCDmSU7L2vLw8PDw8PDw/AHwk/V2BYP0W7vhPtgafd0OIaENNkOw0kicWukCW9ux2B7S8i1MzHM/fOG5ExfDzuMrVzH6f3JS/ZtXVcIiN/wIvMbYovf7uxDeclFUw6Tj1m53DLbuC7dDCc3boMtKEXlqJVxsbTF2ewi/0YuHh4eHh4en3cBP1tsVQnR39sLCMW/Ve+Nd6xCYOGDWiikQt6ZDNge/rFqBuL+thpfXTvj9vAZDjeQqX7euHgHMhrpj+cSeygfaBmF3OHstxJi36r35rakITOAwawWmiFvQloeHh4eHh4fnD4SfrLc7hDAxMVb5KvOWIjA2gmFrOqwMx42QUhga6wEQ4C2XjTi5fz7ebfZjC4QwMjJs07E1QGgCE+MW9i4whlGrlMTDw8PDw8PD0/bwk3U1VGTF4m5QCKJSi2rXMLNZUbge4A//gDtIkLIAk4mHV/3h738V4c/L6hrLC/A04jZuBt5HsrThWpGytBgk5DGoyHyMewmFqD0qL0TSvSAER6ajvEELAJCj4GkEbt8MxP1kaV0bAChLQ0xCHpiKTDy+l4BCVUtTBFoqJsgcfdZDlnYPV6+F41kRg/z4G/C/Goqk4pqjZciMuYvA4IdILVZe6V2J3IQwBAZGIElS17uWVp0kldmxuBsaj1ylNSvygqeIuH0TgfeToaQ+lcgLk3AvKBiR6Y01BwBlmTG4GxiMh6nFHOvRBagnWjVN01EdqsesgIEk+QHuBIcjIVd5oU0Z0qOfIIcFGGkyHoRGIq20+lBlDuJDQ/A4s/4uARbFz+OQXMyCkSQhPDgCSU3ys+aOh4eHh4eHh+d1w0/WG1GEsF1TMWlzOKp0i3D5s6Gw+9s4vP/hx/g6+m10y/kZi6YsxJF4OSDshO5midg7ezJW+mWCAcAkn8K8oR/j+8f5yA71gat4JLaElYHNDcfRZeNgKx4P7wM78Y+RwzFs8HycLADKYg5hjqsHjkRlIOniengdfFo3kWKScWreUHz8/WPkZ4fCx1WMkVvCUMbmIvzoMoyzFWO89wHs/MdIDB82GPNPFjQcjirU9al8HgCqLEWRtBRVIFSVFkEqfYkKhgWbFYBtC1fhYFA07p9ZhZHi0dhwowAsADYvEDvmuuP/3UhFbvQ+TBY7wet8Vr2JciWe/7oCM2Z7YtEUB/SfdhjPGABgkHxqHoZ+/D0e52cj1McV4pFbEKZKMABAGWIOzYGrxxFEZSTh4novHHxabwrKZiFg20KsOhiE6PtnsGqkGKM33ECB+hl7Hc3QETSNWRqOf7u7Ya1fDNISL2DVqD5w3XobeSyLwgensOo9MXqN8Ybf2c2YPdMdn348DHZDVyHgwUksmTgN8xdPx1C7UdgcVgYmPRj7PAbDss8s7PPdgvcHDcH494bBTuyMrXeL1PtZbvPGw8PDw8PDw9NOIJ4GVMVso791cKJtcXLF34++ogG6PWlpoIyIiOTx22mwXm9afVfxN8nu0ure+jTsm99JTnJ68vUQMnDcQjFVRFR1j9b10yP7TZFURURM6h4aq6NP/Zddo1xJHN0IeEwFxSG0ZoANzT8vqZaghC4tsCDtd9dQmIxI/uRrGmLgSFsUHdK9df1Iz34TRSo6pD1jdUi//zK6liuhuBsB9LiAqRlKHS+P0SQ9U5r1WzkRaehTFaU/0xQ9E3LzK1X8zeTQ6dnjaG14tQ6YVNozRoe0HTZRpCyLfnGzJdcfU4khIqqKpW/HdKKu885RCRHlHnAlPaNhtCEolxgiKv7fPDLXG0PfpTBE8if09RADctwSQwr1raN+eva0SY1gpSFraIDNfKpT3SVaYKFN764JIxkxlHN6No1bG04KKRlK3TOGdLQd1PT3ko5N0iPTWb9ReXN1xHCNWUJXFovJbnkQKbRPVBqyiux0zGnmr9nEEEOZP7iQrsFQWheURXIikj3aSPbaHWnYl9foRRURVUXSRntdsvG6TRVEJAtdTb21zcl5cwC9qCIqjT9M0yyEpOPoTY+rVPtZblwzxsPDw8PDw8PTbuB/WVdCnpKM9Mq6JREia2t0RyZSUlQvsWiIEGLPEwj29YJVeiCO7jyGcAkLWXkFWAACfX3oCIzh5DIKnU36wMV1AHSu7cfx5P4YO67mbaV6sLYyr32LnVDsiRPBvvCySkfg0Z04Fi4BKytHhaJD6OsIYOzkglGdTdDHxRUDOmk2KWefTaEsEOcCMvD00m74+PjAZ6cvyl29sXWuI/Ql/jgdoAsHpy6K2zaivlgdWICM41NhWNPe4F0MGdwZAgB6PXrADFJIJCwgFMPzRDB8vayQHngUO4+FQ8LKUK5SsBIE7D+O5P5jUac6a1iZ12iuDIHnApDx9BJ2+/jAx2cnfMtd4b11Lhz163WjhmbpiGvMhRdx+Nd02A50gF716QZD3DBVnI9Lv/hDCgE6GBpAS8cag5y6QAhAR2wLSxHQfdAIWIgAiKxg2VULRRIJqNqP9ISdMXyKCyxEgIGdO7YstAfFBCEoh1XpZ53fbcZ4eHh4eHh4eNoNmmd2bxg6Qybi/XcScfPqczAAZE8SkGrqgkljOiifqhKBqBxRexfC82gmBn7qCWdzQYMnjDRcFs0gPeF3SCGESJ0lBCKUR+3FQs+jyBz4KTydzSFQ32HT0NSnBtjiPBSU68Ju6hqsW7eu9t/a5ZNhW5SL/AopCiVN7FAogBAM5FUAIICoPAp7F3riaOZAfOrpDHN1gjHpSPhdCghFqp2YLUZeQTl07aZiTT0Z161djsm9RcpnN6YZOmIK1I+ZyUnDizIWlZX11pyLrGBpIUClVIKXbMN1/AAALQG0lLxGIADHE4JE6Nm3FwxRBZlMcVIjt2jGeHh4eHh4eHjaDyrnOW8ygs5TsWe/O3Rv/hvb9uzG1+f08YX/SXhYVf9iKxRBCAKrNNEhYgCU4MqKKVhfMB0/bJsFR7OaSaG6WZEWOr3dCaKKWDyMUnoQIrFgAZRcWYEp6wsw/YdtmOVoBk09NoXW9ikw7gpzgwT4HbkJSe2nDJL9LyPurR6w0M+B/5mrKKw5xBbA/6AvEjXtaCy5ghVT1qNg+g/YNssRnOrT6oS3O4lQEfsQjVXHAgJjdDU3QILfEdysExJMsj8uR2t+CntzdCR8R/2Yk97phZ7GDOIePKxbH85WQlYpQLeBDjBvcQQSqN6v4lVlFWDN7NCvq+pH9DRnPDw8PDw8PDzthxZPFf6ySK5g3eZ0TPv3Dqz1WoEtu7Zgjn3NOgtAaGaBLjoZCL/2CDm5T3B5/3HcLZAjL/058oty8Cw5ByVpiXheUoH0oIsIy2JQVpSFqIhYAABBjqrauaIAnSfNwcS3k3FkxXpcSqsEZKl4FJsLRpKB1GwJsp8lI6ckDYnPS1CRHoSLYVlgyoqQFRWB2BLFbEte16FqGAYMCCzLAmBRpKlPZSorUUWVqJRVzw4Nx2P+LGukHHTD2Nlb8ZPfWZzw8cCXoYaweWsC5s/ojuyTi/HR8v/A77++2P2ZO/xEw2ErZBUyEKs0SVR8zhY9Q3JOCdISn6OkIh1BF8OQxZShKCsKEcqCCTpj0pyJeDv5CFasvwSF6h4hNpeBJCMV2UVaGD9/FqxTDsJt7Gxs/ckPZ0/4wOPLUBjaqPplnQHDKCb6bHN11JFjzJ0mYqlnf0jO7sHRRMVTYNjs6whMH4GlS0ZBFwBTrZO6uTcpJuO1SlL8n2Xrb57NQ2pKtSBsJi5ciEY/zyVwrl5r09DPNIznZQGub3HDP7ffrvfli4eHh4eHh6ddoLyI/U2HyfiFPrHUJS2AoKVFAm09MjbrRWM8T9ITGRHRSwrZPp56GBuThcN02nX7Cq1x7EVj5nnTqfu5lHFuKQ3uYkSmPUeTx/7b9LO7JZnYTKRvAoLo9Lr3yFwoJAvXDXT6Qb5iMyIxJLn3I7kPtSRTEytymvQ5eS8YStbDZtFXx8IoI/0cLR3chYxMe9Joj/10+2d3sjSxoYnfBFDQ6XX0nrmQhBautOH0A8pXsbeUyhPo0iZX6iIUkuXUHXQ+9iUxGWr63BVGUqXmVck36T9LR9JbAgGZjVtDB/8vjF7Iiag0nk55OZOtqS7pGPegEYuOU2z1/lMqjSdfL2cSdzaijhZONGv3HcpliKSP/4++HGdGQm0xuX17iWITgunIshFkIjQkx8VHKTwznc4tHUxdjEyp52gP2n/7Z3K3NCGbibsoTFkwIiJGQvd+dKehlqZkYuVEkz73pgVDrWnYrK/oWFgWEZVS/CkvcrY1JV0dY+oxYhEdrxWyPuWUcGkTuXYRktByKu04H9ssHRGpHzMREVWl0IUNk8nRYSzNXPgv+nSOJ30XlEMMEZXEX6DNEyxIKLKhj3depJjUKPrvtsnUQygim2k+9L/Hz+mB3yb6wEJIIutp5OOfRKWRG2mgjjkNneFBn61YSZ99Mo3cvrpIqXIipuCRSj/jHI88iX6c8A51mXiAkhX7qnl4eHh4eHjaCVpE6lfCvomwGRew9WAxPnJ3AJsvQVFJGUokmXh85gSyFvpj33hd5SY8PK8UedQmOA07j0mhD7HNQdVdAh4eHh4eHp6/CvwymPqwGTjptRyPbf6OATZ9YD94BMY4j8eHH0+Hq9Pf0Ffl8gkentcE/yQXHh4eHh6evzz8ZL0BIph00cetZUPg/MkybNi6A9s3f4HFc/6F/9osgkdP1Zv3eHheJfLCQrxkilAgUX4TKg8PDw8PD89fDX4ZTCNkyIi4hAuBMcgsE8LUchDGT/k7+r/FT9R5Xj+ypOs4/n/BSCmSQ2RihbEz5sPFRkf5NB4eHh4eHp6/CPxknYeHh4eHh4eHh6edwi+D4eHh4eHh4eHh4Wmn8JN1Hh4eHh4eHh4ennYKP1nn4eHh4eHh4eHhaafwk3Uenr8EpUiNfIz0CuXP2ykVGYh5klP39MnSVEQ+TsefRfw2hS1GckwSpPyjOFtFRUYMnuS0tRL/ZHHVSkpTI/H4TzhY3vY8f3X4yXp92Byc+WwsRo52xvsTPsAHrs4YPXIUxr3/AT74wBXOo0di1MTtCOGfmMfTzmBTDmHusOFYeCK7fT9+nZUi8tRKuNjaYuz2EChCiUXKobkYNnwhTmS3a+nbGAbpt3bDfbA1+rodQoJc+ThPU2ClkTi10gW2tmOxvY2T858mrtoCNgWH5g7D8IUn8GcJQ972PG8K/GS9PlSA5xJbLD3hj2v+V/C/jfbIiXiMzgt+w5UrV3HtNx+4UBqy+KL6x8Hm4eGDZ2CUP+fhRGC1CD+HheLwvC7tO6gFJnCYtQJTxIS6x1AJYLXoZ4SFHsa8Lm0jPZv3EA+etXcvEqK7sxcWjnkL/DO5Wo7AxAGzVkyB+A9Q4p8mrtoCgRUW/RyG0MPz0EZh+IfD2/5NhUXewwdo9ym+DeF9sAEiOMxbjY+sdZUPAABEZqOweuUUvK18gKfNKI34HpuOPwX/fai5GMLSYSC66yl/3g4RGMPIUKvhZ4aWcBjYHW0jfikivt+E40//DF4khImJMZS0wdNMBMZGUHaptuFPFFdtgKGlAwb+yQbL2/4NpDQC3286jj9Fim8j/pyT9YoUBB7/Ft7eO3H0VjLKlI+3FKEYrq7vQqT8eT06uHyIcQZ1f5dlxuBuYDAephY3uFVWmhaDxAIWqMxBXGgo4nMbe1VFVizuBoUgKrWo8W02eQGeRtzGzcD7SJY27etja2RRRWVuAsICAxGRJAEDgM2KwvUAf/gH3EGClAWYTDy86g9//6sIf97QCupkQWkaYhILwKISOXGhCI3PrZ6Ys8gL34t5n+zGvZQoXAu4jdg8RUt5wVNE3L6JwPvJaKIqgNIMRIcEI+xJLmSVOUhOKW4b+evR1P5aov+y9GjFGkxGiuQHoYhMK60+Uomc+FCEPM5stL67IiMa8fXuX7PSZ4gIuoOotCIUZGahpgeUpSP6SQ5YMJAmP0BoZFrtscqceISGPEamcudgIEl+gDvB4UjIbfrtZmUfUiCAVqPiWoGM6Hil2+9lyIy5i8Dgh0gtbmgFtTpl8xC+dx4+2X0PKVHXEHA7FtVuBJRlIuZuIIIfpkKpu0awxc8Rl1wMlpEgKTwYEUlShfxsFqKuB8DfPwB3EqRgwSDz4VX4+/vjavjzhrmI63ryQiTdC0JwZDrKlQ4BGtqqpBK5CWEIDIxAkkQ5SLhsV4b06CdQuFoyHoRGos7VchAfGoLHDZyBRfHzOCQXs2AkSQgPjkCSUlCWpcUgIY9BReZj3EsorLa7HAVPI3D7ZiDuJ1frsq4BYhLywFRk4vG9BBQqi98ANT4h0GraF54W+L5yXIGV4llEEO5EpaGoIBNZdYHVTF0qYCTJeHAnGOEJudXLwjTDmZ9ak/sqMhAdX2/ZB1uM53HJKGYZSJLCERyRpCIHc/mXOlrS5vXbvj3kVFTmIiEsEIERSWgc6hIkP7iD4PAENOqyuTK22valSItJhCJNxyE0NB6NS58am3K0ZfPCsXfeJ9h9LwVR1wJwOzavzl+bmzfVna92nvIaoT8bJRG0Y3QnEmiBABAEpjR8y10qVj6vDZDdWUFikRFN/7VU+RARk0n+Wz3Ic9M++s+uJTSmWxcasf465WZH0PFlY6mLrgXN23eIFo51pAE2JqRt9iEd+F1e3VhKoTun0HsLD9PtsEu0/cN3Sew0lsZ/8BFtu1VK8mcnaa7jGFpy0I9O7ZhGtp2HkneoChlqaJUsKmBy6fb2OfTPNfvo9Jnvabbd22T/+f8os6yA4o/PpG46vWn1XRkRlVPOoz30d1MdGvbN7yQn9bLkV+VSxPFlNLaLLlnM20eHFo4lxwE2ZKJtRh8e+J3kTAFFXTpEHgN0qNN7G+jn0+coIrOSnp2cS45jltBBv1O0Y5otdR7qTVyqICql2GOL6YNpXrTrwEH6xmMc2XXtRAPW3aOqilbIzyhfh4g09FeZ23z9MwX36eRKF7LQNaEZe/1ok5srjerfhXQN+tFK//v087/G07DB/aiLnjE5bQqlUiJiCh/RL2vGk4VuR5pxRqEc2ePvac4nW+n/blwj380fku2wrRQrK6D7J1eSi4UumczYS36b3Mh1VH/qomtA/Vb60/2f/0Xjhw2mfl30yNhpU52eJWG0Z97HtMjnKJ06tI4+EPek97fcolxVOqlBnQ8xREQv6dgkPTKd9RuVE0OFj36hNeMtSLfjDKoWn5hMf9rq4Umb9v2Hdi0ZQ926jKD11/OpSoNOmYIounTIgwbodKL3NvxMp89FUCbDUKb/VvLw3ET7/rOLlozpRl1GrKfrqowqT6OgvQvI0VSPBizfT5ucrahTB23SEnWm0VtCSEoVVBB/nGZ206Heq++SjIjKcx7Rnr+bks6wb0hhVu7rlUYfpE+cp9Hag750ZMs/aaiFMWm/u4bCZJrbqoLJvU3b5/yT1uw7TWe+n012b9vT5//LJIa4bMdQwf2TtNLFgnRNZtBev03k5jqK+nfRJYN+K8n//s/0r/HDaHC/LqRn7ESbQktJnhZEexc4kqneAFq+fxM5W3WiDtpaJOo8mraESInJCaMjS8eSue475LZ1B31obUACo8l0LOcZnZzrSGOWHCS/Uztomm1nGuodSqVMDoUdWUpjzXXpHbettONDazIQGNHkY/nKQyTi8AmFSx2jSXqmNOu3cuVmCpjm+76quCLZY/p+zie09f9u0DXfzfSh7TDaGitrti4VSChszzz6eJEPHT11iNZ9IKae72+hW1yBxZmfWpH7mEJ69MsaGm+hSx1nnKFSklNa0F5a4GhKegOW0/5NzmTVqQNpa4mo8+gtFCKtlketfzUUuwEtaNMebP/acyoxlHt7O8355xrad/oMfT/bjt62/5z+p0iqJAnbQ/M+XkQ+R0/RoXUfkLjn+7TlVi4xzR5/a23PUG7EcVo2tgvpWsyjfYcW0ljHAWRjok1mHx6ozpHqbJpL2ZxtGSqIukSHPAaQTqf3aMPPp+lcRCYxzc6bas7Pzeaepyh38wr5k03WGcr+aSIZ1UzUq/9pGb5P/3mhzigtR/1knaGc07Np3NpwklX/nbpnDOloO9CmyCqSP/uWRugYk9Oy85QsIyLpbzTbTJdGfvuM5ERUFbON/tbBibbFKUxf9egrGqDbk5YGyohITk++HkIGjlsopoqIqu7Run56ZL8pkqqUpFDQOlkaw1DWL25k6/ojpTJERFUU++0Y6tR1Hp0rIZLHb6fBejUJn4hkd2l1b/3qyS63LCR/Rt+O0CFjp2V0XiEM/TbbjHRHfkvP5IpC9IOLHll4XKEKIiL5E/p6iAE5bokhhSrWUT89e0Vfaii+tZz6OayhuzUmk4XS6nd1qd+6e1RFrZRfBdz9UQv0T8Rk/kAuugY0dF0QZcmJSPaINtprU8dhX9K1F1VEVEWRG+1J18aLbldUt8n6kVx0jasLi4xCV/cj+y/DqZyIiMkm3+37KK6qRse6ZDB0HQUpOqdHG+1Ju+Mw+vLaC4WeIzeSva4Ned2uICIJXVksJrvlQYq+iKg0ZBXZ6ZjTzF+zFcWyEdw+1HCyXn3+jy6ka1w9WWdy6PTscbQ2vFqnTCrtGaND2g6bSOFG3DplMn8gFz0L8riiUA6Tc5pmj1tLdd3toTE62uSgLqZkobS6tzaZO2+mgBdVRKXxdHiaBQl1HMn7cRWRPJ62D9arnawTyeju6t6kXz1Z57xeaQitGWBD889Lqi9WQpcWWNRO1jnbVrdoAJNFv7jZkuuPqQpbVMXSt2M6Udd556hEo+0YyvzBhXQNhtK6oCxSuNpGstfuSMO+vEYKV4ukjfa6ZON1myqISBa6mnprm5Pz5gBSqOYwTbMQko6jNz2uUsg7Vkef+i+7RrmSOLoR8Jhy476mIQaOtEWR0Ojeun6kZ6+wJTGptGesDun3X0bXciUUdyOAHheo8CoNPqFxwkYt8X3luFKMv5/9lxSuCCzK9t1O+xSB1WxdSq4sJrHdcgqqMw6tstMh85m/UrYKFWjK9a3LfQpf+tFFl4xnnKHq0VLo6t6kbe5MmwNeUBWVUvzhaWQh1CFH78dUpdG/VNGCNu3C9q87pxIxWb+Qm60r/ahIqlQV+y2N6dSV5p0rIZJcocViO1pe50wUssqOdMxn0q/ZTAtkbK3t5fTs2xGkY+xEy84nkyJNzyYz3ZH07TO5BptqaFsda3oWHlSd4pudNznP1zRPeU38yZbBsMhKTUeF0l4SkqUj5cWrvElRhsBzAch4egm7fXzg47MTvuWu8N46F476gLBDBxgKjWDv6gprHQCGYvTqLkCRtBAEQJ6SjPTKuqUAImtrdEcmUlLKAQgh9jyBYF8vWKUH4ujOYwiXsJCVVzS+3Qm0WpbGSOB/OgC6Dk7Vm4xE6Ls6EAUZxzHVUPlcZbhlgbADOhgKYWTvCleFMBD36g5BkRSFqoQRiuF5Ihi+XlZIDzyKncfCIWFlKK9QrQmgCJcPnELxkPfhWLNUSdgRHTs01c01yN8Cmq9/QNDBEAZaOrAe5IQuQgA6YthaioDugzDCQgRABCvLrtAqkkBS3YnAyAgdau8Fi2AhtkTqd5Mxet7XOBunDbcNn6OPCICgAwwNtKBjPQhOis4htrWECN0xaIQFRABEVpboqlUEiYSAwos4/Gs6bAc61K4nNxjihqnifFz6xR/Smks2oLk+JICRUYe6W9llgTgXkIGnl3bDx8cHPjt9Ue7qja1zHaFwo+bptCzwHAIynuLSbh/4+Phgp285XL23Yq46owr0oa8nROfhU+BiIQIM7OC+ZSHsKQZBQfUeN6kGruuVBOzH8eT+GDvOpPpsPVhbmUPYhLYqkfjjdIAuHJyqN8GJ+mJ1YAEyjk+FoUbbCdDB0ABaOtYY5NQFClezhcLVRkDhalaw7KqFIokEBECgrw89YWcMn+IChWrcsWWhPSgmCEE5LAT6+tARGMPJZRQ6m/SBi+sAdH7XEyeCfeFllY7AoztxLFwCVlaOCrZa1zoCGDu5YFRnE/RxccWATiriVYNPNInm+n6juAJEFmJYpn6HyaPn4euzcdB224DPFYHVTF0W4uLhX5FuOxAOdcaB21Qx8i/9An+VgcWVn1qb+wAIjGBUf7AQQF9fD8LOwzHFxQIiGMDOfQsW2hNigoKQk6/Jv1Sg0SdV0C5s/7pzKiDxP40AXQc4Ve/+FfVdjcCCDByfaojCi4fxa7otBtY5E4a4TYU4/xJ+8Zc2X8ZW216IDh0MITSyh6urNRRpuhe6C4ogLSQNNtXQVgXNzZuc5zd3nvKKaEYktwdEsB3sCLOaylaN4G1HDOmt0/DDPxK2GHkF5dC1m4o169ZhXc2/tcsxubcI0FJaQ6clhFALIFZhaZ0hE/H+O4m4efU5GACyJwlINXXBpDEdAAACUTmi9i6E59FMDPzUE87mApWTEKD1sjSCKUBufgWkhYri3Cw0yQItpbXKWhAqhFFzLQFE5VHYu9ATRzMH4lNPZ5gLVJ8JAGAy8SylBCId7aatYVRGo/wtoLn6h4o20IJAS3EbqfYTgQANHiGiVV+3AvRYcBLXD7jBKGgHZgzqjeHLziGNgQobAFqNO4cAiqe1MDlpeFHGorKy3mJGkRUsLQSolErwUtXMtQU+pFVvzGxxHgrKdWE3dU2dDdatw9rlk6Fwo+bolEVxXgHKde0wdU09m65bi+WTe3PuT6mPqGdf9DIEqmQyDWPiup4tshJ+hxRCiFRmXq62qmVlCnKRXyFFYc23tvrHmmA7rcbOAMWNy9oPoOxqDRGhZ99eMEQVZDLFSY1iTyBCedReLPQ8isyBn8LT2RwNwrhRg8Zo9Ikm0TzfV/zdsI2gxwKcvH4AbkZB2DFjEHoPX4ZzisBqni6ZHKS9KANbWVlv74kIVpYWEFRKIVEVWFz5yTa3dbkPqNaPhtainuirCASUZWv2L2Wa4pPKtA/bv+acCgYFufmokBbW/kBT/1hO2guUsZVo2KUlLASVkEpegm2mjCpppu2VfUlLKIQWCCxptilX28Y0N29qOl9ZV5rmKa8GlSWjPdPhg+04sGww3hJpKZRo6ojPDnyDqTU/VL0KBMboam6ABL8juCmp+5hJ9sflaM2/8As6T8We/e7QvflvbNuzG1+f08cX/ifhYSUEUIIrK6ZgfcF0/LBtFhzNalxNjZu0UpZGCN9BDwt95PifwdXCmg9ZFPgfhG8iAwhFEKoIGiKm7WUpuYIVU9ajYPoP2DbLEZpUAS0TmHYEXjwIx/NGG2GqaWv5ufp7bTBIj32B7u57cTMhDhfXD0Dafi/suCFTPlEjwq690NOYQdyDh3WbJ9lKyCoF6DbQAeaqMogmH9KAwLgrzA0S4HfkJurMwCDZ/zLUmUE9Ahh3NYdBgh+ONDQq/C9Hc24aIqpXNavKUMGawa5fVwghhEio4ssBERjO68XA+O1OEFXE4mGUki2IBcvZVrWswnd6wEI/B/5nrqJO1QXwP+iLpHdaYLsmQWiomgqwZnbo11XpV5RqSq6swJT1BZj+wzbMcjSrLZ7qwlgVbesTLYdJj8WL7u7YezMBcRfXY0DafnjtuIFmR5awK3r1NAYT9wAP64yDSlklBN0GwkGVcbjyU0yH1uU+Lojq3U2qQlkFCzO7fujevfn+1ZJ80j5s/5pzKoR4p4cF9HP8caYuqYIt8MdB3yS806snjJk4PKhzJrCVMlQKumGgg3nLJ3ptaPv6tK1Nm5s3m3t++0CDStshAnNM3B2KZ4nhuH07DInJEdg7xeIPGQhVVaKS5KiUKX/VNcT4+bNgnXIQbmNnY+tPfjh7wgceX4bC0EYElmEgJ7ZeMScQCCzLKhxfcgXrNqdj2r93YK3XCmzZtQVz7Ku/bbBFeJacg5K0RDwvqUB60EWEZTEoK8pCVERsPRlqaKUsjeiICfNnoHv2SSz+aDn+4/df+O7+DO5+Igy3FUJoZoEuOhkIv/YIOblPcHn/cdwtkCMv/Tnyi4WcsoBlwMgJbL1vqEQAsSxYFoBAD3q6wMusTBTmRSA47AmSc0qQlvgcJRXpCLoYhiymDEVZUYiILVGSG4DADH//aCz0I77B7CX7cfXeQ9w6fgy3suqKUavkVwF3fxUt0D8AhgULUuikGgJA9X7eJCKAZeueqsEyYKmmDYN0v104+KgM0LPCB+s3YrqVAXT1tAAwYFmFzus6UxiitnciEFiwDICOE7HUsz8kZ/fgaGL1K4yyryMwfQSWLhkF1Q855fYhgAHDVNu9ugXLsCCq/ttwPObPskbKQTeMnb0VP/mdxQkfD3wZagiFG3HrVKCnB128RFZmIfIiQvBsxHzMsk7BQbexmL31J/idPQEfjy8Ramij4leXGljkpaZA4WUsMi9cQHQ/Tyxx1gOEZrDoooOM8Gt4lJOLJ5f34/jdAsjz0vE8vxjC8equZwvzSXMw8e1kHFmxHpfSKgFZKh7F5oKRZCA1uwhaatuqkbXjBMyf0R3ZJxfjo+X/gd9/fbH7M3f4iYbDtpNm2zEKZ6jni6TQZ50zQOFq9SZ0bB5SU6rjj83EhQvR6Oe5BM7V98MJclTVVjwWRc+SkVOShsTnJahID8LFsCwwZUXIiopAbInikvK6BqrR4BNgGDDVPqCeZvo+lOMKYNL9sOvgI5RBD1YfrMfG6VYw0NWDVrN12RETl3qiv+Qs9hxNVDwFhs3G9cB0jFi6BKNUBhZHrrft2srcVwGABcNSQ/0AYPNSUWfuC7gQ3Q+eS5yh15Lc0JI27cL2rzunAh0nzMeM7tk4ufgjLP+PH/7ruxufuftBNNwWnSYuhWd/Cc7uOQpFlyyyrwcifcRSLBml23wZq2m57VkwjBzE1vtyqCj2Cjtx2lRDWwigp5goILMwDxEh0c3Om4Zc52uap7wulBex8xARyejZ7eO046OepK0lILOxK2n/xRiSNNj5UUrxp7zI2daUdHWMqceIRXQ8tpRIGk1n17uQmVCbxDN305W4RLpzdCkNNxGQgYMHHQ7JICbjF/rEUpe0AIKWFgm09cjYrBeN8TxJT2QMZZxbSoO7GJFpz9Hksf82/exuSSY2E2lXWM02bGVaLotqSine14ucxZ3JqKMFOc3aTXdqt6m/pJDt46mHsTFZOEynXbev0BrHXjRmnjedup+vXhaSUvTZ9eRiJiRt8UzafSWOEu8cpaXDTUhg4EAeh0Mog5FT0rF/ktj0LRJP3U3hRRl0bulg6mJkSj1He9D+2z+Tu6UJ2UzcRWpVIc+ka5snkV3nDmRsNY5W+PnTZif92k1WLZdfHRz93Q5uvv5L4unC5glkIRSRzcc76WJMKkX9dxtN7iEkkc008vnfY3r+wI82fWBBQpE1TfPxp6TCeLq4eQJ1FYrIauoOupz4ku6uH0497d8j9y+8aevaRbTI5yZlMyUUf2EzTbAQksjmY9p5MYZSo/5L2yb3IKHIhqb5/I8eP39Afps+IAuhiKyn+ZB/koyoKoUubJhMjg5jaebCf9Gnczzpu6ActRuhFKjzoXJKuLSJXLsISWg5lXacj6WS+Iu0eUJXEoqsaOqOy5RYQUSl8XTKy5lsTXVJx7gHjVh0nBRu1ASflifRsX+KyfQtMU3dHU7FRFQaf4q8nG3JVFeHjHuMoEXHY6s30amgKpI2DtQh86EzyOOzFbTys09omttXdDG1bnfRy5DtNL6HMRlbOND0XbfpyhpH6jVmHnmfuk/5DNf1GJLc+5Hch1qSqYkVOU36nLwXDCXrYbPoq2NhlMXZVg2l8eTr5UzizkbU0cKJZu2+U/dUCQ7blcRfoM0TLEgosqGPd16kmNQo+u+2ydRDKCKbaT70v8fP6YHfJvrAQkgi62nk459EpZEbaaCOOQ2d4UGfrVhJn30yjdy+ukipciKm4BGdXvcemQuFZOG6gU4/UDytg8k4R0sHdyEj05402mM/3f7ZnSxNbGjiNwEUdHodvWcuJKGFK204/UD1U5dqUOcT5Ql0aZMrdREKyXLqDjof+1K5JRG1wPejo5TiqoJkd9fT8J729J77F+S9dS0tWuRDN7OZFulSRlWUcmEDTXZ0oLEzF9K/Pp1Dnt8FUQ6XDrjyU6tyXyrFX9xME7oKSWQ1lXZcTqzeyD6QdMyH0gyPz2jFys/ok2lu9NXF1LrN8Rz+pZaWtHnttm8POZWoNN6XvJzF1NmoI1k4zaLdd3Jr21SlXKANkx3JYexMWvivT2mO53cUlMO0bPxJpa2yvTT6LK13MSOhtphm7r5CcYl36OjS4WQiMCAHj8MUksGotWlT2sqTjtE/xab0lngq7Q5XPAuwuXlT9flNmaco9/Rq0KL6P9fxvBLYjAvYerAYH7k7gM2XoKikDCWSTDw+cwJZC/2xb7y679Y8zYaJx/ahTjgzPgiRX/9N5bdsHp4GyKOwyWkYzk8KxcNtDrzP1EMetQlOw85jUuhDbHPgNdOuaXXukyNqkxOGnZ+E0IfbwJv7TYK3fXvjj1g9wsMFm4GTXsvx2ObvGGDTB/aDR2CM83h8+PF0uDr9DX3VLLfg4eF51bzOe57tHF41bxS8ud9ceNu3D/jJ+itHBJMu+ri1bAicP1mGDVt3YPvmL7B4zr/wX5tF8OipepMWTwuR5yO/SI4S6ct2u3GEp50hL0ThSwZFBZImv1HyTUFeWIiXTBEKJLxm2j2tzn1yFBa+BFNUAN7cbxq87dsbQm9vb2/lD3n+QLQ64N0PPTDX2RKi8pcoqdSCseUw/HP5KvzT6S3+21NbwmTgrm8AXpjZo4+RBOla3eBo9SofG8Tzp0OWhOsnriG32yD07VCINOqKATamtc9Bf5ORJV3HiWu56DaoLzoUpoG6DoCNKa+Zdkmrc58MSddP4FpuNwzq2wGFaYSuA2zAm/tNgLd9e4Rfs87Dw8PDw8PDw8PTTuF/yOXh4eHh4eHh4eFpp/CT9SbAFicjJklau9GiNDUSj9PrvbmrFhZFKQ8QEhaLbFWH/+ywRUh5EIKw2Ox6b91rPqWp0UjIa8/bViqQEfMEOc0VkS1GckwSpHWOgsjH6a3S1auDRXFyDJJqhW8BFRmIeZLTig1JDCRPY/C8VPnz149yDmg1yr7Szmj6eNuvzVpFE2JXfR1oLS3MPzwclCI1OgHqy04pUiMf4w8xpzqa4GNvIk3PPS2g1TXq9cFP1rlg0nFrtzsGW/eF26EExSYdNgWH5g7D8IUnkF3f4sxz+H3hiZ0Xw3D+K1eI+3+Ck2pfJffng3nuhy88d+Ji2Hl85SpG/09Oqn9TnhrY3HAc8RoD297vY1f4q921wqQE4+R3n2PK6JEY9cE/sdjTE56envD0XIh5H72PcZ/sR7ychTTyFFa62MJ27HaENFlEBum3dsN9sDX6uh1CgsJRkHJoLoYNX4gTDRylBVQm4+I3K7Fi60ncz2MBJgORkZl1L0RqJUz6Lex2Hwzrvm44pBC+ebBSRJ5aCRdbW4zdHtKiTZlM6i3snjsI1gMWwDe1rUbWBqjKAa1Cla+0I5ox3nZrs1bThNhVVwdaRUvzD496WOSGH4HXGFv0fn8X1JUdNuUQ5g4bjoUnslsxkZPhzobh6D16NQJyNfXSBB9702hG7mk2bVCjXjvKD17nUUIWQivFuvTumjCSVX9UkvKIotLK653EUPbP06jrB4eogIiY/Bu09RNPOvqk7iUqfzhMLj24n1T3woK2hMmmn6d1pQ8OFRARQ/k3ttInnkepJcOTJ+2iEbrv0PwL9fX3iqi4TZ9bC0l30jFq8OqMinj694INFFhBRMRQ2vfjSNd0Fv3WLBFlFLJSTLrvrqGwOkehR1Fp1KxuGsFQrt8WWr7tS/qoT0fSNR9KM+fPog3nJcontgpZyEoS675La2qFbyZMGn0/TpdMZ/3W4vFW3PqMrHSdaFtcCxzrj0RFDmgdKnyFE4ZyH9ynpFellmaMt93arLU0it3GNmhcB9qCluYfHvXIKWnXCNJ9Zz6pLzsllPIoippkTnW1VnaXVjsNow3B6t7Yp0QjH/sr0DhOmkUzck+zaYMa9Trhf1nXhNAEJsZaDT4ytHTAwO7V79YGAFQi/EYISg2NoQdA8JYLNp7cj/nvvrrt06UR32PT8adt+220hspw3AgphaGxHgAB3nLZiJP756MlwxMaGcGwoTpfHcIO6NhBhcvr9sacz6ehmwgABDA2MkTzRRTCxMS4YTtDSzgM7I76ntIiHGbhq/Xf4OyjaFzfOQujJn6JVROb82QHzQhNTKDk5s1DYAyjVhpWaGgEQxXmee2oyAGtQ4WvcFEage83HcfTPyS4VdCM8bZbm7UW5dhVYYPGdaAtaGn+4VGPEEYadWoIS4eBaIo51dVaJi0V3b74BVtGdVQ6ogZlH/sroCJOmkUzck+zaYMa9Tr5K6bZNkFemIR7QcGITC9XPgRUZCA6vvp2mSwN965eQ/izIjD58bjhfxWhScW1p5ZlxuBuYDAephY3uL1WlhaDhDwGFZmPcS+hsG5JQ1kmYu4GIvhhKorrNyhNQ0xiAVhUIicuFKHxudXJgkVe+F7M+2Q37qVE4VrAbcTWLswrQ2bMXQQGP0Rqg85YSJ9FIOhOFNKKCpCZpX7BqSztHq5eC8ezIgb58TfgfzUUdcNT17+CytwEhAUGIiJJUjc+La26pFmZjdi7oYjPVYpseQGeRtzGzcD7SJY2vL3OSp8hIugOotKKUJCZBfWSN52ymGjk9HNEzSPuBVrNCGh5IZLuBSE4Mh2NPaUCGdHx9W6Tc+tdta8I0NlcB5m/F4DV7QLxIEfYv9sFRkqRy0iS8eBOMMITcptxi0+OwqR7CAqOhCo312TfhgigSm3ygqeIuH0TgfeToWTKxtT6BkGe9wTh4XGN93601DfUxRUHnDlArb044PQV1bpi88Kxd94n2H0vBVHXAnA7Nq/2Wlw259SFGlo03qbYTF1bNbDFzxGXXAyWkSApPBgRSdLGS77U2bMsDTEJeWAqMvH4XgIKGQAoQ3q0Yg04I03Gg9BIpNUopDIH8aEheJypLHRd7Kq1Qf06AAAoQ1pMAvKYCmQ+vocExcXVIEfB0wjcvhmI+8kNx9c4/7REfvX9AwAqc5EQFojAiCRIGh1UF/elSItJRAELVObEITQ0Ho1Td2MfVtAE3bBZiLoeAH//ANxJkIIFg8yHV+Hv74+r4c9RVnOe2lqoHq16Oq3MjsVdFbJXZEQjvv6SFFaKZxFBuBOVhqKCTGSVctVaAG8NwYguabivIh5V13vl+gAAlchNCENgYASSGhmGgST5Ae4EhyMhV/kK6lFZh2tgJEh+cAfB4Qlo1GUz9aw2TjTkKmjMPRy+3MhG9Q8qo6pGcfStoV6/avjJeiPKEHNoDlw9jiAqIwkX13vh4NOayilB5Okv8L5tT4zeEqzYGEKVKC2SorQKoKpSFEmleFnBgGWzELBtIVYdDEL0/TNYNVKM0RtuIC87HEeXjYOteDy8D+zEP0YOx7DB83GygEVWwDYsXHUQQdH3cWbVSIhHb8CNvBzcO7Ec42zFmOBzGkcWueLDWXPwoX1/TD2YBIaVIrNAH6YdWLCyUkilRSiTA2xWALYtXIWDQdG4f2YVRopHY8MNReBF73WH1y/pkFfE4+jsofjHTylqg5AqS1EkLUUVCFWlRZBKX6KCYTn6B8DmIXDHXLj/vxtIzY3GvsliOHmdR1a9pFT5/FesmDEbnoumwKH/NBx+ptAxk3wK84Z+jO8f5yM71Aeu4pHYEqZI05XRe+Hu9QvS5RWIPzobQ//xE1LUCd5E5EVPcPr7U3iiKoNooCzmEOa4euBIVAaSLq6H18Gn1cHOQhJ5Gl+8b4ueo7cguAIAl97V+EqBPI/b9gAAKcL/7Q63tX6ISUvEhVWj0Md1K26r30mloCwGh+a4wuNIFDKSLmK910HUuDnA5T9NhUHyqXkY+vH3eJyfjVAfV4hHbkG1KTkg5Fz2wnCH4XAZ2R9WdlPw/YMSoMW+oSauCrhGwpEDwGEvji7V+wo4dMVCmlkAfdMOYFkZSqVSFJXJNdpcvS7U0drxqreZ5rb1YNIRvM8Dgy37YNY+X2x5fxCGjH8Pw+zEcN56F0WAenvmZSP86DKMsxVjvPcB7PzHSAwf9jfM3rofq94To9cYb/id3YzZM93x6cfDYDd0FQIenMSSidMwf/F0DLUbhc1hZSpiV4UNSvKV6gCL3PCjWDbOFuLx3jiw8x8YOXwYBs8/iQLlMQIAk4xT84bi4+8fIz87FD6uYozcElY3Ga2FReGDU82UX1P/LPICd2Cu+//DjdRcRO+bDLGTF85XJ2fVcZ+HnHsnsHycLcQTfHD6yCK4fjgLcz60R/+pB5HEgNOHm6wbQSf06JaDnxdNwcIj8ZBDiE7dzZC4dzYmr/RDZlVT8iEXlXj+6wrMmO2JRVMc0H/aYTxjAFYSidNfvA/bnqOxRZGsgcpo7HX3wi/pclTEH8Xsof/AT8n5KmstVzyyuarqvTsO3FauDwCbF4gdc93x/26kIjd6HyaLneB1PkuRc6Xh+Le7G9b6xSAt8QJWjeoD1623OTbMaq7D0vB/w91tLfxi0pB4YRVG9XHF1tt5YNmW6FlFnDQhV2nMPVy+rMpG3ImuIVx9c9Xr14Xyupg3ndKQNTTAZj7VLgkuuUQLLLTr1lAxWfSjiy4ZzzhDpXWt6OcpemTi5lf9GUM5p2fTuLXh1euuGErdM4Z0tB1oU2QVMal7aKyOPvVfdo1yJXF0I+Ax5WWdptnj1lJ49UItJnUPjdHRJodNkVQlf0bfjtAhY6dldD5ZRkRS+m22GemO/JaeyYmIyaQfXPTIwuMKKZZd59Dp2eNobV1ntGeMDmk7bKLI0lBa3c+evgxXrNpisn1p+744qlKcqZrSn2mKngm5+VWPmKv/KoayfnEjW9cfKZUhIqqi2G/HUKeu8+hcCRHlHiBXPSMatiGIchkiKv4fzTPXozHfpRBDcnry9RAycNxCMVVEVHWP1vXTI/tNkVRFMgpd3Y/svwxXrDdjssl3+z6K4xRciar7tKG/Noms36MFixfT4sWLyWOWM/WymEX/V2dMenlsEulpWjNaGkJrBtjQ/DpHoUsLLEi7dh0yQ1k/upCu8Qw6U0pEMnV65/YV0mB7yZXFJLZbTkE1spaG0Co7HTKf+StlM9WfNaKUQtYMIJv556nOzReQhXb1mnVO+9bvpz4v6dgkvbr1gPIn9PUQA3LcEkMKU66jfnr2ijGpoereOuqnY0GT996jAjlRScxhmm6lTbpOWym6qmW+weRwxJXS9WvgzgEa7KUKTb7CqSuGMn9wIT0LD7pSoWjNbXP1ulBHa8bLbTPutiqRhdLq3tpk7ryZAl5UEZXG0+FpFiTUcSTvx1Xc9mRSac9YHdLvv4yu5Uoo7kYAPS6ooswfXEjXYCitC8oiORHJHm0ke+2ONOzLa/SiioiqImmjvS7ZeN1W5E/l2FVhg8Z1gKHUPWNJR78/LbuWS5K4GxTwuIBUhaD8ydc0xMCRtigcme6t60d69nWx1TD/KK7dHPm5+meyfiE3W1f6UZGcqSr2WxrTqSvNO1eiIe7l9OzbEaRj7ETLzieTjIikv80mM92R9O0zuUYfbqpuSB5P2wfrUe/Vd6t9RkZ3V/cm/WHf0O9y0pgP1ZF7wJX0jIbRhqBcUpSdeWSuN4a+S1FIwWT9SC66xjRDYXCSha6mfvZfkiJdM5Ttu532xVU1rrUa41Hho8r1voBR8jEmi35xsyXXH1MVeqmKpW/HdKKu885RCUnoymIx2S0Pql1rXRqyiux0zGnmr9mq9Uga6rDkCi0W29HyOqEpZJUd6ZjPpF+zmRbquXGcaNINd+7h9mW1NlJLwxrF1bf6ev364H9Zb0AJAvYfR3L/sRhXsyRYzxpW5vUWZwuMYNSh0b0UJcoQeC4AGU8vYbePD3x8dsK33BXeW+fCUR8Q6OtDR2AMJ5dR6GzSBy6uA6AXfA4BGU9xabcPfHx8sNO3HK7eWzHXUR8QdkAHQyGM7F3haq0DwBDiXt0hKJKiUNUrrcoCcS4gA08v7YaPjw98dvqi3NUbW+c6Ql9kAbFlKr6bPBrzvj6LOG03bPi8D0TKfXDB1T8k8D8dAF0HJ3QRAIAIfVcHoiDjOKYa1nRggHeHDEZnAQC9HuhhBkglErAQQux5AsG+XrBKD8TRnccQLmEhK68ACxEsxJZI/W4yRs/7GmfjtOG24XP0aZbgCoT9ZmPPgQM4cOAADvtexZkVA5o3fgAlAftxPLk/xtY5CqytzOu96VIAI6MOdUt+1Oqd21e4bV+Ii4d/RbrtQDjULHw0GAK3qWLkX/oF/tJaYRpSEoD9x5PRf+w41Lm5FWrdnNO+TUQohueJYPh6WSE98Ch2HguHhJWhvILrpyAAQnP8zWUQOgkBw36fYvfKkdCKCcadfK0W+UZZIEdcqURTDtBgLxVo9JVm6UqTzdXrQjVtMF61NivR3FYZgT709YToPHwKXCxEgIEd3LcshD3FICgoByVc9hToQ19HAGMnF4zqbII+Lq4Y0EmEDoYG0NKxxiCnLhAC0BHbwlIEdB80AhYiACIrWHbVQpFEAkU6VYpdVTSqAwLo6+tAYOwEl1GdYdLHBa4DOqm8dS0Ue+JEsC+8rNIReHQnjoVLwMrKodLcEDRbfq7+Jf6nEaDrACdFcoao72oEFmTg+FRDDXEvRIcOhhAa2cPV1Ro6AAzFvdBdUARpIWnw4abrRiOc+VD5ZCUM3sWQwZ2hKDs9YAYpJBKF0gVGRqhvTpGFGJap32Hy6Hn4+mwctN024HOVQaQpHlXX+04CJR+T+ON0gC4cnLoo9CLqi9WBBcg4PhWGhRdx+Nd02A50qF3fbjDEDVPF+bj0iz9Up3nuOlx48TB+TbfFwDqhMcRtKsT5l/CLv7R1eq5Fk2405R5uX266jVTD1bf6ev36aFG8/GVh0pHwuxQQijgUo9Vg/ZtK2GLkFZRD124q1qxbh3U1/9Yux+TeCnM37IFFcV4BynXtMHVNvfPXrcXyyb0hgpbSWistCIVaALHVxaUhbHEeCsp1YTd1Tb2+1mHt8snordMDC05exwE3IwTtmIFBvYdj2bk0Nbe2VMPZv1YBcvMrIC2sKXyaEEIgBBh5FQBAICpH1N6F8DyaiYGfesLZXFBbQHssOInrB9xgFLQDMwb1xvBl55DWHMFVIsKAT+ZiRLN2+TBIT/gdUgghUu8o0Kq/PuwVTz0AAP/0SURBVF+gRu8afYXD9kwO0l6Uga2srPesXhGsLC0gqJRC8lJl9QeTngCFm6sWntO+Tc5WAojKo7B3oSeOZg7Ep57OMBc0zSPqEKCzjTVMtBjIq1riG5riSgWacoBGeynTFF9phq402hxqdNGglzrafLz1bCZrblvViHr2RS9DoEpWjpea7KkiNTfK11oCaDXITloQCID67/JuELsqUVUHlP9Wg0CE8qi9WOh5FJkDP4WnsznUmRstkV9t/wwKcvNRIS2ERMX1NMW9shxaQiG0QGAJTfDhJupGIxz5sP7HmhAKIIQirwBQ7L2o16+gxwKcvH4AbkZB2DFjEHoPX4ZzqoJIYzwqcrCq0df3MaYgF/kVUhSqMAyTk4YXZSwqK+vtSxBZwdJCgEqpBCrTPMNVhxnkpL1AGVuJhl1awkJQCankJdi20LMm3UhSuXMPuHy5GTZSB0ffauu1UhevErU6eiPR6oS3O4lQEfsQUbKGh4hVFRFqEBijq7kBEvyO4Kak7mMm2R+Xo1WtehLAuKs5DBL8cKRhA/hfjm72OimBcVeYGyTA78hN1PXGINn/MqJl6Yh90R3ue28iIe4i1g9Iw36vHbihNF4uOPund9DDQh85/mdwtbDmGIsC/4PwTdTk6iW4smIK1hdMxw/bZsHRrKagk2LSE/sC3d334mZCHC6uH4C0/V7Y0RzB1SB8xxyd6TkunItA03rTQqe3O0FUEYuHjR1F9bpuRo3eq5rrK/UQdkWvnsZg4h7gYe2CVxaVskoIug2Eg7nq8Nbq9DY6iSoQ+zBKabwEltVgXw0i1VJyBSumrEfB9B+wbZYjGpiyGZTl5aO8hz0GvVPWAt+oan5cacoBzY7tJvhKc3Sl0eakRhdqPLvNx1vPZuYmzW5bA1G9KKoqQwVrBrt+3WDaXHu2Q0qurMCU9QWY/sM2zHI0q/3SqMrcLUF9/0K808MC+jn+OFOXnMEW+OOgbyKoNXHfHB/mRAiRECDFN4A6iF7pRIlJj8WL7u7YezMBcRfXY0DafnjtuNG4PmiMR9U5WBnhOz1goZ8D/zNXUVc2C+B/0BdJ7/RCT2MGcQ8e1u1rYCshqxSg20AHqLyEkKsOA1179YQxE4cHdUKDrZShUtANAx3M22ZiqEk3Xd/mzj2cvtwMG6mBq2+19bqpnf8BtIlN/jIIOmPSnIl4O/kIVqy/hLRKQJb6CLG5DCQZqcguUmxAYlhSmrxXorKKUFkpq56oGWL8/FmwTjkIt7GzsfUnP5w94QOPL0NhaKNwCYIcVfUSoOH4+ZhlnYKDbmMxe+tP8Dt7Aj4eXyLU0AYilgEjJ7D1vtUSKRyaZQEI9KCnC7zMykRhXgRCno3A/FnWSDnohrGzt+Inv7M44eOBL0MNYaOVDr9dB/GoDNCz+gDrN06HlYEu9FR99a+hshJVVIlKWfWYDcer71/UERPmz0D37JNY/NFy/Mfvv/Dd/Rnc/UQYbisEy7Jga3+NqYNlWbBsEZ4l56AkLRHPSyqQHnQRYVkMyoqyEBURjXS/XTioEBwfrN+I6VYG0NXTAtgCXN/ihn9uv12vyKiAlaNSTgDDKCV+GRKObMH1SjF0ATAMo5hIqZx1A4AAnSfNwcS3k3FkxXpcUjgKHsXmgpFkIDW7CGUAWIYF1UzIGHV61+ArnLbviIlLPdFfchZ7jiYqdtmz2bgemI4RS5dglG4DoWsRdJ6EORPfRvKRFVh/KQ2VkCH1USxyGQkyUrNRpMVlX+XeamCgUJtivGzRMyTnlCAt8TlKKtIRdDEMWUwZirKiEBFbvflQFVSGIml1RqyIwZFTz/D3jcswTNQy3+CMK+Vroyk5QIvbXo3Q7CslnLoqg54iuJFZmIeIkFQ4c9qcUasLlbTFeNXZTEeDb6uFRV5qChRewiLzwgVE9/PEEmc9zfYkQF4/sQJgWFbpSzQBoHq/pCv+z7J1WaFB7EKgZINolKmsAwTIqzR8aWBR9CwZOSVpSHxegor0IFwMywJTVoSsqAjEljTOP82Tn7v/9FHzMaN7Nk4u/gjL/+OH//ruxmfufhANt4WQM6+zYBg5iK2XuxWJSJG7OX24pIm6ASA0g0UXHWSEX8OjnFw8ubwfx+8WQJ6Xjuf5xajgzIdKfdWikLHxr8LVnwMAy4AlxY8VAMCk+2HXwUcogx6sPliPjdOtYKCrBy3lWhut3aQcrFzvoexjHSdg/ozuyD65GB8t/w/8/uuL3Z+5w080HLadJmKpZ39Izu7B0UTFkxDY7OsITB+BpUtGQXWa567DHScuhWd/Cc7uOQpFlyyyrwcifcRSLBmlq6HuNLxSHcpxoiFX6WvKPSWcvhydqMZGymLVUr9GccdJbJG6eq3c5ytEeRH7Gw8joXs/utNQS1MysXKiSZ9704Kh1jRs1ld0LOwZxV/cTBO6CklkNZV2XE4kqkqmm/9ZSiPfEpDAbBytOfh/FPZCTkSlFH/Ki5xtTUlXx5h6jFhEx2NLiSl4RKfXvUfmQiFZuG6g0w/yazeIlMafIi9nWzLV1SHjHiNo0fFYKiUpRZ9dTy5mQtIWz6TdV+Io8c5RWjrchAQGDuRxOIQyGDklHfsniU3fIvHU3RReTESl8XTKy5lsTXVJx7gHjVh0nGJLFS9uWD+8J9m/505feG+ltYsWkc9NdZtUiKqSb9J/lo6ktwQCMhu3hg7+XxgphqemfyLF2H29yFncmYw6WpDTrN10J5chkj6m//tyHJkJtUns9i1dik2g4CPLaISJkAwdF9PR8EzKOLeUBncxItOeo8lj/2362d2STGwm0q6wXLq7fjj1tH+P3L/wpq1rF9Ein5uKTZTyJPpxwjvUZeIBSlaz+UWefIsOe39EYl0tEpja07QFig2mixcvoE8m9KVOb/+DfAuIyhMu0SbXLiQUWtLUHecptsHbk+rDkOTej+Q+1JJMTazIadLn5L1gKFkPm0VfHQujZ7EXafOEriQUWdHUHZcp8SWX3lX7CjXJ9lWUcmEDTXZ0oLEzF9K/Pp1Dnt8FUY46g1bDSO7Rj+5DydLUhKycJtHn3gtoqPUwmvXVMQrLYjTYV5lySri0iVy7CEloOZV2nI8lYjLo3NLB1MXIlHqO9qD9t38md0sTspm4i8LUvTOk9Hf6/+ydd1gV19bG31PogmAhIiJFPAYrCLFXjOGaWG+iGCtGMMQES9REMVFEDVEvJtF4FY0tEY3c6/WzglEjoNIsIE0wiBTp5RykSDkz6/vjUE8FNYrJ/J7H55EzM7us9a6198zsmTm7ZR6NfWsMTXP7lJZ5LKXN5x7WP1TFPJs2VMaVGtTmgDw1/lKFeq3k1am3lTTtMH0oMqHOounkH1VOROp8XqPWFkp5nv6q9RmpP1YZdbH09SBtMhs2i9w/XUmffzqPZrh+RecymwJbqT+ZErp7Yh29bSYggbkLrT9xm4oZoorks7RxkjkJhDb0/rZzlJAZR//bPJV6CoRkM8OP/u/eI7odtIHeNReQ0HoG+QWnUWmyXOxWy/sgX24cuE8ld0/QurfNSCAwJ5f1J+h2sWqDMzmnadmQbmRo0ovGuO+laz+7kaWxDU3eHkn5cvkn5lbb2/9UTfkSIqpMDiQvZxF1NexI5k5zyP+67KFLItV5XRJ/irwnmJJAS0Sz/S9SUup1OrRsBBnz9cnB/QDdyM5WoeFvKSSs9bYhInpyYwtN7GlERuYONHP7Nbq4xpF6j11IPseuUfh/NOVD+dKIJPf+Q1+Ol7Xddcd5SkwJp4PLR5KxwIAcPz5EUQ8T6dzGSdRdICSr6VvpQmo11dz0phG97Oltty/Ix3ctLVniR1dlg43iWKsmHlWN9xVKNEaVyRTo5UyirobU0dyJ5vhfl72EgYioLoPOrp9Kjg7jaLbHJ/TRfE/aGVagctyWoWIcrqcu4yytn+pIDuNmk8cnH9F8z50UVsC0ctxpUVEjbctVmnOPulgpVOkjZSiOUerKlrRxnvQy4BE1X6nHwcHBwcHxipDGYYPTcJyZEoE7mx2U3/3g4ODg+JvBLYPh4ODg4GhnqLzXzsHBwfG3g5usc3BwcHC0D6SlKH3CoKxErPRLhxwcHBx/R7hlMBwcHBwcr56aNFw+8h+EZ5RBKjSG1bhZWDTBBtry+3FwcHD8zeAm6xwcHBwcHBwcHBztFG4ZDAcHBwcHBwcHB0c7hZusc3BwcHBwcHBwcLRTuMm6GtiyDNy+EYnE/Gbf5G0rlZmITylqd+82qM5JwP2C9taq1lOZGYt72er8wqI8PQFpkmfp4/Mc23rY8nQkpEnanTZQmYnYe9nNPhHNwfESaKe5sl3AliM9IQ1/ckri4OBop3CTdaUweBT0BTy3nUPkma/gIhqAeb88kt9JPWwhog56YaxtH7yzPardvNmAlcTi2OcTYGs7DltutJdWtRE2A/sXDMcIj6PIVzJ4Mdm/w99tCKz7uWJ/isZv5rXgeY5tNUw2fvd3wxDrfnDdn6L5q34vFRYZ+xdg+AgPHFVmXA6OF007zZXtAwbZv/vDbYg1+rnux5+Vkjg4ONo33GRdCWzBcaxamYS3VnvBa1sQfl4zDIbS+s9ptxa+KYa5rcDkXvIbXi18YwfMWTkNotfquWIWRXdu42HD18D5VljycyQiDixENyUKFlg4w8tjLDo/Qx+f59hWI7CAs5cHxnYmuc9ftwf4sFryMyIjDmChMuNytE/YIty5/RANIfJa0U5zZftAAAtnL3iM7Yw/MyVxcHC0b7jRWAm1UVdwo9IARroA+J0x4etfsHfRm/K7aUZgCEMDnvyvrxy+kSHaYbNUUxmNHzYcwYNmV5UMLB0wyEK3+V4tEBgbw+gZ+/g8x7YagTGM//RKnhEDSzgMsoBq63K0Nyqjf8CGIw/a2V2aNtBOc2X7QABjYyNw1uHg+PvCTdZbUIOsmEv4LeohyphiJF8JxqWINJQ3bK7KRcLNUITfyUS5/AqB2kKkRIYiNDoN4sbLWzzwGjNsLfITbyIiuVBuQJWi5EE0rl0Nxa10ScsrY6wED6PDcD0uC2UlucirbL4RAFiUJIUiJDgYwcHBuBSdgSoAqMpA9KVgBIeEIqlEvqEA+Dwlif952tGcWhSmRCI0NBppTYYAAEhLHiD62lWE3kqHpMWmSmQlpKKEBWoLkhARkYzCeiOxRVHYtXAe/GMyEPdbCK4l1q9prc5BfHK+3PpWKUrTYhAWHovspy02yLaqrB8ajwWqkJtwE6Hhd5DZwvksJA+jEXY9DlllJchVbxxIS9MQExaOWOWVoCo3ATdDw3Ens1zj2l31+1YiJ/4GwiPvo7CmFgXpGShn8xB3OQTBwSG4niIBCwa5dy7JtBP1SKYdAEA1cuKTm5YYseV4lJSOcpaBOC0K4dFpSuzHQJx+G9fDo5BSKL+QoW02YsTpuH09HFEpha1aElFbmILI0FBEp4kVriyrK6sqO1723AYjQfrtCMRmNbSrFgXJEbhxL7fFun22/BGS0svBMmKkRYUjOk0uTgCAESP99nWER6VAwQyVWUhILQGLWhQkRSjJBWpyjMpjWRRF7cLCef6IyYjDbyHXkFjUcKAqzQKs5CGiw64jLqsMJbl5UO+R59GSmj614DlzpTKU5uR61PmpKhvx9wvAgoEk/TYiYrMa7VNbkIyIG/eQ21IYGuKjClkJKShiqpF7LwYppfUbpSV4EH0NV0NvIV0xoABpKdJiwhAemw2l2UJdHzg4OP5ScJP1FhBqK8sgqawDqA6VZRJInlSDYVnkhWyGx6oAhMXfwslVoyAasx5XSljZYBm6FQvc/oUrmYWI3z0VIicvnMlrNirVPsKvK2dhrucSTHMYgBkH6m9XM+k4tnAY3v/hHorzI+DnIsKoTZGyga42HrvcvHA8W4rq5EOYO+wD/JQhP7TzodehEpe/noXJc/Yiw7Sr7GqobmcIbm6B9/lKGHdohYufux0y2KJQbF3ghn9dyURh/G5MFTnB60weWDBIP7YQw97/AfeK8xHh5wLRqE2IrGJRFHMUK8bbQjTJDycOLoHLe3Mw/z17DJgegDSGhSS3BHomHcCyNaiUSFBWUYzYE1/gHdteGLMpvGkyVZWA/fNd4H4wDjlp5+DtFYAHjeOfqvpbcyzA5oVgs8cqBITF49bJVRglGoP1V2QTp/hdbvA6ng1pdTIOzR2GD37KUJyAAQCqkLB/PlzcDyIuJw3nvL0Q0LIShGz2wKqAMMTfOolVo0QYs/4KlJ1radq3KukIPN+bj22XkpASvhOzHazRd8Z+pLCd0LNHAX5eMg0eB5MhhQCdLEyRumsupn4ehFyGhTj2BL54xxa9xmxCeDWD7PDdcB9iib5zdiNw0zsYPHQi3h5uB5GzL26W1bdHEoXv3VyxNigBWalnsWp0X7j4XoNsztgWG0kQ9b0bXNcGISErFWdXjUZfF19ca5x8ysEWIXTrArj96woyC+Oxe6oITl5nIAs91WWxpbdxbNXbEPUeC5+gU9g4dzbcPnofw+2GYVXIbfyydDJmLPoYM4fZYfTGSFQx2Qjf7Y4hln0xZ3cgNr0zGEMnvo3hdiI4+95Ekxm+h5vrWgQlZCH17CqM7usC32tFYNkixBxdgfG2IkzyO4GDS1zw3pz5eM9+AKYHpNVPOlXkmKIC9ceyEuSW6MGkAwu2phISSRmqpOo0C9TG74Kb13FkS6uRfGguhn3wE1SE9HNoCar7pFTU9TxLrlRAfU5W7adS3D62Cm+LemOsTxBObZyL2W4f4f3hdhi2KgS3f1mKyTMW4eOZw2A3eiMiqzTFB4vCqENYPt4Wook+2LftA4waMRxDFv2CwvRjWDjsffxwrxj5EX5wEY3CpsaEBFQl7Md8F3ccjMtB2jlveAU8aHFyorIPzfbh4OD4C0EcClT+PI10jV0pqFL2N1NwguaOX0tRNfV/Z35HY7W1yGFDLNXkHSdXWxfak8kQEVFd4g4a26k7LTxdQUSFtM9FlwyHr6ewQoaIyun/FpqR7tidlMEQSe9/Q0P1HWlTQh0R1VHMuv6ka7+BYuuIaiJWU3/7LynqKRERQ/mBW2h3Ul1TI5tRGbaCRDp2tCaiWvYDk09H58+mfVmyNinw5DBN0TWhOf99SkQvqB1MHh13tSWXPZnEEBHVJdKOsZ2o+8LTVCG9T98M1SfHTQlUR0R1Meuov649bYitIyIpPdwxkrSNnGj5mXSqISLJf+eSqc4o2vFQSkQM5f44gXTN3eliffeIyaM9E3TIaNZJkrmokm6sGUg2i86QuH6XivOLyVzrTVoTWUOktn4NxzIFdGLueFrb5Hz6bqw2aTlsoNjKCFrd356+lBmHmPxA2rI7iZRYhypvrKGBNovoTFMltNhci95cE0k1xFDBibk0fm0UyWphKPO7saSt5VDfxuZo2Lf8d1rR34HW3KwXL9VQxOo3Saf/OoqpIyJpMm0Zokt9Vt+sP76Gbq7uQ3rDv6U/pLLy8vZMIB2jWXSysuH4PqRl5kwbQx5THVVS8oEZZC7QJkefe1RHYrr4sYjsVoSRzApElTdWkZ22Gc3+NZ+YmtbbSHzxYxLZraCwpoJolZ02mc3+lfIVpMxQ3nFXsnXZQ7LQq6PEHWOpU/eFdLpCc1lM7o80QUefhq0LozwpEdXcpa/ttajj8C/pt8eyOIj92p50bLzoWjUR1UTQ6j5aZOa8kUIe1xFVJtOBGeYk0HYkn3t1ROKL9LHIjlY0VUg3VtmRttls+jWfIZI+pB0jtcnIaTmdSa8hIgn9d64p6YzaQQ+l6nNMnYZjicmlHyfokrn7RaomUq/ZuhqKWN2f7L+MkvmLyafALbtJWUg/r5bU9qmplnqePVfKw6jLyZr8xOTSjxN0SH/YOgqTCYPufm1PWh2H05e/PZblj9ivyV7HhrxkwtAQHwxlfjeOtPUG0PLfCkmcdIVC7hVS0jdDSd9xE8m6E0Pr+uuSfYNdKm/QmoE2tKgpWdD5xeak9eYaiqwhzX3g4OD4y9GKy64cVaGnEZLzAOf9/eDn54dtgU/h4uOLBY56EAefQIiOA5zqH8YT9luN0JIcHJlu0Hi8/ptDMaQrH4AuevY0BSRiiFlAIPLE0fBAeFllI/TQNhyOEoOteYpqFhCai2CZuRNTxyzEN6eSoOW6Hp/1FTZrVRP6I73w2agcHN15CgUswGQG4YLWDMy0aJ17X0g7xME4EaIDB6dusts1wn5YHVqCnCPTYSAQwfNoOAK9rJAdegjbDkdBzNbgaTULQIAOHQwgMLSHi4s1tAEYiHrDgl8GSamKJ6r4hjDs0GwhT0UI9h5Jx4Bx42Fc/5OutRXMBPV/qKtf07FVoTgdkoMH5/3h5+cHv22BeOriA98FjtATmkNkmYmdU8dg4TenkKTlivWf9YWidSoQsvcI0geMw/imSmDVVAlCT4cg58F5+Pv5wc9vGwKfusDHdwEc9ZoV04p9yy7sw7HyoXjHUb9+fwE6duzQhltofBgadmi2TIoPPT1dCLqOwLQJ5hBCH3Zum+BhT0gIC0NB8Tkc+DUbtoMcGte46w91xXRRMc4fD4ak1TYqxbkDvyLbdhAcmgqC63QRis8fR7BEbneIEXwiBDoOTvUPGQvRb3UoSnKOYLqB5rL4HQygz9OG9WAndBMA0BbB1lIIWAzGSHMhACGsLLuDVyaGmADw9aCnK0DXEdMwwVwI6NvBbZMH7CkBYWEFKD53AL9m22JQU4UY6jodouLzOB4sAQQd0MFAAEN7F7hYawMwgKi3BfhlEpSS+hyj6VgF1GkWQpiLLJG5cyrGLPwGp5K04Lr+MygL6efVkto+qeBZcqU86nJyqSY/8TvAQJ8HbevBcJIJAyJbSwhhgcEjzSEEILSyRHdeGcQyYaiPD5YPPT1t8I2cMGF0Vxj3nQCXgV3xpudRhAd6wSo7FIe2HUaUmEXN02qwACpC9uJI+gCMa0oWsLYyQ0O20NgHDg6Ovxytzbt/Y1iUF5XgqY4dpq9Zh3XrGv6txYqptigrLEa1pFQ2oLcCAV8AMFLUAQBfiKdxu+DheQi5gz6Cp7MZ+PXl8Hsuxi+X98HVMAxbZw1GnxHLcTpLybpGABDYYMHKmdC9sBP7EqqRdOwa3pg9GZ3k91PFC2gHU1KI4moJSpUagg/h0zjs8vDEodxB+MjTGWYNFQDgNS1Wlf0tEIAHAqusKKB+fWvTMUx2Cv6QAAKhKjmrrl/TsWx5EUqe6sBu+ppmvl+HtSumoo92Tyz+5TL2uRoibOssDO4zAstPZymupWWykSKrRHnAseUoKnkKHbvpWNOsjnVrV2BqH7lZlNp9ech9mIEKoTa0FB9KaDU8nrJnGpoh7IV+vQ2AuhpU5WfhcRWL2tpmi3iFVrA056NWIsYTtNZGBch6XAW2trbZOnEhrCzNwa+VQPxEblbGlKCwuBqSUrHiG3VaU5ZCH3ng89CiLB6fD3Wv4BD26geZGaqQn/UYVWwtWprBEub8WkjET8C2WJMNADwIBDyAWJDaHNMHQrXHKqJWs0I+ei7+BZf3ucIwbCtmDe6DEctPQzGkmefUkqY+aaa1ubIlDEpU5mQGBW32E8BTFAb4UPMmp2bxUUMAlEQTX/gUcbs84HkoF4M+8oSzGb++PAbZKX9AAgGUp6TW9IGDg+OvhtJ0wNEcPoy6m0E/JQgHr4qbfmbSEXwhCZ17mkOvIBgnL5U2bmJLghEQmKo4IZGj4uJKTPMuwcwfN2OOo2njAEYAmOxEPLZww66rKUg6542BWXvhtfUKVL1AsqPLCnw88D4OfOuLPXf7Yd74hqthmnkR7RC80RPmegUIPnkJjZZgSxAcEIjUsotYOc0bJTN/xOY5jjBtXsELgNepCzoJq5F4J06uXQSWBVChun5Nx/KNusNMPwVBB6+iyfsM0oMvIL4mG4mPLeC26ypSks7Be2AW9nptxRV54/A6oUsnIaoT7yBObhvJKkF3M32kBB1ES4kF40K83GJitfsyMDbpCDy+jahHqtQngFAAkPyZEJF6vRI1mwTUoaqahaldf1hY9EYvIwZJt+80rR9ma1FTy0ePQQ4wo1baSNAdvXsZgUm6jTtNBaG2phb8HoPgYCaXqgRvoKe5HgqCT6Ip9FiUBAcgMO2NtpXVBoiaTYXqqlDNmsKuvwUseveCEZOE200Vgq2tQS2/BwY5mGlItOpyTLyK9f2qUatZKYPsxMewcNuFqylJOOc9EFl7vbBVwSG859TSi+2TuhzVEgHeUJmT0/DGc/lJDSrio3vD5fAWVODiymnwLpmJHzfPgWOLhMhDpy6dIKxOxB3FZAEWAnT/s/rAwcHRbuHiWgm1tXWg2lrU1Gdfg4mLMMc6AwGu4zDX9ycEnToKP/cvEWFgg86TFmGWRT5++fifWPHvIPwv0B+fugVBOMIWApYFyyoZzFgWLMui7GE6CiqykPqoAtXZYTgXmQemqgx5cdGITw3C9oC7qIIurN71xtczraCvo6vkGk09wr7wWDEZdf/5HknD58FR3aUrhgEDAsuyAF5QOzpOwqJZFsj/5WP8c8W/EfS/QPh/6oYg4QjYVDxEekEFslIfoaI6G2HnIpHHVKEsLw7RiU/AMFIQ2+xKOpFsYGJZAHzo6uoAT/KQW1qE6BvxqAILhiXZRBcAv+sUzJ/cBekHV8L7fBZqUYPMu4koZMTIycyHOF91/bcKnNUeW8abiEVzrJER4Ipxc33xU9ApHPVzx5cRBrDhZSNoewDuVgG6Vu/C++uZsNLXga68cfhdMWX+ZHRJP4iV3ueRVQvUZN5FYiEDcU4m8st4mLhoDqwzAuA6bi58fwrCqaN+cP8yAgY28o40ULOvNkz/8U+M04vGt3OXYu+lGNz5/QgO/57XNBEXmMK8mzZyon7D3YJC3L+wF0dulkBalI1HxeWoBsAyLIjYFlfo2KJMZFTU/z/3LM7G94fnUmfodpyMZZ4DID71HQ6lyl5JweZfRmj2SCxbOho6TCtthI6YvMwTA8Sn8N2hVNmbW9h8XA7NxshlSzFaR3H/SYtmwSL/F3z8zxX4d9D/EOj/KdyChBhh20lzWQwLtuFkrh4CQM2upBMRwLLNTmJYFGVmQGYGFrlnzyK+vyeWOuui4+Rl8BwgxqnvDkFmBhb5l0ORPXIZlo7WAVgGjJTANrsaLpO5LEeoyzFCDceCrwtZiOSitCgaNx6OVK1ZIYPsoO0IkDkE73p/jZlW+tBRcAj/ubUkUNenlpXV58Rny5WJ9bpsoKOanNxJk5/A1LdDQRhNJwZEILBgm53DqIwP2QGAtK7pBIUtw8P0AlRkpeJRRTWyw84hMo9BVVke4qKT0XXKfEzuko6DK71xXpYscDexEIw4B5n5ZdDS1Ae2BJc3ueLDLdeanaxxcHC81sgvYv97U0fpV/9Ny0Z1Jj7flMavCaD/RD4mKRFVJh8jL2dbMtHRJqOeI2nJkcT6hxuJKpMDyctZRF0NO5K50xzyv15IDEno3n++pPGmAtISudKO84mUEn6Qlo80JoGBI318KIpys0/TsiHdyNCkF41x30vXfnYjS2Mbmrw9kgpvetOIXvb0ttsX5OO7lpYs8aOrmh4eqg6jFY5TaH+Omv2eptD5DS7UTSAgy+lb6UziE2JyXlA7KpMp0MuZRF0NqaO5E83xv06FDBExOXR62RDqZmhCvca4095rP5ObpTHZTN5Ol2+eIu8JpiTQEtFs/4uUlHqdDi0bQcZ8fXJwP0A3chiSph2mD0Um1Fk0nfyj8in53Eaa1F1AQqvptPVCKhERMeIY2uM2jCxNjMnKaQp95rOYhlkPpzlfHabInGyV9UdKNBybxxBVJtMxL2eyNdEhbaOeNHLJEUqsJKKam+Q9ohfZv+1GX/j40tolS8jvar7sAVt5GDHF7HGjYZYmZGzlRFM+86HFw6xp+Jyv6HBkHhFVUvIxL3K2NSEdbSPqOXIJHUlsUJg86vaVUu5vG2mKXVfqYGRF41cGUfBGJ9JreCiQiJ7c2EITexqRkbkDzdx+jS6ucaTeYxeSz7FblJl4jjZO6k4CoRVN33qBUqvrKPbrQaRtNoxmuX9KKz//lObNcKWvzmWStKE5dRl0dv1UcnQYR7M9PqGP5nvSzrACmR3aYiOqo4yz62mqowONm+1Bn3w0nzx3hlGB8p1ldgj0ImdRVzLsaE5Oc/zpemHDzmrKqkimsxsnkblASDbvb6NzCZkU97/NNLWngIQ2M8jv/+7Ro9tBtOFdcxIIrWmGXzClVcbS14O0yWzYLHL/dCV9/uk8muH6FZ3LbLQC1WWcpfVTHclh3Gzy+OQjmu+5k8IKGCKSUPwpb5pgKiAt0Wzyv5hEqdcP0bIRxsTXdyD3Azcoh1GVY1pzrJTSDn9IIpPOJJruT1HlslhUqlmqoZveI6iX/dvk9oUP+a5dQkv8rip5gJeeW0vFKvskz/PlSol8cSpzsgzVfqqg5LMbaZK5gIQ279O2cwmUGfc/2jy1JwmENjTD7//o3qPbFLThXTIXCMl6hh8Fp1WqiQ+GSu6eoHVvm5FAYE4u60/Q7WKGiBjKOb2MhnQzJJNeY8h97zX62c2SjG0m0/ZICRExJI7ZQ27DLMnE2IqcpnxGPouHkfXwOfTV4UjKY9T1gYikabRn0hvUbfI+Sm+SJwcHx2sMj5pfSuJ4rWGz9sFta1f8EPA+TOQ3cvxNYZC8ZRicTk5EWOw3eEvhkqYmpIjb4IThZ6Yg4s5mOLT5+L8I0jhscBqOM1MicGezg+KV4b8Fz6ulvyJcfHBwcPz5cMtgXnsYVJSKUc1WIGLvZZjNe4+bqHP8KXAProGzAodKOGVwcHD8WXCT9dccafxWjDMzhWm3N7GsdAFWjuQ+Es/RHCmKi8sgrZDgSVuf6gNkX3YtfQKmrATiv/NXEqWlKH3CoKxErPAl1L8Pz6ulvyJcfHBwcPz5CHx8fHzkf+R4feB3toJl587o+/56/OtLZ7zBnX5xNMIg52YgQh6bwr6vIcTZPPSwt4JxqzVSg7TLR/FbYQ8M7tcBpVmE7gNtYKL0DRd/YWrScPnobyjsMRj9OpQii7pjoI1J43uv/x48r5b+inDxwcHB8XLg1qxzcHBwcHBwcHBwtFP+1tdFODg4ODg4ODg4ONoz3GSdg4ODg4ODg4ODo53CTdZfImx5OhLSJO3rrQGVmYi9l93ss+x/LyozY3Ev+zXpPVuO9IQ0SNqVgF4v5GPwZftfvv52wd8oB7wa+1ciM/YeXpTMXrZmX19erN2fj2rkJNxHwcsVngJV2fG4X/isjWBRnp6AtMYBqB3ZVz6HMWI8SHiEypZ7taA6JwH3X7VD2gA3WVcFU4rEM99hzZLFcP/4M6z4fB22n4jCo3tHcfSa/Ke5NcBk43d/Nwyx7gfX/Slt/tT2nweLjP0LMHyEB47mvwairY3AxtF9MGrFebyQ5rIZ2L9gOEZ4HH0x5f1pMMj+3R9uQ6zRz3U/UtqPgNoJNbi+fgT6jFmNEFUDkbIYfJn+V1Z/u+A1ywHPyiu0P5uxHwuGj4DH0fznP0lQo9ma6+sxos8YrA4pfP56/gK8ULs/Mywkscfw+QRb2I7bghuv6I1BrDgWxz6fAJFoAvwi2t4IJvt3+LsNgXU/V+yvH4Dah30hl8PqkPm7PxYMtsbAxYHIbPaV4ca9JTJb2NqOw5ZX5ZBnQf4rSRxETN5vtH6cNfX/cBeFZVXX/1pBf5z9isa/oUfv7C2QO6IV1Nygz0U69OaaSKqR3/Yqqcigu3FZ9FT+91cKQ4W3b1Ga3Nf3aqK+pLeGrqXQ0pa/tx7Fcisy7lJc1svqvWL9raeGbnwuIp0311BkuxJQO6DmJq12Gk7rw5V9y7IZSmLwpfpfSf3tgnaZA/4EXpn9Kyjjbhy9KJkp12wN3VztRMPXhyv9ouvfkxdr92eHoawfxpOOyRz6b5vb8jxjRkuYjJ00VqczzT/d5kYQEVHNjc9JpPMmrWkcgNqLfeVzWDX9/qkV6ThtpiQVdmOyfqDxOiY0p+0OeWVwV9blkSZj11xX/FDjgeNHvDDGQqd+gwFsp2zCyYB5MH4iljuoFQiMYWzEk//11WNgCYdBFmhXb2evjMYPG47gQYvLXwweP+qOVSe2YOyzfvVJSbkGlg4YZPGSeq+k/tYjgLGxEdqhgl45TFYmenxxHJtGd5Tf1BIlMfhS/a+k/nZBe8wBfwavzP4GsHQYhBclM6WaZbKQ2eMLHN80Ghqi4G/Ei7X7s8OHkaHBs+Xu5xozWsI3MoT+MzVChsDYGC3Dp73YVz6HCWBgaKB22QjfyBAGz2GLV4G6/rRfqjMQemQHfHy24dDv6aiS3/4ciM98g21hLCZ87I4B2vJb+ej63udYNLDpF2nJA0Rfu4rQW+mQKLnlIi1NQ0xYOGKzn8pv0nhsC6pykXAzFOF3MlGucM+pEjnxNxAeeR+FNbUoSM9AOZuHuMshCA4OwfUUCVgwyL1zCcHBwbgU9aiZzaqRE5/c7JYqi/JHSUgvZ8GI0xAVHo00hcYxEKffxvXwKKQUtuI2kqq2sxI8jA7D9bgslJXkIq8SYIuisGvhPPjHZCDutxBcSyyS3WKTSiC1HoAumXeRrtAeeaqQm3AToeF3kFlfocpyq3MQn6x4G68yJx43wiNxv7AGtQXpyChnkRd3GSHBwQi5ngIJCzC5d3ApOBjBl6LwqIUI21C/tAQPoq/haugt5f2SliItJgzhsdlQVJBsbV767esIj0qBZlfUojAlEqGh0UgTK9bFiNNx+3o4olIK5T78U4mshFSUsEBtQRIiIpJRqGzwaK3mKrOQkFoCFrUoSIpARHKhxmUJtYUpiAwNRXSaGAot7zwUI7tl4ZZCu2Woi0Gl/q/OQ+LNMNyIy0SZvDDQVptrqF+JVlSiKo6A9p8D8CL1IUXJg2hcuxqKW+kSRT3Iod7+QFVuAm6GhuNOZnkLHbCSh4gOu464rDKU5Oa1WP+qUo9VWUhIKQJTnYt7MSkord9YnROP5EYDt8a+aupQpll0xtCR3ZB1S4kmNdpTOWxeHC6HBCM45DpSZAkPdy4FIzj4EqKaJbzKrASkypIDkiIikKw0Ochgyx8hKb0cLCNGWlQ4otPk/KfCfurjRHVea2n3ejTGL4uSpFCEBAfLtBmdIdNmVQaiLwUjOCQUSSXybahHRYzyeRpmhm0ZC9XmahlKtcPjNTthqEFWjCz2goMv4VaWqqW9UpSmxSAsPBbKwkfevqpiRqPfocEvGjXcMofxGuxNUhTdj0JUUn7LZ3L4zW3RhKpc0B54/SbrlTH4xsUREz76Aps2rcXiiU6Y6BuBCvn9nokqhJ/9DYV8EZze6iS/UYbwTfzjH30AMEg/thDD3v8B94rzEeHnAtGoTYhszGFVSNg/Hy7uBxGXk4Zz3l4IeNAgT03HNodFXshmeKwKQFj8LZxcNQqiMetxpT5ZVCUdged787HtUhJSwnditoM1+s7YjxS2E3r2KMDPS6bB42AypBCgk4UpUnfNxdTPg5DLsBDHnsAX79ii15hNCK8GmOxw7HYfAsu+c7A7cBPeGTwUE98eDjuRM3xvlsmaI4nC926uWBuUgKzUs1g1ui9cfK+hSKmy1bS9Nh673LxwPFuK6uRDmDvsA/yUUQtJbgn0TDqAZWtQKZGgrEoKJv0YFg57Hz/cK0Z+hB9cRKOwSbmxwOaFYLPHKgSExePWyVUYJRqD9VeKUCpfbkUxYk98gXdse2HMpvCmQK5KwhHP9zB/2yUkpYRj52wHWPedgf0pLDr17IGCn5dgmsdBJEsBQScLmKbuwtypnyMoV+bbVtffin5VJezHfBd3HIzLQdo5b3gFPGiR4CRR38PNdS2CErKQenYVRvd1ge+1poTeHLYoFFsXuOFfVzJRGL8bU0VO8DqTV7+vBFHfu8F1bRASslJxdtVo9HXxxbUiKYpijmLFeFuIJvnhxMElcHlvDua/Z48B0wOQJp9t+Ro0V1eEmKMrMN5WhEl+J3BwiQvemzMf79kPwPSANMXkDQBsEUK3LoDbv64gszAeu6eK4OR1Bnks1LS7wQJqYpAVK/V/WeR2TJ+yEVF1Oii78CmG2b2F8e+8h/e3XENVG22utn6VWilRUpaaOGr3OaAZL0IfTDqOLRyG93+4h+L8CPi5iDBqU6SKCzbq7Q82DyGbPbAqIAzxt05i1SgRxqy/Ijspjd8FN6/jyJZWI/nQXAz74CdkSNXoUVqIqEPLMd5WhIk++7Dtg1EYMXwI3PZdw4kv3oFtrzHYFF7dOvuqrEO5ZlVqkm2FPdXA79QTPQp+xpJpHjgoS3iwME3FrrlT8XlQLuqKYnB0xXjYiibB78RBLHF5D3Pmvwf7AdMRIJ8cmGyE73bHEMu+mLM7EJveGYyhE9/GcDsRnH1vooxVbr9Fv5SojRNVeU0qjm1h9wZU2qpFY/nQ61CJy1/PwuQ5e5Fh2lV2xVa3MwQ3t8D7fCWMO8hPndTHqFraMBZqzHmqtKPQDCGE9/djhc//IVO7Byw6a8nvAFQlYP98F7gfjENO2jl4ewWgKX0q2ldpzNRo8Ht9VSr9olHDijmsESrABa8RcBgxAaMGWMFu2g+4rWqiqCYXtBvk18W0bxjK/2kyGfJAQNM/nsE79O/HjPzObYfJou/HaxN03qF9hfIb5ZDep2+G6pPjpgSqI6K6mHXUX9eeNsTWERFR5Y01NNBmEZ0R1+9fcZ4Wm2vJ1ktqOLY5TMEJmjt+LUXVLxNjMr+jsdpa5LAhlurKf6cV/R1ozc3K+r1rKGL1m6TTfx3F1BGRNJm2DNGlPqtv1q/RrKGbq/uQ3vBv6Q8pERFDeXsmkI7RLDpZX0RNxGrqo2VGzhtD6HEdUWXyAZphLiBtRx+6Vyemix+LyG5FWOP61sobq8hO24xm/5pP8h5Q1/bKiNXU3/5LinpKMr8GbqHdSXVExFDujxNI19ydLlYTEUnp/jdDSd9xEyXIjEXr+uuS/YZYUrAWU0An5o6ntU0V0ndjtUnLYQPF1smXS0RMHu2ZoENGs06SrPvl9PuK/uSw5mb93zJ7vKnTn9bJDErJW4aQbp/VdLO+ipqbq6mP3nD69g9pG+vX0K/KG7RmoA0tahIQnV9sTloNa9bFF+ljkR2tCGv0BN1YZUfaZrPp13w5TzB5dNzVllz2ZMp8VJdIO8Z2ou4LT1MFEYkvfkwiuxXUVNQNWmWnTWazf6V8RkoPd4wkbSMnWn4mnWqISPLfuWSqM4p2PFSyIFCT5qQPacdIbTJyWk5n0muISEL/nWtKOqN2kGJxDOUddyVblz2UKWs4Je4YS526L6TTFZrarSEGSYn/6xJo81sdyGlzEkmJiOru0lcDdajXslDZ/m2xuaYcoFYrzUtRH0ftPQcooKk9GvQhvf8NDdV3pE2yoKGYdf1J117RZqTJ/sRQwYm5NH5tVH07GMr8bixpaznQhthKiljdn+y/jJL1kcmnwC27KalOvR6JyaTvxmmT3oDl9FuhmJKuhNC9EoaYvD00QceIZtUbWL19NdUhp1lNmtRgT01Ik7fQEN0+tLop4dHqPno0/Ns/SOauHTRS24iclp8hWfH/pbmmOjRqx0NZDDWnJoJW99EiM+eNFCLrOB2YYU4CbUfyuVen3H5FearjpEZ9XpO3u0ZbyVEZtoJEOna0JqJ+wGDy6ej82bQvS3FftTFKRE8OTyFdFWvWa1o9FmrKeRq0I/6J3tXtTPNPV1LJ9W20aPEuuvWkqR0tqaQbawaSzaIz1BQ+i8lcq2nNekv71qiImVb4XZNfNGpYPofJ8oK2+VTaFVNCUqqghAMzyUpLh5x842Xj65PDNEW3Yc26ulygJLG8IuRPD9s5LPIys1Et981VqslGxmPVt95aDV8f+jp88KgO1dUaTqkEIngeDUeglxWyQw9h2+EoiNkaPK1mAVQgZO8RpA8Yh/HG9fvrWsPKrP471GqPbUlV6GmE5DzAeX8/+Pn5YVvgU7j4+GKBox7KLuzDsfKheMdRv35vATp27NCG2yV8GBp2aHE7iK+nB11BV4yYNgHmQkDfzg2bPOxBCWEISzmDA79mw3aQQ+P6Vv2hrpguKsb548GQNCsHGtouNBfBMnMnpo5ZiG9OJUHLdT0+6yuUKwEABBB5HkV4oBesskNxaNthRIlZ1DytVrwCWRWK0yE5eHDeH35+fvDbFoinLj7wXeAIPfl9AYBvCMMOzXpfdgH7jpVj6DuOaLRox45QuIiiijbVr75fFSF7cSR9AMY1CQjWVmaNn7gvPXcAv2bbYpBDoycw1HU6RMXncTxYzhPiYJwI0YGDUzeZNoT9sDq0BDlHpsMApTh34Fdk2w5CU1FD4TpdhOLzxxEsEaBDBwMIDO3h4mINbQAGot6w4JdBUvoMHz8WdEAHAwEM7V3gYq0NwACi3hbgl0mgWJwYwSdCoOPghG6yhqPf6lCU5BzBdANN7dYQg1Dif2kG0rNrm25ZC61hbQHkZmTgaVttrikHtEEr6uKoveeANqNBHwKRJ46GB8LLKhuhh7bhcJQYbM1TKKZODfZHFUJPhyDnwXn4+/nBz28bAp+6wMd3ARz1hDAXWSJz51SMWfgNTiVpwXX9Z+grVKdHAHw96GnzYeQ0AaO7GqPvBBcM7MQH39AQzWWm1r4FJRrqaKlZjZrUYM/nRdChAwwEhrB3cYGseBF6W/BRJimFQvF8PejpCtB1xDRMkHUcbps8YE8JCAsrAKvMfrrhquNEbV6Dgt012koO/ZFe+GxUDo7uPIUCFmAyg3BBawZmWihGl7oY1UTrx0JNOU+DPgEALAp++xyTN1bB60cvOBk2Ft6SihDsPZKOAePGoyl8rNAyfTa3r6qY0ez3Yk1+0ahhxRwGAAKztzBhcCcIYID+H/nj81E8JIRfR7FCrlCXC+T3fXUoqq5dI4TtEEeYNhMMAPC7OGJoH4UF5s9ARwx2FEHIPEBiovyiKXn4ED6Nwy4PTxzKHYSPPJ1hxq9PT0w2Uv6QAAKhCgOrObYFLMqLSvBUxw7T16zDunUN/9ZixVRbFD7MQIVQG1ryKm0DvBbr2JQhRK9+vWGAOjzNzcLjKha1tc3uNQmtYGnOR61EjCctgkBd2/tAu+di/HJ5H1wNw7B11mD0GbEcp7OU35jlC58ibpcHPA/lYtBHnnA24ysOBADY8iKUPNWB3fQ1zepbh7UrpqKPstwHXtPaNgBM7kNkVAih/YwGbWv9qvvFIDvlD0gggFCpgBgUZD1GFVuLlq6whDm/FhLxkxYnMkxJIYqrJSgVK7EaU4Csx1Vga2ubrekTwsrSHPxaCcRP2BY2AgCeQAAeCKyS4jTDQ8vieBAIeACxij5lSlBYXA1JqVjJNg3tFmdqiEEo+B/aQzH5nTeQevUSHjEAau4jJdMEE6aMRYc22lxTDmi9VtTFUXvPAc+CBn3whXgatwsenoeQO+gjeDqbQWnq1GB/sOUoKnkKHbvpWNPM/uvWrsDUPtroufgXXN7nCsOwrZg1uA9GLD+NrFo1emxAmSF58n2Sp8m+NVXFGuportnWaFK+bjXx9izIa4cngKz41pUu7NUPvQ2AupoaWXvk7KQuTmzL1OQ1yNu9NbaSQ2CDBStnQvfCTuxLqEbSsWt4Y/ZkKC6QVRejfaAk9beA39qxUGPOK9KgHRlUVYjHN49i59kcxT7Xw2SnQBY+SqNHRgv78pXHjJJuoIXfq5Cv0S+aNawxh/G7wsbaGDxGijr5bWpzgSbvvTzUeKJ90uHdLdi3fAg6C3kyp5k44tN932J6w+nfcyGEvZs7xhoW4NyhU0rWeQGofYCLF+KBiotYOc0bJTN/xOY5jjBt8CkB4HVCl05CVCfeQZzccxvEsuqPbQEfRt3NoJ8ShINXm72BhklH8IUEdDDpCDy+jahHKiICAggFShInkYb1igRq1ve6qmqwpnYYOKgPehkxSLp9p2mNKFuLmlo+egxygFkLNalrezxqshPx2MINu66mIOmcNwZm7YXX1itQfMylAhdXToN3yUz8uHkOHFUbC3yj7jDTT0HQwatoqpFBevAFxLfixgvP2AQd8Ri3ox6ptI9AZlC52gnEtLV+df3ioVOXThBWJ+KOooDAQoDuvXvBiEnC7TtNq3XZ2hrU8ntgkINZi8AWvNET5noFCD55CaWNO5cgOCAQqeiO3r2MwCTdRlNRLGprasHvMQgOLZ3aCp5Vc0oQvIGe5nooCD6JS00NR0lwAALT3lDf7u5d1MegMvhdMf27vXDTuYrvN38H/29OQ++LYPzibgVBG22uKQe0Xivq4qi95wBlPGt7ZFRcXIlp3iWY+eNmzHE0bZwIKWQDDfYH3wjdzfSREnQQLc0ajAvxNchOfAwLt124mpKEc94DkbXXC1uvGavWY2prWt8c5fbtb9G9DXW0UZPPgkAIgZITcyL5trQeatlxVLOmsOvfvfGuYXPUxUlSZzV5TaF5z2arji4r8PHA+zjwrS/23O2HeeMb7mA1R12Mxmt8mJdp7Vgo0JCre5i1Qjt8dJv2bxz51Ainl7phV6JCLQAAXqcu6CSsRuKdOLl2EJSnT0Z5zFxpOlq53y1g8Qx+aTtVKCp+ip72g/GGfIFqc4Em77085Jvd/uGbYbJ/BB6mRuHatUikpkdj1zTzF9YRge0nCNg9Cx3Or8Csdf+HB80eSGDFt3H0mzMgh/5gyx4ivaACWamPUFGdjbBzkchjqlCWF4foZD1MmT8ZXdIPYqX3eWTVAjWZd5FYyECck4nc7Puqj01s+QSEwcRFmGOdgQDXcZjr+xOCTh2Fn/uXiDCwRfd//BPj9KLx7dyl2HspBnd+P4LDv+c1DXoCU5h300ZO1G+4W1CI+xf24sjNEkiLsvGouBzVAFiGBRHb8gybLUJmRn072FycPRuP/p5L4fzGZCzzHADxqe9wKFV254HNv4zQ7JFYtnQ0Gl5y2YDqttuAlx2E7QF3UQVdWL3rja9nWkFfRxc88KGrqwM8yUNuaRGiwyNxP70AFVmpeFRRjeywc4jMY1BVloe46ET5CrFojjUyAlwxbq4vfgo6haN+7vgywgA2Qrlyb8SjCiwYlhonb3zTf+Cf4/QQ/e1cLN17CTF3fseRw78jr8mgMDXvBu2cKPx2twCF9y9g75GbKJEWIftRMcoFbahfbb+S0XXKfEzuko6DK71xXiYg3E0sBCPOQWZ+GbQmL4PnADFOfXcIMlewyL8ciuyRy7B0tJwnOk7ColkWyP/lY/xzxb8R9L9A+H/qhiDhCNgKOmLyMk8MEJ/Cd4dSZW8WYPNxOTQbI5ctxWgdFgwjBbHNBmwi2UmDsqytSXMsA0ZKYJud8MiKY5UMAh0xadEsWOT/go//uQL/DvofAv0/hVuQECNsO6lvt15XtTGYX1YFyPkfEOPiuo3InvE9tq71wspN27Fpvn3jbeCObbE5X0P90pFqtNKyKNVx1B5zQBVu7V6IyR/64pKyqx2a2qNWHyzKHqajoCILqY8qUJ0dhnOReWCqypAXF40WqVOT/ct4mLhoDqwzAuA6bi58fwrCqaN+cP8yAgY2PGQHbUfA3SpA1wrven+NmVb60NE1VqPH+qkmAdI6uQGeZcCS3CRHlX111WleoKBZjZpUa08AVbewe+FkfOh7SenFKYGpObpp5yDqt7soKLyPC3uP4GaJFEXZj1BcXg2WYSAlttnJF4FAYFk5PTXCoigzo/6FECxyz55FfH9PLHWuXwIhbz91Ob2zurymaHeNtlKGsC88VkxG3X++R9LweXBUcaFVdYzaQAiAYZj6nCl/JMC0diy8kQlndTlPR4N2WBYsWDBkDOdvjmHTwLv4au5apQ/B8rtOwfzJXZB+cCW8z2ehFjXIvJuIQkaMnMx8yNJnc/syKmKm4Xq3ar9r9IsmDUN5DqOqMkjqzxWqEw7i2MN/4Ovlw6ENAAwDpl6ngIGaXCAEW3IZm1w/xJZrz/DK7heJ/CJ2DiIiKRXc3EvLpr5Fot4DaNj4STRj9kLy+GIv3Sysf7iEyaHTy4ZQN0MT6jXGnfZe+5ncLI3JZvJ2ipQQESOmmD1uNMzShIytnGjKZz60eJg1DZ/zFR2+Gav+WDkqk4+Rl7Mtmehok1HPkbTkSGL9A5BSyv1tI02x60odjKxo/MogCt7oRHoND5cR0ZMbW2hiTyMyMnegmduv0cU1jtR77ELyOXaLMhPP0cZJ3UkgtKLpWy9QajVRXezXNEjbjIbNcqdPV35On86bQa5fnaPMhqeF6jLo7Pqp5OgwjmZ7fEIfzfeknWEFKh8sU9X2mpveNKKXPb3t9gX5+K6lJUv86Gr9Qz7StMP0ociEOoumk39UGeWcXkZDuhmSSa8x5L73Gv3sZknGNpNpu3Jj0TEvZ7I10SFto540cskRSqx/vqhlufmUfG4jTeouIKHVdNp6IVW2T+5vtHGKHXXtYERW41dSUPBGctJreMCUiJ7coC0Te5KRkTk5zNxO1y6uIcfeY2mhzzG6Vcy0oX5N/WJIHLOH3IZZkomxFTlN+Yx8Fg8j6+Fz6KvDkZTHENVlnKX1Ux3JYdxs8vjkI5rvuZPCClR4ojKZAr2cSdTVkDqaO9Ec/+vUIGWiOso4u56mOjrQuNke9MlH88lzZxgVMESS+FPkPcGUBFoimu1/kZJSr9OhZSPImK9PDu4H6EaOYn2qNXeNwv/jTRNMBaQlmk3+F5Mo9fohWjbCmPj6DuR+4AYpFldJyYFe5CzqSoYdzclpjj9db2y46nYTaYjByIeK/mdy6Pg8S9LhgQAe8fhapGtkSr3HetIv92WPHrXJ5mrrz1OrFXlUxVG7ywFMDh2e0Y2Mu5jSSN+ExvY3R3V7NOsjO/s0LRvSjQxNetEY97107Wc3sjS2ocnbIxU/BqTJ/lRJyce8yNnWhHS0jajnyCV0JFH2sNxN7xHUy/5tcvvCh3zXLqElfldJlp5U6JEpobsn1tHbZgISmLvQ+hO3qZghoopkOrdxEnUXCMlq+la6kFqt2b6q6qAKRc2q1aSE4k9psudhmtHNmLqYjiTfBGUP0z2hG1smUk8jIzJ3mEnbr12kNY69aexCHzp2LZxOeU8gU4EWiWb708WkVLp+aBmNMOaTvoM7HbiR07Koulj6epA2mQ2bRe6frqTPP51HM1y/onOZUtX2I/U5XWVeU2J3UmsrNVSH0QrHKbRfMTm1QFWMPk05TxtcupFAYEnTt56hRLmHOls/FpZrznkqtMMUxFDgurepm0BINh9sp/NJhRS/fRwZ8fhk8pYH7bxwv3mTiIiIEcfQHrdhZGliTFZOU+gzn8U0zHo4zfnqMEU+TJSz7xPVMaPO7/Wo9otmDf+hJIdV/nGWtswbS2+NmUZuny4jj6Wb6dzD+gdYn6bQ+Q0u1E0gIMvpW+lM4hM1uYBImraHJr3RjSbvS29s76uAR0QKdxA5XlcYJG8ZBqeTExEW+w3eUnEVQB3SuA1wGn4GUyLuYLPDMxTwF4NJ3oJhTicxMSwW3zyLQTleH9gcnPUNQPk/3eDAFkNcVoGqCjFy753E0TwPBO+eqHD3qP3RPnJA7Q1vLL3jjp+W28hv+tvzIuz7YqnFDe+luOMegOU2yhajvCCkcdjgNBxnpkTgzmYHjWu52wts1j64be2KHwLex7N+j+9vzWvq9/bGi1o9wvFXQ/HOGAfHXxgWOb94YcU9G/xjoA362g/ByLHOmPje+5jp4oS3+sluZ/+teMYcwJZEYP/5zpi3gJuoq+UZ7ftiYVESsR/nO8/Dgj9zot6CdtFxDTCoKBWjmq1AxN7LMJv3HjdRf25eB7+3X7jJ+l8KKYqLyyCtkODJMz4XIS0txROmDCViTW/D+XsgLS5GmbQCkmc1KMdrg9C4G/R+X46hzvOwfL0vtm7ZiC8+no9P/meDJe69lD4A1/54xTmAFSMhjsVkn1UYx81ulPJc9n3BsOIExLGT4bNq3J8/GZWWovQJg7ISsdKvbrYnpPFbMc7MFKbd3sSy0gVYObLhtYIcbeY18nt7RuDj4+Mj/yPH6wiDnJuBCHlsCvu+hhBn89DD3grGbTgdq0m7jKO/FaLH4H7oUJoF6j4QNiavxxTlz4DJuYnAkMcwte8LQ3E2eD3sYdUWg3K8RvDQ4c334L7AGZbCp3hSUQuekSWGf7gCqz50QufXwu3tIAfw9NDNpieM/3a3IVrHc9v3BcPT6wabnsZ//l2jmjRcPvobCnsMRr8Opcii7hhoY9JuT4D5na1g2bkz+r6/Hv/60lnxDSIcreM183t7hluzzsHBwcHBwcHBwdFO4c4XOTg4ODg4ODg4ONop3GSdg4ODg4ODg4ODo53CTdY5ODg4ODg4ODg42incZP0lwpanIyFNwr3AiEMFlciMvYfsavnf2yecnl8AbDnSE9IgaTBiZSZi72Xj5UmARXl6AtIaG8Dxt0Zejy+JysxY3Hthie/1yqOvmhdr++ekOgcJ9wte/ZhSlY34+4Wvvh3N4CbrqmBKkXjmO6xZshjuH3+GFZ+vw/YTUXh07yiOXqv/hm1rYbLxu78bhlj3g+v+FDzjG9U42hW1iNg4Gn1GrcD5/BcT0mzGfiwYPgIeR/PbVZJQgNOzRmqur8eIPmOwOkRVwmeQ/bs/3IZYo5/rfqRIAYBFxv4FGD7CA0dfkKbUwWT/Dn+3IbDu54r9sgZw/G1RpseXBJuB/QuGY4THUbwI2avOozW4vn4E+oxZjZDCF1DRX4EXbPtnhpUg9tjnmGBri3Fbbry6VzyyYlk7RCJM8It4de1QhvwnTTmImLzfaP04a+r/4S4Ky5J9ppiogv44+xWNf0OP3tlbIHdEK6i5QZ+LdOjNNZEk+3A5xzPBFNLtW2nU9KHiPxuGCm/fojT5Cmui6Mu3htLa0FK5DW1AoS8VlHE3jrLqv4r8p6NQfxvg9KyGGrq52omGrw8nifymFtTQjc9FpPPmGopsMGJFBt2Ny6KXJYGaG5+TSOdNWtPYAI5ngSm8TbcUksTrhhI9viQqMu5S3AtLfCryaM1NWu00nNaHq4/Kvxsv1vbPAZNFP4zXIZM5/32G/KdinH4WmAzaOVaHOs8//Qzt+PPgrqzLI03Grrmu+KHGA8ePeGGMRcMHxg1gO2UTTgbMg/ETsdxBrUBgDGMjnvyvHG2kMvoHbDjy4OVdza2Mxg8bjuCBXIXM40fovuoEtox99k+JKPbFAJYOg2Dxkr6/oVh/G+D0rBomC5k9vsDxTaPRUX5bCwQwNjZCCysaWMJhkAVekgQgMDYG58bnpRLRP2zAEfkk8dqhRI8vCQNLBwx6YYlPeR5lsjLR44vj2DRafVT+3Xixtn8O+EYwNHhG9akYp58JvhEM9Z+xHX8ir+dHkaozEHrsAI783w2ks93Rx9oEWvL7PCPi0ysx51+pGO17BMsdDeS28mBg2xuGlTzY2nYBAEhLHuBWdBzSigHjbibQlTv9kZam4XZMIgp5PDz4z2EkWLvhk4k9IGjFsS2pRWFKDG4l5kLa0Qyd9JrvzECcfhe3E7LwVM8UXQyaf3KgCtnxaaju2hV6Zem4ezcD0k5m6KgNoLYAydFxyBWYopthw2cxWJQ/SkaOsAuMqh4i5tYfqO5ohk5yjWPE6bh7OwFZT/Vg2sWgxUcOKrMS8EjaFV2EhUiKjkexjhm6GrQ8vio3ATF3UlHE64RuxjpNA0RlFhIeSdG1ixCFSdGIL9aBWVcD8MGiKGo33Of5IkKrD/p3kqKuoyVMDXgAqpCbEIM7qUXgdeoGYx11gaZqXxaShzGITioG31gLlWKCQfVd7HafB98ILfTp3wnSuo6wNDUAD1KIi54C0mKUwBjdTHTVridT7KvqvlTnxONBVVd07dC8D5XIiY9BXHol9Ew7oiIrG9TxKe5fuYnYB2nIZ7rAoosW8u5cxo17fyC9RIjuPZrFRFUuEmLuILWIh07djKHDU12/Jk2q07N6HSrjWTVdiayER5B27QJhYRKi44uhY9YVchID2DzEtcZGKjWnhtpCpMTcQmKuFB3NOqFF04kHA60qZD9+Cj3TLlAwg7QUabdjkFjIA+/Bf3A4wRpun0xEDwEAVCMn/gGqunZFkwSqkZcYjbsPSsHraApjXXl9q7OVMqQoTbuNmMRC8HgP8J/DCbB2+wQTZQ1QEyPKeFYfvl55SeWxbBGidrtjnm8EtPr0RydpHTpamkI252iLHV+kXqUoeXAL0XFpKG5FflKvR2X5o/53VoKHMdFIKubDWKsSYjKEoXZDoap0UYWshIeo7dIBZQl3kaPdDV30+EB1DuIfVKFr1w7gAWDLHyE5R4guRlV4GHMLf1R3hFknuX6oiUFleZR4BtCqysbjZ9SGIizy4q7gZuwDpOUz6GLRBVp5d3D5xj38kV4CYfceMJE5rHX5qgG2HI+ScyDsYoSqhzG49Uc1Opp1apaLVdhQjX4BoLYwBTG3EpEr7QizTnpNtpSzPQCAESP97m0kZKnIYQDAliApLBx37v+BtLR0lGp1Rw9jLVRlROP3yASk5dTCpKcplM17lbezDvd+3YFLOv/Eqvf7Kv9QlxLNGZRFqRin1ecDqLRJDWKP++OK/gf4fMabYLJicDUiHn+kpSFdogML847K2/Yno0ou7ZfKGHzj4ogJH32BTZvWYvFEJ0z0jUCF/H7PRBXCz/6GQr4ITm91kt8oQ/gm/vGPPgAYpB9biGHv/4B7xfmI8HOBaNQmRFY17FiFhP3z4eJ+EHE5aTjn7YWAB0z9Nk3HtoQtCsXWBW7415VMFMbvxlSRE7zO5MnW40mi8L2bK9YGJSAr9SxWje4LF99rKGJZlN4+hlVvi9B7rA+CTm3E3Nlu+Oj94bAbtgoht3/B0skzsOjjmRhmNxobI6vAZIdjt/sQWPadg92Bm/DO4KGY+PZw2Imc4XuzrL41EkR97wbXtUFIyErF2VWj0dfFF9eKWLBFMTi6YjxsRZPgd+Iglri8hznz34P9gOkISKvvO5uHkM0eWBUQhvhbJ7FqlAhj1l9BibQIMUdXYLytCJP8TuDgEhe8N2c+3rMfgOkBaWBYCXJL9GDSgQVbUwmJpAxVUoDNC8Fmj1UICIvHrZOrMEo0BuuvlChdJ6x631rE73KD1/FsSKuTcWjuMHzwUzqKc0ugZ9IBLFuDSokEZVVSgEnHsYXD8P4P91CcHwE/FxFGbYqEUtep7KtiXyqKY3Hii3dg22sMNoU3PexTlXQEnu/Nx7ZLSUgJ34nZDtboO2M/UthO6NmjAD8vmQaPg8mQQoBOFqZI3TUXUz8PQi4D2WASshkeqwIQFn8LJ1eNgmjMelwpKlWov0qqSZPq9KxOh027NOdZNV0UcxQrxttCNMkPJw4ugct7czD/PXsMmB6ABok1wtdgozoNmpMrTgaLotCtWOD2L1zJLET87qkQOXnhTJ6so5Ko7+HmuhZBCVlIPbsKo/u6wPdaUaMeqxL2Y76LOw7G5SDtnDe8Ah7U18NCHHsCX7xji15jNqFRAmWR2D59CjZG1UGn7AI+HWaHt8a/g/fe34JrVepsVX+8PFUJ2D/fBe4H45CTdg7eXgFo7kbVMaLIs/rwdcpLRQXqj2UluSjRM0EHlkVNpQSSsipI22jHRl6EXtuSn9TqEarzRwkL1MZjl5sXjmdLUZ18CHOHfYCfMmSXNZXrIgf5UYewfLwtRBN9sG/bBxg1YjiGuO3DtRNf4B3bXhizKRzVTDbCd7tjiGVfzNkdiE3vDMbQiW9juJ0Izr43IfO26hhkxcry6HNqQyV8dOrZAwU/L8E0j4NIlgKCThYwTd2FuVM/R1BuXdvyFRhkh++G+xBL9J2zG4Gb3sHgoRPx9nA7iJx9cbOMRaEyGy76BSUq9FvCAmCLELp1Adz+dQWZhfHYPVUEJ68zyJOKEdvc9vWt0JTDGuHroUPlZXw9azLm7M2AaVfZ1XndzgLc3OKN85XG6CA/w1TXTk0o1VwtJMrGaTU+B9TYREk7hML72L/CB/+XqY0eFp1f2IXhNiO/LqZ9w1D+T5PJkAcCmv7xDN6hfz9m5HduO0wWfT9em6DzDu0rlN8oh/Q+fTNUnxw3JVAdEdXFrKP+uva0IbaOiIgqb6yhgTaL6Iy4fv+K87TYXEu2xlfDsS1g8ui4qy257MkkhoioLpF2jO1E3ReepgoS08WPRWS3IqxxbVXljVVkp21Gs3/NJ4YYyv1xAunoD6N1YXkkJaKau1+TvVZHGv7lb/S4jojqYulrex2y8bpG1URUE7Ga+miZkfPGEHpcR1SZfIBmmAtI29GH7tURiS9+TCK7FRTWVCGtstMms9m/Uj5DJH24g0ZqG5HT8jOUXkNEkv/SXFMdGrXjIUmJoYITc2n82qj6dc4MZX43lrS1HGR9lz6kHSO1ychpOZ2RHUz/nWtKOqN20EMpETG59OMEXTJ3v0jVRERMAZ2YO57WRtUvsGQy6bux2qTlsIEUTKlu38oIWt3fnr6MknWKyQ+kLbuTqK7efrrm7nSx/tEF6f1vaKi+I21KqCOiOopZ15907ZXUp6mv8n0hIiZvD03QMaJZJytlP5T/Tiv6O9Cam/V/Uw1FrH6TdPqvo5g6IpIm05YhutRn9c36Omro5uo+pDf8W/pDSsQUnKC549dSU5e/o7HaWuSwIZbq5OvXoEm1etaoQzmeS9NSerhjJGkbOdHyM+kkk9hcMtUZRTseKlmwqMFGGjUnB5N3nFxtXWhPpqxXdYk7aGyn7rTwdAWR+CJ9LLKjFU3BQTdW2ZG22Wz6NZ8hqrxBawba0KImI9L5xeak1bhGmKG8PRNIx2gWySRQRwmb36IOTpspSSr7++5XA0mn1zIKrSEijbaSp5JurBlINovOUJMbF5O5Vv2adXUxIq/v5/Lh65WX1B9LxOT+SBN0zcm9IUm0xY7yPKdeW5+fZDZSp0d1+aMyYjX1t/+SZCmTofzALbQ7qU6DLhjK/G4caesNoOW/FZI46QqF3CshhsmjPRN0yGjWSaokIqqJoNV9tMjMeSOFyJxNB2aYk0DbkXzu1amPQSV59Pm0oQkpJW8ZQrp9VtPNejvV3FxNffSG07cyh7UtX1ENRazuQ1pmzrQx5DHVUSUlH5hB5gJtcvS5R3VKbVhEeSr1W0N5x13J1mUPycxVR4k7xlKn7gvpdIUsjlvYXlMOU6CSwlaISMduDUU0yD//KM2fvY+yFHZXH2dET+jwFF2Va9ZrVGlOyTit3ueMepuQmH56V5c6zz9NlSXXaduixbTr1pPGdrwq5M972jks8jKzUU0tf6WabGQ8fgGLlfj60Nfhg0d1qK5WcorVHIEInkfDEehlhezQQ9h2OApitgZPq1kAFQjZewTpA8ZhvHH9/rrWsDKrvwmj9lg5xME4EaIDB6dustsgwn5YHVqCnCPTYVB6Dgd+zYbtIIfGNa76Q10xXVSM88eDIQEfHQz0wdO2xmCnbhAA0BbZwlIIWAweCXMhAKEVLLvzUCYWgwDw9fSgK+iKEdMmwFwI6Nu5YZOHPSghDGEFxTh34Fdk2w6CQ1OFcJ0uQvH54wiWAIIOHWAgMIS9iwustQEYiNDbgo8ySSkIVQg9HYKcB+fh7+cHP79tCHzqAh/fBXDUAyDogA4GAhjau8BFdjBEvS3AL5OgVM7nAICqUJwOycGD8/7w8/OD37ZAPHXxge8CR+i1ZV+hOUSWmdg5dQwWfnMKSVquWP+Z8ttwApEnjoYHwssqG6GHtuFwlBhszVMouk5DX5XANzRstvQBKLuwD8fKh+IdR/36XwTo2LFDq2+HVYWeRkjOA5z394Ofnx+2BT6Fi48vFihrgFpNatCzRh3K8VyaFqBDBwMIDO3h4mINmcR6w4JfBolSkWigjZoTB59AiI4DnLrJvCDstxqhJTk4Mt0ApecO4NdsWwxqCg4MdZ0OUfF5HA+WoCJkL46kD8C4JiPC2sqs2a1ZPgwNm92KhhQZ6dmo5fPqfxPC2toCyM1AxtNnsHtFCPYeSceAcePR5EYrNLhRbYw0KwZ4Xh++XnlJ/bFKaIsd24oGvbY+P0GjHtXlD6G5CJaZOzF1zEJ8cyoJWq7r8VlfoXpdgA89PW3wjZwwYXRXGPedAJeBncDnG8KweeLj60FPV4CuI6ZhgszZcNvkAXtKQFhYAUrUxCAU8mjpc2rjeWlrvuJDT08Xgq4jMG2COYTQh53bJnjYExLCwlDAKrOhLsJV6leM4BMh0HFwgsxcQvRbHYqSnCOYbgBAzvaacpgi+hjp9RlG5RzFzlMFYMEgM+gCtGbMhIXCQKU+zjShUnMKaPK5BpvUwxb8hs8nb0SV14/wcjJs2vCKUDBn+0YI2yGOMJVbeMTv4oihfRoXyz0HHTHYUQQh8wCJiZpe2sOH8Gkcdnl44lDuIHzk6Qwzfn3wMdlI+UMCCIQqDKzmWDmYkkIUV0tQKlbczhRk4XEVi9raZu9IFVrB0pyPWokYT1iAx5NbMMbjQ3ZjovEH8PkAKRZfjxC9+vWGAepQU5WPrMdVYGtrm70HWggrS3PwayUQyyps+YASTwABDyCWALYcRSVPoWM3HWvWrcO6hn9rV2BqHyEAHlo2lweB7GClSZMtL0LJUx3YTV/TVNa6dVi7Yir6yMWw2n21e2LxL5exz9UQYVtnYXCfEVh+Okv5Mgi+EE/jdsHD8xByB30ET2czKHWdxr4qgde8/wxyH2agQqgNLSVr/jTDoryoBE917DB9TbP6163Fiql9lJyIqNGkBj23RofNedGa5gkE4IHAKhbXCtqiOQYlhcWolpRCsekMCrIeo4qtRcumW8KcXwuJWIzMlD8ggQBCZUash9cifrQxdPI7eCP1Ki49YgDU4H5KJkwmTMHYDq2zVXOY7BTI3Ki8AWpjRE4wL9qH7TovqTtWCW2xY9vRoNfW5icwyFarR/X5Q7vnYvxyeR9cDcOwddZg9BmxHKezGLW6kKEsmfEU9SCHsFc/9DYA6mqqUKwyButpnkeZgufTxgtAvm9tzlfCXugn6zxqCIo2VKdf2zIUFldDUio76VWkue015bAnikthAAhsFmDlTF1c2LkPCdVJOHbtDcyerGQZsbp2tiIw+Co0p4Amn4uLNNikHqpC4eObOLrzLHKUdfwlozRM2zMd3t2CfcuHoLOQJ0tUJo74dN+3mN5wceC5EMLezR1jDQtw7tAppeuXUPsAFy/EAxUXsXKaN0pm/ojNcxxh2qA1AsDrhC6dhKhOvIM4uVeyE8uqP1YOwRs9Ya5XgOCTl1Da8CNbguCAQKS90Ru9jBgk3b7TtCaRrUVNLR89BjnA7Jm9S6Bmfa+rqgZraof+Fhbo3csITNJt3GmqELU1teD3GAQHTRXyjdDdTB8pQQdxtdkLdZj0YFyIb/udEb5Rd5jppyDo4FU0FccgPfgC5ItTu29NNhIfW8Bt11WkJJ2D98As7PXaiitKXqdfcXElpnmXYOaPmzHH0bRx0qvguufuKw/GJh2Bx7cR9UhJQgIACCAUKBlUiMCAD6PuZtBPCcLBlg1A8IV4xTfAqNOkBj0LurdNhy9X0+ps1FYEeKOnOfQKgnHyUmPLwZYEIyAwDW/07gUjJgm3m4IDbG0Navk9MMihO7p06QRhdSLuKBpR6SAI8NF1+nfY66aDq99vxnf+3+C03hcI/sUdVgK02e68Tl3QSViNxDtxaNkCAstqiBE5wbxcHzbw18tLijyfXludn8BDJ7V6VJ8/arIT8djCDbuupiDpnDcGZu2F19YrkKrRRWprOtAMaulsVLOmsOtvge4qYzBV0UaC7s+njVYgkDlMzsYEUmhMGyBqlhPqUFXNwtSuP7rLPyEJDfpN6oye5nooCD6JJnOxKAkOQKCCQwTorjaHmamYMHaEy4qPMfD+AXzruwd3+83D+Iabwc1R107NgQFGheYUhmlNPu9h1iqb8LtNw7+PfAqj00vhtitRsZ6XjHLbt2f4ZpjsH4GHqVG4di0SqenR2DXN/IV1RGD7CQJ2z0KH8yswa93/4UGzJ1dZ8W0c/eYMyKE/2LKHSC+oQFbqI1RUZyPsXCTymCqU5cUhOlkPU+ZPRpf0g1jpfR5ZtUBN5l0kFjIQ52QiN/u+6mMT5R6V7TgJi2ZZIP+Xj/HPFf9G0P8C4f+pG4KEI2DbaTKWeQ6A+NR3OJQquxPA5l9GaPZILFs6GjoAGJaVmwyQLJE0ZhbZ/1m2WeCyRcjMqG8Hm4uzZ+PR33MpnHU7YvIyTwwQn8J3h1JlHwxg83E5NBsjly3FaB2AZRhIiW022BAIBJZlwcIAExfNgXVGAFzHzYXvT0E4ddQP7l9GwMBGCLAMGCmBbZb4iGQTQpYFwNeFrg7wJC8XpUXRuPFwJBbNsUZGgCvGzfXFT0GncNTPHV9GGMBG/kTdYKLqfXnZCNoegLtVgK7Vu/D+eias9HWgy+NDV1YhckuLEH0jDvkP01FQkYXURxWozg7Ducg8MFVlyIuLRkvXaeirfF/iqwCWAUuyiRPAh+k//olxetH4du5S7L0Ugzu/H8Hh3/OaBiSBKcy7aSMn6jfcLSjE/Qt7ceRmCaRF2XhUXA7BxEWYY52BANdxmOv7E4JOHYWf+5eIMLCBUK7+8Eg1mtSg53w4a9RhC55L0ywYRgpim12ZkokErMxwLdFgo2pNmpOj46RFmGWRj18+/idW/DsI/wv0x6duQRCOsEWnycvgOUCMU98dgqzpLPIvhyJ75DIsHa2HrlPmY3KXdBxc6Y3zMiPibmIhGHEOMvPLUAWAZVhQs3gVX1yHjdkz8P3WtfBauQnbN82HfcOFiY6abNUSftcpmD+5C9IProT3+SzUogaZdxNRyIiRk5mPMp6aGJGPp+fy4euVl9QfC/B1daGDJ8jLLUVR9A3Eq7VjFW7tXojJH/rikrKrQc+lVxZlrc5PfI165KnJH7zsIGwPuIsq6MLqXW98PdMK+jq64KnThQAyP0vr5C4WsGBYkl3IavZbUWZG/YsjWOSePYv4/p5Y6qyrNgYFgFwefV5tAFW3dmPh5A/heymvqXmNCGBq3g3aOVH47W4BCu9fwN4jN1EiLUL2o2KUV7cxX9XDFmWiSepncTa+PzyXOtcvK5O3oTr9dsakRbNgkf8LPv7nCvw76H8I9P8UbkFCjLAVKNi+o9ocJp9RmhD29cCKyXX4z/dJGD7PUcmdW2hopxAAA4ap17L8oQAYVZqD/DidCWe1Pu+o0SYsC7AMwdj5GxzbNBB3v5qLtZoeEP+zkV/EzkFEJKWCm3tp2dS3SNR7AA0bP4lmzF5IHl/spZuF9U9NMDl0etkQ6mZoQr3GuNPeaz+Tm6Ux2UzeTpESImLEFLPHjYZZmpCxlRNN+cyHFg+zpuFzvqLDN2PVHytPZTIFejmTqKshdTR3ojn+16mhGVSXQWfXTyVHh3E02+MT+mi+J+0MKyCGiCqSz9LGSeYkENrQ+9vOUUJmHP1v81TqKRCSzQw/+r97j+h20AZ611xAQusZ5BecRpWxX9MgbTMaNsudPl35OX06bwa5fnWOMhufhamjjLPraaqjA42b7UGffDSfPHeGUQFDRJJ4OuU9gUwFWiSa7U8Xk1Lp+qFlNMKYT/oO7nTgRg4RVVLyMS9ytjUhHW0j6jlyCR1JrCQiCcWf8qYJpgLSEs0m/4tJlHr9EC0bYUx8fQdyP3CDchgppR3+kEQmnUk03Z+iymW2OeblTLYmOqRt1JNGLjlCiQ3PY8qjat+am+Q9ohfZv+1GX/j40tolS8jvquwBPWnaYfpQZEKdRdPJP6qcmJzTtGxINzI06UVj3PfStZ/dyNLYhiZvj1TyARxVfSUikutLfjKd2ziJuguEZDV9K11IrSYiKeX+tpGm2HWlDkZWNH5lEAVvdCK9hgdMiejJjS00sacRGZk70Mzt1+jiGkfqPXYh+Ry7RcUMUWXyMfJytiUTHW0y6jmSlhxJlD1IJF9/2XPoOTJPrQ6V8oyalsSfIu8JpiTQEtFs/4uUlHqdDi0bQcZ8fXJwP0A3chRrVG2jaxT+H02aky+NqDI5kLycRdTVsCOZO80h/+uFjf2syzhL66c6ksO42eTxyUc033MnhRU0bGVIHLOH3IZZkomxFTlN+Yx8Fg8j6+Fz6KvDkfQw8RxtnNSdBEIrmr71AqVWM5RzfB5Z6vAIAPF4fNLSNSLT3mPJ85f7soe01NhKGYw4hva4DSNLE2OycppCn/kspmHWw2nOV4cpMo9RHSPKeEYfvlZ5qTXHStPo8IciMuksoun+UVRebxuldmRy6PCMbmTcxZRG+iY0mrI5z6PX7Oy25Cf1epTJQXn+qLnpTSN62dPbbl+Qj+9aWrLEj642PICoVBcMldw9QeveNiOBwJxc1p+g28UMEVVQ8rmNNKm7gIRW02nrhVTZw8WDtMls2Cxy/3Qlff7pPJrh+hWda3K26hisUJZHn0cb2ZRzeAZ1M+5CpiN9G+tvwZMbtGViTzIyMieHmdvp2sU15Nh7LC30OUbXwv/TxnxVR7FfDyJts2E0y/1TWvn5pzRvhit9dS6TpKTKhqRavw3bAr3IWdSVDDuak9Mcf7peqML2GnOYaqrDVpDjlP1Kc2YTqtr5lFLObyCXbgISWE6nrWcS5Q9Uqzn5cVqtz4lU24QpoJjAdfR2NwEJbT6g7eeTqDB+O40z4hHf5C3y2HmB7qvKh38yPCLVqwI5/n5I4zbAafgZTIm4g80Oys+POV4VDJK3DIPTyYkIi/0Gb3Hu+YvDIuesLwLK/wk3BxbF4jJUVFVAnHsPJ4/mwSN4Nyaqvtj1l+Kvlpdqb3hj6R13/LTcRn4ThzQOG5yG48yUCNzZ7KDiKu1LpvYGvJfewTc/LZff8oKRIm6DE4afmYKIO5vx+kidRdY+N2zt+gMC3n/2DwVyqOZFrR7h+KvxSu/3cHBwsDm/wGvFPdj8YyBs+tpjyMixcJ74Ht6f6QKnt/opLk35O/AXyEtsSQT2n++MeQu4ibp62omz2RJE7D+PzvMWyG/5U2knvVcPU4FScTXYigjsvWyGee9xE/U/C26yztECaWkpnjBlKBFrehsOx8tHiuLiMkgrJHii+XkcjtcdoTG66f2O5UOdMW/5evhu3YKNX3yM+Z/8DzZL3NFL2cNmf1H+MnmJFSMhjsVkn1UYx81rlCMtRekTBmUlYtl641cKC3FCHNjJPlj1UhwmRWnpEzBlJWj/Upcifus4mJmaotuby1C6YCVGNrwqkeOFI/Dx8fGR/5Hj70lN2mUc/a0QPQb3Q4fSLFD3gbAx+RvNCNo1DHJuBiLksSns+xpCnM1DD3srGHOn239ZeB3exHvuC+BsKcTTJxWo5RnBcviHWLHqQzh1/vs4/i+Vl3h66GbTE8Z/x7siraEmDZeP/obCHoPRr0Mpsqg7BtqYKHwm/uXBg143G/R8KQ6rQdrlo/itsAcG9+uA0ixC94E2aL9S56OzlSU6d+6L99f/C186v8Fd/f0T4dasc3BwcHBwcHBwcLRTuBMhDg4ODg4ODg4OjnYKN1lvBWx5OhLSJI0PfFRmxuJedrNPfL0yKpEZew/Nm8KIHyDhUWXzneSoRk7CfRS8Fk+vcHBwcHBwcHD8veEm6+pgsvG7vxuGWPeD6/4U2UcI2AzsXzAcIzyOIv8VT3jZjP1YMHwEPI7mg2Uy8bv/Agy2HojFgZmKX3IDC0nsMXw+wRa247bgRrt/eIWDg4ODg4ODg4ObrKtDYAFnLw+M7UxNnxLmW2HJz5GIOLAQ3V6x9fhWS/BzZAQOLOwGvsASzp8twmgTZZ+WBgA+jB3mYOU0UbOvBHJwcHBwcHBwcLRnXvF08zVAYAxjI16LnwwsHTDIoj28o8gAlg6D0NgUgQEMDdS5lA8jQwO07A0HBwcHBwcHB0d7Rd3M7m+NtDQNMWHhiM1+Kr8JqM5BfHJ+s48WsJA8jEbY9ThklZUgN69+zThbjkdJ6ShnGYjTohAenQaJwvoUBuL027geHoWUQvm1KZXISkhFCQvUFiQhIiIZhXLv167OiUdy43ocHnj1M3GSFuF+VBSS8luurec37NCCKuQm3ERo+B1klr/itT0cHBwcHBwcHByNcJN1BaqQsH8+XNwPIi4nDee8vRDwoH6GzYoRe+ILvGPbC2M2hUM2Da5F/C43eB3PhrQ6GYfmDsMHPz3Eo/DdcB9iib5zdiNw0zsYPHQi3h5uB5GzL26W1VclicL3bq5YG5SArNSzWDW6L1x8r6GIZVEUcxQrxttCNMkPJw4ugct7czD/PXsMmB6ANAZgxbE48cU7sO01BpvCW07IqeACvEY4YMSEURhgZYdpP9xGRYs9mmDzQrDZYxUCwuJx6+QqjBKNwforJa/H19M4ODg4ODg4OP7qEEcLKm+soYE2i+iMuP6HivO02FyL3lwTSTVEREwe7ZmgQ0azTlIlEVFNBK3ub09fRj0lIiImP5C27E6iOqqhiNV9SMvMmTaGPKY6qqTkAzPIXKBNjj73qI7EdPFjEdmtCCPZkUSVN1aRnbYZzf41nxiS0sMdI0nbyImWn0mnGiKS/HcumeqMoh0PpbK68vbQBB0jmnWyUlZAXQyt669N5lN3UUyJlKgigQ7MtCItHSfyja8jIqInh6eQrskc+u9TImIK6MTc8bQ2qkZ2PJNJ343VJi2HDRQr252Dg4ODg4ODg+MVwl1Zb0EFQvYeQfqAcRhvXP+TrjWszJp9QoxvCMMOzZaSCM0hsszEzqljsPCbU0jScsX6z/pCCD709HQh6DoC0yaYQwh92Lltgoc9ISEsDAXF53Dg12zYDnJAw5Jz/aGumC4qxvnjwZBAgA4dDCAwtIeLizW0ARiIesOCXwZJqewJUb6hIZo3RYYAZm9NwOBOAsCgPz7y/xyjeAkIv16seLW8KhSnQ3Lw4Lw//Pz84LctEE9dfOC7wBF68vtycHBwcHBwcHC8dLjJenOYbKT8IQEEQjWG4YHXfN03vycW/3IZ+1wNEbZ1Fgb3GYHlp7OUvDoRgLAX+vU2AOpqUJWfhcdVLGprmy1hEVrB0pyPWokYT1i0rAcATyAADwS24W0uvKY16qrgd7WBtTEPjLROfhPY8iKUPNWB3fQ1WLduXeO/tSumos/L+LoyBwcHBwcHBweHWlTPSf+O8DqhSychqhPvIK6m5SZiFa5Ly2CykfjYAm67riIl6Ry8B2Zhr9dWXGk4nqjZFe06VFWzMLXrDwuL3uhlxCDp9h1UNWxma1FTy0ePQQ4we1GeqSpC8dOesB/8hoKz+UbdYaafgqCDVyFu/JVBevAFxMs9yMrBwcHBwcHBwfHykZ+//b3hd8WU+ZPRJf0gVnqfR1YtUJN5F4mFDMQ5mcgvqwLAgmGpafLOZCNoewDuVgG6Vu/C++uZsNLXgW79FW+2KBMZ9U93srlncTa+PzyXOkO342Qs8xwA8anvcChV9hYYNv8yQrNHYtnS0dABC4aRgthmV9KJAGLBNtTNMmCJ0PI8glBVJoHsXKEaCQeP4eE/vsby4doAAIZh6ssAYDARi+ZYIyPAFePm+uKnoFM46ueOLyMMYCNkUXJ5E1w/3IJrTTN5Dg4ODg4ODg6Ol4jAx8fHR/7Hvy88GPabiLFdM3Hpp2+x5cf/Irq0K0zKH4HpZIZONr2hE7cXO/eHIrWgDnqiwRhtU4Wr3/tg56lYPHqUgLBIMYav3Yg5tvoouLYfP8WWg8mIQ2TYRQQev4fe3gH4akwn8KEFizH/wIDKy/jh24O4dicGISGP8dam3VjmaIgnCafx3feHEH6/EExHW/TtXICL+/bhRGQKSqk7+vfVQfy+77A/NBUFdXoQDR6C3l27wNJCGw/++wP+/X8RuBP5G27rLMTu7R/AWhuoTr2AHf4BCE3JQ62eDQbYD8DQiW/D5kkcLv/vOE6cuYn8Hovgv2U6emixyLu0Axt+zsXAua5wMuHO6zg4ODg4ODg4XjY8Iu57ln8OUsRtcMLwM1MQcWczHLg14BwcHBwcHBwcHG2Eu1z6ElCx2p2Dg4ODg4ODg4NDLdxk/U9DitLSJ2DKSiCW/zApBwcHBwcHBwcHRyvglsH8KdQg7fIR/Cc8A2VSIYytxmHWogmwkT3jycHBwcHBwcHBwdEquMk6BwcHBwcHBwcHRzuFWwbDwcHBwcHBwcHB0U7hJuscHBwcHBwcHBwc7RRust4OYcvTkZAm4d4i00B1DhLuF3D2eEFU5yTgfsHLt6Z8vZWZsbiXXd1iHw7lyNuOAwAjxoOER6iU//21pBo5CffR3MUKPq/MROy9bKiOGBbl6QlIk7x8nfzpY5bGvrdEMbco2ldxnz+RNrZfkefz7Z/unxfAi/VHJTJj7+GFFdcO4CbrzalNx7Uj38Dj3dEYOWoMpn7yLQ5eTEK5/H5/Fkw2fvd3wxDrfnDdnwKp/Pa/G6wEscc+xwRbW4zbcgPcS3WeD1YSi2OfT4Ct7ThsufHyrKm0XjYD+xcMxwiPo8hvzyPIK0ap7Zq2ovDWr9j+2QyMHzUGMzaFouXHhmuRHnoE37hPwtgpn+Jfx8KQc/NnfOs5FWNGjcLYf67ADycj8UfSRezxnoeJo0Zh3NT5+NjTE56envBw+wAuY8di0U9pLUp99TDI/N0fCwZbY+DiQGQy8ttfJ1hIYo/h8wm2sB23BTdqVfmcRcb+BRg+wgNHlQQMk/07/N2GwLqfK/anvMSR46WMWer7rkCL3KJoX8V95I5/4bSx/XI8l29fin9eAC/YH2zGfiwYPgIeR/Pb9QlKmyAOOarp6lJLEmiPIf9HjPzGP5+aG/S5SIfeXBNJNfLblMAU3qZbaVL5n/86MFn0w3gdMpnzX3oqv42jzTBZP9B4HROa89+Xa01l9VZk3KW4rBfVDoYKb9+iv2IoKLNdC+oe0sHpZiQQmtP7R9NJ3gSV//cRjVgZ3phP6u5tpMFaWjR44z2qa9zpfzSvi4BMF55pFmcMFYSspA/W32z8pf1QTb9/akU6TpspSb7Drx0MZf0wnnRM5lCDi5X6vCKD7sZlqcyDNTc+J5HOm7QmsjUjxwukjWPWM6Gh7/K0zC2K9lXc50+mje2X57l8+zL88wJ4sf6ooIy7cfTCimsHcFfWFRDAyMQIfJ4ROnV+BeYRGMPYiCf/qwoqEf3DBhx50G7Pl58fvhEMDVprDw5N8I0M8SrMqaxeA0sHDLLQbfnjs1IZjR82HMFfMRSU2a4Fwp4Y6tgbb3Qqw/8tm4ut0RUtNgs6GuMNI8PG26g8AwPogQdDY+OmW6sCfejrylfCh+nEdVj/vpnc7+0BAQwMDf4it4b5MDI0QHPrK/W5gSUcBllAVcQIjI3R6qHjRdKmMesZ0dB3eVrmFkX7Ku7zJ9PG9svzXL59Gf55AbxYfxjA0mEQXlhx7YDXM9dVZyD0yA74+GzDod/TUSW//YXQOnEz4nTcvh6OqJRChWUarOQhosOuIy6rDCW5eWrXVkpL0xATFo7Y7KfymwBpCR5EX8PV0FtIl9Tf82WLELVrIeb5xyAj7jeEXEtEUeP9Hgbi9Nu4Hh6FlEKFVkHyMBph1+OQVVaC3Dx1rQIqc+JxIzwS9wtrUFuQjoxyFnlxlxESHIyQ6ymQsACTeweXgoMRfCkKj1o4owq5CTcRGn4HmeXqb0ZJSx4g+tpVhN5KR0MXZfDBk3dFVTbi7xeABQNJ+m1ExGY12ra2IBkRN+4hV26tmuryAaAWhSmRCA2NRppYfqPqPlRmJSC1hAVqC5AUEYHkQrmZojK/NfAMfXghfuXzlCubESP99nWER6VAsWgJHkaH4XpcFspKcqGqaBkqbKms3uocxCfL36ZUZe9KZCWkQmbuJEREJKPB3GxRFHYtnAf/mAzE/RaCa4lFjWVW5SbgZmg47mSWt6in1bGptu/q/KG6vSqpykXCzVCE38lEi64rs508vM6YsWMPZhnfxpZ5y3E6T328tQa2IA6x2Z1g72Atv0k5lVlISC0Bi1oUJEUgIrlQ8ba7Op21MSZ4DYmBpCi6H4WopHy5NcFVyEpIQRFTjdx7MUgpbdKjKl1oRoqSB9G4djUUt9IlaB7VbPkjJKWXg2XESIsKR3Ray+2Aah/z5ZOcUp9XIyc+WW6ZgBSlaTEIC4+FsqFDvUZbmTNUoHbM0jA2VmXHy9bjMxKk345AbFajp1GQHIEb93LlfKms70BtYQoiQ0MRnSZuaWu53KJgXyjuA2jQZ2uoLURKZChCo9PQcihpaH9bxk/1vlU/pmn2j0rYcjxKSkc5y0CcFoXw6DS58lXHlTKfs6X3ER4SjODgYASH3EBqGQugHGk3LyE4OAQ3UiWyHRX80ZocqmK8AVCdE4/k5oJRNx7Xw5YkIbShrZeikVEFAFXIiJa1NTSpRP6Ql8brN1mvjME3Lo6Y8NEX2LRpLRZPdMJE3wi0vJb0MpAg6ns3uK4NQkJWKs6uGo2+Lr64Vj9jro3fBTev48iWViP50FwM++AnZCgIDQCqkLB/PlzcDyIuJw3nvL0Q8KCZ+NOPYeGw9/HDvWLkR/jBRTQKmyKrwEpyUaJngg4si5pKCSRlVbKBURKF791csTYoAVmpZ7FqdF+4+F6rn8jXIn6XG7yOZ0NanYxDc4fhg58yFAdUAKhKwhHP9zB/2yUkpYRj52wHWPedgf0pLDr17IGCn5dgmsdBJEsBQScLmKbuwtypnyMoV9Z2Ni8Emz1WISAsHrdOrsIo0Risv1KiZGBkkH5sIYa9/wPuFecjws8FolGbEKnsDIwtxe1jq/C2qDfG+gTh1Ma5mO32Ed4fbodhq0Jw+5elmDxjET6eOQx2ozfWl6G+fLYoFFsXuOFfVzJRGL8bU0VO8DqTB1ZNH6RFMTi6YjxsRZPgd+Iglri8hznz34P9gOkISJP1X5Xfnq0PL9CvSpBEfQ8317UISshC6tlVGN3XBb7X6ie8tfHY5eaF49lSVCcfwtxhH+An5UJWa8uWO4oRe+ILvGPbC2M2hTcOysrtXYSCmKNYMd4Wokl+OHFwCVzem4P579ljwPQApDEsJLkl0DPpAJatQaVEgrIqKcDmIWSzB1YFhCH+1kmsGiXCmPVXZIm/tbGpru8q/cGiSG175SsBABZ5IZvhsSoAYfG3cHLVKIjGrMeVEgXLqYXffRYCjq+DQ+FReCzYhcQa+T3aAFOGe0d345RSw8jBFiHm6AqMtxVhkt8JHFzigvfmzMd79gMwPSCtcRKlUmfPGhMAQAW44DUCDiMmYNQAK9hN+wG3K1gURh3C8vG2EE30wb5tH2DUiOEYsugXlKjRhUaYdBxbOAzv/3APxfkR8HMRYdSmSFQx2Qjf7Y4hln0xZ3cgNr0zGEMnvo3hdiI4+95EGfCcPmYhjj2BL96xRa8xmxDeEDBVCdg/3wXuB+OQk3YO3l4BaDZ0qNEonjNnqB+z1I2NbOltHFv1NkS9x8In6BQ2zp0Nt4/ex3C7YVgVchu/LJ2MGYs+xsxhdhi9MRJVqvrOFiF06wK4/esKMgvjsXuqCE5eZ5AnVZ5bWqAi/6jUp9zhymFRFLoVC9z+hSuZhYjfPRUiJy+cyZPKtZ/fqvFTvW/Vj2ma/aMKBtnhu+E+xBJ95+xG4KZ3MHjoRLw93A4iZ1/cLFMTV2p8zjfoDJ2Uf2PxlGnYetcY3Q34APTxRocYfOd/G0LjGjl/tC6HqhpvpOJYnPjiHdj2GoNN9YJROR7LwdfrgMrLX2PW5DnYm2GKrroAoIvOgpvY4n0elcYd5A95ecivi2nfMJT/02Qy5IGApn88g3fo349f1PryOrq1fgBp6Uyhw0/ktzUhvvgxiexWUFjDmqjKG7TKTpvMZv9K+UwNRazuT/ZfRsnWqDH5FLhlNyU1LhBtovLGGhpos4jOiOt/qDhPi8216teXSen+N0NJ33ETJdQRUV0MreuvS/YbYqmOiJjcH2mCrjm5X6yuP1hMFz8Wkd2KsMa1cZU3VpGdthnN/jWfmJoIWt3fnr6Mkm1l8gNpy+6kpnWrjZTT7yv6k8Oam1RZ/0tNxGp6U6c/rYupIyIpJW8ZQrp9VtPN+kVwNTdXUx+94fTtH1IipoBOzB1Pa6PqNzKZ9N1YbdJy2ECx8pVJ79M3Q/XJcVMCybq4jvrr2tOGxh2f0OEpuk1r1plc+nGCDukPW0dheVIiqqG7X9uTVsfh9OVvj2VlxH5N9jo25HWtWn35TB4dd7Ullz2ZxBAR1SXSjrGdqPvC01ShoQ/ShztopLYROS0/Q+k1RCT5L8011aFROx6SVIPf2tyHF+ZXInpymKboNlsLK75IH4vsaEWTkOnGKjvSNptNv+YzVBOxmvrbf0myohnKD9xCu5UJWZ0tSUm9TB7tmaBDRrNOyjSm1t5SerhjJGkbOdHyM+kkM/dcMtUZRTseSomIodwfJ5CuuTvJQoGhghNzafzaqPo1mgxlfjeWtLUcaENsZatjU3XfNfiDNLW3JUzBCZo7fi01df07GqutRQ4NepG3nQJ1lLhlBnldriYiKaUf/YB6CPVowIrLVMIQVV/7nGZsrC+LiKRp22mkljaN/a7eV0RE1SG0pIeAdHuNp1mzZ9PsWVNpqGVfWnatIbdoQPqQdozUJiOn5XRGFhD037mmpDNqBz2UatZZ22OijmLW9Sdt86m0K6aEpFRBCQdmkpWWDjn5xlMdMZT53TjS1htAy38rJHHSFQq5V0R5KnWhRABySO9/Q0P1HWmTLKgpZl1/0rWvz2k1EbS6jxaZOW+kkMd1RJXJdGCGOQm0HcnnXp1GHz85PIV0m6+pVvA5Q3l7JpCO0Sw6WUky+60ZSDaLzlDT0LGYzLUa1jVr0GhbcoYc6scsTWNj/bilo0/D1oWRzNV36Wt7Leo4/Ev67bHMtrFf25OOjRfJ5Cffd4byjruSrcseypQlG0rcMZY6dV9IpyuU5BZl9pXfR5M+NcDkHSdXWxfaI2sQ1SXuoLGdutNCWYPk2q9h/NTkW3VjWiv8o54ailjdh7TMnGljyGOqo0pKPjCDzAXa5OhzT0VclVCJBp9TXQJtfkuPzBedIQkRETGUe/hTWhNcLttf3h+acqiG8YbJ20MTdIxo1slKIk3jsTyVYbRCpEN2ayJIlv0Yyj86n2bvy2rKl6+A1+zKOou8zGxUy31zlWqykfG4ddcEXgylOHfgV2TbDoJDw5oo/aFwnS5C8fnjCJYIYS6yRObOqRiz8BucStKC6/rP0FcoVwwqELL3CNIHjMN44/qfdK1hZSao/0MAkedRhAd6wSo7FIe2HUaUmEXN02rlZ/ul53Dg12zYDnJoXBunP9QV00XFOH88GBKhOUSWmdg5dQwWfnMKSVquWP9ZXyg0q+wC9h0rx9B3HKFf/5OgY0d0aK1aqkJxOiQHD877w8/PD37bAvHUxQe+CxyhJ7+vQATPo+EI9LJCdughbDscBTFbg6fVSnsI8DvAQJ8HbevBcOomAKANka0lhLDA4JHmEAIQWlmiO68MYjGpL18cjBMhOnBw6ia7xSTsh9WhJcg5Mh0GGvog6NABBgJD2Lu4wFobgIEIvS34KJOUgjT5ra19eFF+VULpuQP4NdsWg5qEjKGu0yEqPo/jwRIIzUWwzNyJqWMW4ptTSdByXY/PFIWs3pby+wIA3xCGHZrdmlZrbwE6dDCAwNAeLi7WkJm7Nyz4ZZCUKvsAcxVCT4cg58F5+Pv5wc9vGwKfusDHdwEc9Vobm1Ddd03+aGN7q0JPIyTnAc77+8HPzw/bAp/CxccXCxwVoqUVCGC94AACV/fFox/d4H40XXEphkp4MBq1AkdPnMCJk2cQFvgJRErsohRBB3QwEMDQ3gUusoCAqLcF+GUSlJJmnbU5JhqqNXsLEwZ3ggAG6P+RPz4fxUNC+HUUs3zo6WmDb+SECaO7wrjvBLgM1EW4Sl00FqkSgcgTR8MD4WWVjdBD23A4Sgy25imqWQB8PejpCtB1xDRMMBcC+nZw2+QBe0pAWFgBKp7bx3wYGnZoWhpTEYK9R9IxYNx4NA0dVmgcOjRp9JlzhqYxS9PYCPA7GECfpw3rwU6QuVoEW0shYDEYI82FAISwsuwOXpkYMlfL9R1iBJ8IgY6DE7rJkg36rQ5FSc4RTDdQkluUIbePRn1qQBx8AiE6DnCSNQjCfqsRWpKDI7IGybVfA5p8q25M0+gfTfChp6cLQdcRmDbBHELow85tEzzsCQlhYShQGlfABQ0+h7AvFnu+jarTAQjKYQHmAU5Ev4FZzvVXqhV8piGHahhv+IaGaCpOw3gsj/5IeH02CjlHd+JUAQswmQi6oIUZMy1e6VKUV1n3MyCE7RBHmMrpjt/FEUP7aLf88c+EKUDW4yqwtbXNbrMJYWVpDn6tBOInQM/Fv+DyPlcYhm3FrMF9MGL5aWTJj5pMNlL+kAACoUpH8IVPEbfLA56HcjHoI084m/GhONzLYAqy8LiKRW1ts5t/QitYmvNRKxHjCXpi8S+Xsc/VEGFbZ2FwnxFYfjpLYTBnch8io0IIba1Wp5cWsOVFKHmqA7vpa7Bu3brGf2tXTEUfhdGAD+HTOOzy8MSh3EH4yNMZZnxVPQQAnsIadh6fJ7vH0vQD+KD6n1SXz5QUorhagtJmg38DGvvAk1tTyhNAwAOIra9Vrd/a1ocX5VdFGBRkPUYVW4uWRVvCnF8LiUzI+OXyPrgahmHrrMHoM2I5TisIWb0tlcNrWnPcCns33xcAeAIBeCDUm7slbDmKSp5Cx2461jQra93aFZjaR7t1sQmAr6LvGv3BtqW9LMqLSvBUxw7T1zRr67q1WDG1TysmT8owxpjNv+K79wjnln+ILXcVb/e2Bh3Hmfigv5b8zyqQ1zQPAllAgFqhM1bhePUxoRR+V9hYG4PHSFEHQOG5I7W6aIWl+UI8jdsFD89DyB30ETydzaAuVQl79UNvA6Cu5imevAAf85rlHCY7BbKhQ/nIoVGjz5ozNI1ZGsdGVjF3ggdFV/MBapYxmx/DlKCwuBqSUrEKLbTMLcppvk9r9KkOBiWFxaiWlNafXCjSov0a0ORbdWOaRv88C8Je6CcTMmoIinHVGp+DD7NZnnjf8BoCDiaiMuZXPOw/Fw6N0zZFnyn83SyHahxveC3zifrxWB4BbBasxEzdC9i5LwHVScdw7Y3ZmNxJfr+Xywvz58uiw7tbsG/5EHQW8gDwIDBxxKf7vsX0hrPIPxUGD48fwZXq7ujdywhM0m3caRwHWdTW1ILfYxAczAjZiY9h4bYLV1OScM57ILL2emHrFblFpLxO6NJJiOrEO4iT20Ss7Cz54spp8C6ZiR83z4GjaUNaVy4zQffe6GXEIOn2naaHbtla1NTy0WOQA8woG4mPLeC26ypSks7Be2AW9npthUKzjE3QEY9xO+qRyuQtEArqB+LmEIgB+EbdYaafgqCDV5u995lBevAFxMvfAKm4iJXTvFEy80dsnuMIDV1sO2rKF7zRE+Z6BQg+eQmlDfuzJQgOCMQfBm3ogwJt85smXpRfFRGge+9eMGKScLtJyGBra1DL74FBDmag7EQ8tnDDrqspSDrnjYFZe+G19Qrki1Zny1RVImpGmzSjCb4RupvpIyXoIK42e/E4kx6MC/E1rYtNAIyKvks1+aNNWZUPo+5m0E8JwsGWjUXwhfhWriFWgtAWHx36BctsErFjfSAeP4v0dN/AG8Zt6owKNOvsRdQCVKGo+Cl62g/GG8oKVKsLzZauuLgS07xLMPPHzZjjaNo4yW5uWqJm07q6KlSzprDr3wMmL9jHvE5d0ElYjcQ7cXKxSGDZPzFnaBqzBJrGRmWOaSOCN9DTXA8FwSdxqSnZoCQ4AIGtSTYKPK8+BXijpzn0CoJxsqlBYEuCERCYqnQMVTd+avKtujFNo39aC1GzE5Q6VFWzMLXrj+7KLtC31ucd3oGnmwhJh3fC90QZxs62gbLiWkPbxptnGI87umDFxwNx/8C38N1zF/3mjW9cZfCqUK/B9gjfDJP9I/AwNQrXrkUiNT0au6aZv8COsKitrgXRUzytainuqsR98InUg6NBR0xe5okB4lP47lCq7KlnNh+XQ7MxctlSjNZhkB20HQF3qwBdK7zr/TVmWulDR/7VaPyumDJ/MrqkH8RK7/PIqgVqMu8isZCBOCcT+eJ8PEwvQEVWKh5VVCM77Bwi8xhUleUhLjoRfF1d6OAJ8nJLURR9A/Fak7HMcwDEp77DoVTZs9hs/mWEZo/EsqWjocNkI2h7AGTNehfeX8+Elb4OFJpl+g/8c5weor+di6V7LyHmzu84cvh35DUGgQCm5t2gnROF3+4WoPD+Bew9chMl0iJkPypGuWAiFs2xRkaAK8bN9cVPQadw1M8dX0YYwEbuMhJb9hDpBRXISn2EiupshJ2LRB5ThbK8OEQnVgBgwDCyRCPzBgOWlUs8JEsujaFHBAILltFQfvZoLJplgfxfPsY/V/wbQf8LhP+nbggSjoCtkfo+sAwDKbGNV9IBAoHAsixYtkyt39raB3R8MX4FADAMmPp2AkDHycvgOUCMU98dgqxoFvmXQ5E9chmWjtYBkx2E7QF3UQVdWL3rja9nWkFfR1f+2grQcZJqWwoU6wVYMCw12cBAnb1ZMIwUxDa7Mk0EEFtfHh+6ujrAkzzklhYh+sZDjFw0B9YZAXAdNxe+PwXh1FE/uH8ZAQMbXutiE1Ddd03+gKb2tsRg4iLMsc5AgOs4zPX9CUGnjsLP/UtEGNjIJoQKtlOktrYKNbLLXo3wOznD79d/4Z2ONahtvqmmBjUgSOvqmumtFnV1hLo62TVpBapuYffCyfjQ9xKUvmiGZcBICWyzCYisyyxYVrPO2hwTDT9VlUFSPympTjiIYw//ga+XD4fsgh0B0rpmk2EDTFSpCyGqbu3GwskfwvdSXuMRTbAoe5iOgoospD6qQHV2GM5F5oGpKkNeXDQSK2T7FGVm1L/sgEXu2bOI7++Jpc66Gn3MyJKcbDIG5T5nGRZEsjzI7zoF8yd3QfrBlfA+n4Va1CDzbiIKGTFyMvNR9hxjgVo7aBqzyrQ0jI0AGBZsw8SzHpmrm0RKRADLNk50m/cd6IhJi2bBIv8XfPzPFfh30P8Q6P8p3IKEGGErUMwtyuwrt49GfWrQf8dJizDLIh+/fPxPrPh3EP4X6I9P3YIgHGELgUL71Y+flYbqfSvOVzOmJetp8E8xbu1eiMkf+uKSso7UwxZlIqP+rR1s7lmcje8Pz6XO9Uuq5ONK03yoYT8hHBYvweiS4zhFUzC5c2MBCv6AphyqabxhGbBUrzGN47EyhOjrsQKT6/6D75OGY55ja+9//YnIL2L/W1PzkK4d9aOZIi3i8bTJbNB4cpk0iSZNcqEJowZSd31jmn6ksH7nOso4u56mOjrQuNke9MlH88lzZxgVMERENXTTewT1sn+b3L7wId+1S2iJ31XZgxbyMGKK2eNGwyxNyNjKiaZ85kOLh1nT8Dlf0eHIHMo5vYyGdDMkk15jyH3vNfrZzZKMbSbT9kgJkTSNDn8oIpPOIpruH0XlRER1GXR2/VRydBhHsz0+oY/me9LOsALZgxE1N8l7RC+yf9uNvvDxpbVLlpDf1XylD01Ic3+jjVPsqGsHI7Iav5KCgjeSk17DA6ZE9OQGbZnYk4yMzMlh5na6dnENOfYeSwt9jtGtYoaoMpmOeTmTrYkOaRv1pJFLjlBiw9M+zWFy6PSyIdTN0IR6jXGnvdd+JjdLY7KZvJ0iJU8p5fwGcukmIIHldNp6JoaSz26kSeYCEtq8T9vOJVBm3P9o89SeJBDa0Ay//6N7j25T0IZ3yVwgJOsZfhT84JGa8omoMpkCvZxJ1NWQOpo70Rz/61TYYBBVfZDE0ynvCWQq0CLRbH+6mJRK1w8toxHGfNJ3cKcDN7LV+C2n7X1Iq3kxfn2aQuc3uFA3gYAsp2+lM4myJ6jrMs7S+qmO5DBuNnl88hHN99xJYTIhU81NbxrRy57edvuCfHzX0pIlfnRVqZDV2FKh3jxKPreRJnUXkNBqOm29kNp4vDJ7S+JPkfcEUxJoiWi2/0VKSr1Oh5aNIGO+Pjm4H6AbOQxJ0w7ThyIT6iyaTv5R5URUScnHvMjZ1oR0tI2o58gldCSxsk2xqbbvavzRmvbKU5l8jLycbclER5uMeo6kJUcSZQ9aKdhO7ql3aRbdPP4vmt/PgCynbKSDl1MbH6qTwVBh8EqauzWW6khKjyNO0M5Fg8iAxydDh4W07Zeb9CDxNzq44T2yEIAE3Z1p1Y9nKUH2FFhTKTmHaUY3Y+piOpJ8E+Qfy5JQ/ClvmmAqIC3RbPK/mESp1w/RshHGxNd3IPcDNyiHUaezimeKico/ztKWeWPprTHTyO3TZeSxdDOde/iUiBgquXuC1r1tRgKBObmsP0G3ixuDWoUuGMo5PIO6GXch05G+cv2TweScpmVDupGhSS8a476Xrv3sRpbGNjR5eyRJ6mLp60HaZDZsFrl/upI+/3QezXD9is5lNj1QrMrHT1PO0waXbiQQWNL0rWcosVDR5xXJ52jjpO4kEFrR9K0XKLWaiBHH0B63YWRpYkxWTlPoM5/FNMx6OM356jBF5jFqNao6Z2i2g/oxK0/92FiRTGc3TiJzgZBs3t/2/+ydd1hUV/rHv1PoglgjEqWIY7CCsPZODGvsaxQXo2Jnk2CJmlgSxRZiXFJMsorGFkUjvzWuFYwaiohgA2mCQaRIF2ZQOnPv+/tjKMMwBRQTTM7neXgevae+7Zwz955zL52LS6eYn7fRlO4iEttOJ5//3aNHtwNo09uWJBLb0HSfQIqNaSw7USkl+nvROEknMm1rSc7uvnQtv8aXVMaWRvp92jgP6RgHtfu/gtJEf/IaJ6FOpm3J0tmdfK/lk0JkNf3XMX9qtW1WpvY5TZt9rkfToeldyLxjZxq+NU5VhJrDvQNI32IIzVr8Pq368H16d7obfXIuneRa40qLzRsgpZ8XTaKt95R12NgeTRpDNc03JYl0bvME6ioSk/W0HXQhuUzLfKwy0DWggkJXOtHkfVmN59I/AAEp/5xlMDTAJW7HEOeTGB8ajc/+1gp+ZTIYjN+ZKoRveA93Fvthhe3zPsBu5VSFY8N7d/DZDytUU7Qjj8Em56E4MzkCd7Y5NnkfeqvlefXwp+bP4/9V4Rvw3p3F+GGFrUqKHDGbnDH0zGRE3NkGx1fekV8APgN7PXag0zd+mNFONfH3p+V2jzAYDAbjTwqPwoh9ON/hXcx7xRcqGuELEbHvPDq8O081pRlo3lrwytAieviz8efxf74wAvvOd8C781QX6g35E3jyc8GVFEFawaMkYg8uW7yLia1goQ62WGc0FfmTJyiWl0D29HmOQzEYjFcZXhqHGH4SvFePQSuZu1oYHtK4GPCTvLF6zHNIKC9C0VMOxYXSRl/rfLV4QT38SfnT+D8vRVwMj0neq6HevHIUFT0FV1wI6avtyM+HPBY7xligc+cueGN5EeatGl736tM/GrYNhqETLus6jh6/hOTCaui1s8U4t4UYY/1q311gMBiMFqEyBZcP/x/C0oohF5vDeswsLHCxrTnkymC8KlQi5fJh/F9YGorlYphbj8GsBS6w/Us5shzpl/bCP74j3po3C86dWs/9bLZYZzAYDAaDwWAwWimt52cDg8FgMBgMBoPBaABbrDMYDAaDwWAwGK0UtlhvASqy4nA/r3lnp/niNNwOv4H4XKXvGzMYDAaDwWAwGEqwxfoLwMuicexDF9jZjcH2cJWj09wDfDetFwbOO4KHDV6gwuFRwEfw3HkON858AldJP7x79JFyBgaDwWAwGAwGA2CLdfXwBXdw+6HSN601IDR3hPuqqZCoOaPLZwbi3MPh2OgzFz2UPizA5x3H6lUJ+NsaL3jtDMCPa4fAVF7zvWwGg8FgMBgMBkMJtlhvRCmivtmEww+a9j5xoZkpTASqV4HiRBFmHPsOMywbqrgq8grCS01gZghA2AEunx7FngVvNMjDYDAYDAaDwWCALdZV4AsQuXs+3vW9ibSYXxAUHI+Cuq3oZciOu46QsDtIf6a0P10ogJq1OgwcRqOP9DbupD+r+RJYJTJuXsIvkQ9RzD1B4pVAXIpIwbPaApwUqbevISwyCfmqHyMozUBcciF4VCEvIQIRiflo9FNCW3kGg8FgMBgMxisJW6wrwcuyUWjUDm14HpWlMsiKyyAHwOcEYduS1fALjcWtk6sxQjIKG68Uqv8cL5+DoG1LsNovFLG3TmL1CAlGbbyCQp5QVVoMWWk1QNUoLZZB9rQCHA/IIr+Gh9s6BMRlIPnsaozs7YqtwQXg+QLcPLISY+0kmOBzAgeWumKi+1xMdOiHaX4pqN2oo7G8StcYDAaDwWAwGK8YxGgAl/0duRha0uKLFTUX8ujEnLG0LrKy5v/p9NVofdJz3ETR1UT09BBNNmxH7v8tJyKO8k7MobHrIkmRm6P0r0aTvp4jbYquJiKi0h+nkqG5GwWU1jQovUjLJPa0MrS85kIpha+2J32L2fRTLkckf0i7huuTmfMKOpNaSUQy+u+czmQwYhc9lDehPIPBYDAYDAbjlYXdWddFWQhOB2XhwXlf+Pj4wGenP8pdvbF1nhOMVPOiDCGng5D14Dx8fXzg47MT/uWu8N46D06NMwMAis7tx0+ZdhjgaFhzxRiD3aZB8uQ8jgfKAFEbtDERwdTBFa42+gBMIOnZDcJiGYqoCeUZDAaDwWAwGK8sbLGuA/5ZAQrLDWA/bS3Wr19f97du5RT0UnrLS01mFBSWw8B+GtYq5V2/biWmNMoMABzyMh6jjK9CldLr1sXWVrAUVkEmfQoeAggabIoXQCQSAMSDmlSewWAwGAwGg/GqwhbrOhCadYWFcRICDlyFtO4qh9TAC4hVPeUpNENXC2MkBRzA1frM4FIDcaFRZgAQoWvPHjDjEnD7TlndVb6qElXC1zHA0UKHgV60PIPBYDAYDAajNcPWcioIDQ1hgKfIyS5CQVQ4YgXjscDdBml+bhgzZyt+CDiFIz6L8XGECWzFADgOHAg8zwMwwfgF7rBJ84PbmDnY+kMATh3xweKPI2Biq7izXlVVDaqqQmXNLe+2k5bDs58Up746iOQqAOCRezkEmcOX472RBgDPgZMTeOJR+zZ3IoB4HjzflPKFuLzFDf/cHqz0Y4PBYDAYDAaD8Sog8vb29la9+JdGvy2q75/FD36HEWf9DhaNskWv0W/C9mkMLv98HCfOXEfu6wvgu30aXueScWGXL/xCkpBTZQTbfg7oN3g83rR9ipjLP+P4iTO4nvs6Fvhux7TXBXj0qx8+//ooIh89hrS6LUxMu6CXTW+M+Xs/lF7+Bp8fCMadm0EIevw3bPl2OZxMnyLu9Ff4+mAY7udzaGvXGx3yLmLv3hO4kVQE6toXzn8bhokTNJUXAHwOLu3ahB+z+2OOmzPasZ9nDAaDwWAwGK8MAiI1n99kMBgMBoPBYDAYfzjsPiuDwWAwGAwGg9FKYYt1BoPBYDAYDAajlcIW6wwGg8FgMBgMRiuFLdYZDAaDwWAwGIxWClusMxgMBoPBYDAYrRS2WGcwGAwGg8FgMFopbLHe2uCfITUuBbKajyb9dalAVtx95P3l9fAy4PEsNQ4pz+NkFVmIu5+H5yjZinhZvvUCem3t/Cns3oJwUjyIe4RS1euvHGpiQdXWpemIvpeJCqUsDWkdfl+RFYf7LR/ULUwp0qPvIVOzMluWl72eeNn1a4GTPkDco+eMQJ0+3fpgi3VlqlIRfPgzLHl7JIaPGIUp//ocBy4m4JlqvpcCh8xffeExyAZ93PYhSa6a/leBhyz6GD50sYPdmO0Ir1JNZ7wIXOav8PUYBJs+btjXHCfjZYg+9iFc7OwwZns4Xk2zvDzfem69tna02Z3Px62fvsAH08dixKjp2BKi8o3kqlSEHP4MiyeMxuT3/41joVG4/uPn8JwyCiNGjMY/Vn6Dkzd+Q9LF77Hh3fEYMWIMpsxdBk9PT3h6LoHHO64YPXoBfkjhGtb7h8Ih/VdfzBtog/6L/JHemrrWLNTEglpb80jbNw9Dhy3BkdzGK7LW4Pe8LBrHPnSBnd0YbG/JoH4J8Gn7MG/oMCw5kqvyw7cS1zYOQ69RaxCU31jPzedlrydedv1a4NLxq+88DLTpj0X+6Wh+CGr36VYLMVSooKvvWZFIfxT5PuJUE18ylRT+oYQM3lhLNypV09TA5dPtWykkV73+ysNRxjdjyaCdO/23XDWN8aJUhn9IEoM3aG2TnEwJLoO+GWtA7dz/S6+uWV6ebz23Xls7Ouxe/fAATbMQkdhyBh1JVR2NSul/C4fRqrBanVTTvc0DSU9vIG2+V12f6+d3qaOoM80/o9QCl0dBq96hjddbmz4r6Nf3rcnAeRslqIr7SqEmFtTZuiSN7sZkqLU9tRK/5zK+obEG7ci9pYO6xSmhtLsxlKHazcrrtMZ5KG0Mk6kkvAjNXE80mxepn6P827co5Xnjp+JXet/agJy3JTzf+keHT7dG2J31Rohg1s4MQoEZ2nf4vdUjgrm5GQSqlzVQGvUNNh1+gN/zR+3vgxBmpiZN1gOjeYjMzWH2PMoVmsHU5HkKtiZenm89t15bOzrsLu4+GE49X0P74v9h+ZwdiCpRThWhrflrMDOtHUsFMDExAgSmMDevH19FxsYwVG1C2Bnj12/EDAuRSsIfjQgmpiZ/gsfSamJBna1NrOA4oBsMG16tozX4vdDMFKrdbp2YwMpxALqpKJPLSMfrHx3HlpFtGya8EM1bTzSfF6i/NArfbDqMB8+7eBGZwNTkBSJQh0+3Rl5A2j+QijSEHN4Fb++dOPhrKspU01uEprkgJ03F7WthiEzKb7Q1gJc9RFToNcRkFKMwO0fz/kZ5EVJuhiIsOhPlqmmQo/BBFIKvhuBWqqzmkQ+PgsjdmP+uL26mxeCXoGDEF9Q+zuEgTb2Na2GRSMpv1CPIHkYh9FoMMooLkZ2jsUcASpEVG46wG/eRX1mFvNQ0PONzEHM5CIGBQbiWJAMPDtl3LiEwMBCXIh81tENZNuKuhyDsTjqeaXzSpE42BUJBY/2XZcYq9iRyMqTejkB0Rm3/q5CXGIHwe9kqe9A01w8AqMpH0o0QhESlQNoosQzZcdcREnYH6Q0EKEVGXDIKeaAqLwEREYnIVxlw5IUPEBV8FSG3UiFrUG8ZMmMV+0M5WSpuR0SjXoQ8JEaE4162ml10nBSpt68hLDIJjU0qw8OoUFyLyUBxYTY0m1SOopSbCA2LRmZjJ9MirzJCqDFLC/VPc/vNtTv/7BESUp+B56RIiQxDVIpu39LWvmZ7ogl6bYF41KZDbbovzUBcciF4VCEvIQIRifk6fthr0oEGuysh6DAdu76fBfPb2/HuitPI0eRCTYZHXkw0Mts7wNGmCYv1psiqTVdlmYi9nwceHGSptxERnVE3XlflJSIi/B6UQ1NQqxCSo+B+JCITclXGnjJkxCWhgKtA9r2bSCqqd5yy7DhcDwnDnfRnzTgDoHks0+XvgObxuHEsqLN1BbJiE9Fwx8BL9Hu+EAkhQQgMDERg4CVEpSlmlrK0KFwKDERQSAIKVRUnFDSeseWFeBAVjKsht5DaOHDr0RZfGmMCAKqQn3QDISFRSGk0gWhOq8iKRaLq9osOgzG8SwZuqVlHlGbEIVkx4SAhIgKJqhOOKlrXEzrioClxpKt+Db5WC18Qid3z34XvzTTE/BKE4PgC8ADKMuKQVMChIvsebiYV1fiwJr8X1PkpyQtwPzISCbmqc6emsgBQiWxVn26qv/xBvHqL9dKb+MzVCS4LP8KWLeuwaLwzxm+NQIObOb8LMkR+7QG3dQGIy0jG2dUj0dt1K4JrFs1Vsbvh4XUcmfIKJB6cgyHv/IC0Rl4PlMXtw1zXxTgQk4WUcxvg5feg3qm4VBybPwQzvrmHJ7kR8HGVYMSWGyjjZcguNEK7Njz4ylLIZMUokwOQReJrDzesC4hDRvJZrB7ZG65bg6HoUhVid3vA63gm5BWJODhnCN75Ia1xIAIoSzgMz4lzsfNSApLCvsRsRxv0nr4PSXx7dH89Dz8unYolBxIhhwjtu3VG8u45mPJhALI5AOCRE7QNS1b7ITT2Fk6uHgHJqI24ojq6apKtYS4AAF90G8dWvwlJz9HwDjiFzXNmw2PhDAy1H4LVQbdx9L1JmL5gGWYOscfIzTV1aK2fR0HIDszz+DeupOcj9tspkDh74UzNCoPPCcK2JavhFxqLWydXY4RkFDZeKUDezSNYOdYOkgk+OHFgKVwnumPuRAf0m+YHxbZaDqnH5mPIjG9w70kuInxcIRmxBTfKeBTdPobVb0rQc7Q3Ak5txpzZHlg4Yyjsh6xG0O2jeG/SdCxYNhND7Edi8416Lcgiv4aH2zoExGUg+exqjOztiq3BisENVbHY7eGF45lyVCQexJwh7+AH9U6GfXNdsfhADLJSzmGDlx8eKI1F6uUtbNJCoiX6p6l9eXPtzmUi7NvFGGTVG+7f+mPLWwMxePybGGovwbit11Gs2nANmtrnNdqzpqAOvbZIPGrRoUbd8wW4eWQlxtpJMMHnBA4sdcVE97mY6NAP0/xSGi/ktOqgqQjRdZYfjq93RP6RJZi3Ox6VqlmaAVd8D0e+PaV2zGxAE2XVrKsi3D62Gm9KemK0dwBObZ6D2R4LMWOoPYasDsLto+9h0vQFWDZzCOxHbq63PQBQHi54DYPjMBeM6GcN+6nf4HYJj/zIg1gx1g6S8d7Yu/MdjBg2FIMWHEUhn4OgbUuw2i8UsbdOYvUICUZtvNJ44amKprGsSf7exPFYLTyk0Sfw0Vt26DFqC8Jq10Iv2++FRmhTehmfzpoE9z1p6NxJcf/TsIMI17dvwPlSc7TRsXLhUo9h/pAZ+ObeE+RG+MBVMgJbGhivBi3xpS0m+IIQ7JjngX9fSUd+7LeYInGG15kcrWlyaTROfPQW7HqMwpY6ZWpeR/AFN3Fk5VjYSSbA58QBLHWdCPe5E+HQbxr8NJzj0Lqe0BoHTYsj7fU3xdd4yLILYdSuDXi+EqUyGaSPo3BwxVjYScbDe+9OvDNiGIYOWoCj+Rr8Xqk2yrsAr2GOGOYyAv2s7TH1m9uKtaCmmAEgu3cSH/+9J3oM+xS/1pihyf7yR6K6L6Z1w1HuD5PIVAAC6v8EJm/Rfx631P7yarq1sR/pGUymQ09V0+qRXlxGEvuVFFq76ak0nFbb65PF7J8ol6ukiDV9yeHjSMWeKC6X/Ld/Swn1WzTryqztb0sLzkhrLpTQ+UWWpFezB0x+/zMabOxEW+Kqiaiabq7vS4YOmyi6moi4bPrOxZAsF1+kCiIiktLFZRKyXxlatw+rNHw12etb0OyfcomrjKA1fR3o40hFKpfrT9u/TSDVLtGzX2llX0dae7205kIlRax5gwz6rqeb1UQkT6Ttgwyp15rrpNimVknX1/Qio6Gf029yIi7vBM0Zu44ia/awcelf0Wh9PXLcFN2gLa2yEdHTQ5PJUGkvJZf9HbkYGNOQ9aGUIyeiyrv0qYMetR36Mf3yWFFH9KcOZGDrRcEV2uvnco6Tm50rfZ+u8Jnq+F00un1Xmn+6hIjLoxNzxtK6egHoq9H6pOe4iaKr5fRw13DSN3OmFWdSqZKIZP+dQ50NRtCuh3Ii+X36bLAxOW2Jo2oiqr65nvoaOtAmhcEo+zsXMjAeQutDc0ghwqfkoNeWhn78CylEiKZPHQzI1itYYVPpRVomsaeV9U5G4avtSd9iNv2Uy1FlxBrq6/AxKUzKUa7/dvq2sZNR+Nr+ZLvgDNV52flFZKlXs8dUq7zK9RARPaVDkw3r97O2RP90tN9cu1NlBK3ppUcW4zZT0ONqotJE2j/dkkT6TuRds0e6gW9pa79Cmz116LWF4lGjDnXonuQPaddwfTJzXkFnUiuJSEb/ndOZDEbsooeqmzy16aCaGttdlep42j7diy5XEJE8lY688zqJjfrRysuFxFEFBX84nTbXOZOcUr4YTnr6o+mrmvgjIqoIWkqviwypx9hZNHv2bJo1ZTBZ9V6usKkudMmqS1dcNn3nYkDGQ9ZTqMLJ6O6nDqTXdih9/Mtjhe2jPyUHA1vyCq6oG0/0LafQ7puFJKcSits/k6z1DMh5ayxVE0fpX40hfaN+tOKXfJImXKGgewWUc2IOjV0XWTNucpT+1WjS13Os8SfNaBvLdPm7rvFYdZxtbGuOcr53IQOzWXSylH43vycqpdCVEjKwX0sRNT7A5R6hubP3Uoa6qf7pIZpsWLtnXU73PxtMxk5bSKGym7S+ryE5qMxBpC2+tMVEZQ4dd7Mj1+/TiSOF/+8a3Z66zj9NJZyWNCLicr4nFwMzmqVQpo51BJH84S4arm9GzivOkMK1/0tzOhvQiF0PG+/V1rGe0BkHuuJIR/26fK0exVxoaLmYLtbaNv0rGqNvRP1W/EL50gS6EnSP8hO0+H31TVrfV58sp+ymm4VyopI42j/TmvQMnGlrbLX2mCGiJ35/JwOTf5B/KTXLX/5IdPw+bW3wyEnPRAU1vEqVmUh7rOsWTEtShHP7f0Km3QA41m56Mh4Mt2kSPDl/HIEyMSwlVkj/cgpGzf8MpxL04LbxA/QWN6ylJGgPDqf2w5ix5jVXDGFjbYHah74iiSeOhPnDyzoTIQd34lCkFHxlOSrU3RQpOof9P2XCboBj3T4s48FumCZ5gvPHAyETW0JilY4vp4zC/M9OIUHPDRs/6A2VLqH4wl4cezYYbzkZ11wRoW3bNk1+BFMWchpBWQ9w3tcHPj4+2OlfDlfvrZjnZNQgX7NkAyBsYwJjgT5sBjqjiwiAvgR2VmKg20AMtxQDEMPaqisExVJISXv90sATCDJwhHMXhVTiPmsQUpiFw9NMgLIQnA7KwoPzvvDx8YHPTn+Uu3pj6zwnGEGENm1MIDJ1gKurDfQBmEh6opuwGLIiAkQSeB4Jg7+XNTJDDmLnoUhI+UqUV/AAhGhjYgyBvg0GOneBQgQ7KEQYDoUI1rDqKkCxVAoCUHRuP37KtMOAeifDYLdpkDw5j+OBMogtJbBK/xJTRs3HZ6cSoOe2ER80djLsOZyKfmPGos7LbKxRtw1Yq7zaaZH+6Wi/uXaH0AhGhiJ0GjYVLpZiwNgeHluWwIHiEBqq5tWD2trXZk9dem2heNSkQ126h6gN2piIYOrgClcbfQAmkPTsBmGxDEUq46dWHahk1YnIBvP2+2NN70f4zmMxjqSqvwOoFoEZRqw8ghMnTuDkmVD4/0vSSB9q0SGrTl0J28DEWAB9m4FwVjgZJHZWEKMbBg63hCI0rdBVUAyptF55Iou/wWVge4hggr4LffHhCAHiwq7hCS+EkZE+hGbOcBnZCea9XeDa3xBhp4OQ9eA8fH184OOzE/7lrvDeOg8qQ2MjtI1luvy9pInjsWaEMDVtU7/F5Hfye8AYw70+wIisI/jylGJ7UnrABehNn4luOicjESSeRxDm7wXrzBAc3HkIkVIeleUVjeJfU3xpjQlpIE4EGcDRuYtiXhT3wZqQQmQdngYTbWkAhKamaFOnTF3rCEDUpg1MRKZwcHWFwrUl6NlNiGJZEVTDWNd6Qmcc6IgjXfU3de5Xh9DICPpCMzi7jEQn895wce2PTm9o8XsAgAgWf3PBwPYiwKQvFvp+iBGCOIRdewKBtpgBYNTGWMnnmu4vfyQ63b51IYbdICd0VtnCKOzohMG99BtefJlwech4XAa+qkppn6IY1laWEFbJIH0KdF90FJf3usE0dAdmDeyFYStOI6PBvMUhM+k3yCCCWJMVhGKUx+zGEs+DyB6wEJ7jLCBUjdAauLwMPC7jUVWltG9LbA0rSyGqZFI8RXcsOnoZe91MEbpjFgb2GoYVpzNUHolzyH6YhhKxPvQabQBsCjyeFRSi3MAe09aux/r1tX/rsHJKr4YDcjNkAwAIVPckCiAUKB6t1F0RCgGquaKxfg6F+U9QIStSLO5U4J8VoLDcAPbT1ir1fz3WrZyCXmKlvao1CEQiCEDgCQCEEJfHYPcSTxzMHoCFnuNgoSSUalkIhFA8JKq7gHoROORlPEYZX4WGJrWCpbAKMoWT4ejlvXAzDcWOWQPRa9gKnG7oZOAyk/CbDBBpcDJd8mqmZfqns/3m2l0N4h590NMEqK6sbDTBaW9fsz116bVl4hEQqtVhlU7d80p7OhUIIBIJAOKbqQOVzE3BfBS2/fQVJtI5rPjndtx9rqfJBnCa+Q766qleV4c2WXX7aWNdAYLGTgYhqJHu6hB2gq2NOQScHNUAGp154p+hoLAcBvbTsFZJx+vXrcQUXUrWOJapp97fy/G0qeOxFgRKMfh7+T0AiGznYdVMQ1z4ci/iKhJwLPg1zJ7UXjWbWoTicsTsXgLPg9kYsNAT4yyEam2nPr44rTFhV5yPJxUyFKmZQLhCzWlAzXhWp0xd6wi+8fgnEEHh2qr161pPPE8cNIwj7fU3Y+7XQKMlRzP9XtjJFjbmAnDyat1lVfTaVH/5I1Gr9tZMm7e3Y++KQeggFiicqZ0T3t/7OabV/th7qXB4ePwwrlR0Rc8eZuASbuNO3UTEo6qyCsLXB8DRgpAZ/xjdPHbjalICzm3oj4w9XthxRXkXpwDtO7aHuCIed2JUdncSDx5AycVVmLqhEDO/2wZ3p851Dq/OiURde6KHGYeE23fq93TxVaisEuL1AY6woEzEP+4Gj91XkZRwDhv6Z2CP1w406BIEMG/XFnh8G5GP1A2fACCCWKRmsCACByHMulrAOCkAB64qvXOZS0XghdgG+xKbI9vzoLl+EV7rbgmjvECcvFRUl58vDISffzLIrCssjJMQcOAq6iXgkBp4AbG6Ht6UXMSqqRtQOPM7bHN3QucXEkqErj17wIxLwO16JwNfVYkq4esY4GgByozH424e2H01CQnnNqB/xh547bjSYK+woH1HtBdXIP5OjMoeYgLPA8Lnlrdl+vf87WuHSOmeSHUZKvjOsO/bte4uUC1a25dptqcuvbZMPAKcWh0Go4MO3TdnYNeqg+e0gdhuIQ4eXQ7b+F3Y6P/4uULA8LXXoPTCmOdEt5++cBMAgDIUPClHd4eBeE1dhUIzdLUwRlLAATQcGgNxQYeSNY9l9aj399fRronjcVP5vfxeQVu4rlyG/vf34/Ot3+Nun3cxtvaBr1ZKcHHVVGwonInvtrnDSctArD6+rqBaS0wkdOgOS6M8BJ68hLoZhC9EoJ8/UjpqTktWnVJFutYR6hxJE7rWEy8aB7rqb/rc31Sa4vcNKCvAk/LucBj4GsqaVbbp/vJHot0+rRGhBSb5RuBhciSCg28gOTUKu6datqAgPKoqqkBUjvKyhg9ByuL3wvuGEZxM2mLSck/0k57CVweTFae3+VxcDsnE8OXvYaQBh8yAL+B3twwwtMbbGz7FTGtjGDR4N5kQnSbPxaSOqTiwagPOZ1QBlem4G58PTpqF9Fwpch+mIq8kA8mPSlCRGYpzN3LAlRUjJyYK8WWGMDQAnuZko6ggCuHp47Dcsx+kp77CweSaz1nkXkZI5nAsf28kDLhMBHzhB0WX3saGT2fC2thA5XVpQnT++z8wxigKn895D3su3cSdXw/j0K859Xc+RJ1h2UUfWZG/4G5ePu5f2IPD1wshL8jEoyfPIBq/AO42afBzG4M5W39AwKkj8Fn8MSJMbJV+XfMo1iZbCcBxnGIQqDUBx4OvmRBqIQCkdEeViACeB6ej/syRCzCrWy6OLvsHVv4nAD/7++J9jwCIh9lBZDIeC9xtkObnhjFztuKHgFM44rMYH0eYwFbMg+PkIL72TjoUd3SJB8/z4IsfIjWvBBnJj1BSkYnQczeQw5WhOCcGUfEl4Hi+7oeYkgRKN4UV/+Z5hbbbTloOz35SnPrqIBQm5ZF7OQSZw5fjvZEG4DID8IXfXZTBENZvb8CnM61hbGDY8I5Bp8mYO6kjUg+swobzGahCJdLvxiOfkyIrPRfFAm3yKlUEAOCgMItChpboH7Tqu7l2r4VHQXpazaFzHtlnzyK2ryfeG6d4/NvAt7S0b12q2Z638sZp16vepBaIR2jUobkO3YPnwMkJvNKddIWrKsVULVp0oPCBhnZvTBWqyipR2WBuE6L9OB/89O+30LayqsG0V1lZCZAc1dVKNqyqRjVVo1pxW7oRZbe+xfxJ/8TWSzmqSTpl1eWnAAdFaDZysvp+E4HAoyY0FZfKiiGrWbdUxB3AsYd/x6crhkLxjJcAebXSIsUE4xe4wybND25j5mDrDwE4dcQHiz+OgImtWIt82sey+BJFHk3+bqJjPG40zqqxNc/xoJpxS+d40kJ+X4u49xKsnFSN//s6AUPfddJ8h5bjwIHA8zzAF+Nhah5KMpLxqKQCmaHncCOHQ1lxDmKi4hsW0xBfAm0x0WECFszqhtyjy/CPlf9BwM/+8H3fAwHiYbBrryVNpPBVnmrHM13rCIDnOMiJV7o5RqAaORvGoq71RDH0dMWB1jjSXb9Ah68p99VQsXhBdlEBosJjUQaAIEd1XcA0xe8JZcWymh+NFYg7cAwP//4pVgwVN6GsErr8hS/E5S1u+Of2YKUfbn8AqpvY/9JUPqTgIz40U6JHAoE+WQwYS64TJtCECa7kMqI/dTU2p2mH82syV1Pa2Y00xcmRxsxeQv9aOJc8vwylPI4Uhy43DKMeDm+Sx0fetHXdUlrqc5VyGx2M4Uh683vyGGJF7cytyXnyB+S9aAjZDHWnTw7doKzM07R8UBcybdeDRi3eQ8E/epCVuS1N+uIGyUhOKYf+SZJ2HUgyzZcinxFRdRqd3TiFnBzH0Owl/6KFcz3py9A8xUGXyuu0YVgPcnjTgz7y3krrli4ln6u5irQGyCn7l8002b4TtTGzprGrAihwszMZ1R4wJaKn4dtpfHczMrN0pJlfBNPFtU7Uc/R88j52i55wRKWJx8hrnB21M9Ans+7DaenheKo9rloLl6VZttyk87TJtQuJRFY0bccZis9JpLObJ5ClSEy2M3bSubh0ivl5G03pLiKx7XTy+d89enQ7gDa9bUkisQ1N9wmkB4801y8jotJEf/IaJ6FOpm3J0tmdfK/l1+uiNJGOeY0ju3YGpG/WnYYvPUzxpUSy2FO0waUzifQkNNv3IiUkX6ODy4eRudCYHBfvp/DMTDq9fBB1MW1HPUYtpj3BP5KHlTnZTvqCfo06S5snWJJIbEszdp6juPQY+nnbFOouEpPtdB/6371HdDtgE71tKSKxzXTyCUyhSiKqTjtLG6c4keOY2bTkXwtprueXFKpwMqq8voGG9XCgNz0+Iu+t62jpUh+62tjJiJPepO89hpBVO3Oydp5MH3gvoiE2Q8n9k0N0I4fTKG9Dyinp/CZy7SIikdU02nEmnqiF+qex/ZLm2z2lNJo+HaBPFkNm0eL3V9GH779L090+oXPpiuNY5aq+9VRL+1yWRnvekDVBry0Qj9p0qFn3Moo9tYFcOotITzKbfC8mUPK1g7R8mDkJjR1p8f5wylJtSJMONNi9FnnGdTr+77nUx8SKJm8+QJeTVRyHy6fAVXNoR3Q1kfwxRZz4khYMMCGB0JQc5++ko9cf0P1fDtCmid1IBBF1HbeavjsbRw0/DcNR1qHp1MW8I3UevrVBSlNl1ayrEko8u5kmWIpIbDuDdp6Lo/SYn2nblO4kEtvSdJ//0b1Htylg09tkKRKTzXQfCkyppNLfztL2d0fT30ZNJY/3l9OS97bRuYflRMRR4d0TtP5NCxKJLMl14wm6/aRW2aWUeMyLxtm1IwN9M+o+fCkdVjiaFvm0j5Wyau3+TqR5PG4cC41tXZJ4jjZP6EoisTVN23GBkit+H79XpiJ0JTlN3tfYZ2spT6Lzm1ypi0hEVtN20Jl4GWWdXk6DuphSux6jaPGeYPrRw4rMbSfRFzcaepa2+NIcE4o0f69xJOlkSm0tncnd9xrl15lZQ1pJIp3bPIG6isRkPW0HXUhWHFbWuI6QxdKpDS7UWaRHktm+dDEhma4dXE7DzIVk7LiY9odn1YpRg/b1hMI0muKgKXGku35NvqaKPOUQ/VPSjjpIptGuS+F0Yv2bZCESkaXrRjpx+wlxuvyeSum3s9vp3dF/o1FTPej95UvovW3n6GHN2VntZYlKj8+gNm1qD5hy2v1FnkLfT3iNukzaS42++fY7IiDlW1QMRiM4JG4fAueT4xEa/Rn+pvHWBoPRCpDHYJPzUJyZHIE72xw134ljvHpUhWPDe3fw2Q8rVFP+HDyPfH96f+eRsdcDOzp9A78Z7VQTGYznouzEO+jiZYQjj49i+ivyZaSW2z3CYDAYrQb1GzYYryh8ISL2nUeHd+eppvw5eGH5/mT+zpWgSFoBviQCey5b4N2JbKHOaDn4ajmEvfqiT5MOsLcO2GKdoQM5njwphrxEhqfPc0qEwfg9kReh6CmH4kJpoy8BMl5VeEjjYsBP8sbqMX/GRdsLyPen9Hc5YneMgUXnzujyxnIUzVuF4a/I3U9G60WesAtjXu+LObvP439RVZi1Zr7iHMErgsjb29tb9SKDoYBD1nV/BD3uDIfeppBmCvC6g3ULvKGBwXgJVKbg8pFfkP/6QPRpU4QM6or+tu0avQGG8aohgFEXW3Q3//Nt8lDwnPL9af1diA7WVujQoTdmbPw3Ph73GruryHhhhO27oXsbOZ4WlqGr2yasHffaKxUrbM86g8FgMBgMBoPRSmE/WBkMBoPBYDAYjFYKW6wzGAwGg8FgMBitFLZYZzAYDAaDwWAwWilssf5npyILcffzXsKLvXg8S41Diqzla24qnPQB4h6Vql5uIqVIj76HzArV6wytlKYj+l4mXnm1/VnkYDAYDMafHrZYV4LPicTJb1biH6NHYMTIyXjv38dwLb32+9KVSPn1ILYv/jtGuszBJ/uvIqXmU9OtEl6G6GMfwsXODmO2h7foa724zF/h6zEINn3csC/pD3ifI5eOX33nYaBNfyzyT1f6zHzT4dP2Yd7QYVhyJFc16S8Aj/R9M9FrwGzsS2qOZ/BI2zcPQ4ctwZHcP+5H2oujRY7Ka9g4rBdGrQlC/qssIoPBYDD+NLC3wajCJWLHUAd4F3shJM4Xw/UbJldcWILh/5uGa/snwrhhUuuDz8TuN3vC28If2f4z0JKvqq26vhr9XC5iasg9fDFERUlNgkfBnbt46uCMHs/z/qTKYHzwxgRELbqLyE96P8crmEqRHp0Cof0AdGtJxbwK8NnYO2U8rrlfxI/uVs3TXWk6olOEsB/QrUX96XdHgxxVEWsxfI0BvgzcjpFtlRIYDAaDwfiDYHfWVRF0RId2AghMzdW+T1zYth1e79jh1fiss9AMpiYC1astgsjcHGYvUnVpFL7ZdBgPnvfGvMgEpiZqDNRkTGDl+BdcqANAWQL4iYfh19yFOgCYWMHxVV+oQ5McHDLSX8dHx7ewhTqDwWAwWg0vstr546hIQ8jhXfD23omDv6aiTDX9d6UUGXHJKOSBqrwEREQkIl/nArQM2XHXERJ2B+nPlJ+1lyEz9j7yeICTpeJ2RDQyardkV+UhMSIc97KVd9nyePYoAanPeHDSFESGRSFFprwpRAiB2gW1pvYBeeEDRAVfRcitVDSoSpGKopSbCA2LRma5ahoAcJCm3sa1sEgk5WveXsEXRGL3/HfhezMNMb8EITi+ADyAsow4JBVwqMi+h5tJRTXbW+QofBCF4KshuJUqU9ryIqiTjeQFuB8ZiYTcxjuQtclTmR2LROVtEPJCPIgKxtWQW0hVzayGsuw4XA8Jw530Zw3OBJRmxCFZ4RBIiIhAoiaH4HMQczkIgYFBuJYkAw8O2XcuITAwEJciH9X7dWkG4pILwaMKeQkRiEjMR8MaNelICeW2Hv8Nnv8aiKfP1VYFsmIT0XD3SBXyk24gJCQKKdKGrWvTf0N4yB5GIfRaDDKKC5Gd0/AsgiZdAwCq8pF0IwQhUSlQaV5Lmjo5gA6Dh6NLxi01/vs8cc5gMBgMxovz6i3WS2/iM1cnuCz8CFu2rMOi8c4YvzUCJar5Xjo8Cm4ewcqxdpBM8MGJA0vhOtEdcyc6oN80P6SoLhpq4HOCsG3JaviFxuLWydUYIRmFjVcK8OT2Max+U4Keo70RcGoz5sz2wMIZQ2E/ZDWCbh/Fe5OmY8GymRhiPxKbb5SBywzDt4sHwaq3O77134K3Bg7G+DeHwl4yDluvF6s2W4f69gvBg0PqsfkYMuMb3HuSiwgfV0hGbMGN2lVcWRz2zXXF4gMxyEo5hw1efnigLKMsEl97uGFdQBwyks9i9cjecN0ajIJGKysesuxCGLVrA56vRKlMBunjKBxcMRZ2kvHw3rsT74wYhqGDFuBofiqOzR+CGd/cw5PcCPi4SjBiy40GP84o7wK8hjlimMsI9LO2x9Rvbtf4ghZ5ZPdw8uO/o2ePYfj0V8UCn0s9hvlDZuCbe0+QG+EDV8kIbKkTXgU+B0HblmC1Xyhib53E6hESjNp4BQV5N3Fk5VjYSSbA58QBLHWdCPe5E+HQbxr81DmEsD26v56HH5dOxZIDiZBDhPbdOiN59xxM+TAA2dUFuHlkJcbaSTDB5wQOLHXFRPe5mOjQD9P8UhSLck63jlqmLR7S6BP46C079Bi1BWE1v4v4ghDsmOeBf19JR37st5gicYbXmRzd/tSAKsTu9oDX8UzIKxJxcM4QvPNDmuJHggZdF/JQxGDIDszz+DeupOcj9tspkDh74UwOryVNrlYOzf77fHHOYDAYDEaLQa8UHOX+MIlMBSCg/k9g8hb95zGnmvn54PJoz1v6pOe0leKrVROJKq+tpSnrblAlERHJ6eGu4aRv5kwrzqRSJRHJ/juHOhuMoF0P5apFibg8OjFnLK2LVJQmLp2+Gq1Peo6bKLqao+zvXMjAeAitD80hORFV3v2UHPTa0tCPf6HH1URUHU2fOhiQrVcwVRBRZcQa6qVnQeM2B9HjaqLSxP003VJE+k7edK+aiOgpHZpsSO3c/0vlutqvuE+fDTYmpy1xVE1E1TfXU19DB9oUXU1EpRS+tj/ZLjhD0hpRSs4vIku9N2jtjUoiktLFZRKyXxmqaIeISsNXk72+Bc3+KZcaW0Yhq6HlYrpYUXMl/Ssao29E/Vb8QvnSBLoSdI/yEz6jwcZOtCWumoiq6eb6vmTosImiFR2k9X31yXLKbrpZKCcqiaP9M61Jz8CZtsZWE8m1yUNET/zo7wYm9A//UiKS0/3PBpOx0xZSNHWT1vc1JIdN0dTYBTjKOzGHxq6LrPEBjtK/Gk36eo60Kbqa5A930XB9M3JecYZSFQ5Bczob0IhdD0mNRxDJE2n7IEPqteZ6TX2VdH1NLzIa+jn9Jici+UPaNVyfzJxX0BlFhfTfOZ3JYMQueignkt/XoiNVXrAtIo5yvnchA7NZdLKUiLgcOu5mR67fpytsXB1Pu0a3p67zT1OJLv0rUxlBa/o60MeRCu/hcv1p+7cJVK1D11zOcXKzc6Xv0xUeVh2/i0a370rzT5doTWskh07/bWacMxgMBoPRgrxid9Z55KRnokLlSCxVZiLtcQs9kxYKIBAIABDUnrzlOUBUqzYR2rQxgcjUAa6uNtAHYCLpiW7CYsiK1JQuC8HpoCw8OO8LHx8f+Oz0R7mrN7bOc4IRhGhjYgyBvg0GOneBCIC+xA5WYqDbwOGwFAMQW8OqqwDFUikIgNDICIaiThg21QWWYsDY3gNbljiA4kIRmtfolrb29kUSeB4Jg7+XNTJDDmLnoUhI+UqUV/BASRD2HE5FvzFjYV5TlaGNNSxqNzwXncP+nzJhN8Cxbg+w8WA3TJM8wfnjgZDVXNOG0MgI+kIzOLuMRCfz3nBx7Y9Ob3jiSJg/vKwzEXJwJw5FSsFXlqOiTjQRLP7mgoHtRYBJXyz0/RAjBHEIu/YEvDZ5AMCoDYzrDh6IIPE8gjB/L1hnhuDgzkOIlPKoLK9ovOUCZQg5HYSsB+fh6+MDH5+d8C93hffWeXAyAkRt2sBEZAoHV1fYKBwCPbsJUSwrUu9PuhC1QRsTEUwdXOGqqBCSnt0gLJahiACRRJeOmoGOtgAhTE3boG5nlTQQJ4IM4OjcRfGITtwHa0IKkXV4Gkx06V8ZsSUkVun4csoozP/sFBL03LDxg94Q69C1NPAEggwc4dxFEY/iPmsQUpiFw9NMtKY1kkOn/zYzzhkMBoPBaEFescW6GHaDnNBZ5VScsKMTBvd6njeSqMMIxoZCUFkpStWsK/hnJYCJad3BPMXCvh6BSAQBCLyaOZx/VoDCcgPYT1uL9evX1/2tWzkFvcSN64JACMVDhLoLEAoBze/vEaNHn54wQTUqKxtn0t6+EOLyGOxe4omD2QOw0HMcLISKOrjMJPwmA0Ri9e7C5WXgcRmPqiqlPeNia1hZClElk+KpGj2qo9H2eqEY5TG7scTzILIHLITnOAvUdEktwk62sDEXgJNXA9Asj4L6Pe8AIBSXI2b3EngezMaAhZ4YZyFUv7jmn6GgsBwG9tOwVkmH69etxBSFERvKIRBBJABInUM0iYb9BAQQKSpU9K+ZOtKOjrZq/L02C1eYjycVMhRJ1TWoS/9KCLtj0dHL2OtmitAdszCw1zCsOJ0BTquuBSjMf4IKWREaN89pSVPQQI4m+K9qbGqLcwaDwWAwWhL1q69WTJu3t2PvikHoIBYoFhPtnPD+3s8xrfaW7wujDxvbbhBkPUByo43wHNJiH6N9r+7Nf4sGAKFZV1gYJyHgwFVI665ySA28gNjnfjBAIKXFcHVZBfjO9ujbtXEPtbYvu4hVUzegcOZ32ObuhM61d50JELTviPbiCsTfiUHDV8sTeB4Qde2JHmYcEm7fqd8rzVehskqI1wc4wuI5vazk4ipM3VCImd9tg7tT57o38GhcH5UV4El5dzgMfA3CEs3yNKYEF1dNxYbCmfhumzuctGUWmqGrhTGSAg7gar0SwaUG4sJzGVEEsUjNYp5I/UFRFZqnoxdrSxXRa91haZSHwJOXUFR7kS9EoJ8/kouboX8uE/GPu8Fj91UkJZzDhv4Z2OO1A1eqtema8Fp3SxjlBeLkpbrWwRcGws8/BR01piU3kvVl+S+DwWAwGC3BqzcNCS0wyTcCD5MjERx8A8mpUdg91bIFBdHHkEXLMFx4Bbs/u4q8upm9CtnBPvjoal94vGVSc40Hx8lBvNIdNiKAePC8mtvJJuOxwN0GaX5uGDNnK34IOIUjPovxcYQJbMUAx/OKsnUFSLEYr1vgKP7N80rLDb4A6Wk1vyr4bJw9G4u+nu9hnCEAcOA4gPiaOrW0b136EKl5JchIfoSSikyEnruBHK4MxTkxuJU3DnMndUTqgVXYcD4DVahE+t145HNSZKXnolhvEpZ79oP01Fc4mKx4iwafexkhmcOx/L2RMKjvbQ1CGBoaAE9zkF1UgKjwWJQBIMhRXbfe5VH8MBV5JRlIflSCisxQnLuRA66sGDkxUYgvAQBCWbGs5gdEBeIOHMPDv3+KFUP1wRdrlidKUbgevhgPU/NQkpGMRyUVyAw9hxs5HMqKcxATFd8wL0wwfoE7bNL84DZmDrb+EIBTR3yw+OMImNiKwXMc5MQrLYgJBAJfawNVRJ1h2UUfWZG/4G5ePu5f2IPD1wshL8jEoyfPUMFz4OQEXunutsLFFD6mW0ct1Zbi/zzHg2p9tO0ELJjVDblHl+EfK/+DgJ/94fu+BwLEw2Bb0gz9c5kI+MIPd8sAQ+u3seHTmbA2NoChQLuu205YgFndcnF02T+w8j8B+NnfF+97BEA8zA7ttaSJGsmhy391xTmPwstb4PbP7QhW+lHBYDAYDEaLoLqJnUFExNGT69/R0jcHkL3DcHJ5azy5jB5Jb879jH7JqD8gJ4s9RRtcOpNIT0KzfS9SQvI1Orh8GJkLjclx8X4Kz2p8tJJKE+mY1ziya2dA+mbdafjSwxRfSlSSeJY2T7AkkdiWZuw8R3HpMfTztinUXSQm2+k+9L97j+h2wCZ621JEYpvp5BOYQqXRn9IAfQsaMmsxvb/qQ3r/3enk9sk5SpcTEZVT0vlN5NpFRCKrabTjTLzW9onLotPLB1EX03bUY9Ri2hP8I3lYmZPtpC/ohoyIk96k7z2GkFU7c7J2nkwfeC+iITZDyf2TQ3QjhyOqTqOzG6eQk+MYmr3kX7Rwrid9GZqn5nCpAnnKIfqnpB11kEyjXZfC6cT6N8lCJCJL14104vYT4oiIyzpNywd1IdN2PWjU4j0U/KMHWZnb0qQvbpCMSum3s9vp3dF/o1FTPej95UvovW3n6GHtCUEd8lDpcZrRpk3NAVOOsk4vp0FdTKldj1G0eE8w/ehhRea2k+iLGzKVnhMRlVLiMS8aZ9eODPTNqPvwpXQ4vpRIFkunNrhQZ5EeSWb70sWEZLp2cDkNMxeSseNi2h+epVoRERE9Dd9O47ubkZmlI838IpgurnWinqPnk/exYAr7vw3k0llEepLZ5HsxgZKvHaTlw8xJaOxIi/eHU2amNh015kXa+i3+HG2e0JVEYmuatuMCJVco/MnfaxxJOplSW0tncve9RvkK42nXvzKV12nDsB7k8KYHfeS9ldYtXUo+V2sPJmvQdQ2lif7kNU5CnUzbkqWzO/ley6/zOU1pJYlq5NDiv7rjvIpSvp9Ar3WZRHtT2YFTBoPBYLQs7AumrzDymE1wHnoGkyPuYJvjK/GZptZD2Qm808ULRkce4+j0V/4TPwwGg8FgMP6ktNzuEcYfh9r9FQyt8NWQC3uhbx891RQGg8FgMBiMVgNbrL/CyIuK8JQrRqFU9WuLDLXIE7BrzOvoO2c3zv8vClWz1mC+XeODuAwGg8FgMBitBbYN5hWlMuUyDv9fGNKK5RCbW2PMrAVwsW2p11f+WZEj49cfcCQkH2b9JsL9H07oxNbqDAaDwWAwWjFssc5gMBgMBoPBYLRS2DYYBoPBYDAYDAajlcIW6wwGg8FgMBgMRiuFLdb/wpSmR+NeptIn1lspOvvJP0NqXApkL+WtOKVIj74Htc3zxUi7HY4b8bmo0Jbvr0hpOqLvZUKbOvhnqYhLkbGXGdXASR8g7lGp6uWXCI9nqXFIeTmB06LoHAMYDAbjTwxbrCvB50Ti5Dcr8Y/RIzBi5GS89+9juJZe+7XQSqT8ehDbF/8dI13m4JP9V5Gi+HTmqwmfhn3zhmLYkiPIVZ2rK69h47BeGLUmCPmqab832voJDpm/+sJjkA36uO1DUt3XT1sOPm0f5g0dhiVHchssKrlHAfjIcyfO3TiDT1wl6DttKWYOaZzvrwmPtH3zMHTYEhxpbDSAy8Svvh4YZNMHbvuS8BLM9mrBpeNX33kYaNMfi/zTofR94pcGl/krfD0GwaaPG/a9jMBpSbSNAa1prGIwGIyXhepXkv7yyBNo+9/0SCz5kMIrVROJys8vpoGLz1P9NxRfXUrS7lJMRu0nP+upvL6GnIdupDDVL03+QWjqp4JKCv9QQgZvrKUbauzVbLh8un0rheq/Q1lCaXdjqEHzXC79OL0rvb2vUPG12ytb6V3PPXTllkq+vzIlaXQ3JoM0qqMynD6UGNAba29QS5jtlafiV3rf2oCctyUo+d7LpTL8Q5IYvEFrWyRwXi6axoDWNlYxGAzGy4DdWVdF0BEd2gkgMDWHuRrtCNu2w+sdO+DP8L1QEytHDOim+vVODhnpr+Oj41swsq1K0h+E+n7WIoK5uRkEqpefk9Kob7Dp8AOlu70msHIcgAbNV0XiSngpTMwMAQjRweVTHN3jCRdnlXx/ZUys4DigGzSqQ2QOc7OWstqfAJEJTE3UDDgvEZG5OV4VE6gfA1rfWMVgMBgvg993dmgpKtIQcngXvL134uCvqShTTf9dKUVGXDIKeaAqLwEREYnIV3mqLC98gKjgqwi5lQqZ1mfcPGQPoxB6LQYZxYXIzmm4f7UsOw7XQ8JwJ/1Zo60WVflJuBESgqgUaaPH6BrTKrIQm9h420aHwcPRJeMWkvJVP7akW9aGaJOnDNlx1xESdgfpz1R7oIK6fsqLkHIzFGHRmShXvl5LWTbirocg7E46GlRfmoG45ELwqEJeQgQiEvNrFuY8CiJ3Y/67vriZFoNfgoIRX6AoWJEVi8Sa5++VGTdx6ZdIPCzm8CTxCgIvRSDlmaJq5Xy1aNS9vBAPooJxNeQWUrU7Bfhnj5CQ+gw8J0VKZBiiUmSNbAxOitTb1xAWmYRGZivLQFxSAbiKbNy7mYSiBoV55MRcRlBgIIKuJUHGA1z2HVwKDETgpUg8qg0ujXrTRAWyYhMbbVuQF6XgZmgYojPVWg0AwBcmICQoEIGBgQi8FIW0MgAoQ1rUJQQGBiEkobBh/pwYXA4KRGDQNSQpBMCdS4EIDLyEyDoBgNKMOCQrnBcJERFI1O68TcrPSVNx+1oYIpPy0UjtmbG4n8cDnAyptyMQnVHr/1XIS4xA+L1spT39AghqFs4kL8D9yEgk5Krs0dZox2bEEuQoSrmJ0LBoqDdBU+vSFtuv4ljFYDAYrZdXb7FeehOfuTrBZeFH2LJlHRaNd8b4rREoUc330uFRcPMIVo61g2SCD04cWArXie6YO9EB/ab5IYUDAA6px+ZjyIxvcO9JLiJ8XCEZsQU31P66qELsbg94Hc+EvCIRB+cMwTs/pCkWRHwOgrYtwWq/UMTeOonVIyQYtfEKCnkAfAFCdsyDx7+vID0/Ft9OkcDZ6wxytKXJpYg+8RHesuuBUVvC6hcMskh87eGGdQFxyEg+i9Uje8N1azAK+KbIqopmeficIGxbshp+obG4dXI1RkhGYeOVwkYTMXj1/SyL24e5rotxICYLKec2wMvvgdLEziMnaBuWrPZDaOwtnFw9ApJRG3GlIA83j6zEWDsJJvicwIGlrpjoPhcTHfphml8KOF6G7EIjtGvDg68shUxWjJIn0Tjx0Vuw6zEKW8IUrVNVKYplpagGobq0GDLZU5QV3mmUT6PueYBLPYb5Q2bgm3tPkBvhA1fJCGxR5xRcJsK+XYxBVr3h/q0/trw1EIPHv4mh9hKM23odxTXZZJFfw8NtHQLiMpB8djVG9nbF1uAC8Hw+Ig+uwFg7CcZ778XOd0Zg2NBBWHBUebErRPvuryPvx6WYuuQAEuWAqH03dE7ejTlTPkTA41ztelOqSQEPafQJfPSWHXqM2oJadQBliNs3F66LDyAmKwXnNnjB70Hj0gAgNGqD0sufYtYkd+xJ64xOhgBgiA6i69i+4TxKzds0zN++O17P+xFLpy7BAYUA6NY5GbvnTMGHAdmoLriJIyvHwk4yAT4nDmCp60S4z50Ih37T4KfGefkm5Zch8msPuK0LQFxGMs6uHonerlsRXMCDL7qNY6vfhKTnaHgHnMLmObPhsXAGhtoPweqg2zj63iRMX7AMM4fYY+TmGw1uNlDeBXgNc8QwlxHoZ22Pqd/cRokWOzY5lgCgLA775rpi8YEYZKWcwwYvPyiboOl1aY7tV3OsYjAYjFaO6r6Y1g1HuT9MIlMBCKj/E5i8Rf95zKlmfj64PNrzlj7pOW2l+GrVRKLKa2tpyrrafbZyerhrOOmbOdOKM6lUSUSy/86hzgYjaNdDOZH8Pn022JictsRRNRFV31xPfQ0daFO0uoojaE1fB/o4UrEvk8v1p+3fJlA1cZR3Yg6NXRdZ0yZH6V+NJn09R9oUXUk5x93IzvV7SueIiKopftdoat91Pp0u4bSkERGXQ9+7GJDZrJM1+++ldHGZhOxXhtbtMy4NX032+hY0+6dc4nTJqoomebg8OjFnLK2LrNkny6XTV6P1Sc9xE6lTS6N+lobT2v62tOCMtCZDCZ1fZEl6NXvWubwTNGfsOqqv/isara9HjpuiqVr+kHYN1ycz5xV0JrWSiGT03zmdyWDELnooJyIum75zMSTLxRepoq7578nFwIxmnVQ6pVD6I001NCe3gPprDfNp072c7n82mIydtlCcwilofV9DctgUTerEp8oIWtNLjyzGbaagx9VEpYm0f7olifSdyPteNZH0Ii2T2NPK0DqrUfhqe9K3mE0/5XIK/Y7RJ6N+K+iXfCklXAmie4WqsSKnxO2DyLDXGrpeo7fK62uol9FQ+vw3OZEuvTWCo5zvXcjAbBbVqq00fC31t11A9WY7T4ss9TTvWS8NpZUSA7JfG1FjC45yj8yl2XszSLX3RETyxO00yLAXrakXgNb0MqKhn/9GciKSP9xFw/XNyHnFGVKI8F+a09mARux6qHaPuK780ovLSGK/kurVHk6r7fXJYvZPlMsRcdnfkYuBMQ1ZH0o5ciKqvEufOuhR26Ef0y+Pq4momqI/dSADWy8Krqj1A32ynLKbbhbKiUriaP9Ma9IzcKatsdXq7ViQ04xYKqXwtf3JdsEZqjfBIrLUq9mz3py41BTbr+pYxWAwGK2cV+zOOo+c9ExUqHxzlSozkfa4hZ5xCgUQCAQACGo/7cpzgKhWbSK0aWMCkakDXF1toA/ARNIT3YTFkBURIJLA80gY/L2skRlyEDsPRULKV6K8ovG9KogtIbFKx5dTRmH+Z6eQoOeGjR/0hhhlCDkdhKwH5+Hr4wMfn53wL3eF99Z5cDKSIvBEEAwcndFFCABi9FkTgsKsw5hmoi0NgNAUpm2UNqwWncP+nzJhN8Cxbp+x8WA3TJM8wfnjgZDpklUVTfKUheB0UBYenPeFj48PfHb6o9zVG1vnOcFItQ407mdJ0B4cTu2HMWPNa64YwsbaAqKa/5WFnEZQ1gOc9/WBj48PdvqXw9V7K+Y5GQGiNmhjIoKpgytcbfQBmEDSsxuExTKoEwEAhKamUFaTJhrm06Z7ESSeRxDm7wXrzBAc3HkIkVIeleUVau5gAhAawchQhE7DpsLFUgwY28NjyxI4UBxCQ/Pw5Nx+/JRphwGOdVbDYLdpkDw5j+OBMkV5fSHMnF0wspM5eru4on/7ZoZ9s/UmhKlpG6VzBCUI2nMYqf3GoN5sNrC2qLWaGoyHw+uDEcg68iVO5fEAl46AC3qYPrPbcz0OFLVpAxORKRxcXaEQQYKe3YQolhWpjXPt+Ytwbv9PyLQbgHq1D4bbNAmenD+OQBkgbGMCY4E+bAY6o4sIgL4EdlZioNtADLcUAxDD2qorBMVSSOs6IILF31wwsL0IMOmLhb4fYoQgDmHXnoBXZ0fDsKbHUkkQ9hxORb8xY1FvAmvUmaA5cakptl/VsYrBYDBaOc8z7/2BiGE3yAmdVeZ4YUcnDO6l3/Dic2MEY0MhqKwUpWpWT/yzEsDEtG5xqFjY1yMQiSAAgScAEEJcHoPdSzxxMHsAFnqOg4VQw2Qh7I5FRy9jr5spQnfMwsBew7DidAY4/hkKCsthYD8Na9evx/rav3UrMcWuGPlPKiArkjZecHCFmtOAmj2y9X3n8jLwuIxHVZXSPlmxNawshaiSSfGU1yWrChrkqX5WgMJyA9hPW1svy/r1WLdyCnqpPbWr3E8OmUm/QQYRxGo9l8ezgkKUG9hj2lolXa1fh5VTekGstC9YgQAikQAgXoOOAAhUy2hAOZ8O3QvF5YjZvQSeB7MxYKEnxlkI1ebThLhHH/Q0Aaory5Cb8RhlfBUams0KlsIqyKRPFT8AmtJ/rajqQLfeBAJBfbNcJpJ+kwEicTMGHBFs563CTMML+HJvHCoSjiH4tdmY1F41XxNR7g8ACERQiKBBAm35uTxkPC4DX1WltOdcDGsrSwirZJAqgkVF7QIIBYpHgXVXhEKANLQPQNjJFjbmAnDyasUFFTvyzYglLjMJChOot0Bz6tIU26/sWMVgMBitHPUjdyumzdvbsXfFIHQQCxSLhnZOeH/v55hWe7vohdGHjW03CLIeILnRRngOabGP0b5X97rFulZKLmLV1A0onPkdtrk7oXPtpKduwuAyEf+4Gzx2X0VSwjls6J+BPV47cKXaDF0tjJEUcABXpUrZUwNxIaEDulsaIS/wJC4V1abwKAz0g39KR81pyY03boq69kQPMw4Jt+/U76Hlq1BZJcTrAxxh0VxP0SDPrwZdYWGchIADV1EvDofUwAuI1flwRID2HdtDXBGPOzEqL7knHjyEMOtqAeOkABxoqCwEXojVcSCyBRG9pkX3xbi4aio2FM7Ed9vc4aTVKeohUvrlWF2GCr4z7Pt2Q7eePWDGJeD2nfqdz3xVJaqEr2OAo0WTA1wkFqlZfBOosas0H0F7dGwvRkX8HTQ2m5pfxLW0dcXKZf1xf//n2Pr9XfR5dyyMVfPUIhJDpGYxRi0igAqirujZwwxcwm3Uq51HVWUVhK8PgGOzg0UDZQV4Ut4dDgNfU2tHoVnTY0nQviPaiysQfycGDU1A4Pnm1aUptl/ZsYrBYDBaOa/esCa0wCTfCDxMjkRw8A0kp0Zh91TLFhREH0MWLcNw4RXs/uwq8urmiipkB/vgo6t94fGWSc01HhwnB/FKiwQixcKR58EXP0RqXgkykh+hpCIToeduIIcrQ3FODKLiVX4JcJkI+MIPd8sAQ+u3seHTmbA2NoChwATjF7jDJs0PbmPmYOsPATh1xAeLP46AiW0HTFgwC91yj2LZP1biPwE/w9/3fXgEiDHMrr2WNJGi7zzVL5baTsJyz36QnvoKB5MVb1bgcy8jJHM4lr83EgY6ZG2EJnnajMcCdxuk+blhzJyt+CHgFI74LMbHESawVb2DB6j0U4hOk+diUsdUHFi1AeczqoDKdNyNzwcnzUJ6bjEE4xfA3SYNfm5jMGfrDwg4dQQ+iz9GhIktxDwHTk7glRalChF4KKo3hKEB8DQnG0UFUQiPLQN4DjwpFjR1VFWhmqpQVal0sUG+tpp1b1uCh6l5KMlIxqOSCmSGnsONHA5lxTmIiYpXakQZHgXpaTWHqHlknz2L2L6eeG+cIdpOWg7PflKc+uogFGbjkXs5BJnDl+O9kQaK4gTIq1VXXMqI0NmyC/SzIvHL3Tzk37+APYevo1BegMxHT/CsTIfe1MBzPIh4xZ19YSdMnjsJHVMPYNWG81CY7S7i8zlIs9KRW6zmcC0AQIzeS1ZiUvX/4euEoXjXSa2DAABEnS3RRT8Lkb/cRV7+fVzYcxjXC+UoyHyEJ88qwHMc5MQr3UknEEgRpyp1AdCRvy0mLfdEP+kpfHUwWfEWGD4Xl0MyMXz5exhpAIDjwdcshGshAKR0J52IAJ5XOqRLKCuW1SymKxB34Bge/v1TrBha89RQ1Y4mTY8lYafJmDupI1IPrMKG8xmoQiXS78Yjn5MiKz0XxYKm16Uxtl+ZsYpH4eUtcPvndgQr/ahgMBiMVovqJnYGERFHT65/R0vfHED2DsPJ5a3x5DJ6JL059zP6JaP+tJUs9hRtcOlMIj0Jzfa9SAnJ1+jg8mFkLjQmx8X7KTwzk04vH0RdTNtRj1GLaU/wj+RhZU62k76gG6of8ai8ThuG9SCHNz3oI++ttG7pUvK5mltzmK6UEo950Ti7dmSgb0bdhy+lw/G1hxtLKdHfi8ZJOpFpW0tydvela/m1R/A0pZVQ4rnNNKGriMTW02jHhWRF9uo0OrtxCjk5jqHZS/5FC+d60pehecQ1RdYslWN/2uQpTaRjXuPIrp0B6Zt1p+FLD1OdOA1Q10+OpDe/J48hVtTO3JqcJ39A3ouGkM1Qd/rk0A3K4YhKE4+R1zg7amegT2bdh9PSw/FUSjKKPbWBXDqLSE8ym3wvJlDytYO0fJg5CY0dafH+cMri5JRy6J8kadeBJNN8KTI3kc5tnkBdRWKynraDLiRXUHXqVfrP8hHUQSikzmPXkt//3aDHxY3zadY9R1mnl9OgLqbUrscoWrwnmH70sCJz20n0RSOnIKLqaPp0gD5ZDJlFi99fRR++/y5Nd/uEzqXXH5SrTjtLG6c4keOY2bTkXwtprueXFJrHEXGFdPfEenrTQkQiS1faeOI2PVF3OpOI6Gk4bR/fnczMLMlx5hcUfHEtOfUcTfO999GJw+t16K1hVSWJ52jzhK4kElvTtB0XKLmCiDgp3fzeg4ZYtSNza2ea/IE3LRpiQ0PdP6FDN3IaVtCACgpd6UST92WpPVhaz1MK3z6eupuZkaXjTPoi+CKtdepJo+d707HgMDq1wYU6i/RIMtuXLiYk07WDy2mYuZCMHRfT/vCshlXJYpuQv5rSzm6kKU6ONGb2EvrXwrnk+WUo5XFEVJJIZzdPIEuRmGxn7KRzcekU8/M2mtJdRGLb6eTzv3v06HYAbXrbkkRiG5ruE0gplaX029nt9O7ov9GoqR70/vIl9N62c/SwnLTbscmxRMRJb9L3HkPIqp05WTtPpg+8F9EQm6Hk/skhuqEInKbVpS22X4mxqopSvp9Ar3WZRHtT2YFTBoPR+hGQ8q0eBoPRupDHYJPzUJyZHIE72xz/FB/jahZ8BvZ67ECnb/wwo51qIoPBYDAYf35abvcIg8F4iajbrPHnhSspgrSCR0nEHly2eBcT2UKdwWAwGH9R2GKdwWjNyItQ9JRDcaG00Rcy/7TIY7FjjAU6d+6CN5YXYd6q4XWv6GMwGAwG468G2wbDYLRWKlNw+fD/ISytGHKxOazHzMICF1u01EtKWy9ypF/aC//4jnhr3iw4d2L3FBgMBoPx14Ut1hkMBoPBYDAYjFYKu2XFYDAYDAaDwWC0UthincFgMBgMBoPBaKWwxTqDwWAwGAwGg9FKYYv1Vwz+WSriUmR/sRf5vVwqsuJwP69eo6Xp0biXWdEgT8vA41lqHFJkf23r/X76bh6tpR8NKE1H9L1MtLJetWpU/avF4J8hNS4Ff/HwbZ284nHC5vWmUIGsuPto+dB+NeZltlhXhktD2NEv8cHUURgx8m38c5knPD0Vf0vm/wNvjX0XexK1fbb9JcJl4ldfDwyy6QO3fUn4g3rxp4KXRePYhy6wsxuD7eE1L0bk07Bv3lAMW3IEuS0Yu1zmr/D1GASbPm7Yl/TXtN7vqe9m01r60QAeafvmYeiwJTjSejrValHrXy0Ch8xffeExyAZ93Pbh1QvfKkRsHoleI1bi/J/Sj17hOGnF8zr34DtM6zUQ8448/IP7xUMWfQwfutjBbsx2tGRov1LzsuonTRkVFPyBDYkMJtOhpw2vJ369iDaGVChf/H2pDKcPJQb0xtobVKmaxnguuIxvaKxBO3L/b3ndtZK0uxSTUf//lqIy/EOSGLxBa2/8da330vXN5dPtWyn0PB+Rb3Y/XqCtJlOSRndjMqgZvfpLo86/WoZKCv9QQgZvrKVXLnwrI+njvw2mdSFFqil/Hl7lOGmV8zpHj75+i/ou+C895lTT/gg4yvhmLBm0c6eWDu1XZV5md9YbIUKbtm3UPHIwQK+5H2D663/gB99F5jA3E6heZbwAQjNTmKio1MTKEQO6tfxneETm5virm+9l67s06htsOvzgue4ENbcfL9JWkzGxguOAbuyjUE1EnX+1DCKYm5vhpVT9kuEeP0LX1SewffSf+DPAr3KctMp5vRiJohk49t0MWDZeDP0BCGFmavJS4u9VmZdbhRmaTUUaQg7vgrf3Thz8NRVlqukvg7I4xOb1hVMPUd2l0ow4JBfyQFUeEiIikJivfdquyk/CjZAQRKVIwSknyAvxICoYV0NuIVXWIEWRXJSCm6FhiM4sV03SWVYZje0DACdF6u1rCItMQr7qY6ayTMTezwMPDrLU24iIzkBpTVJVXiIiwu8hW3mzIP8MjxJS8YznIE2JRFhUChp2rQwZcUko4CqQfe8mkopqEpsqS1kG4pIKwFVk497NJNQWB8qQHXcdIWF3kP6s4eNQeeEDRAVfRcit1IZ9EQoaDwAVWYhNzK3ZP1iMB9cvITAwsOFfUDiSa/a4aaxbkYqilJsIDYuGevNpK1sLj2ePEpD6jAcnTUFkWBRS1GTmpKm4fS0MkUn5jb52WpYRh6QCDhXZ93Azqaje/nwOYi4HITAwCNeSZODBIfuOQt5LkY/qY6s0A3HJheBRhbyECEQk5mtfpFblI+lGCEKiUiBtlr5rKMtG3PUQhN1JRwNTauwHj4LI3Zj/ri9upsXgl6BgxBfUFyzLjsP1kDDcSX+meV+oaj9auK0GNkh8iPiwoBp/CkJ4cjF4AM9SruNSYCCCwpNr9kZXICs2sdHWHE1tNGVM0lQWeIn+oMmeLT22qPMvaGkfchQ+iELw1RDcSpU1HhflRUi5GYqw6EyoCV/t4yYA8IVICKm18yVEpSk0WJYWpbBzSAIKVY3Ay/AwKhTXYjJQXJiNnFqFAFrHOPUxLodMboN+HdNxV518tTTFnhp1qCXeoaWcNjm1zAXq5VQXJxykqbdxLSwSSWqNo0wFcuKvIzQ8BunFtZXwyIm5jKDAQARdS4KMB7jsO7gUGIjAS5F4pLTw0DaOq+/v88/rmupTpTQrFuFhN3A/vxJVealIe9Z0eQADOIzuA+ntxn7WEC3+mBmrODvCyZB6OwLRGXWRjbzECITfy25wxoB/9ggJqc/Ac1KkRIYhKqWhvwoF6iJbc/vabKJrXoaO+fSP4NVbrJfexGeuTnBZ+BG2bFmHReOdMX5rBEpU87Uk8mLcP/ENjt1XmIwvuIkjK8fCTjIBPicOYKnrRLjPnQiHftPgl9LIKwC+ACE75sHj31eQnh+Lb6dI4Ox1Bjk8wKUew/whM/DNvSfIjfCBq2QEttyojZoyxO2bC9fFBxCTlYJzG7zg96C+fu1lldDSPgDIIr+Gh9s6BMRlIPnsaozs7YqtwQXg+SLcPrYab0p6YrR3AE5tnoPZHgsxY6g9hqwOwu2j72HS9AVYNnMI7Eduxo0yDplh32LxICv0dv8W/lvewsDB4/HmUHtIxm3F9WIe+ZEHsWKsHSTjvbF35zsYMWwoBi04ivymyMLnI/LgCoy1k2C8917sfGcEhg0dhAVHC8HnBGHbktXwC43FrZOrMUIyChuvFIIHh9Rj8zFkxje49yQXET6ukIzYAtWqFfVLEX3iI7xl1wOjtoQpBpKq+ziyww9RWUWQyWSQPbmNvUumYMb688gXkfa6y+Kwb64rFh+IQVbKOWzw8kO9+ZrWLy4zDN8uHgSr3u741n8L3ho4GOPfHAp7yThsvV5ck0uGyK894LYuAHEZyTi7eiR6u25FcAEPPj8SB1eMhZ1kPLz37sQ7I4Zh6KAFOFpYU1TYHt1fz8OPS6diyYFEyCFC+26dkbx7DqZ8GIDs6gLcPLISY+0kmOBzAgeWumKi+1xMdOiHaX4paiYKHgUhOzDP49+4kp6P2G+nQOLshTO1ztYgqxp9g0dO0DYsWe2H0NhbOLl6BCSjNuJKQZ72fvAyZBcaoV0bHnxlKWSyYpTJFYvPoG1LsNovFLG3TmL1CAlGbbzScIGk2g9eh8zNbKsgV40NhqzArxVJ+M+iyZi64y7Mu5pACMD4tTa4+ZUvbovNUXnvBD56yw49Rm1BWO2spqmNvCaMSRrKNtDFS/AH9fZ80sJji2q7tWhov5AHuFQcmz8EM765hye5EfBxlWDElht1P0jK4vZhrutiHIjJQsq5DfDye9BAPo3jplIeCI3QpvQyPp01Ce570tC5k+Ler2EHEa5v34DzpeZoozwLV8Vit4cXjmfKUZF4EHOGvIMf0mp+ImoY4+SaYjxfu3yKSptiTy061BrvWsppkVPTvKZ+LPPA3mA1cSKLxNceblgXEIeM5LNYPbI3XLcGQ+k3dT3FN/DFtMnYHFkNg+ILeH+IPf429i1MnPEZYju+jrwfl2LqkgNIlAOi9t3QOXk35kz5EAHZnNZxXH1/F+Bo4fPN65rrayANUJaAw54TMXfnJSQkheHL2Y6w6T0d+5J4tO+uSx7NfqaqOk355EW3cWz1m5D0HA3vgFPYPGc2PBbOwFD7IVgddBtH35uE6QuWYeYQe4zcfANlXCbCvl2MQVa94f6tP7a8NRCDx7+JofYSjNt6HZpCW1P7Oud8rfMytM6nfyiq+2JaNxzl/jCJTAUgoP5PYPIW/afFNlZV062N/UhPbENvLlpGy5Yto2WL3WlcT0ty/7/Sulzyh7touL4ZOa84Q6mVRCT7L83pbEAjdj1U2cPKUc5xN7Jz/Z7SOSKiaorfNZrad51Pp0vkdP+zwWTstIXiqomo+iat72tIDpuiqZqISsPXUn/bBXRGWlNVyXlaZKlXs7dNe9mmtU9E0ou0TGJPK0NrN4KVUvhqe9K3mE0/5XJEXDZ952JAxkPWU2iOnIgq6e6nDqTXdih9/Mtjqiai6uhPycHAlryCK4iokiLW9CI9i3G0OegxVVMpJe6fTpYifXLyvkfVxFH6V2NI36gfrfgln6QJVyjoXj4lNEkWIuLS6asx+mTUbwX9ki+lhCtBdK8gh07MGUvrImv2nHHp9NVofdJz3ETRFffps8HG5LQlTtHXm+upr6EDbYquqfnpIZpsqLTHlcuh710MyGzWSSolIqqOp/Pnk2r68YwiPnGiNuYj6fPoCiK5trpLKXxtf7JdcIbqzbeILPVq9sZpLduQyog11EvPgsZtDqLH1USliftpuqWI9J286V41kfTiMpLYr6R6E4bTant9spj9E+VyRFz6VzRG34j6rfiF8qUJdCXoHhUqh4s8kbYPMqRea67X7JmspOtrepHR0M/pNzkRyR/SruH6ZOa8gs4onJ3+O6czGYzYRQ9VNmxzOcfJzc6Vvlc4G1XH76LR7bvS/NMligw69M3lnaA5Y9dRvSm/otH6euS4KZqqdfWDy6bvXAzJcvFFUpws4SjvxBwauy6yRi6O0r8aTfp6jo31rGr3Fm5LvQ2qKW7b38jIcgGdkdV0I/sQvb82kJ7V1JHzvQsZmM2ik6W629A+Jmkv24CW9Adt9mzxsaWxf2lrv+L+ZzTY2Im2KAYdurm+Lxk6bCJF+IbT2v62tKB+8KXziyxJr3bPuq5xswGlFLpSQgb2aymi5sgTl3uE5s7eSxkqWSsj1lBfh48pspyIiKNc/+30bUI1EZeneYyrVh/j+Qla5FNGhz216bBSS7xrK1eqSU4d85o6OQs51TiR0sVlErJfGVq3h700fDXZ61vQ7J9yqaHKFTHYxnkbJcgV/7/7SX8y6LGcQiqJiOSUuH0QGfZaQ9dr5Ki8voZ6GQ2lz3+T6xzH1fU3M+z553V19TUYy+kZ/bqyLzmuva4Yx2p86g2DvrT+pkK/WuXR4Wd16MjHZX9HLgbGNGR9KClC+y596qBHbYd+TL88Vvhj9KcOZGDrRYrQjqA1vfTIYtxmClJMcrR/uiWJ9J3I+56i4aeHJpNh7Z51be1rnfN1zMukez79o3jF7qzzyEnPRAU1vEqVmUh73Oih3Ysh6os5X+3F3r17sXe/Py6dXIX+StvVRW3awERkCgdXV9joAzCRoGc3IYplRWjYPSkCTwTBwNEZXYQAIEafNSEozDqMaSYiSDyPIMzfC9aZITi48xAipTwqyyvAowRBew4jtd8YjDWvqcrQBtYWtdtwtJVVRlv7QNG5/fgp0w4DHGt3+xljsNs0SJ6cx/FAGSBsAxNjAfRtBsK5iwiAPiR2VhCjGwYOt4QYgNjaCl0FxZBKCYAQRkaGEHUahqkulhDDGPYeW7DEgRAXGoo8XggjI30IzZzhMrITzHu7wLV/J7zRJFkUd6qM9IUwc3bByE7m6O3iiv6GYTgdlIUH533h4+MDn53+KHf1xtZ5TjASSeB5JAz+XtbIDDmInYciIeUrUV7RqGYFQlOYtlF63Cbug4kTe0EMHoVBH2PBvx9j7BeHsMbBANBWd0kQ9hxORb8xY1FvPmvUm09LWRWERkYwFHXCsKkusBQDxvYe2LLEARQXitC8Jzi3/ydk2g1AvQkHw22aBE/OH0egTFFeX2gGZ5eR6GTeGy6u/dG+OZEvaoM2JiKYOrjCVeHskPTsBmGxDEUqsSgNPIEgA0c4K5wN4j5rEFKYhcPTTBpmrEVF32UhpxGU9QDnfX3g4+ODnf7lcPXeinlORs3qh4IyhJwOQtaD8/D18YGPz074l7vCe+s8OBmpZFW1ewu3pd4GYvRe5Ik3y07DLyALPDg8OBGF12aNQxsAgBCmpm2UtnVob0P7mKS9bLNohm602rPFx5aGbetqXyTxxJEwf3hZZyLk4E4cipSCryyHInz34HBqP4ypH3xhY22B2vDVOW42wBjDvT7AiKwj+PKUYstPesAF6E2fiW4qcSi2lMAq/UtMGTUfn51KgJ7bRnzQWwyUhWge42rGCFX/6vSGZvkaoMOe2nSoLd61ldMop455TZ2c7YUqcVJ0Dvt/yoTdAMe6PezGg90wTfIE548HoqF15EhLzURV3fYpMWxsugHZaUjTsD2iATrG8cb9tcVNv+ef1xvXpzKWF1/A3mPPMPgtJxjX1ti2bcOnN9rQ4WdNzSdsYwJjgT5sBjpDEdoS2FmJgW4DMdxSDEAMa6uuEBRLoQhtIxgZitBp2FS4KCY5eGxZAgeKQ2hoXuN1gLb2tdlE17yMIp3z6R9FU03YShDDbpATOtdvGwcACDs6YXAv/YYXWxhx/3cxb7jS8RWByt5IgQgiAUC8ymzFFSL/SQVkRVKVRbwCobgcMbuXwPNgNgYs9MQ4C6EiH5eJpN9kgEis0UgayyqjtX0OeRmPUcZXoUpp85jY2gqWwirIpE/BQwDVrWICoUDxTKP+AoQgNfXXIO6BPj1NgOpKVBIANbtKmyRLLSrF+WcFKCw3gP20tVi/fn3d37qVU9BLLIS4PAa7l3jiYPYALPQcBwuhxpoBCCBQFRgAnxUAr6UHUDnre/gt6lEzaWuum8tMgsJ8Gq2nsaxuxOjRpydMUI3KslxkPC4DX1WltP9PDGsrSwirZJA+VQxzjSVqDqo+IIBI4ewqNuJQmP8EFbIixQDcJJT1zeNZQSHKDewxbW29HdevX4eVU3pB3OR+1MA/Q0FhOQzsp2Gtkl+sX7cSU3qpHhRXtXvLt6XOBkKLWfCcYYpgvwOIL72Jnx72xRzH+rFMoDzO6GpD25ikq2yzaKpummvPlhhblNHRvlCM8pjdWOJ5ENkDFsJznAUUIcghM+k3yCCC+vBtyrjZEJHtPKyaaYgLX+5FXEUCjgW/htmT2qvkAoTdF+Ho5b1wMw3FjlkD0WvYCpzO4HSMcYqyjfxLo3yqqNpB2Z7adGiHYo3xrq1cL+hrkBNNmAsayakSJ1xeBh6X8ahqaBxYWQpRJZOiZkisQR+DJ72F15Kv4tIjDkAl7ielo53LZIxW/GLWge5xvEF/W2BeVyd/LVz2Q6SViKGvpy2XZpriZ03KpzoWQYDGoS0EqJHj1CHu0QeK0K5sFP/a29dsE53zMpfXpPn0j0BDj1svbd7ejr0rBqGDWKAYVNo54f29n2Na7c+kl4XoNVh0Ijw6expRlaqJWhC9hu6WRsgLPIlLRbUXeRQG+sE/uRgXV03FhsKZ+G6bO5w610YDAYL26NhejIr4O4hRaY94HkCJ5rLKaG0f6NqzB8y4BNy+U7+Tka+qRJXwdQxwtHh+ByFSmrCqUVbBo7N9X3RV+aGloImyaEBo1hUWxkkIOHAV0rqrHFIDLyBWdhGrpm5A4czvsM3dCc2sWoE8GX5LluN/Zv/CD1/PgIUQ4KX5KNRSt6B9R7QXVyD+Tgwamo+gMJ/msuohkNI4UV1WAb6zPfp264aePczAJdxGvQl5VFVWQfj6ADhaNMWCIohFan5oEqnZg6wNEV7rbgmjvECcrHc28IWB8PNPbkJdQph1tYBxUgAOXK23JLhUBF6IbXzgTRdCM3S1MEZSwAE0rC4QF2KbXZt2nrutNnjL0wOShEP4cusJFI+eDVu1MfIibTS3bEv5Qwvbs5Ymjy3a25ddXIWpGwox87ttcHfqjPoQFKB9x/YQV8TjTuPBFzxEzzFutoXrymXof38/Pt/6Pe72eRdja299KsFlxuNxNw/svpqEhHMb0D9jD7x2XEG1tjFOgyJLNMrXHLTpMAEdNMb7bzDRWC4WlRrkrHzBuQAARF17oocZh4Tbd+r35/NVqKwS4vUBjmg4JArRadpX2ONhgKtfb8NXvp/htNFHCDy6GNY1/iRSBINKDwjEPcc43lLzugYE5u3QFo9xO/KRxljVJo/WuVTJz5qar7lQw0kOFXxn2PftWvdEqxat7b/IvCzq2gLz6cvhj2v5eRFaYJJvBB4mRyI4+AaSU6Owe6plCwrCQ14lB4EDp+LtlUkHsOVyFSQGAM9xkBOvNKERCASe51XuqrTFhAWz0C33KJb9YyX+E/Az/H3fh0eAGMNsS/AwNQ8lGcl4VFKBzNBzuJHDoaw4BzG38jB57iR0TD2AVRvOI6MKqEy/i/h8DtKsdORKczWXjYpvWvt2IrSdtBye/aQ49dVBJFcBAI/cyyHIHL4c7400AMCB52sHkhpIMWHWBTsRCDx4JX3xBelIqzn1y2efxdnYvvB8b1zNY0kC5NX1kzVf3ERZaiBAXq00IpiMxwJ3G6T5uWHMnK34IeAUjvgsxscRJrAufYjUvBJkJD9CSUUmQs/dQA5XhuKcGETFlwAcB67Gbgp4cDwpyVuG258vxPrrPbDu0A641Lz9TBp4BpdzNNd9K28c5k7qiNQDq7DhfAaqUIn0u/HI56TISs+FNFdz2ah4Ncel+QKk1ysUZ8/Goq/nexhn2BaTlnuin/QUvjqYrDi1zufickgmhi9/DyMNFEUIciirrAGizrDsoo+syF9wNy8f9y/sweHrhZAXZOLRk2eo4DlwcgKvNMATKXxC2S0AoO2EBZjVLRdHl/0DK/8TgJ/9ffG+RwDEw+wUA64OfZuMXwB3mzT4uY3BnK0/IODUEfgs/hgRJrYQ6+qH0BCGBsDTnGwUFUQhPFaA8QvcYZPmB7cxc7D1hwCcOuKDxR9HwMRW9W6yit1fQluabCB2XISlIwtx/BRh8qQODdJ4jgdR7ZhiorUN7WOS9rINaEF/0GrPlzG2qPiX5vatUfowFXklGUh+VIKKzFCcu5EDrqwYOTG3kDduLiZ1TMWBVRtwXjH44m58PjhpFtJzi6Gnc9xsjLj3EqycVI3/+zoBQ991qls8K8NlBuALv7sogyGs396AT2daw9jAEAItY1yt+Rr6F49ijfJFocEQo8OemnVoiw5a4t1MSzmBJjmbMBeoi6MGcdJ2EpZ79oP01Fc4qDAO+NzLCMkcjuXvjYSqdaQX12Nz5nR8vWMdvFZtwRdb5sKh7uafCJ0tu0A/KxK/3M1D/v0L2HP4OgrlBch89ATFebrH8Qb9FXZ64Xldnfy1CDv/Hf8YY4Soz+fgvT2XcPPOrzh86Ffk1MWPdnmeiXT7GaB9zrUVA+B48LUL4BoUoV3/E4GIAJ5X+lHBoyA9reZlITyyz55FbF9PvDdOsWrgOE7xY5nX3r62OV/XvFxc1rT59A9BdRP7Xxp5Kv2635v+ITEggbAdOUxfpDhgumwZLXp3AvVp35He8S8kksXSqQ0u1FmkR5LZvnQxIZmuHVxOw8yFZOy4mPaHZ6lUXEqJ/l40TtKJTNtakrO7L13L54iIo6zTy2lQF1Nq12MULd4TTD96WJG57ST64oaMiJPSze89aIhVOzK3dqbJH3jToiE2NNT9Ezp0I0t72Sa1r6A67SxtnOJEjmNm05J/LaS5nl9SaB5HRCWUeHYzTbAUkdh2Bu08F0fpMT/TtindSSS2pek+/6N7j25TwKa3yVIkJpvpPhSYUkrRnw4gfYshNGvx+7Tqw/fp3elu9Mm5dJITR4V3T9D6Ny1IJLIk140n6PaTJuihFq6Q7p5YT29aiEhk6UobT9ymJ7VilCbSMa9xZNfOgPTNutPwpYcpvpSIuCw6vXwQdTFtRz1GLaY9wT+Sh5U52U76gm7kJtH5Ta7URSQiq2k76Ex8DiWe20wTuopIbD2NdlxIpoqI9dTfUEjmTu605uOP6eOPP6aPVs6nUW/8k04801K3jIiT3qTvPYaQVTtzsnaeTB94L6IhNkPJ/ZNDdCMrU2tZZaqjP6UB+hY0ZNZien/Vh/T+u9PJ7ZNzlF53mK+a0s5upClOjjRm9hL618K55PllKOVxRFzhXTqx/k2yEInI0nUjnbj9ROWAlYKn4dtpfHczMrN0pJlfBNPFtU7Uc/R88j4WTGH/t4FcOotITzKbfC8mUPK1g7R8mDkJjR1p8f5wylKpsDTRn7zGSaiTaVuydHYn32v5ijbLdetbUf4YeY2zo3YG+mTWfTgtPRxPpSSj2FO6+iGnlEP/JEm7DiSZ5kuRz0jh+8e8aJxdOzLQN6Puw5fS4fj6g+IKSlT6cbtF22qKDaQ/L6JJW2sOSdZQkniONk/oSiKxNU3bcYGSK0hjG00bkzSUVUPL+oM6e7b02KLOvxRftVPfPhGXdZqWD+pCpu160KjFeyj4Rw+yMrelSV/cIBlxJL35PXkMsaJ25tbkPPkD8l40hGyGutMnh25QDqdt3NRMRehKcpq8r5GOaqm8voGG9XCgNz0+Iu+t62jpUh+6WnuqTcMYp8m/tMtXS1PiSrMOFd3SEO9adK9ZTs1zwedBoWrlVBsn1Wl0duMUcnIcQ7OX/IsWzvWkL0PzGsUdEUdZx98lKwMBASCBQEh6hmbUuedo8jx6X3HA+mk4bR/fnczMLMlx5hcUfHEtOfUcTfO9j9GtfM3j+PVH6u3yvPO6JvlVkWf/Qpsn21OnNmZkPXYVBQRuJmej2gOmOuR5wmn0s0ZoyleSSGc3TyBLkZhsZ+ykc3HpFPPzNprSXURi2+nk87979Oh2AG1625JEYhua7hNIKaXR9OkAfbIYMosWv7+KPnz/XZru9gmdq5nkypPO0ybXLiQSWdG0HWco/qmW9rXN+brm5RxO63z6RyIg5Z86DMYLI0fMJmcMPTMZEXe2wVHd7SNGs5DHbILz0DOYHHEH25hCGX9ZXvWxhUfGXg/s6PQN/Gb8iT9Q9ErBI+vsVvg9+wc8HHk8kRajpKwE0ux7OHkkB0sCv8X4P/JuagvAJW7HEOeTGB8ajc/+1kqDRh6DTc5DcWZyBO5sc1T71OmvTsvtHmEwVFB5Is54UZhCGQzgVQsFrgRF0grwJRHYc9kC705kC/XWAp91FF4r78H27/1h29sBg4aPxrjxEzFjpiuc/9an4dYPxu/AKxXZvytssc5oYeQoKnoKrrgQ0tbw2a8/AfKiIjzlilHIFMr4S/Mqji1yxO4YA4vOndHljeUomrcKyi8VY/zBiM3RxehXrBg8Du+u2IitO7Zj80fLMPdfP8N26WIofbD8lUX+5AmK5SWQPdWw0b01IC9C0VMOxYXSVvG10NaIyNvb21v1IoPxfFQi5fIR/JL/Ogb2aYOiDELX/rZo9ycY8P4oKlMu48gv+Xh9YB+0KcoAde0PW6ZQxl+OV3VsEaKDtRU6dOiNGRv/jY/HvcbukLUiBG3ewMTF8zDOSozypyWoEpjBaug/sXL1P+Hc4dW3FJd1Hf5Bj9HZoTdMpZkQvO4Aa/NWJldlCi4f+QX5rw9EnzZFyKCu6G86uA2cAAAXuElEQVTbrtEbYP7qsD3rDAaDwWAwGAxGK6WV/cRiMBgMBoPBYDAYtbDF+h9CBbLi7qv9PPYfQWl6LJIKWklnnhsez1LjkCKrlaMU6dH3kKn0ETtV+GepiEuRvVpHWvhnSI1LQZ2YLUZjnyxNj8Y9bQpkNBNVH311eKFYqchC3H01nwxnMBgMRpNgi/XfFR6y6GP40MUOdmO2I/wPPknB50figNdo2PV6C19E/sGdeQG4zF/h6zEINn3csC9JcYiGT9uHeUOHYcmR3MaLBC4Tv/p6YJBNH7jtS3r+Lyn+rnDI/NUXHoNs0MdtH2rEbAE0+CSfhn3zhmLYkiPIbaRARnNR56OvBC8SK7wM0cc+hIudHcZsD2cHxxgMBuM5YYv13xUhzB3dsWqqBK3hpICw8xB4rJyEHqoJLwm+4A5uP9T0EeTnR9RtHLyWjEYHJaUKrZfixxsR2D+/S2MnF3XDOK8lGN1B6UuJrR4Ruo3zwpLRHVrYdzT4pNAaS3+8gYj989GlkQKfA74Ad24/1PgJ7D876nz0leBFYkVoDkf3VZgqeY6yDAaDwaijJaZhRrMQwszUBALVy38QIlNTmPwunSlF1DebcPhBs+7NNRmRuTnMGshhAivHAeim6TVpInOYNyzwCiCCubnZS/Ad9T5pYuWIARoV2DxKo77BpsMPmndn9k9GYx99RXiRWBGawfT3GWAYDAbjTwtbrGugLDsO10PCcCf9WYNtFLzsIaJCryEmoxiF2TkoVUprRFk24q6HIOxOOp4pVSIUNHHyKs1CbHgYbtzPR2VVHlLTnoHPicHloEAEBl1DkowHuGzcuRSIwMBLiHxUplS4DNlx1xESdgfpyo2rIhDUL9KqchF/PQKJ+SpLKnkhHkQF42rILaTKdNwbVZeXL0Dk7vl41/cm0mJ+QVBwPOq3yGvqZyky4pJRyANVeQmIiEiEarcAOYpSbiI0LBqZ5appQEVWLBJV9nDIi1JwMzQM0eoKAOCkqbh9LQyRSfm6H9urk1ULVflJuBESgqgUqcodZjkKH0Qh+GoIbqXKGt99lhch5WYowqIz0bjXOsqqUpWPpBshCIlKgVQps1qfrMhCbKLKNiINPo3SDMQlF4JHFfISIhCRmF+zMOdRELkb89/1xc20GPwSFIx4pfMRmuKsITyePUpA6jMenDQFkWFRSFHVtxZblGXEIamAQ0X2PdxMKqrRUcvoDQDkhQ8QFXwVIbdSodotXT6qvSwA8MiJuYygwEAEXUuCIuTv4FJgIAIvRaI+5HXHi+62GqIrVppmOyEau5Y23fOQPYxC6LUYZBQXIjtH2whbhfykGwgJiUKKqlHAQZp6G9fCIpGUrxrJZciMVZzP4GSpuB0RjYzaZqrykBgRjnvZDc9q8M8eISH1GXhOipTIMESlNOx3832sOXIyGIy/Omyxrgqfg6BtS7DaLxSxt05i9QgJRm28opgEY3fDw+s4MuUVSDw4B0Pe+QFpjRaQUEywQduwZLUfQmNv4eTqEZCM2ogrhZqntIaUIeGwJybO3YlLCUkI+3I2HG16Y/q+JPDtu+P1vB+xdOoSHEiUA6L26NY5GbvnTMGHAdngAPA5Qdi2ZDX8QmNx6+RqjJCMwsYrhVomVKDq0U9YNWsOPJdOhWO/6dhfs12FSz2G+UNm4Jt7T5Ab4QNXyQhsuaH8o6AeTXl5WTYKjdqhDc+jslQGWXEZ5Br7WYC8m0ewcqwdJBN8cOLAUrhOdMfciQ7oN80PKbUzXlkc9s11xeIDMchKOYcNXn54UJPGS6Nx4qO3YNdjFLaE1U66ZYjbNxeuiw8gJisF5zZ4wa+2AABAhsivPeC2LgBxGck4u3okertuRbCGg7eaZFULX4CQHfPg8e8rSM+PxbdTJHD2OoMcHgCXimPzh2DGN/fwJDcCPq4SjNhyA7U1lcXtw1zXxTgQk4WUcxvg5fegftLXUbYhPApCdmCex79xJT0fsd9OgcTZC2dy1MjHSxF94iO8ZdcDo7aEQaFBDT5dkIebR1ZirJ0EE3xO4MBSV0x0n4uJDv0wzS8FHC9DdqER2rXhwVeWQiYrRpnC+BrjTBkuMwzfLh4Eq97u+NZ/C94aOBjj3xwKe8k4bL1erMijwRZ8fiQOrhgLO8l4eO/diXdGDMPQQQtwNL+l9MYh9dh8DJnxDe49yUWEjyskI7agzg20+KjOsnUI0b7768j7cSmmLjkARch3Q+fk3Zgz5UMEZFejQGe8NLWtWnTEShNtpxatPluF2N0e8DqeCXlFIg7OGYJ3fkhT+zSGLwjBjnke+PeVdOTHfospEmd4nclRjHGySHzt4YZ1AXHISD6L1SN7w3VrMAp4HkW3j2H1mxL0HO2NgFObMWe2BxbOGAr7IasRdPso3ps0HQuWzcQQ+5HYfKMM4DIR9u1iDLLqDfdv/bHlrYEYPP5NDLWXYNzW65A+l481XU4Gg8EAABBDCY7yTsyhsesiqbLm/+lfjSZ9PUfaFF1KEWv6ksPHkVRORMTlkv/2bymhWrUOIi7vBM0Zu44iFZUQl/4VjdbXI8dN0VRNRE8PTSbDdu7033LVkgqe/bqS+jqupeulNRcqI2jNGwbUd/1NqiYieeJ2GmTYi9Zcr2mg8jqt6WVEQz//jeRcHp2YM5bW1TdOX43WJz3HTRStpq+Uv5dcDU1p6MZQyueI6Nn/aL6FIY3+Mo04ktP9zwaTsdMWiqsmouqbtL6vITnUyNEQ7Xm57O/IxdCSFl+sUGTX2k85Pdw1nPTNnGnFmVSqJCLZf+dQZ4MRtOuhnIhKKXxtf7JdcIakNa2XnF9Elnpv0NobNZbL+Z5cDMxo1kmFEkvD11J/2wV0pr4ALbLUozfW3qBKIpJeXEYS+5UUWmuT0nBaba9PFrN/olyu5lod2mVtCEc5x93IzvV7SueIiKopftdoat91Pp0uIZLf/4wGGzvRFkVFdHN9XzJ0qLFVaTit7W9LC+o7TecXWZLeG2vpRqWOsipwOcfJzc6Vvld0gqrjd9Ho9l1p/ukSInU+yeXQ9y4GZDbrJJXq8mn5Q9o1XJ/MnFfQmdRKIpLRf+d0JoMRu+ihnIi4bPrOxZAsF18khfW1xVnjzldGrKFeehY0bnMQPa4mKk3cT9MtRaTv5E33qrXbgkv/isboG1G/Fb9QvjSBrgTdo/yEFtKb/D59NtiYnLbEkaLp9dTX0KFGBh0+qrWsKnJK3D6IDHutofqQX0O9jIbS57/JiUhHvDSrLV2x0jzbET2lQ5MNqZ37f6mcdPhsZQSt6etAH0cqnJDL9aft3yY0jikuh4672ZHr9+mkCKl42jW6PXWdf5pKSEoXl0nIfmWoYpwmotLw1WSvb0Gzf8oljjjK/s6FDIyH0PrQHJITUeXdT8lBry0N/fgXelxNRNXR9KmDAdl6BSv8tTKC1vTSI4txmylI4YC0f7olifSdyPtedfN9rKlyMhgMRg3sznoDyhByOghZD87D18cHPj474V/uCu+t8+BkJIalxArpX07BqPmf4VSCHtw2foDeYtU6gLKQ0wjKeoDzvj7w8fHBTv9yuHpvxTwnI9WsaijGhb3H8GzwW3Ayrrkkaou2bZpoqrIQnA7KwoPzvvDx8YHPTn+Uu3pj6zwnaG7dGG8MHoROQgCG3dG9MyCTSsFDBInnEYT5e8E6MwQHdx5CpJRHZXmFmrv0zcmrq58itGljApGpA1xdbaAPwETSE92ExZAVEVAShD2HU9FvzFiY11RnaGMNC6VPnglNTdGm7vF7CYL2HEZqvzEYW18A1nUFinBu/0/ItBsAx9ot2saD4TZNgifnjyNQVnOtjubIKkXgiSAYODrXHNQUo8+aEBRmHcY0E0Ak8cSRMH94WWci5OBOHIqUgq8sRwUPlATtweHUfhhT32nYWFvUfdlNW1lVpIEnEGTgCOea06LiPmsQUpiFw9NMVLMqEJrCtF6B2n1a1AZtTEQwdXCFq40+ABNIenaDsFiGIrUnC7XFmWpeQGhkBENRJwyb6gJLMWBs74EtSxxAcaEIzRNotYXQyAj6QjM4u4xEJ/PecHHtj05vtJDeRBJ4HgmDv5c1MkMOYuehSEj5SpQrjKfdR7WVbTY64qVZbemKlebZThWtPiu2hMQqHV9OGYX5n51Cgp4bNn7QG42GWGkgTgQZwNG55vC4uA/WhBQi6/A0mBSdw/6fMmE3wBH1oeyGaZInOH88EDII0cbEGAJ9Gwx07gIRAH2JHazEQLeBw2EpBiC2hlVXAYqlUsXBWKERjAxF6DRsKlwUDgiPLUvgQHEIDc0DmutjTZWTwWAwamjiCvAvAv8MBYXlMLCfhrXr12N97d+6lZjSSx/dFx3F5b1uMA3dgVkDe2HYitPIUN0qCR7PCgpRbmCPaWuV6li/Diun9NI9IHPZeJhWArG+XqMDf02Bf1aAwnID2E9bq9T2eqxbOQW9dDYOACIIRQAnrwYACMXliNm9BJ4HszFgoSfGWQg1vtmhOXl19VOgstFVIBJBAAJPAJeZhN9kgEisxX0Fgvq9slwmkhQF1Ds8l4eMx2Xgq6pqtnwAgBjWVpYQVskgfdp4UdNkWblC5D+pgKyoZuJXRShGecxuLPE8iOwBC+E5zgJCAgAOmUm/QQYRNIqpsawqHArzn6BCVgSp2nR1CJRsoMunlXRdU1YkEgDEq5dZa5w1xUnF6NGnJ0xQjcpK0mmLRnHUYnoTQlweg91LPHEwewAWeo6DRU1Fun1Uc9nnQVu8NKstXbHyorbTpnthdyw6ehl73UwRumMWBvYahhWnMxqdJ+AK8/GkQoYiNUbh8jLwuIxHVZXSnnOxNawshaiSSfGUb6wrCIQQqHiMUAitb10S9+iDniZAdWUlqLk+1kQ5GQwGoxa14/FfFqEZuloYIyngAK5K6y9zqYG4EFuJzPjH6OaxG1eTEnBuQ39k7PHCjiuVyjUAEMKsqwWMkwJwoGElCLwQq3tfosAc7doCj29H4pGm0VskhqhuIq6HiIPQrCssjJMQcOAq6lvnkBp4AbE6G1elBBdXTcWGwpn4bps7nDrXTsbqZrHm5MUL9VPQviPaiysQfycGDbVP4BuvqwFBe3RsL0ZF/B3EqJiLeB4QdUXPHmbgEm7jTt0+Xh5VlVUQvj4AjhaqYdIMWUWvobulEfICT+JSUe1FHoWBfvBP5lBycRWmbijEzO+2wd2pc92POYIA7Tu2h7giHncadxo8oKWsKiK81t0SRnmBOFnfCfCFgfDzT27CIuEFfVoVrXGmqTYCKdm2uqwCfGd79O1a3nRb1NBieiu5iFVTN6Bw5nfY5u4E5aZ1+qiWsuoQiUVqfvwQSLfxmteWrlh5LtvVo1X3XCbiH3eDx+6rSEo4hw39M7DHawdUh1jRa91haZSHwJOXUB9ShQj080fKaz3Rw4xDwu079WcQ+CpUVgnx+gBHNArlZkANHRAVfGfY9+1a96RLmZaQk8FgMGp5gaHrz4gJxi9wh02aH9zGzMHWHwJw6ogPFn8cARNbATIDvoDf3TLA0Bpvb/gUM62NYWDY6J4KTMYvgLtNGvzcxmDO1h8QcOoIfBZ/jAgTW4gBcBynWHCpW1gKO+Pv/xgDo6jPMee9Pbh08w5+PXwIv+bUz8qizpboop+FyF/uIi//Pi7sOYzrhXIUZD7CE34kFrjbIM3PDWPmbMUPAadwxGcxPo4wga2aG188z4NXs/DneR48X4yHqXkoyUjGo5IKZIaew40cDmXFOYiJilcpoD2v0NAQBniKnOwiFESFI1YwXks/eXCcHMQr9YuoRmc8hJ0mY+6kjkg9sAobzmegCpVIvxuPfE6KrPRcFJcB4DnwVLMwEnbC5LmT0DH1AFZtOI+MKqAy/S7i8zlIs9KRW6yHScs90U96Cl8dTFa8BYbPxeWQTAxf/h5GGjQUVZesDWmLCQtmoVvuUSz7x0r8J+Bn+Pu+D48AMYbZCVD8MBV5JRlIflSCisxQnLuRA66sGDkxt5A3bi4mdUzFgVUbcF7RadyNzwcnzUJ6rhS5GstGIb5EpRcTFmBWt1wcXfYPrPxPAH7298X7HgEQD7ODSK1P8uB4UizQdPk0z4GTE3ilxaTCXDX1CQ1haAA8zclGUUEUwmMFWuJMjZMCAF+A9LQaofhsnD0bi76e72Gcvm5bEOSorltH8lp03jy9CYofIjWvBBnJj1BSkYnQczeQw5WhOCcGt/LGafVRaa7mslGqnYAInS27QD8rEr/czUP+/QvYc/g6CuUFyHz0BM8qtMcLr6WfjdrSGSvNtR0HhWvx4HXpvjgTAV/4QTHEvo0Nn86EtbEBGg2xbSdgwaxuyP3/9u41pskrjAP40Rchc1LbGRhSQ7nZZHNTK50pkHlBjWEBA1sUJBobRUSRbproHCJ0CmNjqfvEXGIG6iBmGHWAopEYhqAYp/MybCRhm8jqlHGT2ThC3/73odMYLmV8kFX3/31qmp63Pec8b/Oc5Dnn/WaDePeDL0X5sTJhyTCKcq8oEf5KnDClvym6j34hiptdp8A479WI79uihWnT28JHCCE7nU8WvC5wLXye/Ae6XjudT6+EnOKP1tvCNVpOcbeyUtx4I11sinEV24wqxobtp1N01nwsklbmidqnFkJERNxgOogd1tJMxISr4OOtQFB0Gg402QH04XxWFMJmL4Zxuxm7d6QhreDsEJsPXezWUmTGhEPl4w1FUDTSDjTBDuDRrRPIWRoASdIgIb8CTb0DWwJw3MWZ3Hi85jcJiuCF2FJ+Crn6l55sMAV60ZC3BEEKBdS65Sisrca2iOmYv8aM0h86ALsVpZkxCFf5wFsRhOi0A2h6vFn1aT3XceTDhfCXJkCb9DlONN3Cua/fR7RSwssRG1B88S5sx02YG+ALVdg8pO6rxSGjBsrQOBQ29gy4mOz+s44WlKzUQjVFiwTLRfwJDPs7e24cRdYif0gTtEi2VONmcz2KTVFQjp8IXep+NNhkyN2XUGQ0QKNSIlgfj83mdTCERCIluwSNPzehKjcWgZIXghPycbL5L0DuxqUiIwwaFZTBesRvNmOdIQSRKdkoafwdQD9uV+7EsggdFiSvx8a1q5G+tw73h5zfEfo6iB3WskzEaP3gO1kNfYoF9e2uC8u24zDNDYCvKgzzUveh9pARGmUo4gob0QMZ3ZeKYDRooFIGQx+/GeZ1BoREpiC7pBG2NndtB7Nby5AZo4Wf72So9Smw1LdDHjImH8JalYvYQAlewQnIP9n8T/uhYroHN45mYZG/hAnaZFiqb6K5vhimKCXGT9QhdX8DbLIDLSUroVVNgTbBgouuyR/mPhus/+ouzPKeCsOKVGRs2YqMVYlIyq5CqwNu5+LT03U4/NFiTJUkqJfuxOHLHZBHHPPBhhs3yDYcN81FgK8KYfNSsa/2EIwaJULjCtHYA/cxamtz23aQ3gbkLQmCQqGGbnkhaqu3IWL6fKwxl6L23BH390vbKL9rxHvl387dI9w6kYOlARIkTQLyK5rcj33feWRFhWH2YiO2m3djR1oaCs7ec431QHYryjJjoPXzxWS1HimWetcGeQDov43KncsQoVuA5PUbsXZ1OvbW3YcM4KG1ErmxakheoXjvsyr81HoNx/YsQ5DkhdDEAnx3/VdcLs/BO2oJXiGJKDjVgr7+q9g1yxtTDSuQmrEFWzNWITEpG1WtDsidP44+xobtpwMtRbF4NSAOX/3iGNBhIvo/Gwe4q8wjjyBbRZ5BL75dUieufvLWyHXvRC8Qx7UcoY+sEPEXrog9OkY/jTHHNZGjjxQV8RfElT06/v8S0ZhjGQwRPR+GKhsjGjMMQCL6bzBZfx44OkTHA4d42NM7+s18RM85R1eX6JUfiM7ugU+iJBoDji7R1SuLB53dIz/VmIjoGZDMZrN54JvkQWSbOF92WvzmP1u87tst2sZNExHBjw9AJnqx9bXUiINn2sW0OTPEpK47AoEzRahqqPM3iJ6BvhZRc/CMaJ82R8yY1CXuIFDMDFUNeQIMEdGzwpp1IiIiIiIPxTIYIiIiIiIPxWSdiIiIiMhDMVknIiIiIvJQTNaJiIiIiDwUk3UiIiIiIg/FZJ2IiIiIyEMxWSciIiIi8lB/A2QF3BsmroaSAAAAAElFTkSuQmCC;" vertex="1" parent="1">
          <mxGeometry x="510" y="80" width="747" height="469" as="geometry" />
        </mxCell>
        <mxCell id="lrteBeRmHfQanQSLyGNW-2" value="Equipo" style="whiteSpace=wrap;html=1;align=center;fillColor=#f0a30a;strokeColor=#BD7000;fontColor=#000000;" vertex="1" parent="1">
          <mxGeometry x="460" y="720" width="100" height="40" as="geometry" />
        </mxCell>
        <mxCell id="lrteBeRmHfQanQSLyGNW-3" value="Componentes" style="whiteSpace=wrap;html=1;align=center;fillColor=#f0a30a;strokeColor=#BD7000;fontColor=#000000;" vertex="1" parent="1">
          <mxGeometry x="680" y="720" width="100" height="40" as="geometry" />
        </mxCell>
        <mxCell id="lrteBeRmHfQanQSLyGNW-4" value="Cliente" style="whiteSpace=wrap;html=1;align=center;fillColor=#f0a30a;strokeColor=#BD7000;fontColor=#000000;" vertex="1" parent="1">
          <mxGeometry x="910" y="720" width="100" height="40" as="geometry" />
        </mxCell>
      </root>
    </mxGraphModel>
  </diagram>
</mxfile>
